<?xml version="1.0" standalone="no"?>
<!DOCTYPE svg PUBLIC "-//W3C//DTD SVG 1.1//EN" "http://www.w3.org/Graphics/SVG/1.1/DTD/svg11.dtd" >
<svg xmlns="http://www.w3.org/2000/svg" xmlns:xlink="http://www.w3.org/1999/xlink" version="1.1">
<metadata></metadata>
<defs>
<font id="museo_cyrl700_italic" horiz-adv-x="1634" >
<font-face units-per-em="2048" ascent="1536" descent="-512" />
<missing-glyph horiz-adv-x="542" />
<glyph horiz-adv-x="0" />
<glyph horiz-adv-x="682" />
<glyph unicode=" "  horiz-adv-x="542" />
<glyph unicode="&#x09;" horiz-adv-x="542" />
<glyph unicode="&#xa0;" horiz-adv-x="542" />
<glyph unicode="!" horiz-adv-x="585" d="M49 0l47 242h252l-47 -242h-252zM143 420l181 1034h268l-223 -1034h-226z" />
<glyph unicode="&#x22;" horiz-adv-x="768" d="M207 1053l82 428h194l-84 -428h-192zM535 1053l83 428h193l-84 -428h-192z" />
<glyph unicode="#" horiz-adv-x="1460" d="M37 383l65 186h244l109 287h-242l68 188h241l152 410h209l-152 -410h279l151 410h209l-151 -410h247l-69 -188h-246l-107 -287h244l-67 -186h-244l-141 -383h-209l141 383h-281l-141 -383h-209l142 383h-242zM555 569h281l106 287h-280z" />
<glyph unicode="$" horiz-adv-x="1200" d="M27 197l166 182q5 -7 14 -17.5t41 -38.5t68 -49.5t93.5 -39t118.5 -17.5q115 0 184.5 55t69.5 138q0 49 -31.5 89t-82 68.5t-111.5 57t-121.5 64t-111 79t-82 112t-31.5 154.5q0 187 136.5 308t340.5 135l37 184h182l-39 -197q125 -24 208 -82t83 -147q0 -41 -8 -72 l-21 -106h-237l8 41q6 18 6 41q0 47 -49.5 71.5t-126.5 24.5q-117 0 -183.5 -52.5t-66.5 -129.5q0 -47 31.5 -84.5t82.5 -64.5t112 -53.5t122 -61t112 -78t82.5 -113t31.5 -158.5q0 -186 -130 -316t-345 -147l-35 -184h-183l37 195q-71 12 -135 38t-105.5 54.5t-72.5 55 t-45 44.5z" />
<glyph unicode="%" horiz-adv-x="1658" d="M41 0l1372 1454h252l-1374 -1454h-250zM186 1120q0 89 53.5 172.5t142 135t183.5 51.5q134 0 217.5 -82.5t83.5 -208.5q0 -139 -117.5 -248t-261.5 -109q-134 0 -217.5 80.5t-83.5 208.5zM387 1128q0 -47 33 -77.5t86 -30.5q63 0 111.5 47.5t48.5 112.5q0 48 -32 79 t-85 31q-62 0 -112 -49t-50 -113zM838 262q0 138 116.5 248.5t262.5 110.5q134 0 217.5 -82.5t83.5 -208.5q0 -139 -117.5 -247t-261.5 -108q-134 0 -217.5 80t-83.5 207zM1038 272q0 -48 32.5 -78t86.5 -30q63 0 111.5 47.5t48.5 112.5q0 47 -32.5 78.5t-86.5 31.5 q-60 0 -110 -50t-50 -112z" />
<glyph unicode="&#x26;" horiz-adv-x="1351" d="M39 373q0 132 94 249t238 156v4q-6 2 -15 7t-33 25t-42 45t-33 69.5t-15 97.5q0 109 45 197t120 143t166.5 84t189.5 29q49 0 99.5 -8.5t76.5 -16.5l26 -8l-98 -201q-47 10 -98 10q-105 0 -183.5 -63.5t-78.5 -173.5q0 -68 42.5 -112t143.5 -44h234l36 197h260l-38 -197 h188l-43 -213h-188l-33 -180q-45 -246 -195.5 -370t-384.5 -124q-224 0 -352.5 110.5t-128.5 287.5zM315 395q0 -84 57 -135t156 -51q126 0 208 70t108 204l30 166h-245q-58 0 -112.5 -15.5t-100.5 -45t-73.5 -80t-27.5 -113.5z" />
<glyph unicode="'" horiz-adv-x="444" d="M207 1053l82 428h198l-84 -428h-196z" />
<glyph unicode="(" horiz-adv-x="600" d="M66 360q0 665 428 1158h227q-428 -532 -428 -1164q0 -286 94 -549h-211q-110 262 -110 555z" />
<glyph unicode=")" horiz-adv-x="600" d="M-100 -195q428 535 428 1164q0 284 -95 549h211q113 -266 113 -555q0 -663 -430 -1158h-227z" />
<glyph unicode="*" horiz-adv-x="1005" d="M172 1069l113 217l227 -100l33 268h235l-71 -268l270 100l31 -223l-281 -70l-2 -4l131 -198l-201 -136l-102 228h-4l-184 -226l-170 140l213 209v4z" />
<glyph unicode="+" horiz-adv-x="1200" d="M27 483l39 203h442l96 485h211l-94 -485h440l-37 -203h-442l-94 -483h-211l94 483h-444z" />
<glyph unicode="," horiz-adv-x="546" d="M-113 -215l230 479h248l-289 -479h-189z" />
<glyph unicode="-" horiz-adv-x="849" d="M90 471l43 227h617l-45 -227h-615z" />
<glyph unicode="." horiz-adv-x="489" d="M6 0l49 260h250l-49 -260h-250z" />
<glyph unicode="/" horiz-adv-x="921" d="M-51 -86l831 1614h240l-836 -1614h-235z" />
<glyph unicode="0" horiz-adv-x="1253" d="M92 467q0 83 10.5 173t34 189.5t59 191.5t89.5 176t120.5 146t156.5 99t194 37q450 0 450 -490q0 -98 -15 -204.5t-45.5 -223t-84 -219.5t-124.5 -186t-173 -132t-223 -49q-449 0 -449 492zM365 475q0 -264 182 -264q78 0 144.5 54.5t109.5 138.5t73.5 188.5t44 201.5 t13.5 181q0 129 -43 198.5t-141 69.5q-76 0 -141.5 -53t-108.5 -136.5t-74 -187t-45 -203.5t-14 -188z" />
<glyph unicode="1" horiz-adv-x="1005" d="M-20 0l40 227h314l158 807l22 99h-4q-25 -35 -82 -82l-137 -111l-123 164l432 350h242l-240 -1227h313l-45 -227h-890z" />
<glyph unicode="2" horiz-adv-x="1196" d="M-14 139q0 88 30.5 165t82 134.5t118 108.5t140 92.5t147 80t140 78t118 80t82 91.5t30.5 108q0 76 -47.5 116t-134.5 40q-84 0 -140.5 -33t-68.5 -90l-10 -55h-244l25 125q19 97 93.5 166.5t173 101t208.5 31.5q188 0 306 -97t118 -274q0 -92 -36.5 -174t-96.5 -142 t-137 -116t-157 -97.5t-157 -83.5t-137 -77t-96.5 -76t-36.5 -82q0 -20 10.5 -26.5t40.5 -6.5h412q44 0 53 45l19 88h241l-43 -221q-13 -73 -53 -106t-113 -33h-755q-71 0 -98 34t-27 105z" />
<glyph unicode="3" horiz-adv-x="1159" d="M-10 166l147 182q5 -6 14.5 -15t41.5 -32.5t66.5 -41.5t86.5 -33t105 -15q131 0 223 79t92 193q0 88 -67.5 138.5t-176.5 50.5l-84 -6l-35 129l355 360q17 19 38 37.5t34 27.5l12 9v4q-49 -6 -82 -6h-250q-44 0 -53 -45l-19 -88h-235l43 221q14 73 51.5 106t108.5 33h790 l-37 -186l-420 -424q55 -12 104.5 -35t97 -62t75.5 -101t28 -140q0 -80 -27 -157.5t-79.5 -144.5t-123.5 -118.5t-165.5 -81t-199.5 -29.5q-84 0 -162 19.5t-129.5 48t-91 56.5t-58.5 47z" />
<glyph unicode="4" horiz-adv-x="1228" d="M-6 367l31 170l778 917h317l-166 -860h222l-43 -227h-224l-71 -367h-260l69 367h-653zM330 594h364l82 422q5 26 15 63.5t17 61.5l7 24h-4q-57 -84 -92 -125l-389 -442v-4z" />
<glyph unicode="5" horiz-adv-x="1146" d="M-8 166l149 174l14 -14t39 -31t62.5 -39t83 -31t102.5 -14q134 0 235 84.5t101 208.5q0 99 -68.5 154t-183.5 55q-60 0 -120.5 -15.5t-90.5 -31.5l-30 -15l-144 60l174 610q21 71 57 102t107 31h522q76 0 103.5 -35.5t13.5 -109.5l-41 -215h-235l16 88q5 20 -4 32.5 t-33 12.5h-243q-45 0 -54 -45l-59 -207l-27 -80h4q72 31 170 31q190 0 315.5 -114.5t125.5 -297.5q0 -149 -84 -273.5t-225.5 -195t-305.5 -70.5q-85 0 -162 19.5t-126.5 48t-87 56.5t-54.5 47z" />
<glyph unicode="6" horiz-adv-x="1210" d="M80 512q0 85 18 177.5t54.5 186t88 182t122.5 165t153 133.5t184.5 90t212.5 33q84 0 160 -16.5t110 -32.5l34 -17l-103 -213q-88 43 -207 43q-86 0 -164 -33t-137 -90t-103 -126t-73 -148h4q44 48 123 75t160 27q189 0 297 -115t108 -290q0 -105 -39.5 -206.5t-109 -182 t-176 -130t-230.5 -49.5q-216 0 -351.5 143t-135.5 394zM348 496q0 -114 66.5 -199.5t169.5 -85.5q116 0 192 93.5t76 221.5q0 93 -56 150t-169 57q-115 0 -197 -67.5t-82 -169.5z" />
<glyph unicode="7" horiz-adv-x="1110" d="M49 0l774 1120q24 36 46 62.5t32 35.5l10 9v4q-25 -4 -84 -4h-360q-46 0 -55 -45l-17 -88h-241l43 221q14 73 51 106t108 33h899l-34 -184l-885 -1270h-287z" />
<glyph unicode="8" horiz-adv-x="1212" d="M39 362q0 63 22.5 123.5t53 104.5t77.5 88t81.5 69t78.5 54q-125 100 -125 243q0 80 35.5 157t99 139.5t164 100.5t219.5 38q198 0 318.5 -94.5t120.5 -251.5q0 -201 -243 -416q-5 -4 -7 -6q153 -104 153 -269q0 -90 -42.5 -174.5t-116.5 -149t-182.5 -104t-233.5 -39.5 q-215 0 -344 108.5t-129 278.5zM311 397q0 -89 60 -140.5t159 -51.5q70 0 134 26t107.5 79.5t43.5 123.5q0 33 -14 61.5t-33 48.5t-53.5 42t-61.5 35.5t-71.5 35.5t-69.5 35q-27 -20 -42.5 -32t-50 -44.5t-54.5 -61.5t-37 -71.5t-17 -85.5zM487 1049q0 -23 7 -43.5t16 -36.5 t29 -33.5t33.5 -28.5t43.5 -27.5t44.5 -24t50.5 -25t49 -23.5q16 13 37.5 37t51.5 63.5t50.5 91t20.5 99.5q0 70 -49.5 110.5t-135.5 40.5q-106 0 -177 -57t-71 -143z" />
<glyph unicode="9" horiz-adv-x="1208" d="M45 41l100 213q88 -43 201 -43q87 0 165 33t137.5 89.5t103.5 126.5t73 150h-4q-47 -47 -125 -74.5t-159 -27.5q-188 0 -296 115t-108 286q0 105 39 206.5t108.5 183t175.5 131t230 49.5q216 0 353 -144t137 -395q0 -99 -25.5 -207.5t-73 -216.5t-121 -205.5 t-163.5 -172.5t-207.5 -119t-245.5 -44q-82 0 -155.5 16.5t-106.5 32.5zM401 928q0 -90 56.5 -146.5t169.5 -56.5q115 0 197.5 66.5t82.5 166.5q0 115 -66.5 200t-168.5 85q-116 0 -193.5 -93.5t-77.5 -221.5z" />
<glyph unicode=":" horiz-adv-x="483" d="M-2 0l49 260h252l-51 -260h-250zM152 784l49 260h252l-52 -260h-249z" />
<glyph unicode=";" horiz-adv-x="571" d="M-84 -215l203 479h248l-263 -479h-188zM225 784l49 260h252l-51 -260h-250z" />
<glyph unicode="&#x3c;" horiz-adv-x="1200" d="M61 502v168l986 438v-227l-711 -293v-4l711 -293v-228z" />
<glyph unicode="=" horiz-adv-x="1200" d="M90 274v201h1000v-201h-1000zM90 694v201h1000v-201h-1000z" />
<glyph unicode="&#x3e;" horiz-adv-x="1200" d="M141 63v228l711 293v4l-711 293v227l985 -438v-168z" />
<glyph unicode="?" horiz-adv-x="1005" d="M188 0l50 244h251l-49 -244h-252zM215 1352q7 5 20 14t54.5 31.5t84.5 40t107 31.5t125 14q172 0 288 -93t116 -251q0 -74 -24 -138t-62.5 -110.5t-86 -88t-96.5 -77t-91 -69.5t-73 -74t-40 -82l-17 -80h-252l19 98q12 64 43.5 120t72 96t86.5 77t89 69.5t78.5 65.5 t57 72.5t21.5 83.5q0 62 -46.5 101.5t-121.5 39.5q-56 0 -114.5 -21.5t-89.5 -43.5l-31 -21z" />
<glyph unicode="@" horiz-adv-x="1660" d="M66 377q0 173 74 334.5t198.5 281t298 191t362.5 71.5q239 0 359.5 -103.5t120.5 -270.5q0 -45 -11 -109l-92 -475h148l-35 -186h-541q-187 0 -293 95.5t-106 237.5q0 81 35.5 156t100.5 134.5t167 95.5t225 36h164q4 17 4 29q0 65 -77.5 108.5t-194.5 43.5 q-105 0 -204.5 -37.5t-178.5 -103t-139 -150t-92.5 -183t-32.5 -196.5q0 -193 121 -315.5t337 -122.5l-39 -199q-198 0 -352.5 79t-240.5 224t-86 334zM811 457q0 -71 44 -115.5t120 -44.5h155l78 401h-151q-102 0 -174 -73t-72 -168z" />
<glyph unicode="A" horiz-adv-x="1384" d="M-88 0l45 227h37q25 0 38.5 9t26.5 36l662 1182h280l203 -1184q5 -26 13.5 -34.5t33.5 -8.5h39l-45 -227h-160q-72 0 -101 25t-40 94l-41 254h-489l-142 -254q-38 -69 -74 -94t-104 -25h-182zM516 594h369l-56 364q-4 36 -7.5 90.5t-5.5 91.5l-1 36h-4 q-57 -138 -100 -218z" />
<glyph unicode="B" horiz-adv-x="1271" d="M100 100q0 19 11 76l204 1051h-133l43 227h613q182 0 289.5 -84.5t107.5 -236.5q0 -127 -73 -226.5t-175 -140.5v-4q86 -36 134 -113t48 -184q0 -161 -101 -277t-247 -161q-85 -27 -190 -27h-402q-129 0 -129 100zM397 258q0 -31 37 -31h215q53 0 99 21q67 28 107 90.5 t40 138.5q0 82 -47 126t-133 44h-244l-68 -342q-6 -27 -6 -47zM512 860h238q92 0 153.5 64.5t61.5 154.5q0 69 -41 108.5t-123 39.5h-217z" />
<glyph unicode="C" horiz-adv-x="1429" d="M78 612q0 167 67 325.5t181 277.5t275.5 191.5t340.5 72.5q84 0 169.5 -17t164 -50t127.5 -92t49 -134q0 -17 -14 -103l-19 -92h-241l16 76q2 12 2 23q0 32 -18 56q-24 34 -69 50.5t-90 24.5t-87 8q-112 0 -217.5 -46t-185 -124.5t-127.5 -191t-48 -238.5 q0 -182 108.5 -293t289.5 -111q123 0 241 44.5t207 123.5l115 -209q-106 -97 -266 -153t-326 -56q-181 0 -327 78t-232 224.5t-86 334.5z" />
<glyph unicode="D" horiz-adv-x="1470" d="M100 100q0 19 11 76l204 1051h-133l43 227h568q304 0 473.5 -152.5t169.5 -441.5q0 -180 -67 -339.5t-182.5 -273.5t-278.5 -180.5t-347 -66.5h-332q-129 0 -129 100zM397 258q0 -31 37 -31h131q170 0 306 81.5t211 221.5t75 312q0 193 -101.5 289t-295.5 96h-176 l-181 -922q-6 -27 -6 -47z" />
<glyph unicode="E" horiz-adv-x="1193" d="M100 100q0 19 11 76l204 1051h-133l43 227h860q134 0 134 -102q0 -12 -9 -68l-36 -190h-244l12 53q6 35 6 47q0 33 -43 33h-321l-74 -381h471l-45 -228h-471l-62 -313q-6 -27 -6 -47q0 -31 37 -31h336q44 0 53 45l19 88h241l-45 -229q-12 -70 -49 -100.5t-106 -30.5h-654 q-129 0 -129 100z" />
<glyph unicode="F" horiz-adv-x="1077" d="M74 0l239 1227h-133l45 227h811q133 0 133 -102q0 -18 -8 -68l-39 -190h-241l10 53q8 46 8 47q0 33 -43 33h-274l-80 -412h465l-45 -227h-463l-117 -588h-268z" />
<glyph unicode="G" horiz-adv-x="1507" d="M76 598q0 169 66.5 329t181 282t280.5 196t352 74q95 0 181 -19t141 -46t97 -54.5t61 -46.5l18 -19l-154 -192q-5 5 -15 14t-44 31t-71.5 39t-96.5 31t-121 14q-160 0 -298 -82t-219 -222.5t-81 -303.5q0 -190 109.5 -296t284.5 -106q66 0 131 16.5t111 40t82.5 47 t54.5 39.5l18 17l18 92q1 5 2.5 14t2.5 16t1 11q0 31 -39 31h-94l41 213h230q133 0 133 -101q0 -17 -8 -67l-115 -590h-232l17 78l14 57h-4q-57 -60 -176 -110t-264 -50q-260 0 -428 171.5t-168 451.5z" />
<glyph unicode="H" horiz-adv-x="1566" d="M76 0l223 1145q8 46 8 49q0 33 -43 33h-82l43 227h246q131 0 131 -102q0 -35 -8 -68l-88 -446h641l96 481q15 74 51 104.5t105 30.5h272l-45 -227h-92q-40 0 -49 -45l-232 -1182h-268l119 610h-641l-119 -610h-268z" />
<glyph unicode="I" horiz-adv-x="716" d="M-33 0l45 227h144l194 1000h-145l45 227h545l-43 -227h-146l-194 -1000h145l-45 -227h-545z" />
<glyph unicode="J" horiz-adv-x="1077" d="M-20 334q0 43 10 108l12 72h268l-10 -59q-8 -58 -8 -76q0 -81 43 -117.5t111 -36.5q82 0 145.5 53t85.5 164l137 707q6 30 6 43q0 35 -43 35h-346l45 227h508q133 0 133 -102q0 -16 -8 -66l-170 -880q-22 -114 -74 -199.5t-121.5 -134.5t-146.5 -73t-160 -24 q-114 0 -207 40t-151.5 123.5t-58.5 195.5z" />
<glyph unicode="K" horiz-adv-x="1304" d="M76 0l223 1145q8 46 8 47q0 35 -43 35h-82l43 227h246q131 0 131 -102q0 -35 -8 -68l-82 -422h102q46 0 71 10.5t44 36.5l397 545h310l-445 -598q-25 -35 -52 -62t-41 -36l-15 -10v-5q37 -30 57 -98l115 -369q14 -49 75 -49h66l-45 -227h-162q-73 0 -111.5 24t-58.5 85 l-145 477q-7 28 -32 38.5t-71 10.5h-104l-123 -635h-268z" />
<glyph unicode="L" horiz-adv-x="1126" d="M100 100q0 19 11 76l188 969q8 46 8 49q0 33 -43 33h-82l43 227h246q131 0 131 -102q0 -35 -8 -68l-191 -979q-6 -27 -6 -47q0 -31 37 -31h318q44 0 53 45l18 88h242l-45 -229q-12 -69 -49.5 -100t-106.5 -31h-635q-129 0 -129 100z" />
<glyph unicode="M" horiz-adv-x="1798" d="M-72 0l43 227h62q23 0 35 10.5t18 34.5l326 1182h272l160 -696l35 -195h4q53 103 108 195l432 696h289l-129 -1147q-4 -36 -4 -49q0 -31 35 -31h63l-45 -227h-213q-69 0 -100 24.5t-31 79.5q0 14 6 62l74 620q5 42 15.5 98.5t18.5 91.5l7 36h-4q-72 -148 -123 -226 l-346 -536h-217l-137 536q-8 36 -17 93t-13 96l-5 39h-4q-22 -136 -47 -228l-177 -657q-19 -69 -53 -99t-100 -30h-238z" />
<glyph unicode="N" horiz-adv-x="1558" d="M-57 0l45 227h86q44 0 53 45l231 1182h236l395 -817q18 -37 38.5 -88.5t32.5 -84.5l11 -32h4q11 119 27 205l133 682q15 74 51 104.5t105 30.5h272l-45 -227h-92q-40 0 -49 -45l-230 -1182h-233l-402 815q-17 37 -36.5 88.5t-29.5 84.5l-11 32h-5q-12 -119 -28 -205 l-133 -686q-13 -67 -50.5 -98t-105.5 -31h-270z" />
<glyph unicode="O" d="M76 614q0 115 33 226t92 206t142 175.5t180 137t210 88.5t228 32q286 0 465.5 -176.5t179.5 -452.5q0 -138 -47 -271t-131.5 -241t-194.5 -190t-243.5 -127.5t-270.5 -45.5q-188 0 -335 82t-227.5 227.5t-80.5 329.5zM354 629q0 -179 108 -291.5t279 -112.5 q108 0 214.5 49t188 130.5t132.5 195t51 234.5q0 177 -108.5 286t-278.5 109q-109 0 -215.5 -47.5t-188 -127.5t-132 -192t-50.5 -233z" />
<glyph unicode="P" horiz-adv-x="1230" d="M74 0l239 1227h-133l45 227h645q180 0 291 -107t111 -290q0 -162 -86.5 -295.5t-214.5 -198.5q-122 -61 -250 -61h-281l-98 -502h-268zM485 731h215q124 0 210.5 85t86.5 216q0 96 -51.5 145.5t-144.5 49.5h-219z" />
<glyph unicode="Q" d="M76 614q0 137 46.5 268.5t130 238t193 188t242 126t270.5 44.5q190 0 338 -80.5t229 -223.5t81 -325q0 -165 -66.5 -317.5t-183.5 -272.5l121 -139l-181 -168l-129 158q-215 -136 -446 -136q-141 0 -261.5 48t-204.5 132t-131.5 202.5t-47.5 256.5zM354 629 q0 -179 108 -291.5t279 -112.5q139 0 263 76l-152 180l178 164l156 -190q141 167 141 379q0 177 -108.5 286t-278.5 109q-109 0 -215.5 -47.5t-188 -127.5t-132 -192t-50.5 -233z" />
<glyph unicode="R" horiz-adv-x="1296" d="M74 0l239 1227h-133l45 227h635q176 0 284.5 -95.5t108.5 -266.5q0 -96 -32.5 -180t-84 -139t-107 -90.5t-109.5 -47.5v-4q31 -27 49 -76l86 -272q17 -56 73 -56h62l-45 -227h-135q-77 0 -115 24.5t-61 92.5l-119 358q-13 42 -36 55t-79 13h-151l-107 -543h-268zM494 772 h213q112 0 192 79.5t80 199.5q0 176 -180 176h-217z" />
<glyph unicode="S" horiz-adv-x="1114" d="M-16 197l166 182q5 -7 14 -17.5t41 -38.5t68 -49.5t93.5 -39t118.5 -17.5q115 0 183.5 54.5t68.5 138.5q0 49 -31.5 88.5t-82 68.5t-111 57t-121.5 63.5t-111.5 79.5t-82 112.5t-31.5 154.5q0 132 73 235t193 156.5t264 53.5q75 0 147.5 -15.5t134.5 -44.5t100 -77 t38 -107q0 -26 -8 -72l-23 -106h-235l8 41q6 36 6 41q0 47 -49.5 71.5t-126.5 24.5q-117 0 -183.5 -52.5t-66.5 -129.5q0 -47 31.5 -84.5t82 -64.5t111.5 -53.5t122 -61t111.5 -78t82 -113t31.5 -158.5q0 -199 -145.5 -332t-383.5 -133q-69 0 -133.5 12t-112.5 32 t-90.5 43.5t-71 47t-49.5 43.5t-30 32z" />
<glyph unicode="T" horiz-adv-x="1318" d="M117 1094l45 233q14 71 45.5 99t101.5 28h1004q69 0 97 -26t28 -76q0 -35 -8 -68l-37 -190h-236l10 53q9 45 9 47q0 33 -43 33h-218l-239 -1227h-268l239 1227h-223q-44 0 -53 -45l-19 -88h-235z" />
<glyph unicode="U" horiz-adv-x="1486" d="M143 422q0 52 13 119l118 604q2 9 4 19.5t3.5 17t1.5 10.5q0 35 -43 35h-82l43 227h245q134 0 134 -102q0 -22 -11 -68l-147 -758q-8 -36 -8 -75q0 -108 67 -167t185 -59q139 0 237 80t125 223l156 791q13 74 49 104.5t106 30.5h271l-43 -227h-92q-41 0 -50 -45 l-135 -686q-45 -234 -217 -377.5t-424 -143.5q-235 0 -370.5 123t-135.5 324z" />
<glyph unicode="V" horiz-adv-x="1404" d="M141 1227l43 227h183q67 0 95.5 -26t39.5 -93l121 -811q4 -35 7 -88t4 -89l1 -36h4q51 127 98 213l437 811q37 70 75 94.5t109 24.5h182l-45 -227h-41q-25 0 -40 -9.5t-28 -35.5l-665 -1182h-283l-205 1182q-4 26 -15.5 35.5t-35.5 9.5h-41z" />
<glyph unicode="W" horiz-adv-x="2031" d="M150 1227l43 227h182q74 0 109 -26t38 -93l31 -866q1 -24 1 -46v-31q-2 -34 -4 -56l-3 -21h4q22 70 61 154l457 981h225l60 -981q2 -34 2 -63v-14q0 -34 -2 -56l-2 -21h4q20 72 55 154l369 866q29 67 74.5 93t113.5 26h191l-45 -227h-46q-46 0 -67 -45l-533 -1182h-309 l-61 823q-3 41 -3 86t1 70l2 25h-4q-29 -87 -74 -181l-395 -823h-310l-71 1178q-3 49 -49 49h-45z" />
<glyph unicode="X" horiz-adv-x="1265" d="M-96 0l596 745l-191 431q-12 29 -31.5 40t-54.5 11h-53l45 227h145q73 0 113.5 -22.5t65.5 -83.5l98 -236q14 -35 28.5 -78.5t22.5 -69.5l8 -26h4q55 90 121 174l185 236q44 59 85.5 82.5t108.5 23.5h184l-43 -227h-59q-31 0 -52.5 -10.5t-43.5 -38.5l-367 -449l316 -729 h-291l-158 375q-14 32 -29 73.5t-23 67.5l-9 25h-4q-53 -84 -119 -166l-293 -375h-305z" />
<glyph unicode="Y" horiz-adv-x="1265" d="M139 1227l45 227h119q69 0 104.5 -21t63.5 -85l139 -320q15 -33 29.5 -74t21.5 -66l7 -24h4q57 90 114 164l250 320q47 62 91 84t106 22h170l-45 -227h-51q-50 0 -86 -45l-453 -547l-123 -635h-268l123 635l-238 543q-20 49 -74 49h-49z" />
<glyph unicode="Z" horiz-adv-x="1257" d="M-47 0l33 170l811 926q28 32 62 64.5t55 49.5l20 17v4q-43 -4 -111 -4h-334q-44 0 -53 -45l-18 -88h-242l43 221q14 72 53.5 105.5t112.5 33.5h944l-33 -168l-819 -928q-30 -33 -64.5 -65.5t-53.5 -48.5l-19 -17v-4q43 4 111 4h380q47 0 56 45l16 88h244l-43 -221 q-13 -73 -53 -106t-113 -33h-985z" />
<glyph unicode="[" horiz-adv-x="626" d="M20 -55l277 1433q15 74 55 107t113 33h264l-37 -189h-137q-44 0 -53 -45l-242 -1245q-9 -45 37 -45h137l-39 -189h-264q-73 0 -99.5 33t-11.5 107z" />
<glyph unicode="\" horiz-adv-x="870" d="M246 1528h213l209 -1614h-213z" />
<glyph unicode="]" horiz-adv-x="628" d="M-80 -195l35 189h137q44 0 53 45l242 1245q9 45 -37 45h-137l39 189h264q73 0 99.5 -33t11.5 -107l-277 -1433q-15 -74 -55 -107t-113 -33h-262z" />
<glyph unicode="^" horiz-adv-x="1267" d="M14 502l412 952h164l411 -952h-225l-268 678l-268 -678h-226z" />
<glyph unicode="_" horiz-adv-x="1179" d="M-121 -201l37 201h1147l-37 -201h-1147z" />
<glyph unicode="`" horiz-adv-x="817" d="M182 1829h238l108 -279h-182z" />
<glyph unicode="a" horiz-adv-x="1114" d="M-14 252q0 106 57.5 186t157 126t219.5 68.5t258 22.5h37l4 21q6 30 6 63q0 62 -40.5 95.5t-119.5 33.5q-57 0 -103.5 -16.5t-51.5 -52.5l-11 -56h-243l22 111q11 59 52 102.5t102 67t127 34.5t139 11q196 0 291.5 -78.5t95.5 -224.5q0 -45 -14 -117l-68 -356 q-8 -32 -8 -43q0 -14 10.5 -22.5t28.5 -8.5h82l-43 -219h-221q-58 0 -86.5 24t-28.5 62q0 28 18 98h-4q-5 -8 -14.5 -22.5t-43 -50.5t-72 -63.5t-101.5 -50t-131 -22.5q-131 0 -217 73.5t-86 203.5zM246 291q0 -57 35 -90t92 -33q102 0 193 93.5t110 189.5l6 26h-43 q-71 0 -135.5 -9t-125 -28.5t-96.5 -58t-36 -90.5z" />
<glyph unicode="b" horiz-adv-x="1224" d="M8 0l223 1157q0 2 3.5 19.5t3.5 25.5q0 31 -37 31h-82l43 221h239q125 0 125 -98q0 -16 -8 -62l-55 -282q-4 -23 -10.5 -46.5t-10.5 -35.5l-4 -12h4q55 68 141 109.5t177 41.5q186 0 290.5 -118.5t104.5 -321.5q0 -141 -48.5 -265t-128 -208t-182.5 -132.5t-210 -48.5 q-102 0 -184.5 43t-122.5 129h-5q-2 -34 -10 -73l-12 -74h-244zM350 426q0 -102 51.5 -166.5t153.5 -64.5q59 0 118.5 28.5t108 80t79 132t30.5 174.5q0 109 -55.5 172.5t-151.5 63.5q-131 0 -232.5 -124t-101.5 -296z" />
<glyph unicode="c" horiz-adv-x="1095" d="M37 446q0 122 48.5 235.5t131.5 199t202.5 137t252.5 51.5q51 0 103.5 -7t109.5 -26t99 -47q41 -27 63 -75q14 -31 14 -67q0 -19 -4 -40l-19 -96h-225l6 32q2 8 2 16q-1 39 -43 63q-50 28 -123 28q-97 0 -179 -53.5t-128.5 -140.5t-46.5 -185q0 -117 68.5 -193.5 t205.5 -76.5q55 0 108 12.5t90 30.5t66 35.5t43 30.5l15 12l70 -201q-6 -6 -17 -16t-50.5 -35t-84.5 -44t-118 -35t-152 -16q-122 0 -219.5 36.5t-160 101t-95.5 149.5t-33 184z" />
<glyph unicode="d" horiz-adv-x="1271" d="M39 414q0 142 48 266t127 208t182.5 132.5t213.5 48.5q63 0 119.5 -16.5t103.5 -53t70 -88.5h4q2 33 8 64l35 182q6 27 6 45q0 31 -36 31h-80l43 221h239q123 0 123 -96q0 -24 -8 -64l-195 -999q-6 -24 -6 -45q0 -31 39 -31h82l-45 -219h-217q-58 0 -85.5 24t-27.5 62 q0 30 15 84h-4q-137 -195 -359 -195q-187 0 -291 118t-104 321zM301 436q0 -113 55 -177t148 -64q91 0 170 60t123.5 155t44.5 198q0 104 -51 171t-150 67q-62 0 -122.5 -29.5t-109 -81.5t-78.5 -130.5t-30 -168.5z" />
<glyph unicode="e" horiz-adv-x="1116" d="M37 424q0 175 78 323t218 235t310 87q203 0 309.5 -107.5t106.5 -287.5q0 -42 -8.5 -91.5t-17.5 -78.5l-9 -29h-719q-6 -24 -6 -53q0 -101 69 -164t191 -63q47 0 97.5 11.5t89.5 28.5t71 34t49 29l17 11l69 -196q-7 -6 -20.5 -15t-56.5 -33t-88.5 -42t-112 -33 t-131.5 -15q-237 0 -371.5 126.5t-134.5 322.5zM340 649h457q6 27 6 47q0 80 -45.5 126t-120.5 46q-99 0 -179.5 -59.5t-117.5 -159.5z" />
<glyph unicode="f" horiz-adv-x="686" d="M53 0l162 838h-129l41 206h129l4 31q15 83 46 149t73.5 106.5t87.5 68t96.5 40.5t90.5 18t79 5q31 0 60.5 -1.5t42.5 -2.5l14 -2l-43 -213q-12 4 -59 4q-34 0 -67 -8t-67.5 -26t-60 -55t-35.5 -89l-4 -25h225l-41 -206h-225l-162 -838h-258z" />
<glyph unicode="g" horiz-adv-x="1251" d="M-16 -338l112 203q12 -8 34 -19.5t93 -31t146 -19.5q293 0 350 271l26 102h-4q-117 -148 -295 -148q-192 0 -296.5 119t-104.5 310q0 88 23 176t70 168t112 141.5t155 98t193 36.5q73 0 133 -17t95.5 -43.5t56 -52t26.5 -47.5h4q-2 12 2 37q8 42 43 70t93 28h245 l-43 -221h-82q-44 0 -53 -41l-141 -729q-25 -127 -86.5 -223t-145 -151t-175.5 -82t-191 -27q-226 0 -395 92zM309 469q0 -106 53.5 -167.5t155.5 -61.5q74 0 135.5 39t99 100.5t58 132t20.5 139.5q0 197 -210 197q-96 0 -168.5 -55t-108 -140t-35.5 -184z" />
<glyph unicode="h" horiz-adv-x="1261" d="M6 0l225 1155q1 5 4 22.5t3 24.5q0 31 -37 31h-82l43 221h239q125 0 125 -98q0 -16 -8 -62l-67 -344l-23 -94h4q27 36 62.5 70t85.5 68t115.5 54.5t135.5 20.5q140 0 219.5 -74.5t79.5 -214.5q0 -58 -12 -125l-71 -372q-1 -4 -2.5 -11t-3 -12t-1.5 -8q0 -33 37 -33h82 l-43 -219h-242q-122 0 -122 100q0 21 6 45l92 473q8 36 8 80q0 133 -135 133q-87 0 -166.5 -53.5t-130 -133.5t-68.5 -167l-92 -477h-260z" />
<glyph unicode="i" horiz-adv-x="591" d="M72 100q0 17 6 47l117 601q6 30 6 45q0 30 -37 30h-82l43 221h240q63 0 92.5 -23.5t29.5 -74.5q0 -17 -8 -63l-117 -600q-4 -20 -4 -31q0 -33 37 -33h80l-41 -219h-239q-61 0 -92 26t-31 74zM297 1214l47 240h225l-47 -240h-225z" />
<glyph unicode="j" horiz-adv-x="544" d="M-283 -418l43 219q16 -4 43 -4q209 0 248 209l146 742q6 30 6 45q0 30 -37 30h-80l41 221h240q125 0 125 -96q0 -2 -9 -63l-178 -918q-14 -73 -42 -133.5t-62 -100t-77.5 -69.5t-83 -46.5t-84.5 -26t-77 -12.5t-65 -3zM299 1214l45 240h225l-45 -240h-225z" />
<glyph unicode="k" horiz-adv-x="1103" d="M6 0l225 1157q0 2 3.5 19.5t3.5 25.5q0 31 -37 31h-82l43 221h239q125 0 125 -98q0 -16 -8 -62l-121 -618h76q58 0 94 39l277 329h303l-342 -397q-21 -24 -46 -45t-39 -30l-15 -9v-4q26 -12 51 -80l84 -221q9 -23 27 -31t55 -8h71l-43 -219h-178q-65 0 -93 17.5t-50 72.5 l-117 322q-17 45 -82 45h-76l-88 -457h-260z" />
<glyph unicode="l" horiz-adv-x="550" d="M29 100q0 13 4 45l198 1012q7 35 7 45q0 31 -37 31h-82l43 221h239q63 0 93 -23.5t30 -74.5q0 -16 -8 -62l-197 -1011q-4 -20 -4 -31q0 -33 35 -33h84l-43 -219h-239q-123 0 -123 100z" />
<glyph unicode="m" horiz-adv-x="1925" d="M51 0l146 754q6 15 6 37q0 32 -39 32h-80l43 221h238q57 0 85.5 -26.5t28.5 -73.5q0 -20 -16 -92h4q26 36 59.5 69.5t82 69t112.5 57t133 21.5q109 0 176 -55t84 -160h4q61 84 168.5 149.5t233.5 65.5q130 0 201 -68.5t71 -199.5q0 -47 -14 -129l-74 -389q-4 -20 -4 -31 q0 -33 35 -33h82l-43 -219h-240q-123 0 -123 100q0 13 4 45l94 478q11 60 11 88q0 120 -115 120q-80 0 -152.5 -55t-119 -139t-64.5 -178l-90 -459h-260l123 623q10 55 10 88q0 120 -115 120q-83 0 -156 -57t-118.5 -140.5t-63.5 -176.5l-90 -457h-258z" />
<glyph unicode="n" horiz-adv-x="1306" d="M51 0l146 754q6 15 6 37q0 32 -39 32h-80l43 221h238q57 0 85.5 -26t28.5 -72q0 -36 -20 -106h4q26 38 61.5 73.5t86.5 73t119.5 60t143.5 22.5q141 0 221.5 -74.5t80.5 -214.5q0 -41 -15 -125l-71 -372q-5 -25 -5 -31q0 -33 37 -33h80l-41 -219h-241q-61 0 -92 26 t-31 74q0 21 6 45l92 473q8 54 8 80q0 133 -135 133q-87 0 -166.5 -53.5t-130 -133.5t-68.5 -167l-94 -477h-258z" />
<glyph unicode="o" horiz-adv-x="1267" d="M35 438q0 132 55.5 250.5t147 201t212.5 131t250 48.5q220 0 360 -128t140 -333q0 -134 -56 -253t-148 -201.5t-213 -130.5t-248 -48q-220 0 -360 127.5t-140 335.5zM299 451q0 -116 70.5 -185t185.5 -69q93 0 180 49.5t144 142t57 203.5q0 115 -70.5 185.5t-183.5 70.5 q-94 0 -182 -50.5t-144.5 -143.5t-56.5 -203z" />
<glyph unicode="p" horiz-adv-x="1269" d="M-29 -410l224 1149q6 35 6 54q0 17 -7.5 23.5t-27.5 6.5h-82l43 221h231q111 0 111 -77q0 -37 -16 -80h4q59 83 148.5 132.5t199.5 49.5q185 0 289 -118.5t104 -325.5q0 -111 -31.5 -213.5t-86.5 -180.5t-126.5 -136.5t-155 -89t-169.5 -30.5q-95 0 -173.5 39.5 t-121.5 114.5h-4q-5 -41 -15 -94l-86 -445h-258zM393 432q0 -104 51.5 -170.5t151.5 -66.5q61 0 120.5 29t108.5 80t79 129.5t30 170.5q0 115 -54 178.5t-151 63.5q-85 0 -162.5 -56t-125.5 -152t-48 -206z" />
<glyph unicode="q" horiz-adv-x="1269" d="M39 410q0 143 48 268t128 209.5t185 133t218 48.5q105 0 183 -40.5t117 -117.5h4q11 66 44.5 99.5t98.5 33.5h250l-43 -221h-82q-44 0 -53 -45l-232 -1188h-260l88 451q4 24 10.5 47t10.5 34l4 11h-4q-48 -64 -130 -111t-188 -47q-188 0 -292.5 117t-104.5 318zM301 430 q0 -109 56 -172t153 -63q86 0 163.5 57.5t124 154.5t46.5 205q0 102 -52 168t-153 66q-59 0 -118.5 -29t-109 -81t-80 -132t-30.5 -174z" />
<glyph unicode="r" horiz-adv-x="827" d="M51 0l150 778q1 6 1 12q0 33 -38 33h-80l43 221h238q61 0 89.5 -22.5t28.5 -69.5q0 -21 -11 -76.5t-23 -89.5h4q57 115 161.5 194t221.5 79q11 0 28.5 -2t20.5 -2l-51 -256q-2 0 -10 1t-22 2t-28 1q-82 0 -160 -45.5t-140.5 -140t-86.5 -220.5l-76 -397h-260z" />
<glyph unicode="s" horiz-adv-x="954" d="M-29 154l123 170q5 -6 14 -16t40 -35t64.5 -44t85.5 -35t105 -16q73 0 117.5 30t44.5 81q0 21 -9.5 39.5t-22.5 30.5t-37.5 25t-41.5 20t-48 18q-43 17 -71 29t-68 33.5t-65.5 44.5t-50.5 54.5t-37 71.5t-12 88q0 81 36.5 144.5t98 102.5t137 59t158.5 20q71 0 139 -14.5 t125.5 -42.5t87.5 -78q21 -35 20 -76q0 -17 -3 -35l-16 -80h-223l4 33q1 7 1 13q0 31 -32 53q-39 26 -109 26q-74 0 -117.5 -30t-43.5 -78q0 -13 3 -25t11 -23t14.5 -19t21.5 -17t23 -14.5t27.5 -14t27.5 -12t31 -12.5t29 -11q41 -16 67 -27.5t63 -31.5t60.5 -41.5t46 -50 t33.5 -66.5t11 -82q0 -151 -123.5 -244.5t-309.5 -93.5q-81 0 -155.5 18.5t-122.5 44.5t-84 52.5t-52 45.5z" />
<glyph unicode="t" horiz-adv-x="724" d="M74 838l41 206h141l55 285h254l-55 -285h238l-41 -206h-238l-80 -410q-6 -35 -6 -63q0 -146 168 -146l53 4l-45 -227q-33 -6 -80 -6q-36 0 -73 5.5t-80 17.5t-79.5 35.5t-67.5 56t-48.5 82t-17.5 110.5q0 40 10 98l86 443h-135z" />
<glyph unicode="u" horiz-adv-x="1294" d="M70 823l41 221h241q123 0 123 -102q0 -11 -4 -43l-94 -475q-8 -50 -8 -78q0 -133 129 -133q86 0 164.5 53t128.5 133t67 168l94 477h260l-147 -753q-4 -24 -4 -37q0 -35 37 -35h80l-43 -219h-238q-57 0 -86 26t-29 72q0 15 3 31.5t9.5 42.5t8.5 33h-4q-25 -38 -60.5 -74 t-86 -73t-119 -60t-142.5 -23q-137 0 -215 74t-78 213q0 51 13 127l71 373q4 20 4 31q0 30 -34 30h-82z" />
<glyph unicode="v" horiz-adv-x="1128" d="M70 823l43 221h139q112 0 131 -108l90 -539q4 -26 6.5 -63.5t2.5 -61.5l1 -24h4q33 92 64 149l303 549q31 55 66.5 76.5t97.5 21.5h164l-43 -221h-27q-41 0 -63 -37l-451 -786h-309l-146 782q-8 41 -47 41h-26z" />
<glyph unicode="w" horiz-adv-x="1730" d="M70 823l45 221h172q112 0 121 -112l41 -574q2 -24 2 -51.5t-1 -42.5l-1 -16h4q18 55 45 110l325 682h230l61 -682l2 -110h4q16 55 41 110l266 580q28 61 61 83.5t97 22.5h195l-43 -221h-29q-25 0 -39 -7.5t-27 -29.5l-401 -786h-293l-63 596l-4 113h-4q-21 -58 -48 -113 l-290 -596h-293l-96 786q-3 21 -14 29t-34 8h-32z" />
<glyph unicode="x" horiz-adv-x="1075" d="M-80 0l453 539l-131 247q-11 22 -27.5 29.5t-46.5 7.5h-76l43 221h168q60 0 91.5 -23t58.5 -81l77 -166l23 -65h4q25 40 43 65l129 166q48 63 81.5 83.5t98.5 20.5h203l-43 -221h-76q-32 0 -50 -6.5t-36 -28.5l-233 -268l248 -520h-271l-139 291l-20 55h-5 q-16 -28 -36 -55l-236 -291h-295z" />
<glyph unicode="y" horiz-adv-x="1136" d="M-168 -324l107 185l3 -3q3 -4 7 -8l10 -10t14 -11.5t17 -12t20.5 -11.5t24 -9t27.5 -6.5t30 -2.5q108 0 191 135l53 84l-193 780q-6 23 -15.5 30t-33.5 7h-31l43 221h177q46 0 70.5 -24.5t33.5 -73.5l102 -522q4 -24 7 -58.5t4 -57.5v-23h4q32 86 61 139l279 522 q29 53 67 75.5t93 22.5h186l-43 -221h-31q-46 0 -65 -37l-564 -952q-80 -134 -183.5 -199t-217.5 -65q-43 0 -84.5 11t-71 26.5t-52.5 31t-34 26.5z" />
<glyph unicode="z" horiz-adv-x="1081" d="M-43 0l31 158l587 575q27 27 57.5 54.5t47.5 40.5l16 14v4q-49 -4 -88 -4h-223q-44 0 -53 -45l-17 -78h-215l37 186q13 72 53.5 105.5t112.5 33.5h766l-29 -159l-587 -576q-29 -27 -60.5 -53.5t-48.5 -39.5l-16 -13v-4q40 4 108 4h242q21 0 35.5 13.5t19.5 35.5l12 72 h218l-37 -185q-13 -73 -53 -106t-113 -33h-803z" />
<glyph unicode="{" horiz-adv-x="704" d="M37 557l45 227q7 0 19 2t44.5 14.5t59.5 33.5t54 64.5t38 102.5l39 195q14 73 43.5 130.5t67.5 92.5t84.5 59.5t95.5 33t99.5 13t96.5 -2.5l-37 -193q-22 2 -48.5 2t-56 -11.5t-55.5 -29.5t-47 -52.5t-30 -80.5l-47 -244q-11 -55 -37.5 -100t-56.5 -70t-58.5 -42.5 t-47.5 -22.5l-19 -6v-4q5 -2 13.5 -6t30 -21t38 -38.5t30 -61t13.5 -86.5q0 -24 -7 -64l-43 -219q-8 -40 -8 -59q0 -43 19 -70.5t47 -36.5t58.5 -13t53.5 1l-39 -193q-26 -4 -63 -4q-30 0 -63 5t-77.5 22.5t-78.5 45.5t-58 80t-24 120q0 34 10 96l35 178q6 30 6 57 q0 41 -14.5 72.5t-35 46.5t-40.5 24t-34 11z" />
<glyph unicode="|" horiz-adv-x="655" d="M225 -330v1960h221v-1960h-221z" />
<glyph unicode="}" horiz-adv-x="704" d="M-98 -199l37 193q22 -2 48.5 -2t56 11.5t55.5 29.5t47 52.5t30 80.5l51 260q11 56 37.5 102t56.5 71.5t58.5 43t47.5 23.5l19 6v4q-3 1 -7 3t-17 9.5t-24.5 17.5t-25.5 27.5t-24 38t-17 51t-7 64.5q0 25 6 63l39 207q6 27 6 53q0 43 -19.5 70.5t-47.5 36.5t-58.5 13 t-52.5 -1l39 193q42 3 90 1.5t96.5 -21t88 -49t64.5 -82t25 -120.5q0 -36 -10 -94l-31 -160q-6 -34 -6 -57q0 -42 14.5 -73.5t34.5 -46.5t40.5 -24t35.5 -10l14 -2l-45 -227q-7 0 -19 -2t-44.5 -15t-59.5 -34t-54 -65t-38 -103l-43 -213q-14 -73 -43.5 -130t-67.5 -92 t-84.5 -59.5t-95.5 -33t-99.5 -12.5t-96.5 3z" />
<glyph unicode="~" horiz-adv-x="1208" d="M90 408q0 187 80 279.5t233 92.5q57 0 104.5 -19t79.5 -46.5t60.5 -55t62 -46.5t70.5 -19q65 0 97 51t32 127h205q0 -187 -80 -280t-233 -93q-57 0 -104 19t-79 46.5t-60.5 54.5t-62.5 46t-71 19q-64 0 -95.5 -50.5t-31.5 -125.5h-207z" />
<glyph unicode="&#xa2;" horiz-adv-x="1200" d="M109 621q0 132 46 254t122.5 212t178.5 148t212 70l32 172h177l-35 -183q77 -17 137.5 -56t93 -83.5t53.5 -86.5t27 -70l6 -27l-233 -86q0 4 -1.5 10.5t-7.5 25t-14.5 35.5t-25 38t-37.5 36t-53 25t-70 10q-139 0 -241.5 -128.5t-102.5 -309.5q0 -111 55.5 -174.5 t157.5 -63.5q51 0 99 18.5t79.5 44.5t56 52t35.5 44l12 19l222 -94q-3 -6 -9 -17t-27.5 -43t-46.5 -61.5t-66.5 -66.5t-86.5 -65t-107 -49.5t-129 -27.5l-32 -168h-176l34 183q-154 38 -244.5 159t-90.5 304z" />
<glyph unicode="&#xa3;" horiz-adv-x="1200" d="M-18 0l45 227h116l80 410h-98l35 178h96l53 266q34 173 176.5 285.5t333.5 112.5q65 0 126.5 -16.5t102.5 -39.5t72.5 -46t46.5 -39l15 -17l-164 -162q-3 3 -9.5 9t-27 20.5t-43 25.5t-57 20t-68.5 9q-91 0 -158 -53.5t-82 -134.5l-49 -240h363l-35 -178h-360l-80 -410 h344q44 0 53 45l18 88h242l-43 -221q-13 -73 -53 -106t-113 -33h-878z" />
<glyph unicode="&#xa5;" horiz-adv-x="1282" d="M137 397l29 156h330l16 82l-39 86h-278l32 156h174l-129 301q-20 49 -73 49h-47l43 227h120q69 0 104.5 -21t63.5 -85l140 -320q15 -33 29 -74t21 -66l7 -24h4q58 90 113 164l252 320q45 61 89.5 83.5t106.5 22.5h168l-43 -227h-51q-50 0 -86 -45l-250 -305h168l-31 -156 h-268l-72 -86l-16 -82h323l-28 -156h-326l-78 -397h-268l78 397h-328z" />
<glyph unicode="&#xa8;" horiz-adv-x="1042" d="M236 1591l47 238h180l-47 -238h-180zM602 1591l47 238h182l-47 -238h-182z" />
<glyph unicode="&#xa9;" horiz-adv-x="1669" d="M123 727q0 153 58 292t156 239.5t233 159.5t284 59q152 0 289 -59t235.5 -159.5t156.5 -239.5t58 -292t-58 -292.5t-156.5 -240t-235.5 -160t-289 -59.5q-149 0 -284 59.5t-233 160t-156 240t-58 292.5zM305 727q0 -162 72.5 -296.5t198.5 -212t278 -77.5q155 0 283 77.5 t201 212t73 296.5q0 161 -73 295t-201 211.5t-283 77.5q-114 0 -216 -45.5t-175 -123.5t-115.5 -186.5t-42.5 -228.5zM481 723q0 166 109.5 282.5t275.5 116.5q50 0 95.5 -12t78 -31t60 -41.5t45.5 -45.5t30 -42t17 -31l6 -12l-156 -73q-2 5 -6.5 13t-20 28t-33.5 35.5 t-48.5 28.5t-63.5 13q-89 0 -144.5 -66t-55.5 -163q0 -101 53.5 -165t146.5 -64q33 0 63 12t49 29.5t33.5 35t20.5 29.5l6 12l156 -71q-4 -9 -11 -23.5t-35 -52t-62.5 -66t-94.5 -52t-129 -23.5q-166 0 -275.5 116.5t-109.5 282.5z" />
<glyph unicode="&#xab;" horiz-adv-x="1220" d="M70 580l393 419h258l-412 -432l264 -409h-237zM526 580l430 419h263l-453 -432l264 -409h-237z" />
<glyph unicode="&#xad;" horiz-adv-x="849" d="M90 471l43 227h617l-45 -227h-615z" />
<glyph unicode="&#xae;" horiz-adv-x="1669" d="M123 727q0 153 58 292t156 239.5t233 159.5t284 59q152 0 289 -59t235.5 -159.5t156.5 -239.5t58 -292t-58 -292.5t-156.5 -240t-235.5 -160t-289 -59.5q-149 0 -284 59.5t-233 160t-156 240t-58 292.5zM305 727q0 -162 72.5 -296.5t198.5 -212t278 -77.5q155 0 283 77.5 t201 212t73 296.5q0 161 -73 295t-201 211.5t-283 77.5q-114 0 -216 -45.5t-175 -123.5t-115.5 -186.5t-42.5 -228.5zM598 356v750h311q112 0 179 -65t67 -173q0 -79 -42 -130t-89 -64v-4q9 -8 27 -43l139 -271h-191l-127 277h-100v-277h-174zM772 756h96q52 0 80.5 29.5 t28.5 82.5q0 54 -27.5 82.5t-77.5 28.5h-100v-223z" />
<glyph unicode="&#xb4;" horiz-adv-x="827" d="M221 1550l209 279h254l-264 -279h-199z" />
<glyph unicode="&#xb8;" horiz-adv-x="860" d="M188 -412l27 144q41 -17 86 -17q43 0 71.5 16t28.5 52q0 47 -86 47l-43 -4l107 225l113 -26l-3 -15l-43 -102q47 -7 85 -42t38 -93q0 -53 -23.5 -93.5t-62 -62.5t-80 -32.5t-84.5 -10.5q-34 0 -66.5 3.5t-48.5 6.5z" />
<glyph unicode="&#xbb;" horiz-adv-x="1228" d="M-2 158l446 430l-262 411h242l262 -419l-428 -422h-260zM492 158l413 430l-262 411h242l262 -419l-399 -422h-256z" />
<glyph unicode="&#x2c6;" horiz-adv-x="1026" d="M180 1550l242 279h223l135 -279h-190l-70 166h-4l-135 -166h-201z" />
<glyph unicode="&#x2da;" horiz-adv-x="786" d="M205 1663q0 85 64 135.5t145 50.5q70 0 119 -38t49 -105q0 -82 -65.5 -132t-145.5 -50q-68 0 -117 37.5t-49 101.5zM324 1669q0 -25 14.5 -39t40.5 -14q37 0 61.5 25t24.5 63q0 25 -15 40t-42 15q-33 0 -58.5 -25.5t-25.5 -64.5z" />
<glyph unicode="&#x2dc;" horiz-adv-x="1122" d="M168 1552q26 149 97.5 215t172.5 66q45 0 79.5 -13.5t55 -33t37.5 -39.5t38 -33.5t46 -13.5q40 0 69 36.5t40 90.5h162q-26 -148 -98 -214.5t-173 -66.5q-45 0 -79.5 13.5t-55 33t-37.5 39.5t-38 33.5t-46 13.5q-41 0 -68.5 -36t-37.5 -91h-164z" />
<glyph unicode="&#x400;" horiz-adv-x="1193" d="M100 100q0 19 11 76l204 1051h-133l43 227h860q134 0 134 -102q0 -12 -9 -68l-36 -190h-244l12 53q6 35 6 47q0 33 -43 33h-321l-74 -381h471l-45 -228h-471l-62 -313q-6 -27 -6 -47q0 -31 37 -31h336q44 0 53 45l19 88h241l-45 -229q-12 -70 -49 -100.5t-106 -30.5h-654 q-129 0 -129 100zM604 1829h238l108 -279h-182z" />
<glyph unicode="&#x401;" horiz-adv-x="1193" d="M100 100q0 19 11 76l204 1051h-133l43 227h860q134 0 134 -102q0 -12 -9 -68l-36 -190h-244l12 53q6 35 6 47q0 33 -43 33h-321l-74 -381h471l-45 -228h-471l-62 -313q-6 -27 -6 -47q0 -31 37 -31h336q44 0 53 45l19 88h241l-45 -229q-12 -70 -49 -100.5t-106 -30.5h-654 q-129 0 -129 100zM535 1591l47 238h180l-47 -238h-180zM901 1591l47 238h182l-47 -238h-182z" />
<glyph unicode="&#x402;" horiz-adv-x="1564" d="M115 1094l45 229q14 72 48 101.5t107 29.5h1035l-41 -215h-455l-68 -340l-14 -65h4q23 11 60 24.5t114.5 30t149.5 16.5q199 0 306 -109t107 -280q0 -82 -24.5 -161t-73 -147.5t-114.5 -120.5t-155 -82t-188 -30q-59 0 -106 7l43 219q2 0 24 -2t35 -2q109 0 200 81 t91 209q0 185 -215 185q-70 0 -145.5 -18.5t-115.5 -37.5l-40 -18l-117 -598h-268l242 1239h-183q-44 0 -53 -45l-20 -100h-215z" />
<glyph unicode="&#x403;" horiz-adv-x="1087" d="M74 0l239 1227h-133l45 227h852q69 0 97 -26t28 -76q0 -18 -8 -68l-37 -190h-235l10 53q6 30 6 47q0 33 -43 33h-313l-240 -1227h-268zM639 1550l209 279h254l-264 -279h-199z" />
<glyph unicode="&#x404;" horiz-adv-x="1437" d="M74 604q0 111 32 221t88.5 206.5t139 179t179.5 142t213 93t237 33.5q59 0 124.5 -10t133 -33t121.5 -55.5t88 -81.5t34 -107q0 -15 -4 -39l-28 -147h-242l8 43q8 50 8 55q0 44 -44.5 76t-104.5 45.5t-125 13.5q-184 0 -332 -117.5t-211 -300.5h692l-43 -213h-686 q-9 -182 99 -287.5t301 -105.5q119 0 239 48.5t219 129.5l113 -196q-110 -98 -277.5 -160t-328.5 -62q-147 0 -268.5 47t-203 130.5t-126.5 199.5t-45 252z" />
<glyph unicode="&#x405;" horiz-adv-x="1114" d="M-16 197l166 182q5 -7 14 -17.5t41 -38.5t68 -49.5t93.5 -39t118.5 -17.5q115 0 183.5 54.5t68.5 138.5q0 49 -31.5 88.5t-82 68.5t-111 57t-121.5 63.5t-111.5 79.5t-82 112.5t-31.5 154.5q0 132 73 235t193 156.5t264 53.5q75 0 147.5 -15.5t134.5 -44.5t100 -77 t38 -107q0 -26 -8 -72l-23 -106h-235l8 41q6 36 6 41q0 47 -49.5 71.5t-126.5 24.5q-117 0 -183.5 -52.5t-66.5 -129.5q0 -47 31.5 -84.5t82 -64.5t111.5 -53.5t122 -61t111.5 -78t82 -113t31.5 -158.5q0 -199 -145.5 -332t-383.5 -133q-69 0 -133.5 12t-112.5 32 t-90.5 43.5t-71 47t-49.5 43.5t-30 32z" />
<glyph unicode="&#x406;" horiz-adv-x="714" d="M-33 0l45 227h144l194 1000h-145l45 227h545l-43 -227h-146l-194 -1000h145l-45 -227h-545z" />
<glyph unicode="&#x407;" horiz-adv-x="712" d="M-33 0l43 227h144l194 1000h-145l45 227h545l-43 -227h-146l-194 -1000h145l-45 -227h-543zM274 1591l45 238h183l-47 -238h-181zM641 1591l47 238h180l-45 -238h-182z" />
<glyph unicode="&#x408;" horiz-adv-x="1077" d="M-20 334q0 43 10 108l12 72h268l-10 -59q-8 -58 -8 -76q0 -81 43 -117.5t111 -36.5q82 0 145.5 53t85.5 164l137 707q6 30 6 43q0 35 -43 35h-346l45 227h508q133 0 133 -102q0 -16 -8 -66l-170 -880q-22 -114 -74 -199.5t-121.5 -134.5t-146.5 -73t-160 -24 q-114 0 -207 40t-151.5 123.5t-58.5 195.5z" />
<glyph unicode="&#x409;" horiz-adv-x="1951" d="M-94 -12l47 241q163 22 269.5 202t180.5 570l46 226h-136l43 227h863q61 0 89.5 -22.5t28.5 -69.5q0 -23 -6 -47l-84 -438h201q63 0 123.5 -11.5t120 -39t104 -68.5t72.5 -106.5t28 -147.5q0 -118 -45 -214.5t-123.5 -159.5t-182.5 -96.5t-224 -33.5h-375q-117 0 -117 90 q0 17 7 49l196 1012q8 40 8 45q0 14 -10.5 22.5t-28.5 8.5h-286l-45 -226q-31 -160 -64.5 -285t-79.5 -242t-104 -200.5t-132.5 -148t-170.5 -98.5t-213 -39zM1126 252q0 -14 10.5 -22.5t28.5 -8.5h195q115 0 189.5 77t74.5 194q0 75 -52 119t-140 44h-228l-71 -360 q-1 -8 -4 -24t-3 -19z" />
<glyph unicode="&#x40a;" horiz-adv-x="2086" d="M76 0l221 1139q10 48 10 53q0 35 -37 35h-88l43 227h264q117 0 117 -90q0 -25 -6 -49l-88 -438h600l115 577h268l-115 -577h219q83 0 157.5 -21t137.5 -64t100.5 -116.5t37.5 -169.5q0 -158 -80.5 -274.5t-212.5 -174t-295 -57.5h-363q-62 0 -89 22.5t-27 73.5q0 16 6 43 l98 516h-598l-127 -655h-268zM1262 254q0 -33 36 -33h199q111 0 187.5 79t76.5 181q0 79 -49 126.5t-143 47.5h-232l-65 -346q-10 -50 -10 -55z" />
<glyph unicode="&#x40b;" horiz-adv-x="1636" d="M115 1094l45 229q13 74 47.5 102.5t107.5 28.5h1035l-41 -215h-455l-68 -348l-16 -66h4q163 84 338 84q187 0 280 -87t93 -236q0 -47 -10 -115l-33 -164q-3 -16 -5.5 -29t-3.5 -18.5t-1 -7.5q0 -25 41 -25h88l-45 -227h-263q-60 0 -88 22.5t-28 69.5q0 29 4 47l55 273 q10 55 10 88q0 168 -184 168q-86 0 -166.5 -27.5t-130.5 -60.5l-113 -580h-268l242 1239h-183q-45 0 -53 -45l-20 -100h-215z" />
<glyph unicode="&#x40c;" horiz-adv-x="1304" d="M76 0l223 1145q8 46 8 47q0 35 -43 35h-82l43 227h246q131 0 131 -102q0 -35 -8 -68l-82 -422h102q46 0 71 10.5t44 36.5l397 545h310l-445 -598q-25 -35 -52 -62t-41 -36l-15 -10v-5q37 -30 57 -98l115 -369q14 -49 75 -49h66l-45 -227h-162q-73 0 -111.5 24t-58.5 85 l-145 477q-7 28 -32 38.5t-71 10.5h-104l-123 -635h-268zM762 1550l209 279h254l-264 -279h-199z" />
<glyph unicode="&#x40d;" horiz-adv-x="1579" d="M76 0l229 1182q9 45 -35 45h-88l43 227h264q72 0 98.5 -33.5t12.5 -105.5l-133 -678q-6 -38 -20 -93.5t-25 -91.5l-10 -36h4q87 139 157 223l693 815h284l-231 -1182q-6 -45 37 -45h88l-45 -227h-262q-72 0 -99 33t-12 106l131 680q7 37 22 93.5t27 93.5l11 38h-5 q-85 -141 -155 -225l-697 -819h-284zM735 1829h238l108 -279h-182z" />
<glyph unicode="&#x40e;" horiz-adv-x="1288" d="M29 86l141 190q63 -63 147 -63q57 0 95.5 30t76.5 95l-258 844q-8 25 -19.5 35t-35.5 10h-47l45 227h137q71 0 99.5 -25t48.5 -94l155 -555l41 -180h4q40 86 91 180l303 555q39 70 77.5 94.5t114.5 24.5h176l-45 -227h-39q-26 0 -41 -9.5t-30 -35.5l-537 -928 q-35 -60 -71 -105.5t-83.5 -87t-108.5 -64t-130 -22.5q-84 0 -172 32t-135 79zM512 1751q0 37 10 78h203q-8 -20 -8 -51q0 -47 30.5 -76t83.5 -29q62 0 108.5 37t57.5 119h197q-12 -83 -48.5 -144.5t-89.5 -96.5t-112.5 -51.5t-126.5 -16.5q-134 0 -219.5 65t-85.5 166z" />
<glyph unicode="&#x40f;" horiz-adv-x="1544" d="M98 92q0 25 6 49l193 1000q10 42 10 53q0 33 -39 33h-88l45 227h264q60 0 87.5 -22.5t27.5 -69.5q0 -15 -4 -47l-194 -1000q-11 -53 -11 -55q0 -33 39 -33h531q44 0 53 45l203 1043q14 72 53.5 105.5t111.5 33.5h263l-45 -227h-88q-45 0 -54 -45l-202 -1043 q-13 -73 -52.5 -106t-111.5 -33h-322l-57 -287h-236l56 287h-322q-117 0 -117 92z" />
<glyph unicode="&#x410;" horiz-adv-x="1380" d="M-94 0l45 227h37q25 0 38.5 9t26.5 36l662 1182h280l203 -1184q5 -26 13.5 -34.5t33.5 -8.5h39l-45 -227h-160q-72 0 -101 25t-40 94l-41 254h-489l-142 -254q-38 -69 -74 -94t-104 -25h-182zM510 594h369l-56 364q-4 36 -7.5 90.5t-5.5 91.5l-1 36h-4 q-57 -138 -100 -218z" />
<glyph unicode="&#x411;" horiz-adv-x="1253" d="M98 100q0 5 2 16t4.5 27t4.5 27l206 1057h-133l43 227h881q115 0 115 -98q0 -17 -4 -41l-43 -221h-242l12 63q4 20 4 33q0 37 -37 37h-327l-70 -357h211q69 0 132 -10.5t123.5 -37t104 -66.5t70.5 -103t27 -143q0 -117 -48 -215t-129.5 -161.5t-187.5 -98.5t-223 -35 h-379q-117 0 -117 100zM393 252q0 -31 39 -31h201q116 0 194 76t78 186q0 78 -48.5 122t-137.5 44h-248l-68 -342q-10 -45 -10 -55z" />
<glyph unicode="&#x412;" horiz-adv-x="1271" d="M100 100q0 19 11 76l204 1051h-133l43 227h613q182 0 289.5 -84.5t107.5 -236.5q0 -127 -73 -226.5t-175 -140.5v-4q86 -36 134 -113t48 -184q0 -161 -101 -277t-247 -161q-85 -27 -190 -27h-402q-129 0 -129 100zM397 258q0 -31 37 -31h215q53 0 99 21q67 28 107 90.5 t40 138.5q0 82 -47 126t-133 44h-244l-68 -342q-6 -27 -6 -47zM512 860h238q92 0 153.5 64.5t61.5 154.5q0 69 -41 108.5t-123 39.5h-217z" />
<glyph unicode="&#x413;" horiz-adv-x="1087" d="M74 0l239 1227h-133l45 227h852q69 0 97 -26t28 -76q0 -18 -8 -68l-37 -190h-235l10 53q6 30 6 47q0 33 -43 33h-313l-240 -1227h-268z" />
<glyph unicode="&#x414;" horiz-adv-x="1521" d="M-150 -287l76 381q13 73 49.5 103t108.5 30h27q82 98 147 213t109 236.5t72.5 228t52.5 230.5l16 92h-131l45 227h893q68 0 96.5 -24.5t28.5 -73.5q0 -22 -8 -72l-205 -1057h37q60 0 86 -20.5t26 -63.5q0 -19 -12 -77l-68 -353h-241l41 211q8 40 8 45q0 31 -33 31h-878 q-45 0 -54 -45l-47 -242h-242zM399 227h559l179 918q8 40 8 49q0 33 -43 33h-338l-19 -109q-112 -582 -346 -891z" />
<glyph unicode="&#x415;" horiz-adv-x="1193" d="M100 100q0 19 11 76l204 1051h-133l43 227h860q134 0 134 -102q0 -12 -9 -68l-36 -190h-244l12 53q6 35 6 47q0 33 -43 33h-321l-74 -381h471l-45 -228h-471l-62 -313q-6 -27 -6 -47q0 -31 37 -31h336q44 0 53 45l19 88h241l-45 -229q-12 -70 -49 -100.5t-106 -30.5h-654 q-129 0 -129 100z" />
<glyph unicode="&#x416;" horiz-adv-x="1900" d="M-104 0l485 653q28 37 58.5 64.5t47.5 36.5l17 8v4q-5 2 -13 6.5t-27.5 30t-33.5 63.5l-111 314q-8 28 -30 37.5t-62 9.5h-34l45 227h116q85 0 120 -20.5t58 -87.5l152 -439q11 -34 34.5 -43.5t69.5 -9.5h82l117 600h256l-117 -600h58q48 0 79 10t56 43l309 439 q48 67 93 87.5t130 20.5h142l-43 -227h-29q-38 0 -63.5 -9.5t-47.5 -37.5l-235 -326q-26 -38 -57 -65.5t-48 -35.5l-18 -8v-4q5 -2 14 -8t30 -33.5t34 -64.5l235 -635h-274l-209 588q-12 35 -34.5 45t-63.5 10h-99l-124 -643h-256l124 643h-84q-41 0 -65.5 -10t-50.5 -45 l-430 -588h-303z" />
<glyph unicode="&#x417;" horiz-adv-x="1116" d="M-33 178l158 176q53 -66 132.5 -105.5t172.5 -39.5q127 0 218 69.5t91 182.5q0 81 -51.5 121.5t-148.5 40.5h-201l43 215h166q104 0 186 67t82 170q0 79 -46 125.5t-144 46.5q-82 0 -143 -38t-72 -91l-9 -53h-243l24 127q15 77 65.5 135t122 90t147 47t153.5 15 q186 0 305 -93t119 -260q0 -131 -74.5 -231t-196.5 -147l-2 -5q86 -34 137.5 -106.5t51.5 -175.5q0 -107 -48.5 -199.5t-129 -154.5t-184 -97t-212.5 -35q-138 0 -265.5 53.5t-203.5 149.5z" />
<glyph unicode="&#x418;" horiz-adv-x="1579" d="M76 0l229 1182q9 45 -35 45h-88l43 227h264q72 0 98.5 -33.5t12.5 -105.5l-133 -678q-6 -38 -20 -93.5t-25 -91.5l-10 -36h4q87 139 157 223l693 815h284l-231 -1182q-6 -45 37 -45h88l-45 -227h-262q-72 0 -99 33t-12 106l131 680q7 37 22 93.5t27 93.5l11 38h-5 q-85 -141 -155 -225l-697 -819h-284z" />
<glyph unicode="&#x419;" horiz-adv-x="1579" d="M76 0l229 1182q9 45 -35 45h-88l43 227h264q72 0 98.5 -33.5t12.5 -105.5l-133 -678q-6 -38 -20 -93.5t-25 -91.5l-10 -36h4q87 139 157 223l693 815h284l-231 -1182q-6 -45 37 -45h88l-45 -227h-262q-72 0 -99 33t-12 106l131 680q7 37 22 93.5t27 93.5l11 38h-5 q-85 -141 -155 -225l-697 -819h-284zM676 1751q0 37 10 78h203q-8 -20 -8 -51q0 -47 30.5 -76t83.5 -29q62 0 108.5 37t57.5 119h197q-12 -83 -48.5 -144.5t-89.5 -96.5t-112.5 -51.5t-126.5 -16.5q-134 0 -219.5 65t-85.5 166z" />
<glyph unicode="&#x41a;" horiz-adv-x="1304" d="M76 0l223 1145q8 46 8 47q0 35 -43 35h-82l43 227h246q131 0 131 -102q0 -35 -8 -68l-82 -422h102q46 0 71 10.5t44 36.5l397 545h310l-445 -598q-25 -35 -52 -62t-41 -36l-15 -10v-5q37 -30 57 -98l115 -369q14 -49 75 -49h66l-45 -227h-162q-73 0 -111.5 24t-58.5 85 l-145 477q-7 28 -32 38.5t-71 10.5h-104l-123 -635h-268z" />
<glyph unicode="&#x41b;" horiz-adv-x="1429" d="M-104 -16l47 241q166 22 280 219.5t195 614.5l33 168h-136l45 227h900q116 0 116 -90q0 -24 -12 -88l-186 -963q-11 -49 -11 -55q0 -14 10.5 -22.5t28.5 -8.5h88l-45 -227h-262q-119 0 -119 90q0 9 15 90l186 961q8 39 8 55q0 31 -37 31h-333l-33 -170 q-104 -540 -286.5 -802t-491.5 -271z" />
<glyph unicode="&#x41c;" horiz-adv-x="1798" d="M-72 0l43 227h62q23 0 35 10.5t18 34.5l326 1182h272l160 -696l35 -195h4q53 103 108 195l432 696h289l-129 -1147q-4 -36 -4 -49q0 -31 35 -31h63l-45 -227h-213q-69 0 -100 24.5t-31 79.5q0 14 6 62l74 620q5 42 15.5 98.5t18.5 91.5l7 36h-4q-72 -148 -123 -226 l-346 -536h-217l-137 536q-8 36 -17 93t-13 96l-5 39h-4q-22 -136 -47 -228l-177 -657q-19 -69 -53 -99t-100 -30h-238z" />
<glyph unicode="&#x41d;" horiz-adv-x="1566" d="M76 0l223 1145q8 46 8 49q0 33 -43 33h-82l43 227h246q131 0 131 -102q0 -35 -8 -68l-88 -446h641l96 481q15 74 51 104.5t105 30.5h272l-45 -227h-92q-40 0 -49 -45l-232 -1182h-268l119 610h-641l-119 -610h-268z" />
<glyph unicode="&#x41e;" d="M76 614q0 115 33 226t92 206t142 175.5t180 137t210 88.5t228 32q286 0 465.5 -176.5t179.5 -452.5q0 -138 -47 -271t-131.5 -241t-194.5 -190t-243.5 -127.5t-270.5 -45.5q-188 0 -335 82t-227.5 227.5t-80.5 329.5zM354 629q0 -179 108 -291.5t279 -112.5 q108 0 214.5 49t188 130.5t132.5 195t51 234.5q0 177 -108.5 286t-278.5 109q-109 0 -215.5 -47.5t-188 -127.5t-132 -192t-50.5 -233z" />
<glyph unicode="&#x41f;" horiz-adv-x="1542" d="M74 0l239 1227h-133l45 227h1149q117 0 117 -92q0 -16 -14 -84l-189 -971q-8 -46 -8 -49q0 -31 39 -31h88l-45 -227h-258q-121 0 -121 88q0 34 12 84l189 973q8 40 8 49q0 33 -37 33h-573l-240 -1227h-268z" />
<glyph unicode="&#x420;" horiz-adv-x="1230" d="M74 0l239 1227h-133l45 227h645q180 0 291 -107t111 -290q0 -162 -86.5 -295.5t-214.5 -198.5q-122 -61 -250 -61h-281l-98 -502h-268zM485 731h215q124 0 210.5 85t86.5 216q0 96 -51.5 145.5t-144.5 49.5h-219z" />
<glyph unicode="&#x421;" horiz-adv-x="1427" d="M78 612q0 167 67 325.5t181 277.5t275.5 191.5t340.5 72.5q84 0 169.5 -17t164 -50t127.5 -92t49 -134q0 -17 -14 -103l-19 -92h-241l16 76q9 45 -15.5 78.5t-69.5 50.5t-90 25t-87 8q-112 0 -217.5 -46t-185 -124.5t-127.5 -191t-48 -238.5q0 -182 108.5 -293 t289.5 -111q123 0 241 44.5t207 123.5l115 -209q-106 -97 -266 -153t-326 -56q-181 0 -327 78t-232 224.5t-86 334.5z" />
<glyph unicode="&#x422;" horiz-adv-x="1318" d="M117 1094l45 233q14 71 45.5 99t101.5 28h1004q69 0 97 -26t28 -76q0 -35 -8 -68l-37 -190h-236l10 53q9 45 9 47q0 33 -43 33h-218l-239 -1227h-268l239 1227h-223q-44 0 -53 -45l-19 -88h-235z" />
<glyph unicode="&#x423;" horiz-adv-x="1288" d="M29 86l141 190q63 -63 147 -63q57 0 95.5 30t76.5 95l-258 844q-8 25 -19.5 35t-35.5 10h-47l45 227h137q71 0 99.5 -25t48.5 -94l155 -555l41 -180h4q40 86 91 180l303 555q39 70 77.5 94.5t114.5 24.5h176l-45 -227h-39q-26 0 -41 -9.5t-30 -35.5l-537 -928 q-35 -60 -71 -105.5t-83.5 -87t-108.5 -64t-130 -22.5q-84 0 -172 32t-135 79z" />
<glyph unicode="&#x424;" horiz-adv-x="1699" d="M72 678q0 200 103 358t284 247t409 93l31 160h264l-33 -160q251 0 405.5 -140.5t154.5 -369.5q0 -200 -106.5 -362t-288.5 -252.5t-400 -91.5l-37 -185h-264l37 185q-250 0 -404.5 142.5t-154.5 375.5zM340 686q0 -139 89.5 -221t244.5 -82l149 770q-130 -2 -240 -61 t-176.5 -166.5t-66.5 -239.5zM938 383q128 2 238.5 63.5t177.5 170t67 239.5q0 138 -89.5 217.5t-244.5 79.5z" />
<glyph unicode="&#x425;" horiz-adv-x="1265" d="M-96 0l596 745l-191 431q-12 29 -31.5 40t-54.5 11h-53l45 227h145q73 0 113.5 -22.5t65.5 -83.5l98 -236q14 -35 28.5 -78.5t22.5 -69.5l8 -26h4q55 90 121 174l185 236q44 59 85.5 82.5t108.5 23.5h184l-43 -227h-59q-31 0 -52.5 -10.5t-43.5 -38.5l-367 -449l316 -729 h-291l-158 375q-14 32 -29 73.5t-23 67.5l-9 25h-4q-53 -84 -119 -166l-293 -375h-305z" />
<glyph unicode="&#x426;" horiz-adv-x="1576" d="M98 86q0 32 13 86l188 975q1 5 3 16.5t3.5 20.5t1.5 12q0 14 -10.5 22.5t-28.5 8.5h-88l45 227h264q60 0 87.5 -22.5t27.5 -69.5q0 -26 -12 -80l-189 -975q-8 -36 -8 -51q0 -12 10.5 -20.5t28.5 -8.5h578l239 1227h269l-240 -1227h41q59 0 86 -20t27 -64q0 -1 -13 -82 l-67 -348h-238l41 209q8 28 8 49q0 29 -32 29h-918q-117 0 -117 86z" />
<glyph unicode="&#x427;" horiz-adv-x="1372" d="M135 1227l45 227h262q117 0 117 -92q0 -11 -4 -47l-55 -279q-8 -58 -8 -80q0 -89 53 -132.5t166 -43.5q141 0 290 97l113 577h268l-284 -1454h-269l109 557l18 68h-4q-168 -84 -356 -84q-193 0 -290 82t-97 235q0 56 12 121l35 174q4 32 4 39q0 35 -37 35h-88z" />
<glyph unicode="&#x428;" horiz-adv-x="2115" d="M98 92q0 24 11 74l196 1008q0 3 1 9.5t1 8.5q0 35 -37 35h-88l43 227h264q117 0 117 -92q0 -15 -8 -55l-195 -1008q-1 -3 -3 -12.5t-3.5 -16.5t-1.5 -10q0 -33 39 -33h416l240 1227h268l-240 -1227h418q44 0 53 45l203 1043q15 72 54.5 105.5t111.5 33.5h264l-45 -227 h-88q-44 0 -53 -45l-203 -1043q-15 -73 -54.5 -106t-111.5 -33h-1452q-117 0 -117 92z" />
<glyph unicode="&#x429;" horiz-adv-x="2156" d="M98 92q0 24 11 74l196 1008q0 3 1 9.5t1 8.5q0 35 -37 35h-88l43 227h264q117 0 117 -92q0 -15 -8 -55l-195 -1008q-1 -3 -3 -12.5t-3.5 -16.5t-1.5 -10q0 -33 39 -33h416l240 1227h268l-240 -1227h463l238 1227h268l-238 -1227h58q60 0 86 -20t26 -64q0 -23 -8 -63 l-72 -369h-235l39 201q10 50 10 59q0 12 -9 20.5t-24 8.5h-1505q-117 0 -117 92z" />
<glyph unicode="&#x42a;" horiz-adv-x="1536" d="M113 1094l45 229q14 72 48 101.5t107 29.5h740l-45 -227h-134l-57 -297h258q86 0 159 -23.5t130 -69.5t89 -122.5t32 -175.5q0 -111 -34.5 -202.5t-92.5 -153t-137 -103.5t-165 -61t-179 -19h-371q-117 0 -117 92q0 20 6 47l211 1088h-186q-46 0 -55 -45l-17 -88h-235z M686 258q0 -31 39 -31h199q118 0 201 81.5t83 215.5q0 87 -49 132.5t-139 45.5h-246l-80 -395q-2 -11 -4 -23l-3 -18t-1 -8z" />
<glyph unicode="&#x42b;" horiz-adv-x="1835" d="M96 92q0 23 6 47l195 1002q10 42 10 55q0 14 -10.5 22.5t-28.5 8.5h-88l45 227h262q117 0 117 -92q0 -23 -6 -47l-72 -371h230q185 0 301.5 -97t116.5 -292q0 -163 -81 -290.5t-218.5 -196t-307.5 -68.5h-354q-117 0 -117 92zM393 260q0 -33 39 -33h184q114 0 197.5 86.5 t83.5 223.5q0 87 -48 133.5t-136 46.5h-230l-80 -410q-10 -45 -10 -47zM1276 92q0 20 6 47l256 1315h268l-227 -1159q-6 -27 -6 -37q0 -14 10.5 -22.5t28.5 -8.5h88l-45 -227h-262q-117 0 -117 92z" />
<glyph unicode="&#x42c;" horiz-adv-x="1222" d="M96 92q0 23 6 47l195 1002q10 42 10 55q0 14 -10.5 22.5t-28.5 8.5h-88l45 227h262q117 0 117 -92q0 -23 -6 -47l-72 -371h230q185 0 301.5 -97t116.5 -292q0 -163 -81 -290.5t-218.5 -196t-307.5 -68.5h-354q-117 0 -117 92zM393 260q0 -33 39 -33h184q114 0 197.5 86.5 t83.5 223.5q0 87 -48 133.5t-136 46.5h-230l-80 -410q-10 -45 -10 -47z" />
<glyph unicode="&#x42d;" horiz-adv-x="1437" d="M-23 201l148 180q66 -75 177.5 -121.5t229.5 -46.5q189 0 345.5 114t212.5 287h-695l41 215h699q11 178 -90.5 294t-292.5 116q-70 0 -142.5 -15.5t-133.5 -52t-70 -86.5l-15 -79h-244l29 147q20 98 107.5 173.5t211 114t261.5 38.5q152 0 276 -50.5t205 -138 t124.5 -204.5t43.5 -252q0 -175 -69.5 -334t-186.5 -274t-278.5 -183t-338.5 -68q-161 0 -309 57.5t-246 168.5z" />
<glyph unicode="&#x42e;" horiz-adv-x="2215" d="M76 0l223 1151q8 36 8 43q0 33 -37 33h-88l43 227h264q117 0 117 -92q0 -23 -6 -47l-94 -477h223q51 180 174 326t297 230.5t363 84.5q279 0 451.5 -176t172.5 -453q0 -173 -71.5 -335t-189.5 -280t-277.5 -189t-327.5 -71q-186 0 -328.5 84.5t-217 228t-75.5 322.5h-237 l-119 -610h-268zM977 629q0 -180 101 -292t265 -112q141 0 271.5 82t212.5 224t82 303q0 178 -102 286.5t-265 108.5q-106 0 -209 -47.5t-181.5 -127.5t-126.5 -192t-48 -233z" />
<glyph unicode="&#x42f;" horiz-adv-x="1306" d="M-72 0l45 227h23q39 0 64.5 9t48.5 38l190 242q20 27 43.5 48.5t37.5 29.5l13 8l2 4q-37 19 -66 40t-64.5 59.5t-56 97.5t-20.5 133q0 113 46 211t123 164.5t177.5 104.5t208.5 38h670l-43 -227h-133l-240 -1227h-268l102 524h-118q-59 0 -86.5 -15t-67.5 -67l-258 -333 q-52 -66 -97.5 -87.5t-127.5 -21.5h-148zM463 948q0 -95 54.5 -145.5t150.5 -50.5h206l95 475h-211q-123 0 -209 -78t-86 -201z" />
<glyph unicode="&#x430;" horiz-adv-x="1114" d="M-14 252q0 106 57.5 186t157 126t219.5 68.5t258 22.5h37l4 21q6 30 6 63q0 62 -40.5 95.5t-119.5 33.5q-57 0 -103.5 -16.5t-51.5 -52.5l-11 -56h-243l22 111q11 59 52 102.5t102 67t127 34.5t139 11q196 0 291.5 -78.5t95.5 -224.5q0 -45 -14 -117l-68 -356 q-8 -32 -8 -43q0 -14 10.5 -22.5t28.5 -8.5h82l-43 -219h-221q-58 0 -86.5 24t-28.5 62q0 28 18 98h-4q-5 -8 -14.5 -22.5t-43 -50.5t-72 -63.5t-101.5 -50t-131 -22.5q-131 0 -217 73.5t-86 203.5zM246 291q0 -57 35 -90t92 -33q102 0 193 93.5t110 189.5l6 26h-43 q-71 0 -135.5 -9t-125 -28.5t-96.5 -58t-36 -90.5z" />
<glyph unicode="&#x431;" horiz-adv-x="1198" d="M63 463q0 100 24.5 216t62.5 214q61 153 161 246t277 164l217 88q80 32 105 50.5t34 55.5l10 39h248l-20 -102q-10 -55 -32.5 -94.5t-64.5 -68.5t-70.5 -42.5t-91.5 -37.5q-18 -7 -28 -11l-238 -95q-115 -45 -188.5 -112.5t-95.5 -167.5h2q129 145 332 145 q192 0 297.5 -109.5t105.5 -297.5q0 -127 -50 -235t-134 -180t-193.5 -112.5t-228.5 -40.5q-94 0 -170 26.5t-125.5 71.5t-83 108t-48 133t-14.5 149zM319 414q0 -108 58.5 -164.5t150.5 -56.5q80 0 153.5 39.5t122 116t48.5 171.5q0 104 -59.5 158.5t-155.5 54.5 q-84 0 -157.5 -42t-117.5 -116q-43 -72 -43 -161z" />
<glyph unicode="&#x432;" horiz-adv-x="1114" d="M68 74q0 23 4 37l137 712h-127l43 221h594q149 0 235 -62.5t86 -174.5q0 -96 -57 -166t-133 -96v-4q68 -23 105.5 -79.5t37.5 -127.5q0 -104 -61.5 -181t-159 -115t-215.5 -38h-397q-92 0 -92 74zM348 201q0 -25 31 -25h156q91 0 145.5 47.5t54.5 124.5q0 51 -37.5 79 t-109.5 28h-191l-41 -207q-8 -40 -8 -47zM428 616h174q78 0 126 45t48 115q0 92 -129 92h-170z" />
<glyph unicode="&#x433;" horiz-adv-x="931" d="M51 0l160 823h-127l43 221h715q60 0 88 -21.5t28 -68.5q0 -20 -6 -47l-34 -188h-213l8 47q4 28 4 29q0 28 -39 28h-207l-162 -823h-258z" />
<glyph unicode="&#x434;" horiz-adv-x="1251" d="M-145 -246l63 322q14 71 50 104t104 33h10q170 173 256 559l10 51h-121l43 221h748q73 0 99.5 -33t12.5 -106l-135 -692h27q68 0 92 -33t10 -104l-61 -322h-236l39 201q6 45 -32 45h-656q-42 -3 -51 -45l-37 -201h-235zM348 213h387l111 565q9 45 -37 45h-217l-10 -51 q-74 -378 -234 -559z" />
<glyph unicode="&#x435;" horiz-adv-x="1116" d="M37 424q0 175 78 323t218 235t310 87q203 0 309.5 -107.5t106.5 -287.5q0 -42 -8.5 -91.5t-17.5 -78.5l-9 -29h-719q-6 -24 -6 -53q0 -101 69 -164t191 -63q47 0 97.5 11.5t89.5 28.5t71 34t49 29l17 11l69 -196q-7 -6 -20.5 -15t-56.5 -33t-88.5 -42t-112 -33 t-131.5 -15q-237 0 -371.5 126.5t-134.5 322.5zM340 649h457q6 27 6 47q0 80 -45.5 126t-120.5 46q-99 0 -179.5 -59.5t-117.5 -159.5z" />
<glyph unicode="&#x436;" horiz-adv-x="1599" d="M-88 0l315 422q29 39 63 65.5t53 33.5l19 7l3 4q-4 2 -10.5 6t-21.5 25.5t-24 52.5l-49 168q-7 23 -25.5 31t-56.5 8h-72l44 221h165q69 0 99.5 -17.5t48.5 -72.5l80 -266q15 -49 96 -49h51l80 405h248l-78 -405h41q22 0 36.5 2t34.5 13.5t35 33.5l185 266q38 54 79.5 72 t112.5 18h172l-43 -221h-59q-37 0 -57 -7.5t-37 -31.5l-115 -168q-21 -31 -47 -52t-42 -26l-15 -6v-4l5 -2l14 -10.5t20 -18t22 -30.5t21 -45l151 -422h-266l-121 348q-14 42 -40.5 57t-68.5 15h-61l-82 -420h-250l84 420h-49q-42 0 -72.5 -14.5t-62.5 -57.5l-258 -348h-295 z" />
<glyph unicode="&#x437;" horiz-adv-x="927" d="M-45 129l127 160q16 -19 43 -40t88 -46t127 -25q90 0 150.5 46t60.5 128q0 97 -150 97h-135l33 169h100q94 0 151.5 43.5t57.5 122.5q0 49 -36.5 73t-98.5 24q-57 0 -106 -22t-56 -68l-8 -43h-209l19 104q21 107 130 162t257 55q171 0 268.5 -66.5t97.5 -187.5 q0 -106 -61 -177t-139 -95v-4q60 -21 99.5 -72t39.5 -131q0 -85 -40 -155.5t-106 -114t-147 -67.5t-168 -24q-235 0 -389 154z" />
<glyph unicode="&#x438;" horiz-adv-x="1300" d="M49 0l148 752q6 36 6 41q0 30 -37 30h-82l43 221h231q115 0 115 -90q0 -23 -6 -47l-82 -418l-29 -120h4q22 37 105 129l493 546h259l-146 -745q-8 -36 -8 -47q0 -33 37 -33h80l-43 -219h-230q-59 0 -86.5 22t-27.5 68q0 15 4 47l80 416q5 33 28 121h-4q-34 -53 -104 -127 l-490 -547h-258z" />
<glyph unicode="&#x439;" horiz-adv-x="1300" d="M49 0l148 752q6 36 6 41q0 30 -37 30h-82l43 221h231q115 0 115 -90q0 -23 -6 -47l-82 -418l-29 -120h4q22 37 105 129l493 546h259l-146 -745q-8 -36 -8 -47q0 -33 37 -33h80l-43 -219h-230q-59 0 -86.5 22t-27.5 68q0 15 4 47l80 416q5 33 28 121h-4q-34 -53 -104 -127 l-490 -547h-258zM481 1376q0 33 11 78h202q-8 -20 -8 -51q0 -47 31 -76t84 -29q62 0 108.5 37t57.5 119h196q-12 -83 -48.5 -144.5t-89.5 -96.5t-112.5 -51.5t-126.5 -16.5q-134 0 -219.5 65t-85.5 166z" />
<glyph unicode="&#x43a;" horiz-adv-x="1155" d="M51 0l146 750q6 36 6 43q0 30 -37 30h-80l41 221h242q63 0 93 -23.5t30 -74.5q0 -12 -9 -53l-45 -242h70q64 0 98 43l289 350h297l-352 -423q-24 -29 -48 -49.5t-36 -26.5l-11 -6l-2 -4q5 -2 13 -6.5t26.5 -25.5t30.5 -50l78 -195q9 -23 26 -31t54 -8h67l-43 -219h-186 q-67 0 -95 17t-48 73l-109 303q-16 39 -86 39h-76l-84 -432h-260z" />
<glyph unicode="&#x43b;" horiz-adv-x="1165" d="M-86 -6l41 229q73 6 139 78q61 66 108 186.5t74 255.5l17 80h-127l41 221h735q119 0 119 -92q0 -23 -6 -47l-121 -618q-6 -24 -6 -35q0 -33 39 -33h82l-43 -219h-248q-117 0 -117 92q0 20 6 47l119 617q1 6 2.5 14t2.5 13.5t1 7.5q0 32 -37 32h-196l-17 -82 q-38 -196 -111 -369.5t-192 -273.5q-129 -104 -305 -104z" />
<glyph unicode="&#x43c;" horiz-adv-x="1519" d="M-80 0l43 219h45q33 0 43 37l225 788h281l121 -542l22 -131h2q39 72 74 131l330 542h305l-80 -759q-2 -20 -2 -37q0 -29 29 -29h47l-45 -219h-193q-50 0 -70 18t-20 58q0 29 2 43l51 430q4 31 11.5 78.5t13.5 79.5l6 32h-4q-47 -90 -94 -164l-287 -444h-225l-115 444 q-7 32 -12.5 74.5t-7.5 68.5l-2 27h-4q-19 -126 -37 -196l-121 -438q-16 -58 -45 -84.5t-88 -26.5h-199z" />
<glyph unicode="&#x43d;" horiz-adv-x="1302" d="M51 0l144 741q10 45 10 52q0 30 -39 30h-82l43 221h248q117 0 117 -92q0 -19 -7 -47l-51 -268h445l79 407h261l-146 -741q-8 -50 -8 -53q0 -31 37 -31h82l-43 -219h-248q-117 0 -117 90q0 24 6 51l56 283h-445l-84 -424h-258z" />
<glyph unicode="&#x43e;" horiz-adv-x="1267" d="M35 438q0 132 55.5 250.5t147 201t212.5 131t250 48.5q220 0 360 -128t140 -333q0 -134 -56 -253t-148 -201.5t-213 -130.5t-248 -48q-220 0 -360 127.5t-140 335.5zM299 451q0 -116 70.5 -185t185.5 -69q93 0 180 49.5t144 142t57 203.5q0 115 -70.5 185.5t-183.5 70.5 q-94 0 -182 -50.5t-144.5 -143.5t-56.5 -203z" />
<glyph unicode="&#x43f;" horiz-adv-x="1280" d="M51 0l160 823h-127l43 221h932q117 0 117 -92q0 -19 -7 -47l-116 -604q-1 -9 -3.5 -21.5t-4 -19.5t-1.5 -10q0 -14 10.5 -22.5t28.5 -8.5h80l-43 -219h-248q-116 0 -116 90q0 24 6 51l121 615q1 7 2.5 15t2.5 13t1 7q0 32 -39 32h-379l-162 -823h-258z" />
<glyph unicode="&#x440;" horiz-adv-x="1269" d="M-29 -410l224 1149q6 35 6 54q0 17 -7.5 23.5t-27.5 6.5h-82l43 221h231q111 0 111 -77q0 -37 -16 -80h4q59 83 148.5 132.5t199.5 49.5q185 0 289 -118.5t104 -325.5q0 -111 -31.5 -213.5t-86.5 -180.5t-126.5 -136.5t-155 -89t-169.5 -30.5q-95 0 -173.5 39.5 t-121.5 114.5h-4q-5 -41 -15 -94l-86 -445h-258zM393 432q0 -104 51.5 -170.5t151.5 -66.5q61 0 120.5 29t108.5 80t79 129.5t30 170.5q0 115 -54 178.5t-151 63.5q-85 0 -162.5 -56t-125.5 -152t-48 -206z" />
<glyph unicode="&#x441;" horiz-adv-x="1095" d="M37 446q0 122 48.5 235.5t131.5 199t202.5 137t252.5 51.5q51 0 103.5 -7t109.5 -26t98.5 -47t63.5 -75.5t10 -106.5l-19 -96h-225l6 32q10 51 -40.5 79t-123.5 28q-97 0 -179 -53.5t-128.5 -140.5t-46.5 -185q0 -117 68.5 -193.5t205.5 -76.5q55 0 108 12.5t90 30.5 t66 35.5t43 30.5l15 12l70 -201q-6 -6 -17 -16t-50.5 -35t-84.5 -44t-118 -35t-152 -16q-122 0 -219.5 36.5t-160 101t-95.5 149.5t-33 184z" />
<glyph unicode="&#x442;" horiz-adv-x="1124" d="M55 719l35 188q13 73 53.5 105t114.5 32h778q117 0 117 -90q0 -23 -6 -47l-35 -188h-213l6 37q6 30 6 37q0 30 -39 30h-139l-160 -823h-260l160 823h-139q-46 0 -55 -45l-11 -59h-213z" />
<glyph unicode="&#x443;" horiz-adv-x="1134" d="M-166 -324l107 185l3 -3q3 -4 7 -8l10 -10t14 -11.5t17 -12t20.5 -11.5t24 -9t27.5 -6.5t30 -2.5q108 0 191 135l53 84l-193 780q-6 23 -15.5 30t-33.5 7h-30l43 221h176q46 0 70.5 -24.5t33.5 -73.5l103 -522q4 -24 6.5 -58.5t3.5 -57.5v-23h4q32 86 61 139l279 522 q29 53 67 75.5t93 22.5h186l-43 -221h-31q-46 0 -65 -37l-564 -952q-80 -134 -183.5 -199t-217.5 -65q-43 0 -84.5 11t-71 26.5t-52.5 31t-34 26.5z" />
<glyph unicode="&#x444;" horiz-adv-x="1556" d="M37 438q0 177 90 315t248.5 213.5t357.5 77.5l27 132q4 24 4 26q0 31 -39 31h-82l43 221h248q117 0 117 -92q0 -15 -4 -47l-54 -271q137 -2 248 -54.5t177.5 -153t66.5 -230.5q0 -177 -89 -315t-247 -213.5t-358 -77.5l-80 -410h-258l77 410q-213 3 -353 122.5 t-140 315.5zM301 451q0 -111 72 -176.5t198 -65.5l121 627q-160 -5 -275.5 -113.5t-115.5 -271.5zM829 209q160 3 276 112t116 273q0 111 -72.5 176.5t-196.5 65.5z" />
<glyph unicode="&#x445;" horiz-adv-x="1077" d="M-80 0l453 539l-131 247q-11 22 -27.5 29.5t-46.5 7.5h-76l43 221h168q60 0 91.5 -23t58.5 -81l77 -166l23 -65h4q25 40 43 65l129 166q48 63 81.5 83.5t98.5 20.5h203l-43 -221h-76q-32 0 -50 -6.5t-36 -28.5l-233 -268l248 -520h-271l-139 291l-20 55h-5 q-16 -28 -36 -55l-236 -291h-295z" />
<glyph unicode="&#x446;" horiz-adv-x="1277" d="M70 88q0 20 6 47l117 608q8 36 8 48q0 32 -37 32h-82l43 221h248q116 0 116 -92q0 -23 -6 -47l-116 -604q-11 -49 -11 -55q0 -33 37 -33h367l162 831h260l-162 -831h27q56 0 82 -21.5t26 -66.5q0 -22 -6 -49l-62 -322h-235l33 172q6 24 6 41q0 33 -33 33h-672 q-60 0 -88 21t-28 67z" />
<glyph unicode="&#x447;" horiz-adv-x="1142" d="M66 823l43 221h235q111 0 111 -92q0 -13 -4 -49l-33 -166q-6 -30 -6 -59q0 -55 32.5 -85t112.5 -30q107 0 209 66l82 415h260l-205 -1044h-260l72 358l14 58h-2q-140 -64 -289 -64q-137 0 -218 65t-81 173q0 28 6 63l21 103q1 7 2.5 15.5t2.5 14t1 7.5q0 17 -9 23.5 t-30 6.5h-67z" />
<glyph unicode="&#x448;" horiz-adv-x="1744" d="M70 90q0 23 6 47l114 604l4.5 22.5t4.5 20t2 9.5q0 30 -39 30h-80l43 221h246q60 0 88 -22.5t28 -69.5q0 -23 -6 -47l-116 -608q-2 -10 -4.5 -22t-4.5 -20t-2 -11q0 -14 10 -22.5t27 -8.5h273l161 831h258l-161 -831h278q44 0 53 45l125 647q13 72 53.5 105.5t112.5 33.5 h246l-43 -221h-82q-44 0 -53 -45l-123 -641q-15 -72 -54.5 -104.5t-111.5 -32.5h-1139q-59 0 -86.5 22t-27.5 68z" />
<glyph unicode="&#x449;" horiz-adv-x="1765" d="M70 90q0 23 6 47l114 604l4.5 22.5t4.5 20t2 9.5q0 30 -39 30h-80l43 221h246q60 0 88 -22.5t28 -69.5q0 -23 -6 -47l-116 -608q-11 -46 -11 -53q0 -14 10 -22.5t27 -8.5h273l161 831h258l-161 -831h321l162 831h260l-162 -831h33q111 0 111 -86q0 -19 -7 -43l-63 -330 h-236l33 170q8 40 8 47q0 12 -10.5 20.5t-28.5 8.5h-1159q-59 0 -86.5 22t-27.5 68z" />
<glyph unicode="&#x44a;" horiz-adv-x="1288" d="M53 721l35 186q15 73 54 105t112 32h352q115 0 115 -90q0 -23 -4 -43l-45 -227h188q172 0 259 -77t87 -204q0 -96 -36.5 -174t-99 -127t-142 -75.5t-168.5 -26.5h-369q-49 0 -71.5 18t-22.5 56q0 9 4 37l125 645q2 11 4 23l3 18t1 8q0 33 -39 33h-73q-23 0 -34 -10 t-16 -35l-14 -72h-205zM580 205q0 -12 8.5 -19.5t21.5 -7.5h129q89 0 146 58t57 149q0 56 -34.5 88.5t-104.5 32.5h-164l-51 -254q-2 -11 -4 -22.5t-3 -17t-1 -7.5z" />
<glyph unicode="&#x44b;" horiz-adv-x="1581" d="M68 74q0 23 4 37l121 632q10 42 10 50q0 30 -39 30h-82l43 221h250q58 0 87.5 -24t29.5 -66q0 -8 -7 -43l-45 -227h178q173 0 261 -77t88 -204q0 -96 -37 -174t-99.5 -127t-142 -75.5t-168.5 -26.5h-360q-92 0 -92 74zM348 205q0 -12 8.5 -19.5t22.5 -7.5h121 q89 0 145.5 58t56.5 149q0 56 -35.5 88.5t-103.5 32.5h-155l-50 -254q-10 -45 -10 -47zM1061 139l176 905h260l-151 -780q-9 -45 34 -45h82l-43 -219h-248q-72 0 -98 32.5t-12 106.5z" />
<glyph unicode="&#x44c;" horiz-adv-x="1056" d="M68 74q0 23 4 37l121 632q10 42 10 50q0 30 -39 30h-82l43 221h250q58 0 87.5 -24t29.5 -66q0 -8 -7 -43l-45 -227h189q172 0 259 -77t87 -204q0 -96 -37 -174t-99.5 -127t-142 -75.5t-168.5 -26.5h-368q-92 0 -92 74zM348 205q0 -12 8.5 -19.5t22.5 -7.5h131 q89 0 146 58t57 149q0 56 -35.5 88.5t-104.5 32.5h-165l-50 -254q-10 -45 -10 -47z" />
<glyph unicode="&#x44d;" horiz-adv-x="1095" d="M-43 131l109 172q51 -57 132.5 -90t168.5 -33q126 0 230 71.5t151 182.5h-445l35 172h444q0 124 -75 191t-187 67q-70 0 -131.5 -24.5t-69.5 -65.5l-8 -45h-217l19 90q21 116 142.5 183t283.5 67q151 0 263 -64.5t168 -170.5t56 -238q0 -122 -50.5 -236t-136 -198.5 t-206 -135.5t-254.5 -51q-118 0 -236.5 39.5t-185.5 116.5z" />
<glyph unicode="&#x44e;" horiz-adv-x="1759" d="M49 0l146 748q2 10 4 20.5t3 16t1 8.5q0 30 -39 30h-80l43 221h248q60 0 87 -22t27 -70q0 -15 -4 -47l-55 -276h162q61 195 232 317.5t380 122.5q213 0 349.5 -129t136.5 -340q0 -172 -91 -317t-239.5 -226.5t-317.5 -81.5q-207 0 -340 123.5t-137 331.5h-172l-84 -430 h-260zM829 457q0 -121 65 -190.5t171 -69.5q140 0 250 113.5t110 275.5q0 120 -67.5 191t-173.5 71q-141 0 -248 -114t-107 -277z" />
<glyph unicode="&#x44f;" horiz-adv-x="1114" d="M-63 0l43 221h32q30 0 48 7t36 28l105 121q29 33 63 51l2 4q-68 22 -109.5 85t-41.5 153q0 111 57.5 197.5t150.5 131.5t203 45h633l-43 -221h-127l-160 -823h-260l70 356h-86q-32 0 -53 -13t-54 -50l-172 -203q-53 -59 -89.5 -74.5t-104.5 -15.5h-143zM375 672 q0 -65 41 -101t114 -36h144l65 337h-149q-94 0 -154.5 -56t-60.5 -144z" />
<glyph unicode="&#x450;" horiz-adv-x="1120" d="M37 424q0 175 78 323t218 235t310 87q203 0 309.5 -107.5t106.5 -287.5q0 -42 -8.5 -91.5t-17.5 -78.5l-9 -29h-719q-6 -24 -6 -53q0 -101 69 -164t191 -63q47 0 97.5 11.5t89.5 28.5t71 34t49 29l17 11l69 -196q-7 -6 -20.5 -15t-56.5 -33t-88.5 -42t-112 -33 t-131.5 -15q-237 0 -371.5 126.5t-134.5 322.5zM340 649h457q6 27 6 47q0 80 -45.5 126t-120.5 46q-99 0 -179.5 -59.5t-117.5 -159.5zM475 1454h238l108 -278h-182z" />
<glyph unicode="&#x451;" horiz-adv-x="1120" d="M37 424q0 175 78 323t218 235t310 87q203 0 309.5 -107.5t106.5 -287.5q0 -42 -8.5 -91.5t-17.5 -78.5l-9 -29h-719q-6 -24 -6 -53q0 -101 69 -164t191 -63q47 0 97.5 11.5t89.5 28.5t71 34t49 29l17 11l69 -196q-7 -6 -20.5 -15t-56.5 -33t-88.5 -42t-112 -33 t-131.5 -15q-237 0 -371.5 126.5t-134.5 322.5zM340 649h457q6 27 6 47q0 80 -45.5 126t-120.5 46q-99 0 -179.5 -59.5t-117.5 -159.5zM424 1217l47 237h180l-47 -237h-180zM791 1217l47 237h182l-47 -237h-182z" />
<glyph unicode="&#x452;" horiz-adv-x="1216" d="M8 0l213 1108h-123l35 180h125l31 166h260l-31 -166h387l-35 -180h-389l-53 -283q-4 -23 -11 -45.5t-11 -33.5l-5 -11h5q47 81 156.5 145t232.5 64q145 0 229 -70t84 -215q0 -45 -14 -124l-105 -545q-14 -75 -41.5 -137t-60.5 -104.5t-75 -75t-82 -51t-83.5 -30.5 t-78 -16t-68.5 -4q-27 0 -54 1.5t-40 2.5l-13 2l45 221q27 -4 64 -4q191 0 233 225l90 465q11 64 11 95q0 127 -129 127q-130 0 -237 -107.5t-136 -253.5l-68 -346h-258z" />
<glyph unicode="&#x453;" horiz-adv-x="931" d="M51 0l160 823h-127l43 221h715q60 0 88 -21.5t28 -68.5q0 -20 -6 -47l-34 -188h-213l8 47q4 28 4 29q0 28 -39 28h-207l-162 -823h-258zM475 1176l209 278h254l-264 -278h-199z" />
<glyph unicode="&#x454;" horiz-adv-x="1097" d="M37 442q0 125 49.5 239.5t135.5 200t211 136.5t267 51q57 0 118 -13.5t116.5 -38t91 -66.5t35.5 -93q0 -16 -2 -24l-21 -105h-215l4 29q7 24 7 30q0 37 -47.5 58.5t-112.5 21.5q-125 0 -221 -71.5t-142 -188.5h459l-31 -170h-460q1 -120 80.5 -188t207.5 -68 q89 0 177.5 37.5t158.5 99.5l80 -190q-72 -65 -201 -109.5t-245 -44.5q-232 0 -366 130.5t-134 336.5z" />
<glyph unicode="&#x455;" horiz-adv-x="954" d="M-29 154l123 170q5 -6 14 -16t40 -35t64.5 -44t85.5 -35t105 -16q73 0 117.5 30t44.5 81q0 21 -9.5 39.5t-22.5 30.5t-37.5 25t-41.5 20t-48 18q-43 17 -71 29t-68 33.5t-65.5 44.5t-50.5 54.5t-37 71.5t-12 88q0 81 36.5 144.5t98 102.5t137 59t158.5 20q71 0 139 -14.5 t125.5 -42.5t87 -77.5t17.5 -111.5l-16 -80h-223l4 33q8 40 -31 66t-109 26q-74 0 -117.5 -30t-43.5 -78q0 -13 3 -25t11 -23t14.5 -19t21.5 -17t23 -14.5t27.5 -14t27.5 -12t31 -12.5t29 -11q41 -16 67 -27.5t63 -31.5t60.5 -41.5t46 -50t33.5 -66.5t11 -82 q0 -151 -123.5 -244.5t-309.5 -93.5q-81 0 -155.5 18.5t-122.5 44.5t-84 52.5t-52 45.5z" />
<glyph unicode="&#x456;" horiz-adv-x="591" d="M72 100q0 17 6 47l117 601q6 30 6 45q0 30 -37 30h-82l43 221h240q63 0 92.5 -23.5t29.5 -74.5q0 -17 -8 -63l-117 -600q-4 -20 -4 -31q0 -33 37 -33h80l-41 -219h-239q-61 0 -92 26t-31 74zM297 1214l47 240h225l-47 -240h-225z" />
<glyph unicode="&#x457;" horiz-adv-x="591" d="M72 100q0 17 6 47l117 601q6 30 6 45q0 30 -37 30h-82l43 221h240q63 0 92.5 -23.5t29.5 -74.5q0 -17 -8 -63l-117 -600q-4 -20 -4 -31q0 -33 37 -33h80l-41 -219h-239q-61 0 -92 26t-31 74zM141 1214l47 240h181l-45 -240h-183zM459 1214l45 240h182l-47 -240h-180z" />
<glyph unicode="&#x458;" horiz-adv-x="546" d="M-283 -418l43 219q16 -4 43 -4q209 0 248 209l146 742q6 30 6 45q0 30 -37 30h-80l41 221h240q125 0 125 -96q0 -2 -9 -63l-178 -918q-14 -73 -42 -133.5t-62 -100t-77.5 -69.5t-83 -46.5t-84.5 -26t-77 -12.5t-65 -3zM299 1214l45 240h225l-45 -240h-225z" />
<glyph unicode="&#x459;" horiz-adv-x="1574" d="M-94 -10l43 229q85 7 155 82q62 69 109 192t74 263l14 67h-127l43 221h684q58 0 87.5 -23t29.5 -65q0 -22 -2 -30l-51 -258h188q165 0 251.5 -77t86.5 -204q0 -177 -121.5 -282t-341.5 -105h-342q-94 0 -94 76q0 11 4 35l125 641q2 12 5 25t4 18.5t1 7.5q0 33 -39 33 h-145l-12 -70q-86 -440 -263 -629q-141 -147 -366 -147zM874 205q0 -12 9 -19.5t24 -7.5h125q93 0 151 52t58 132q0 59 -39.5 92t-114.5 33h-157l-45 -231q-3 -13 -5.5 -25.5t-4 -18t-1.5 -7.5z" />
<glyph unicode="&#x45a;" horiz-adv-x="1732" d="M51 0l144 735q10 52 10 58q0 30 -39 30h-80l43 221h248q60 0 87.5 -22.5t27.5 -69.5q0 -7 -5 -47l-47 -241h428l74 380h260l-74 -378h181q170 0 257 -77.5t87 -205.5q0 -168 -128 -275.5t-317 -107.5h-358q-49 0 -71.5 18t-22.5 56q0 9 4 37l69 350h-428l-90 -461h-260z M1038 203q0 -25 31 -25h131q86 0 142.5 52t56.5 137q0 54 -35 83t-104 29h-168l-43 -227q-2 -10 -5 -22.5t-4.5 -18t-1.5 -8.5z" />
<glyph unicode="&#x45b;" horiz-adv-x="1267" d="M8 0l213 1108h-125l37 180h125l31 166h260l-31 -166h387l-35 -180h-389l-53 -277q-4 -21 -10 -44t-9.5 -34.5t-2.5 -11.5h4q54 85 155 144t221 59q324 0 324 -276q0 -48 -14 -127l-47 -240q-2 -9 -4 -21t-3.5 -18.5t-1.5 -9.5q0 -33 39 -33h80l-43 -219h-246 q-61 0 -89.5 22.5t-28.5 69.5q0 20 6 47l69 355q9 47 9 86q0 127 -129 127q-140 0 -242 -104.5t-131 -256.5l-68 -346h-258z" />
<glyph unicode="&#x45c;" horiz-adv-x="1155" d="M51 0l146 750q6 36 6 43q0 30 -37 30h-80l41 221h242q63 0 93 -23.5t30 -74.5q0 -12 -9 -53l-45 -242h70q64 0 98 43l289 350h297l-352 -423q-24 -29 -48 -49.5t-36 -26.5l-11 -6l-2 -4q5 -2 13 -6.5t26.5 -25.5t30.5 -50l78 -195q9 -23 26 -31t54 -8h67l-43 -219h-186 q-67 0 -95 17t-48 73l-109 303q-16 39 -86 39h-76l-84 -432h-260zM602 1176l209 278h254l-264 -278h-199z" />
<glyph unicode="&#x45d;" horiz-adv-x="1300" d="M49 0l148 752q6 36 6 41q0 30 -37 30h-82l43 221h231q115 0 115 -90q0 -23 -6 -47l-82 -418l-29 -120h4q22 37 105 129l493 546h259l-146 -745q-8 -36 -8 -47q0 -33 37 -33h80l-43 -219h-230q-59 0 -86.5 22t-27.5 68q0 15 4 47l80 416q5 33 28 121h-4q-34 -53 -104 -127 l-490 -547h-258zM543 1454h237l109 -278h-182z" />
<glyph unicode="&#x45e;" horiz-adv-x="1134" d="M-166 -324l107 185l3 -3q3 -4 7 -8l10 -10t14 -11.5t17 -12t20.5 -11.5t24 -9t27.5 -6.5t30 -2.5q108 0 191 135l53 84l-193 780q-6 23 -15.5 30t-33.5 7h-30l43 221h176q46 0 70.5 -24.5t33.5 -73.5l103 -522q4 -24 6.5 -58.5t3.5 -57.5v-23h4q32 86 61 139l279 522 q29 53 67 75.5t93 22.5h186l-43 -221h-31q-46 0 -65 -37l-564 -952q-80 -134 -183.5 -199t-217.5 -65q-43 0 -84.5 11t-71 26.5t-52.5 31t-34 26.5zM377 1376q0 37 10 78h203q-8 -20 -8 -51q0 -47 30.5 -76t83.5 -29q62 0 108.5 37t57.5 119h197q-12 -83 -48.5 -144.5 t-89.5 -96.5t-112.5 -51.5t-126.5 -16.5q-134 0 -219.5 65t-85.5 166z" />
<glyph unicode="&#x45f;" horiz-adv-x="1249" d="M70 88q0 20 6 47l117 602q8 50 8 54q0 32 -37 32h-82l43 221h248q116 0 116 -92q0 -23 -6 -47l-116 -604q-11 -53 -11 -55q0 -33 37 -33h314q44 0 53 45l125 647q14 72 53.5 105.5t112.5 33.5h245l-43 -221h-79q-45 0 -54 -45l-125 -643q-15 -72 -53.5 -103.5 t-112.5 -31.5h-206l-48 -246h-229l49 246h-209q-60 0 -88 21t-28 67z" />
<glyph unicode="&#x462;" horiz-adv-x="1415" d="M104 1059l43 227h349l32 168h271l-33 -168h383l-43 -227h-385l-39 -195h229q91 0 168 -18.5t142.5 -58t103 -110t37.5 -165.5q0 -150 -81.5 -269t-210.5 -181t-277 -62h-408q-117 0 -117 92q0 20 6 47l179 920h-349zM565 254q0 -33 39 -33h201q116 0 198 72.5t82 195.5 q0 75 -52.5 114.5t-143.5 39.5h-248l-70 -356l-2.5 -12.5l-2.5 -12.5t-1 -8z" />
<glyph unicode="&#x463;" horiz-adv-x="1153" d="M80 938l37 188h248l63 328h260l-63 -328h333l-36 -188h-334l-49 -248h186q172 0 262 -81.5t90 -215.5q0 -166 -131.5 -279.5t-320.5 -113.5h-369q-92 0 -92 74q0 25 4 37l160 827h-248zM444 205q0 -12 9 -19.5t24 -7.5h129q88 0 149.5 60t61.5 149q0 59 -38 92t-107 33 h-168l-49 -254q-11 -50 -11 -53z" />
<glyph unicode="&#x472;" d="M76 614q0 115 33 226t92 206t142 175.5t180 137t210 88.5t228 32q286 0 465.5 -176.5t179.5 -452.5q0 -138 -47 -271t-131.5 -241t-194.5 -190t-243.5 -127.5t-270.5 -45.5q-188 0 -335 82t-227.5 227.5t-80.5 329.5zM354 629q0 -179 108 -291.5t279 -112.5 q170 0 325.5 114.5t221.5 289.5h-934zM391 834h936q0 177 -108.5 286t-278.5 109q-173 0 -328 -111.5t-221 -283.5z" />
<glyph unicode="&#x473;" horiz-adv-x="1267" d="M35 438q0 132 55.5 250.5t147 201t212.5 131t250 48.5q220 0 360 -128t140 -333q0 -134 -56 -253t-148 -201.5t-213 -130.5t-248 -48q-220 0 -360 127.5t-140 335.5zM279 451q0 -124 76.5 -199.5t199.5 -75.5q117 0 224.5 76t152.5 199h-653zM307 604h649 q-5 119 -80.5 191.5t-193.5 72.5q-115 0 -220.5 -73.5t-154.5 -190.5z" />
<glyph unicode="&#x474;" horiz-adv-x="1431" d="M182 1454h287l139 -930q4 -36 7.5 -89.5t4.5 -88.5l1 -35h4q53 131 98 213l412 785q46 89 95 117t146 28h199l-43 -229h-49q-54 0 -76.5 -13.5t-48.5 -62.5l-639 -1149h-283z" />
<glyph unicode="&#x475;" horiz-adv-x="1196" d="M106 1044h265l106 -647q4 -27 6 -64.5t2 -60.5v-24h4q35 88 66 149l242 451q59 110 125.5 153t179.5 43h162l-45 -223h-58q-59 0 -91.5 -21t-68.5 -85l-401 -715h-299z" />
<glyph unicode="&#x48a;" horiz-adv-x="1660" d="M76 0l229 1182q9 45 -35 45h-88l43 227h264q72 0 98.5 -33.5t12.5 -105.5l-133 -678q-6 -38 -20 -93.5t-25 -91.5l-10 -36h4q87 139 157 223l693 815h284l-231 -1182q-6 -42 29 -45h211l-29 -143l-234 -371h-196l131 287h-94q-72 0 -99 33t-12 106l131 680q7 37 22 93.5 t27 93.5l11 38h-5q-85 -141 -155 -225l-697 -819h-284zM700 1751q0 33 11 78h202q-8 -20 -8 -51q0 -47 31 -76t84 -29q62 0 108.5 37t57.5 119h196q-12 -83 -48 -144.5t-89 -96.5t-112.5 -51.5t-126.5 -16.5q-134 0 -220 65t-86 166z" />
<glyph unicode="&#x48b;" horiz-adv-x="1380" d="M49 0l148 752q6 36 6 41q0 30 -37 30h-82l43 221h231q115 0 115 -90q0 -23 -6 -47l-82 -418l-29 -120h4q22 37 105 129l493 546h259l-146 -745q-8 -36 -8 -47q0 -33 37 -33h176l-27 -137l-205 -328h-184l111 246h-64q-59 0 -86.5 22t-27.5 68q0 15 4 47l80 416 q5 33 28 121h-4q-34 -53 -104 -127l-490 -547h-258zM471 1376q0 37 10 78h203q-8 -20 -8 -51q0 -47 31 -76t84 -29q62 0 108 37t57 119h197q-12 -83 -48.5 -144.5t-89.5 -96.5t-112.5 -51.5t-126.5 -16.5q-134 0 -219.5 65t-85.5 166z" />
<glyph unicode="&#x48c;" horiz-adv-x="1384" d="M113 1149l37 201h321l37 186h268l-35 -186h392l-39 -201h-392l-49 -250h224q70 0 134 -13.5t123 -43.5t102 -74.5t69 -111t26 -148.5q0 -149 -79.5 -266.5t-209 -179.5t-280.5 -62h-412q-117 0 -117 92q0 2 5 47l196 1010h-321zM528 254q0 -33 39 -33h207q117 0 199 81.5 t82 201.5q0 80 -52.5 127t-142.5 47h-248l-77 -399q-1 -3 -2.5 -9t-3 -10t-1.5 -6z" />
<glyph unicode="&#x48d;" horiz-adv-x="1153" d="M80 938l37 188h248l63 328h260l-63 -328h333l-36 -188h-334l-49 -248h186q172 0 262 -81.5t90 -215.5q0 -166 -131.5 -279.5t-320.5 -113.5h-369q-92 0 -92 74q0 25 4 37l160 827h-248zM444 205q0 -12 9 -19.5t24 -7.5h129q88 0 149.5 60t61.5 149q0 59 -38 92t-107 33 h-168l-49 -254q-11 -50 -11 -53z" />
<glyph unicode="&#x48e;" horiz-adv-x="1300" d="M74 0l239 1227h-133l45 227h668q185 0 294 -109.5t109 -293.5q0 -124 -50.5 -231t-139.5 -183l117 -143l-144 -115l-131 162q-103 -39 -207 -39h-301l-98 -502h-268zM479 700h254q42 0 82 9l-115 145l144 115l129 -164q78 88 78 227q0 92 -55.5 143.5t-157.5 51.5h-256z " />
<glyph unicode="&#x48f;" horiz-adv-x="1298" d="M-29 -410l224 1149q6 35 6 52q0 19 -7.5 25.5t-27.5 6.5h-82l43 221h231q111 0 111 -75q0 -39 -16 -82h4q59 82 147.5 132t204.5 50q181 0 285 -119.5t104 -326.5q0 -140 -48.5 -260.5t-133.5 -210.5l114 -142l-139 -114l-117 145q-126 -66 -245 -66q-95 0 -173.5 39.5 t-121.5 114.5h-4q-5 -37 -15 -94l-86 -445h-258zM393 434q0 -112 54.5 -182t158.5 -70q64 0 131 31l-121 154l140 114l118 -151q87 118 87 266q0 120 -56.5 185t-154.5 65q-142 0 -249.5 -124t-107.5 -288z" />
<glyph unicode="&#x490;" horiz-adv-x="1060" d="M76 0l237 1227h-133l45 227h682q45 0 54 45l18 92h242l-45 -227q-13 -73 -52.5 -106t-111.5 -33h-430l-238 -1225h-268z" />
<glyph unicode="&#x491;" horiz-adv-x="903" d="M51 0l160 823h-125l41 221h571q46 0 56 46l16 88h215l-45 -217q-12 -73 -51 -105.5t-113 -32.5h-305l-162 -823h-258z" />
<glyph unicode="&#x492;" horiz-adv-x="1077" d="M61 588l37 196h133l86 443h-133l45 227h838q117 0 117 -92q0 -23 -6 -47l-43 -221h-242l10 53q2 9 4 19.5t3 16t1 9.5q0 35 -37 35h-288l-86 -443h307l-39 -196h-305l-115 -588h-268l115 588h-134z" />
<glyph unicode="&#x493;" horiz-adv-x="940" d="M-2 367l35 174h123l55 282h-127l43 221h715q60 0 88 -21.5t28 -68.5q0 -20 -6 -47l-34 -188h-213l8 47q4 28 4 29q0 28 -39 28h-207l-55 -282h258l-33 -174h-260l-72 -367h-258l70 367h-123z" />
<glyph unicode="&#x494;" horiz-adv-x="1280" d="M76 0l239 1239h-133l41 215h891q60 0 87.5 -20t27.5 -66q0 -20 -6 -47l-39 -197h-215l10 47q1 5 3.5 17t2.5 18q0 33 -39 33h-366l-86 -434q130 49 266 49q206 0 314 -117t108 -344q0 -118 -29.5 -232.5t-88.5 -215t-141 -175t-195.5 -114t-242.5 -31.5l41 215 q89 1 163 50t119.5 126.5t70 168t24.5 180.5q0 124 -52 190t-181 66q-98 0 -219 -48l-113 -573h-262z" />
<glyph unicode="&#x495;" horiz-adv-x="1077" d="M51 0l160 823h-125l41 221h758q53 0 77.5 -17t24.5 -58q0 -13 -4 -45l-41 -205h-213l8 47q6 24 6 35q0 22 -30 22h-242l-63 -321q98 43 204 43q170 0 256 -94t86 -248q0 -201 -114.5 -365t-323.5 -264l-100 193q116 59 200 164.5t84 238.5q0 74 -41 119t-133 45 q-75 0 -159 -43l-58 -291h-258z" />
<glyph unicode="&#x496;" horiz-adv-x="1978" d="M-104 0l485 653q28 37 58.5 64.5t47.5 36.5l17 8v4q-5 2 -13 6.5t-27.5 30t-33.5 63.5l-111 314q-8 28 -30 37.5t-62 9.5h-34l45 227h116q85 0 120 -20.5t58 -87.5l152 -439q11 -34 34.5 -43.5t69.5 -9.5h82l117 600h256l-117 -600h58q48 0 79 10t56 43l309 439 q48 67 93 87.5t130 20.5h142l-43 -227h-29q-38 0 -63.5 -9.5t-47.5 -37.5l-235 -326q-26 -38 -57 -65.5t-48 -35.5l-18 -8v-4q5 -2 14 -8t30 -33.5t34 -64.5l151 -408h93q59 0 85.5 -20t26.5 -64q0 -22 -6 -49l-74 -381h-235l39 201q10 48 10 55q0 28 -31 31h-98l-209 588 q-12 35 -34.5 45t-63.5 10h-99l-124 -643h-256l124 643h-84q-41 0 -65.5 -10t-50.5 -45l-430 -588h-303z" />
<glyph unicode="&#x497;" horiz-adv-x="1660" d="M-88 0l315 422q29 39 63 65.5t53 33.5l19 7l3 4q-4 2 -10.5 6t-21.5 25.5t-24 52.5l-49 168q-7 23 -25.5 31t-56.5 8h-72l44 221h165q69 0 99.5 -17.5t48.5 -72.5l80 -266q15 -49 96 -49h51l80 405h248l-78 -405h41q22 0 36.5 2t34.5 13.5t35 33.5l185 266q38 54 79.5 72 t112.5 18h172l-43 -221h-59q-37 0 -57 -7.5t-37 -31.5l-115 -168q-21 -31 -47 -52t-42 -26l-15 -6v-4l5 -2l14 -10.5t20 -18t22 -30.5t21 -45l73 -209h72q56 0 82 -21.5t26 -66.5q0 -21 -6 -51l-63 -320h-236l31 158q10 52 10 57q0 28 -28 31h-76l-121 348q-14 42 -40.5 57 t-68.5 15h-61l-82 -420h-250l84 420h-49q-42 0 -72.5 -14.5t-62.5 -57.5l-258 -348h-295z" />
<glyph unicode="&#x498;" horiz-adv-x="1118" d="M-33 178l158 176q53 -66 132.5 -105.5t172.5 -39.5q127 0 218 69.5t91 182.5q0 81 -51.5 121.5t-148.5 40.5h-201l43 215h166q104 0 186 67t82 170q0 79 -46 125.5t-144 46.5q-82 0 -143 -38t-72 -91l-9 -53h-243l24 127q15 77 65.5 135t122 90t147 47t153.5 15 q186 0 305 -93t119 -260q0 -131 -74.5 -231t-196.5 -147l-2 -5q86 -34 137.5 -106.5t51.5 -175.5q0 -186 -135.5 -316t-331.5 -161l-51 -271h-236l53 275q-104 19 -193.5 68t-148.5 122z" />
<glyph unicode="&#x499;" horiz-adv-x="933" d="M-43 129l127 160q16 -19 43 -40t88 -46t127 -25q90 0 150.5 46t60.5 128q0 97 -150 97h-135l33 169h100q94 0 151.5 43.5t57.5 122.5q0 49 -36.5 73t-98.5 24q-57 0 -106 -22t-56 -68l-8 -43h-209l19 104q21 107 130 162t257 55q171 0 268.5 -66.5t97.5 -187.5 q0 -106 -61 -177t-139 -95v-4q60 -21 99.5 -72t39.5 -131q0 -140 -99.5 -232t-248.5 -118l-43 -232h-230l45 232q-157 26 -274 143z" />
<glyph unicode="&#x49a;" horiz-adv-x="1366" d="M76 0l223 1145q8 46 8 47q0 35 -43 35h-82l43 227h246q131 0 131 -102q0 -35 -8 -68l-82 -422h102q46 0 71 10.5t44 36.5l397 545h310l-445 -598q-25 -35 -52 -62t-41 -36l-15 -10v-5q37 -30 57 -98l129 -418h82q60 0 86.5 -20t26.5 -64q0 -13 -4 -49l-76 -381h-236 l39 201q10 48 10 55q0 14 -8.5 22.5t-23.5 8.5h-111l-180 586q-7 28 -32 38.5t-71 10.5h-104l-123 -635h-268z" />
<glyph unicode="&#x49b;" horiz-adv-x="1173" d="M51 0l146 750q6 36 6 43q0 30 -37 30h-80l41 221h242q63 0 93 -23.5t30 -74.5q0 -12 -9 -53l-45 -242h70q64 0 98 43l289 350h297l-352 -423q-24 -29 -48 -49.5t-36 -26.5l-11 -6l-2 -4q5 -2 13 -6.5t26.5 -25.5t30.5 -50l94 -240h45q109 0 109 -88q0 -21 -6 -51 l-64 -320h-235l30 158l11 57q0 31 -31 31h-68l-141 393q-16 39 -86 39h-76l-84 -432h-260z" />
<glyph unicode="&#x49c;" horiz-adv-x="1525" d="M76 0l223 1145q8 46 8 47q0 35 -43 35h-82l43 227h246q131 0 131 -102q0 -35 -8 -68l-82 -422h131l45 234h189l-46 -234h5q45 0 70 11t44 36l398 545h307l-445 -598q-25 -35 -52 -62t-42 -36l-14 -10v-5q37 -30 57 -98l115 -369q17 -49 78 -49h63l-45 -227h-162 q-73 0 -111.5 24t-56.5 85l-145 477q-9 28 -33.5 38.5t-70.5 10.5h-5l-45 -238h-188l45 238h-131l-123 -635h-268z" />
<glyph unicode="&#x49d;" horiz-adv-x="1316" d="M49 0l144 735q10 48 10 58q0 30 -37 30h-82l43 221h248q63 0 91 -17t28 -62q0 -25 -5 -47l-49 -252h88l35 180h180l-34 -180q51 0 82 39l264 339h303l-328 -405q-12 -14 -23.5 -26.5t-21.5 -21t-19 -15t-15.5 -10.5t-11.5 -6.5l-7 -3.5l-2 -1l-2 -4q4 -2 11 -7.5 t22 -28.5t24 -54l64 -203q7 -24 23.5 -31.5t53.5 -7.5h72l-43 -219h-186q-69 0 -98 17t-46 73l-90 316q-7 21 -24 28.5t-45 9.5l-43 -227h-181l43 227h-90l-86 -444h-260z" />
<glyph unicode="&#x49e;" horiz-adv-x="1316" d="M68 0l208 1067h-139l37 190h141l39 197h269l-41 -197h174l-37 -190h-174l-41 -205h123q46 0 70 10.5t44 36.5l398 545h309l-444 -598q-25 -35 -52.5 -62t-41.5 -36l-15 -10v-5q37 -30 57 -98l115 -369q14 -49 76 -49h65l-45 -227h-162q-73 0 -111.5 24t-58.5 85l-145 477 q-7 28 -32 38.5t-72 10.5h-123l-123 -635h-268z" />
<glyph unicode="&#x49f;" horiz-adv-x="1132" d="M29 0l209 1079h-152l35 176h151l39 199h260l-39 -199h220l-35 -176h-219l-78 -403h78q59 0 92 39l278 329h303l-344 -397q-21 -24 -45.5 -45t-38.5 -30l-14 -9l-2 -4q26 -12 51 -80l86 -221q7 -22 26 -30.5t56 -8.5h70l-43 -219h-178q-65 0 -93.5 17.5t-48.5 72.5 l-116 322q-17 45 -82 45h-76l-90 -457h-260z" />
<glyph unicode="&#x4a0;" horiz-adv-x="1609" d="M117 1094l45 233q13 71 50 99t112 28h741l-45 -227h-133l-70 -365h103q46 0 70 10.5t44 36.5l398 545h307l-443 -598q-25 -35 -52 -62t-42 -36l-14 -10v-5q37 -30 57 -98l115 -369q14 -49 76 -49h63l-43 -227h-164q-72 0 -110 24t-58 85l-145 477q-7 28 -32.5 38.5 t-72.5 10.5h-102l-123 -635h-268l235 1227h-186q-44 0 -53 -45l-19 -88h-241z" />
<glyph unicode="&#x4a1;" horiz-adv-x="1386" d="M53 721l41 207q13 70 48.5 93t113.5 23h350q63 0 91 -16t28 -59q0 -29 -4 -43l-51 -275h69q63 0 97 43l290 350h297l-354 -423q-24 -29 -47.5 -49.5t-35.5 -26.5l-11 -6v-4q4 -2 11.5 -6.5t25.5 -25.5t30 -50l78 -195q9 -23 26.5 -31t53.5 -8h70l-45 -219h-185 q-68 0 -96.5 17t-48.5 73l-107 303q-16 39 -86 39h-77l-84 -432h-260l149 764q8 46 8 49q0 25 -28 25h-93q-34 0 -43 -39l-14 -78h-207z" />
<glyph unicode="&#x4a2;" horiz-adv-x="1628" d="M76 0l223 1145q8 46 8 49q0 33 -43 33h-82l43 227h246q131 0 131 -102q0 -35 -8 -68l-88 -446h641l96 481q15 74 51 104.5t105 30.5h272l-45 -227h-92q-40 0 -49 -45l-189 -955h82q59 0 86 -20t27 -64q0 -22 -6 -49l-74 -381h-235l38 201q11 53 11 55q0 31 -35 31h-205 l119 610h-641l-119 -610h-268z" />
<glyph unicode="&#x4a3;" horiz-adv-x="1333" d="M51 0l142 733q10 45 10 58q0 32 -37 32h-82l43 221h248q117 0 117 -92q0 -16 -7 -47l-51 -264h445l77 403h261l-162 -831h55q109 0 109 -88q0 -17 -7 -49l-63 -322h-236l31 158q10 52 10 57q0 28 -26 31h-174l84 426h-445l-84 -426h-258z" />
<glyph unicode="&#x4a4;" horiz-adv-x="1955" d="M76 0l221 1139q10 52 10 53q0 35 -37 35h-88l43 227h264q117 0 117 -92q0 -23 -6 -47l-94 -477h624l76 389h-133l45 227h840q115 0 115 -88q0 -18 -7 -49l-43 -223h-241l10 53q6 44 6 47q0 33 -37 33h-286l-238 -1227h-268l118 610h-624l-119 -610h-268z" />
<glyph unicode="&#x4a5;" horiz-adv-x="1591" d="M51 0l144 741q10 42 10 52q0 30 -39 30h-80l43 221h248q60 0 87.5 -22.5t27.5 -69.5q0 -7 -5 -47l-57 -295h416l43 228h-125l41 206h698q63 0 91 -15.5t28 -57.5q0 -27 -4 -43l-37 -195h-213l8 43q4 18 4 37q0 25 -26 25h-205l-164 -838h-258l76 397h-414l-78 -397h-260z " />
<glyph unicode="&#x4a6;" horiz-adv-x="2048" d="M74 0l237 1227h-131l45 227h1041q59 0 86.5 -22t27.5 -68q0 -22 -6 -49l-92 -477q120 49 264 49q205 0 311.5 -119.5t106.5 -351.5q0 -119 -28.5 -235.5t-87.5 -220.5t-140 -181.5t-196 -119.5t-246 -34l41 215q89 1 163 51.5t120 131t71 176t25 190.5q0 129 -51 197.5 t-181 68.5q-94 0 -217 -49l-119 -606h-266l221 1147q8 39 8 47q0 33 -39 33h-464l-238 -1227h-266z" />
<glyph unicode="&#x4a7;" horiz-adv-x="1716" d="M49 0l160 823h-119l43 221h1112l-43 -221h-119l-47 -250q100 45 221 45q168 0 262.5 -108t94.5 -281q0 -130 -52.5 -257.5t-161 -235t-253.5 -162.5l-80 197q128 62 206.5 184t78.5 252q0 190 -195 190q-77 0 -164 -45l-69 -352h-260l161 823h-356l-160 -823h-260z" />
<glyph unicode="&#x4a8;" horiz-adv-x="1871" d="M82 618q0 124 33.5 241t90.5 210t134.5 173.5t162.5 138t177 96.5l102 -236q-64 -27 -124 -67t-116.5 -97t-98.5 -123.5t-67.5 -151t-25.5 -175.5q0 -67 16 -127.5t49.5 -112.5t81.5 -89.5t117 -59t152 -21.5q76 0 166 23q-195 179 -195 471q0 144 50.5 279.5t136 237.5 t208.5 164t259 62q211 0 331.5 -134t120.5 -345q0 -212 -116 -408.5t-306 -339.5q47 -12 133 -12h142l-41 -215h-139q-189 0 -345 72q-215 -97 -419 -97q-193 0 -345 78.5t-238.5 225.5t-86.5 339zM1004 707q0 -118 42.5 -213t124.5 -154q177 103 289.5 269.5t112.5 355.5 q0 117 -54 182t-149 65q-101 0 -186 -71t-132.5 -187t-47.5 -247z" />
<glyph unicode="&#x4a9;" d="M41 481q0 198 125.5 357t318.5 229l86 -209q-74 -29 -136 -77t-107 -126t-45 -168q0 -129 87 -217t240 -88q83 0 162 23q-164 144 -164 364q0 133 67 247.5t187 183.5t266 69q186 0 293 -108.5t107 -268.5q0 -137 -76 -262t-207 -223q31 -10 109 -10h151l-39 -197h-139 q-178 0 -328 59q-204 -84 -395 -84q-115 0 -217.5 35.5t-179 99t-121.5 160t-45 211.5zM852 575q0 -187 149 -286q127 69 205 170t78 223q0 79 -43.5 132.5t-134.5 53.5q-110 0 -182 -86t-72 -207z" />
<glyph unicode="&#x4aa;" horiz-adv-x="1429" d="M78 612q0 167 67 325.5t181 277.5t275.5 191.5t340.5 72.5q84 0 169.5 -17t164 -50t127.5 -92t49 -134q0 -17 -14 -103l-19 -92h-241l16 76q9 45 -15.5 78.5t-69.5 50.5t-90 25t-87 8q-112 0 -217.5 -46t-185 -124.5t-127.5 -191t-48 -238.5q0 -182 108.5 -293 t289.5 -111q123 0 241 44.5t207 123.5l115 -209q-95 -88 -235 -142t-292 -65l-51 -264h-235l53 281q-214 51 -345.5 215.5t-131.5 402.5z" />
<glyph unicode="&#x4ab;" horiz-adv-x="1097" d="M39 446q0 122 48.5 235.5t131.5 199t202.5 137t252.5 51.5q51 0 103.5 -7t109.5 -26t98.5 -47t63.5 -75.5t10 -106.5l-19 -96h-225l6 32q10 51 -40.5 79t-123.5 28q-97 0 -179 -53.5t-128.5 -140.5t-46.5 -185q0 -117 69 -193.5t206 -76.5q55 0 108 12.5t90 30.5t66 35.5 t43 30.5l14 12l70 -201q-5 -5 -15 -13.5t-44.5 -31.5t-74 -41t-102.5 -35.5t-131 -22.5l-41 -223h-229l47 242q-164 42 -252 163t-88 287z" />
<glyph unicode="&#x4ac;" horiz-adv-x="1329" d="M117 1094l45 233q14 71 45.5 99t101.5 28h1004q69 0 97 -26t28 -76q0 -35 -8 -68l-37 -190h-236l10 53q9 45 9 47q0 33 -43 33h-218l-196 -1000h82q58 0 84 -20t26 -64q0 -13 -4 -49l-76 -381h-235l39 201q10 48 10 55q0 12 -8 21t-21 10h-208l239 1227h-223 q-44 0 -53 -45l-19 -88h-235z" />
<glyph unicode="&#x4ad;" horiz-adv-x="1130" d="M55 719l35 188q13 73 53.5 105t114.5 32h778q117 0 117 -90q0 -23 -6 -47l-35 -188h-213l6 37q6 30 6 37q0 30 -39 30h-139l-119 -610h58q56 0 81 -21.5t25 -66.5q0 -13 -4 -49l-63 -322h-236l31 158q10 52 10 57q0 28 -27 31h-176l160 823h-139q-46 0 -55 -45l-11 -59 h-213z" />
<glyph unicode="&#x4ae;" horiz-adv-x="1261" d="M139 1227l45 227h119q69 0 104.5 -21t63.5 -85l139 -320q15 -33 29.5 -74t21.5 -66l7 -24h4q57 90 114 164l250 320q47 62 91 84t106 22h170l-45 -227h-51q-50 0 -86 -45l-453 -547l-123 -635h-268l123 635l-238 543q-20 49 -74 49h-49z" />
<glyph unicode="&#x4af;" horiz-adv-x="1126" d="M68 823l43 221h133q61 0 90.5 -22.5t40.5 -75.5l96 -506q5 -27 8.5 -60.5t4.5 -53.5l1 -19h4q35 72 68 133l297 506q31 53 69.5 75.5t100.5 22.5h162l-41 -221h-25q-38 0 -63 -37l-475 -757l-86 -439h-258l86 439l-185 757q-8 37 -49 37h-22z" />
<glyph unicode="&#x4b0;" horiz-adv-x="1261" d="M139 1227l45 227h119q69 0 104.5 -21t63.5 -85l139 -320q15 -33 29.5 -74t21.5 -66l7 -24h4q57 90 114 164l250 320q47 62 91 84t106 22h170l-45 -227h-51q-50 0 -86 -45l-453 -547l-2 -6h250l-37 -189h-250l-84 -440h-268l84 440h-217l37 189h217l2 6l-238 543 q-20 49 -74 49h-49z" />
<glyph unicode="&#x4b1;" horiz-adv-x="1126" d="M68 823l43 221h133q61 0 90.5 -22.5t40.5 -75.5l96 -506q5 -27 8.5 -60.5t4.5 -53.5l1 -19h4q35 72 68 133l297 506q31 53 69.5 75.5t100.5 22.5h162l-41 -221h-25q-38 0 -63 -37l-381 -606h172l-35 -180h-238l-79 -410h-258l79 410h-247l34 180h183l-148 606 q-8 37 -49 37h-22z" />
<glyph unicode="&#x4b2;" horiz-adv-x="1333" d="M-96 0l596 745l-191 431q-12 29 -31.5 40t-54.5 11h-53l45 227h145q73 0 113.5 -22.5t65.5 -83.5l98 -236q14 -35 28.5 -78.5t22.5 -69.5l8 -26h4q55 90 121 174l185 236q44 59 85.5 82.5t108.5 23.5h184l-43 -227h-59q-31 0 -52.5 -10.5t-43.5 -38.5l-367 -449l217 -502 h92q60 0 86.5 -20t26.5 -64q0 -22 -6 -49l-74 -381h-235l39 201q10 48 10 55q0 28 -31 31h-100l-158 375q-14 32 -29 73.5t-23 67.5l-9 25h-4q-53 -84 -119 -166l-293 -375h-305z" />
<glyph unicode="&#x4b3;" horiz-adv-x="1126" d="M-80 0l453 539l-131 247q-11 22 -27.5 29.5t-46.5 7.5h-76l43 221h168q60 0 91.5 -23t58.5 -81l77 -166l23 -65h4q25 40 43 65l129 166q48 63 81.5 83.5t98.5 20.5h203l-43 -221h-76q-32 0 -50 -6.5t-36 -28.5l-233 -268l145 -307h78q109 0 109 -88q0 -16 -7 -51 l-63 -320h-236l31 158q10 52 10 57q0 14 -8.5 22.5t-23.5 8.5h-58l-139 291l-20 55h-5q-16 -28 -36 -55l-236 -291h-295z" />
<glyph unicode="&#x4b4;" horiz-adv-x="1921" d="M113 1094l45 229q14 72 48.5 101.5t106.5 29.5h936q59 0 85 -19t26 -63q0 -22 -6 -49l-43 -229h-224l11 53q8 39 8 47q0 33 -39 33h-190l-181 -930q-6 -24 -6 -37q0 -33 39 -33h623l239 1227h269l-240 -1227h45q60 0 86.5 -20t26.5 -64q0 -13 -4 -49l-76 -381h-236 l39 203q10 45 10 51q0 33 -32 33h-969q-119 0 -119 92q0 20 6 47l211 1088h-190q-44 0 -53 -45l-17 -88h-235z" />
<glyph unicode="&#x4b5;" horiz-adv-x="1589" d="M57 733l37 195q13 69 49 92.5t113 23.5h672q65 0 93 -15.5t28 -59.5q0 -6 -5 -41l-36 -195h-174l8 43q6 21 6 35q0 27 -29 27h-133l-104 -537q-11 -53 -11 -55q0 -33 37 -33h451l162 831h260l-162 -831h33q56 0 82 -21.5t26 -66.5q0 -13 -4 -49l-63 -322h-236l31 164 q8 33 8 49q0 33 -33 33h-762q-60 0 -88 21t-28 67q0 25 6 55l135 695h-141q-35 0 -41 -39l-13 -66h-174z" />
<glyph unicode="&#x4b6;" horiz-adv-x="1460" d="M135 1227l45 227h262q117 0 117 -92q0 -11 -4 -47l-55 -279q-8 -58 -8 -80q0 -89 53 -132.5t166 -43.5q141 0 290 97l113 577h268l-241 -1227h82q59 0 85.5 -20t26.5 -64q0 -22 -6 -49l-74 -381h-235l39 201q10 48 10 55q0 28 -31 31h-209l109 557l18 68h-4 q-168 -84 -356 -84q-193 0 -290 82t-97 235q0 56 12 121l35 174q4 32 4 39q0 35 -37 35h-88z" />
<glyph unicode="&#x4b7;" horiz-adv-x="1224" d="M66 823l43 221h235q111 0 111 -92q0 -13 -4 -49l-33 -166q-6 -30 -6 -59q0 -55 32.5 -85t112.5 -30q107 0 209 66l82 415h260l-164 -831h57q56 0 81.5 -21.5t25.5 -66.5q0 -13 -4 -49l-64 -322h-237l31 158q10 52 10 57q0 14 -8 22.5t-21 8.5h-172l72 358l14 58h-2 q-140 -64 -289 -64q-137 0 -218 65t-81 173q0 28 6 63l21 103q1 7 2.5 15.5t2.5 14t1 7.5q0 17 -9 23.5t-30 6.5h-67z" />
<glyph unicode="&#x4b8;" horiz-adv-x="1425" d="M135 1227l45 227h262q117 0 117 -92q0 -20 -6 -47l-53 -279q-8 -39 -8 -80q0 -142 149 -168l53 275h189l-54 -275q112 22 226 89l110 577h269l-283 -1454h-268l108 557l17 68h-4q-97 -48 -220 -70l-41 -213h-188l39 199q-192 6 -288.5 87.5t-96.5 229.5q0 56 12 121 l33 174q6 24 6 41q0 33 -37 33h-88z" />
<glyph unicode="&#x4b9;" horiz-adv-x="1228" d="M66 823l43 221h235q111 0 111 -92q0 -13 -4 -49l-33 -166q-6 -30 -6 -59q0 -91 108 -109l47 242h181l-48 -238q84 16 154 56l82 415h258l-203 -1044h-260l70 358l16 58h-4q-69 -30 -151 -47l-35 -179h-181l31 162q-156 0 -247 65t-91 173q0 28 6 63l21 103q1 7 2.5 15.5 t2.5 14t1 7.5q0 17 -9 23.5t-30 6.5h-67z" />
<glyph unicode="&#x4ba;" horiz-adv-x="1380" d="M76 0l221 1141q10 42 10 51q0 35 -37 35h-88l43 227h264q117 0 117 -92q0 -23 -6 -47l-74 -387l-16 -68h4q152 76 342 76q185 0 277 -89.5t92 -238.5q0 -57 -11 -108l-36 -189q-2 -11 -4 -23.5t-3.5 -19t-1.5 -8.5q0 -33 37 -33h88l-43 -227h-264q-117 0 -117 92 q0 15 7 47l59 301q8 44 8 90q0 83 -46 124.5t-144 41.5q-80 0 -159 -23.5t-132 -58.5l-119 -614h-268z" />
<glyph unicode="&#x4bb;" horiz-adv-x="1261" d="M6 0l225 1155q1 5 4 22.5t3 24.5q0 31 -37 31h-82l43 221h239q125 0 125 -98q0 -16 -8 -62l-67 -344l-23 -94h4q27 36 62.5 70t85.5 68t115.5 54.5t135.5 20.5q140 0 219.5 -74.5t79.5 -214.5q0 -58 -12 -125l-71 -372q-1 -4 -2.5 -11t-3 -12t-1.5 -8q0 -33 37 -33h82 l-43 -219h-242q-122 0 -122 100q0 21 6 45l92 473q8 36 8 80q0 133 -135 133q-87 0 -166.5 -53.5t-130 -133.5t-68.5 -167l-92 -477h-260z" />
<glyph unicode="&#x4bc;" horiz-adv-x="1773" d="M113 983q0 124 90 330h246q-97 -192 -97 -299q0 -59 26 -93t87 -38q42 123 115 230t171 189t224.5 129.5t265.5 47.5q244 0 379 -139.5t135 -376.5q0 -130 -49 -287h-1008q-10 -90 7.5 -170.5t60.5 -146t122 -104t185 -38.5q117 0 237.5 46.5t198.5 115.5l109 -209 q-33 -28 -81.5 -57t-121 -62.5t-169.5 -54.5t-197 -21q-269 0 -433.5 144.5t-189.5 386.5q-8 67 -2 172q-140 2 -225.5 79t-85.5 226zM741 881h748q10 55 10 92q0 121 -73 196.5t-212 75.5q-115 0 -216 -54t-165.5 -135t-91.5 -175z" />
<glyph unicode="&#x4bd;" horiz-adv-x="1380" d="M55 731q0 112 64 230h209q-70 -121 -70 -207q0 -79 82 -88q66 177 218.5 290t352.5 113q197 0 304.5 -108t107.5 -285q0 -88 -35 -203h-721q-15 -122 53.5 -199t204.5 -77q163 0 322 114l72 -198q-71 -54 -184 -96t-236 -42q-218 0 -358 120.5t-140 332.5q0 23 4 47 q-123 4 -186.5 70t-63.5 186zM608 651h457q4 16 4 56q0 78 -46.5 121.5t-125.5 43.5q-94 0 -172.5 -58.5t-116.5 -162.5z" />
<glyph unicode="&#x4be;" horiz-adv-x="1773" d="M113 983q0 124 90 330h246q-97 -192 -97 -299q0 -59 26 -93t87 -38q42 123 115 230t171 189t224.5 129.5t265.5 47.5q244 0 379 -139.5t135 -376.5q0 -130 -49 -287h-1008q-10 -90 7.5 -170.5t60.5 -146t122 -104t185 -38.5q117 0 237.5 46.5t198.5 115.5l109 -209 q-31 -26 -78 -55t-116.5 -61t-161.5 -54t-187 -25l-51 -262h-236l56 287q-182 49 -290.5 181.5t-127.5 324.5q-8 67 -2 172q-140 2 -225.5 79t-85.5 226zM741 881h748q10 55 10 92q0 121 -73 196.5t-212 75.5q-115 0 -216 -54t-165.5 -135t-91.5 -175z" />
<glyph unicode="&#x4bf;" horiz-adv-x="1384" d="M55 731q0 112 64 230h209q-70 -121 -70 -207q0 -79 82 -88q66 177 218.5 290t352.5 113q197 0 304.5 -108t107.5 -285q0 -88 -35 -203h-721q-15 -122 53.5 -199t204.5 -77q163 0 322 114l72 -198q-63 -49 -162.5 -88.5t-210.5 -47.5l-41 -223h-230l48 246 q-147 41 -234.5 152t-87.5 276q0 23 4 47q-123 4 -186.5 70t-63.5 186zM608 651h457q4 16 4 56q0 78 -46.5 121.5t-125.5 43.5q-94 0 -172.5 -58.5t-116.5 -162.5z" />
<glyph unicode="&#x4c0;" horiz-adv-x="716" d="M-33 0l45 227h144l194 1000h-145l45 227h545l-43 -227h-146l-194 -1000h145l-45 -227h-545z" />
<glyph unicode="&#x4c1;" horiz-adv-x="1900" d="M-104 0l485 653q28 37 58.5 64.5t47.5 36.5l17 8v4q-5 2 -13 6.5t-27.5 30t-33.5 63.5l-111 314q-8 28 -30 37.5t-62 9.5h-34l45 227h116q85 0 120 -20.5t58 -87.5l152 -439q11 -34 34.5 -43.5t69.5 -9.5h82l117 600h256l-117 -600h58q48 0 79 10t56 43l309 439 q48 67 93 87.5t130 20.5h142l-43 -227h-29q-38 0 -63.5 -9.5t-47.5 -37.5l-235 -326q-26 -38 -57 -65.5t-48 -35.5l-18 -8v-4q5 -2 14 -8t30 -33.5t34 -64.5l235 -635h-274l-209 588q-12 35 -34.5 45t-63.5 10h-99l-124 -643h-256l124 643h-84q-41 0 -65.5 -10t-50.5 -45 l-430 -588h-303zM850 1751q0 37 10 78h203q-8 -20 -8 -51q0 -47 30.5 -76t83.5 -29q62 0 108.5 37t57.5 119h197q-12 -83 -48.5 -144.5t-89.5 -96.5t-112.5 -51.5t-126.5 -16.5q-134 0 -219.5 65t-85.5 166z" />
<glyph unicode="&#x4c2;" horiz-adv-x="1599" d="M-88 0l315 422q29 39 63 65.5t53 33.5l19 7l3 4q-4 2 -10.5 6t-21.5 25.5t-24 52.5l-49 168q-7 23 -25.5 31t-56.5 8h-72l44 221h165q69 0 99.5 -17.5t48.5 -72.5l80 -266q15 -49 96 -49h51l80 405h248l-78 -405h41q22 0 36.5 2t34.5 13.5t35 33.5l185 266q38 54 79.5 72 t112.5 18h172l-43 -221h-59q-37 0 -57 -7.5t-37 -31.5l-115 -168q-21 -31 -47 -52t-42 -26l-15 -6v-4l5 -2l14 -10.5t20 -18t22 -30.5t21 -45l151 -422h-266l-121 348q-14 42 -40.5 57t-68.5 15h-61l-82 -420h-250l84 420h-49q-42 0 -72.5 -14.5t-62.5 -57.5l-258 -348h-295 zM625 1376q0 37 10 78h203q-9 -22 -9 -51q0 -47 31 -76t84 -29q62 0 108.5 37t57.5 119h197q-12 -83 -48.5 -144.5t-89.5 -96.5t-112.5 -51.5t-126.5 -16.5q-134 0 -219.5 65t-85.5 166z" />
<glyph unicode="&#x4c3;" horiz-adv-x="1347" d="M76 0l227 1165q4 16 4 29q0 33 -39 33h-88l45 227h262q119 0 119 -92q0 -23 -6 -47l-88 -453h100q42 0 70.5 9.5t48.5 37.5l404 545h317l-408 -534q-61 -84 -116 -111l-2 -4q79 -32 137 -85.5t89.5 -117t45.5 -128t14 -132.5q0 -106 -27 -211.5t-82.5 -200t-132 -165.5 t-184.5 -109.5t-231 -30.5l43 221q86 2 154 53t106.5 129.5t58 163t19.5 166.5q0 133 -83.5 205t-246.5 72h-137l-125 -635h-268z" />
<glyph unicode="&#x4c4;" horiz-adv-x="1155" d="M51 0l144 739q8 46 8 52q0 32 -37 32h-82l43 221h248q119 0 119 -92q0 -6 -7 -41l-53 -268h62q32 0 57 12t53 47l268 342h310l-322 -395q-21 -26 -42.5 -45.5t-32.5 -25.5l-11 -7v-4q75 -27 126.5 -83t74 -125.5t22.5 -151.5q0 -94 -27.5 -183t-71 -157t-100.5 -127.5 t-111.5 -99t-108.5 -66.5l-125 193q118 59 206.5 173.5t88.5 258.5q0 104 -66 163.5t-195 59.5h-96l-84 -422h-258z" />
<glyph unicode="&#x4c5;" horiz-adv-x="1505" d="M-104 -16l47 241q166 22 280 219.5t195 614.5l33 168h-136l45 227h900q116 0 116 -90q0 -24 -12 -88l-186 -963q-11 -49 -11 -55q0 -14 10.5 -22.5t28.5 -8.5h199l-29 -143l-233 -371h-197l131 287h-90q-119 0 -119 90q0 9 15 90l186 961q8 39 8 55q0 31 -37 31h-333 l-33 -170q-104 -540 -286.5 -802t-491.5 -271z" />
<glyph unicode="&#x4c6;" horiz-adv-x="1232" d="M-86 -6l41 229q73 6 139 78q61 66 108 186.5t74 255.5l17 80h-127l41 221h735q119 0 119 -92q0 -23 -6 -47l-121 -618q-6 -24 -6 -35q0 -33 39 -33h170l-27 -137l-205 -328h-182l111 246h-76q-117 0 -117 92q0 20 6 47l119 617q1 6 2.5 14t2.5 13.5t1 7.5q0 32 -37 32 h-196l-17 -82q-38 -196 -111 -369.5t-192 -273.5q-129 -104 -305 -104z" />
<glyph unicode="&#x4c7;" horiz-adv-x="1583" d="M76 0l223 1145q8 46 8 51q0 14 -10.5 22.5t-28.5 8.5h-88l45 227h264q60 0 87.5 -22.5t27.5 -69.5q0 -15 -4 -47l-94 -477h661l95 477q14 72 53.5 105.5t111.5 33.5h263l-45 -227h-89q-44 0 -53 -45l-200 -1039q-54 -277 -200.5 -410t-379.5 -110l45 232q37 0 65 5 t60.5 22t56.5 47t46.5 84.5t37.5 129.5l90 467h-661l-119 -610h-268z" />
<glyph unicode="&#x4c8;" horiz-adv-x="1300" d="M51 0l144 737q8 44 8 54q0 32 -37 32h-82l43 221h248q117 0 117 -92q0 -19 -7 -47l-51 -264h449l51 264q14 72 53.5 105.5t112.5 33.5h246l-41 -221h-82q-45 0 -54 -45l-131 -663q-22 -113 -57.5 -197t-91.5 -146t-116 -105.5t-152 -92.5l-117 190q58 30 95.5 55.5 t75.5 65.5t63 96t40 132l60 309h-447l-82 -422h-258z" />
<glyph unicode="&#x4c9;" horiz-adv-x="1652" d="M76 0l223 1145q8 46 8 49q0 33 -43 33h-82l43 227h246q131 0 131 -102q0 -35 -8 -68l-88 -446h641l96 481q15 74 51 104.5t105 30.5h272l-45 -227h-92q-40 0 -49 -45l-189 -955h254l-28 -143l-234 -371h-196l135 287h-242l119 610h-641l-119 -610h-268z" />
<glyph unicode="&#x4ca;" horiz-adv-x="1339" d="M51 0l144 741q10 45 10 52q0 30 -39 30h-82l43 221h248q117 0 117 -92q0 -19 -7 -47l-51 -268h445l79 407h261l-146 -741q-8 -50 -8 -53q0 -28 29 -31h141l-27 -137l-204 -328h-183l111 246h-39q-117 0 -117 90q0 24 6 51l56 283h-445l-84 -424h-258z" />
<glyph unicode="&#x4cb;" horiz-adv-x="1372" d="M135 1227l45 227h262q117 0 117 -92q0 -11 -4 -47l-55 -279q-8 -58 -8 -80q0 -89 53 -132.5t166 -43.5q141 0 290 97l113 577h268l-284 -1454h-238q-37 -3 -43 -45l-47 -242h-235l75 381q13 73 49.5 103t110.5 30h102l66 330l18 68h-4q-168 -84 -356 -84q-193 0 -290 82 t-97 235q0 56 12 121l35 174q4 32 4 39q0 35 -37 35h-88z" />
<glyph unicode="&#x4cc;" horiz-adv-x="1140" d="M63 823l46 221h233q113 0 113 -92q0 -22 -6 -49l-27 -139q-6 -30 -6 -59q0 -55 32.5 -85t112.5 -30q108 0 209 65l76 389h260l-203 -1044h-180q-30 -3 -37 -45l-39 -201h-235l55 291q14 72 50 104.5t106 32.5h55l41 203l14 57h-2q-137 -63 -289 -63q-137 0 -218 64.5 t-81 172.5q0 24 7 64l14 76q6 24 6 37q0 17 -9 23.5t-30 6.5h-68z" />
<glyph unicode="&#x4cd;" horiz-adv-x="1873" d="M-72 0l43 227h62q23 0 35 10.5t18 34.5l326 1182h272l160 -696l35 -195h4q53 103 108 195l432 696h289l-129 -1147q-4 -36 -4 -49q0 -28 29 -31h215l-29 -143l-233 -371h-197l131 287h-76q-69 0 -100 24.5t-31 79.5q0 14 6 62l74 620q5 42 15.5 98.5t18.5 91.5l7 36h-4 q-72 -148 -123 -226l-346 -536h-217l-137 536q-8 36 -17 93t-13 96l-5 39h-4q-22 -136 -47 -228l-177 -657q-19 -69 -53 -99t-100 -30h-238z" />
<glyph unicode="&#x4ce;" horiz-adv-x="1609" d="M-80 0l43 219h45q33 0 43 37l225 788h281l121 -542l22 -131h2q39 72 74 131l330 542h305l-80 -759q-2 -20 -2 -37q0 -29 29 -29h184l-26 -137l-205 -328h-183l111 246h-72q-50 0 -70 18t-20 58q0 29 2 43l51 430q4 31 11.5 78.5t13.5 79.5l6 32h-4q-47 -90 -94 -164 l-287 -444h-225l-115 444q-7 32 -12.5 74.5t-7.5 68.5l-2 27h-4q-19 -126 -37 -196l-121 -438q-16 -58 -45 -84.5t-88 -26.5h-199z" />
<glyph unicode="&#x4cf;" horiz-adv-x="716" d="M-33 0l43 221h144l198 1012h-145l43 221h545l-41 -221h-146l-198 -1012h145l-43 -221h-545z" />
<glyph unicode="&#x4d0;" horiz-adv-x="1380" d="M-94 0l45 227h37q25 0 38.5 9t26.5 36l662 1182h280l203 -1184q5 -26 13.5 -34.5t33.5 -8.5h39l-45 -227h-160q-72 0 -101 25t-40 94l-41 254h-489l-142 -254q-38 -69 -74 -94t-104 -25h-182zM510 594h369l-56 364q-4 36 -7.5 90.5t-5.5 91.5l-1 36h-4 q-57 -138 -100 -218zM573 1751q0 33 11 78h202q-8 -20 -8 -51q0 -47 31 -76t84 -29q62 0 108.5 37t57.5 119h196q-12 -83 -48 -144.5t-89 -96.5t-112.5 -51.5t-126.5 -16.5q-134 0 -220 65t-86 166z" />
<glyph unicode="&#x4d1;" horiz-adv-x="1122" d="M-12 252q0 106 57.5 186t157 126t219.5 68.5t258 22.5h37l4 21q6 30 6 63q0 62 -40.5 95.5t-119.5 33.5q-57 0 -103.5 -16.5t-51.5 -52.5l-11 -56h-243l22 111q11 59 52 102.5t102 67t127 34.5t139 11q196 0 291.5 -78.5t95.5 -224.5q0 -45 -14 -117l-68 -356 q-8 -32 -8 -43q0 -14 10.5 -22.5t28.5 -8.5h82l-43 -219h-221q-58 0 -86.5 24t-28.5 62q0 28 18 98h-4q-5 -8 -14.5 -22.5t-43 -50.5t-72 -63.5t-101.5 -50t-131 -22.5q-131 0 -217 73.5t-86 203.5zM248 291q0 -57 35 -90t92 -33q102 0 193 93.5t110 189.5l6 26h-43 q-71 0 -135.5 -9t-125 -28.5t-96.5 -58t-36 -90.5zM371 1376q0 37 10 78h203q-9 -22 -9 -51q0 -47 31 -76t84 -29q62 0 108.5 37t57.5 119h197q-12 -83 -48.5 -144.5t-89.5 -96.5t-112.5 -51.5t-126.5 -16.5q-134 0 -219.5 65t-85.5 166z" />
<glyph unicode="&#x4d2;" horiz-adv-x="1380" d="M-94 0l45 227h37q25 0 38.5 9t26.5 36l662 1182h280l203 -1184q5 -26 13.5 -34.5t33.5 -8.5h39l-45 -227h-160q-72 0 -101 25t-40 94l-41 254h-489l-142 -254q-38 -69 -74 -94t-104 -25h-182zM510 594h369l-56 364q-4 36 -7.5 90.5t-5.5 91.5l-1 36h-4 q-57 -138 -100 -218zM608 1591l47 238h181l-48 -238h-180zM975 1591l47 238h182l-47 -238h-182z" />
<glyph unicode="&#x4d3;" horiz-adv-x="1122" d="M-12 252q0 106 57.5 186t157 126t219.5 68.5t258 22.5h37l4 21q6 30 6 63q0 62 -40.5 95.5t-119.5 33.5q-57 0 -103.5 -16.5t-51.5 -52.5l-11 -56h-243l22 111q11 59 52 102.5t102 67t127 34.5t139 11q196 0 291.5 -78.5t95.5 -224.5q0 -45 -14 -117l-68 -356 q-8 -32 -8 -43q0 -14 10.5 -22.5t28.5 -8.5h82l-43 -219h-221q-58 0 -86.5 24t-28.5 62q0 28 18 98h-4q-5 -8 -14.5 -22.5t-43 -50.5t-72 -63.5t-101.5 -50t-131 -22.5q-131 0 -217 73.5t-86 203.5zM248 291q0 -57 35 -90t92 -33q102 0 193 93.5t110 189.5l6 26h-43 q-71 0 -135.5 -9t-125 -28.5t-96.5 -58t-36 -90.5zM375 1217l47 237h180l-47 -237h-180zM741 1217l47 237h183l-47 -237h-183z" />
<glyph unicode="&#x4d4;" horiz-adv-x="1849" d="M-88 0l43 227h35q26 0 38 8.5t27 36.5l701 1182h985q131 0 131 -102q0 -35 -8 -68l-37 -190h-242l10 53q7 40 7 47q0 33 -41 33h-316l-74 -381h465l-45 -228h-465l-61 -313q-6 -27 -6 -47q0 -31 37 -31h327q47 0 56 45l16 88h244l-45 -229q-13 -70 -50.5 -100.5 t-105.5 -30.5h-647q-129 0 -129 100q0 24 10 76l86 442h-326l-284 -499q-40 -71 -73.5 -95t-104.5 -24h-158zM664 846h237l76 381h-96z" />
<glyph unicode="&#x4d5;" horiz-adv-x="1736" d="M-10 256q0 69 23.5 126.5t62.5 97.5t93.5 71t112 49.5t123.5 30t122 16t112 4.5h72q8 37 8 76q0 69 -40 105t-114 36q-55 0 -102.5 -15.5t-54.5 -53.5l-13 -56h-241l20 111q12 63 57.5 108t111 67t128 31t129.5 9q106 0 182 -39.5t117 -109.5h4q152 149 357 149t312 -107 t107 -290q0 -40 -9.5 -89t-18.5 -79l-9 -29h-712q-2 -20 -2 -43q0 -110 68.5 -177t187.5 -67q76 0 155.5 29t121.5 57l42 29l70 -190q-7 -6 -20.5 -15t-57 -33t-88.5 -42t-111.5 -33t-130.5 -15q-155 0 -265.5 61t-164.5 167h-4q-10 -19 -25.5 -41t-52 -57.5t-79.5 -62.5 t-110 -47t-142 -20q-138 0 -235 77t-97 204zM252 287q0 -47 34.5 -78t100.5 -31q98 0 181.5 86.5t105.5 188.5l4 20h-72q-35 0 -67.5 -2.5t-75.5 -8.5t-78 -19.5t-66.5 -32.5t-49 -51t-17.5 -72zM971 651h450q2 24 2 47q0 81 -46 125.5t-120 44.5q-99 0 -173 -57.5 t-113 -159.5z" />
<glyph unicode="&#x4d6;" horiz-adv-x="1193" d="M100 100q0 19 11 76l204 1051h-133l43 227h860q134 0 134 -102q0 -12 -9 -68l-36 -190h-244l12 53q6 35 6 47q0 33 -43 33h-321l-74 -381h471l-45 -228h-471l-62 -313q-6 -27 -6 -47q0 -31 37 -31h336q44 0 53 45l19 88h241l-45 -229q-12 -70 -49 -100.5t-106 -30.5h-654 q-129 0 -129 100zM518 1751q0 37 10 78h203q-8 -20 -8 -51q0 -47 31 -76t84 -29q62 0 108.5 37t57.5 119h196q-12 -83 -48.5 -144.5t-89.5 -96.5t-112.5 -51.5t-126.5 -16.5q-134 0 -219.5 65t-85.5 166z" />
<glyph unicode="&#x4d7;" horiz-adv-x="1120" d="M37 424q0 175 78 323t218 235t310 87q203 0 309.5 -107.5t106.5 -287.5q0 -42 -8.5 -91.5t-17.5 -78.5l-9 -29h-719q-6 -24 -6 -53q0 -101 69 -164t191 -63q47 0 97.5 11.5t89.5 28.5t71 34t49 29l17 11l69 -196q-7 -6 -20.5 -15t-56.5 -33t-88.5 -42t-112 -33 t-131.5 -15q-237 0 -371.5 126.5t-134.5 322.5zM340 649h457q6 27 6 47q0 80 -45.5 126t-120.5 46q-99 0 -179.5 -59.5t-117.5 -159.5zM395 1376q0 33 11 78h202q-8 -20 -8 -51q0 -47 31 -76t84 -29q62 0 108.5 37t57.5 119h196q-12 -83 -48.5 -144.5t-89.5 -96.5 t-112.5 -51.5t-126.5 -16.5q-134 0 -219.5 65t-85.5 166z" />
<glyph unicode="&#x4d8;" horiz-adv-x="1437" d="M66 512q0 130 53 305h1009q5 50 5 57q0 165 -95 264t-270 99q-95 0 -197 -33t-157 -64t-92 -59l-109 205q18 16 61.5 42t119.5 63t184 62.5t217 25.5q146 0 263 -47.5t192 -131.5t115 -197t40 -247q0 -126 -34 -251.5t-102.5 -238.5t-162 -200.5t-221.5 -139t-273 -51.5 q-248 0 -397 145t-149 392zM324 492q0 -135 74 -209t220 -74q181 0 305.5 111t163.5 292h-751q-12 -54 -12 -120z" />
<glyph unicode="&#x4d9;" horiz-adv-x="1124" d="M31 367q0 105 43 229h717q4 10 4 43q0 100 -73.5 159.5t-197.5 59.5q-98 0 -194 -37t-133 -67l-72 192q42 33 163.5 78t262.5 45q230 0 366 -125.5t136 -341.5q0 -164 -77 -307t-218.5 -231.5t-315.5 -88.5q-196 0 -303.5 108t-107.5 284zM272 356q0 -86 49 -133t132 -47 q102 0 191.5 67t123.5 177h-487q-9 -36 -9 -64z" />
<glyph unicode="&#x4da;" horiz-adv-x="1439" d="M66 512q0 130 53 305h1009q5 50 5 57q0 165 -95 264t-270 99q-95 0 -197 -33t-157 -64t-92 -59l-109 205q18 16 61.5 42t119.5 63t184 62.5t217 25.5q146 0 263 -47.5t192 -131.5t115 -197t40 -247q0 -126 -34 -251.5t-102.5 -238.5t-162 -200.5t-221.5 -139t-273 -51.5 q-248 0 -397 145t-149 392zM324 492q0 -135 74 -209t220 -74q181 0 305.5 111t163.5 292h-751q-12 -54 -12 -120zM606 1591l47 238h181l-48 -238h-180zM973 1591l47 238h182l-47 -238h-182z" />
<glyph unicode="&#x4db;" horiz-adv-x="1126" d="M31 367q0 105 43 229h717q4 10 4 43q0 100 -73.5 159.5t-197.5 59.5q-98 0 -194 -37t-133 -67l-72 192q42 33 163.5 78t262.5 45q230 0 366 -125.5t136 -341.5q0 -164 -77 -307t-218.5 -231.5t-315.5 -88.5q-196 0 -303.5 108t-107.5 284zM272 356q0 -86 49 -133t132 -47 q102 0 191.5 67t123.5 177h-487q-9 -36 -9 -64zM367 1217l47 237h180l-47 -237h-180zM733 1217l47 237h183l-48 -237h-182z" />
<glyph unicode="&#x4dc;" horiz-adv-x="1900" d="M-104 0l485 653q28 37 58.5 64.5t47.5 36.5l17 8v4q-5 2 -13 6.5t-27.5 30t-33.5 63.5l-111 314q-8 28 -30 37.5t-62 9.5h-34l45 227h116q85 0 120 -20.5t58 -87.5l152 -439q11 -34 34.5 -43.5t69.5 -9.5h82l117 600h256l-117 -600h58q48 0 79 10t56 43l309 439 q48 67 93 87.5t130 20.5h142l-43 -227h-29q-38 0 -63.5 -9.5t-47.5 -37.5l-235 -326q-26 -38 -57 -65.5t-48 -35.5l-18 -8v-4q5 -2 14 -8t30 -33.5t34 -64.5l235 -635h-274l-209 588q-12 35 -34.5 45t-63.5 10h-99l-124 -643h-256l124 643h-84q-41 0 -65.5 -10t-50.5 -45 l-430 -588h-303zM872 1591l48 238h180l-47 -238h-181zM1239 1591l47 238h182l-47 -238h-182z" />
<glyph unicode="&#x4dd;" horiz-adv-x="1599" d="M-88 0l315 422q29 39 63 65.5t53 33.5l19 7l3 4q-4 2 -10.5 6t-21.5 25.5t-24 52.5l-49 168q-7 23 -25.5 31t-56.5 8h-72l44 221h165q69 0 99.5 -17.5t48.5 -72.5l80 -266q15 -49 96 -49h51l80 405h248l-78 -405h41q22 0 36.5 2t34.5 13.5t35 33.5l185 266q38 54 79.5 72 t112.5 18h172l-43 -221h-59q-37 0 -57 -7.5t-37 -31.5l-115 -168q-21 -31 -47 -52t-42 -26l-15 -6v-4l5 -2l14 -10.5t20 -18t22 -30.5t21 -45l151 -422h-266l-121 348q-14 42 -40.5 57t-68.5 15h-61l-82 -420h-250l84 420h-49q-42 0 -72.5 -14.5t-62.5 -57.5l-258 -348h-295 zM653 1217l47 237h181l-47 -237h-181zM1020 1217l47 237h182l-47 -237h-182z" />
<glyph unicode="&#x4de;" horiz-adv-x="1116" d="M-33 178l158 176q53 -66 132.5 -105.5t172.5 -39.5q127 0 218 69.5t91 182.5q0 81 -51.5 121.5t-148.5 40.5h-201l43 215h166q104 0 186 67t82 170q0 79 -46 125.5t-144 46.5q-82 0 -143 -38t-72 -91l-9 -53h-243l24 127q15 77 65.5 135t122 90t147 47t153.5 15 q186 0 305 -93t119 -260q0 -131 -74.5 -231t-196.5 -147l-2 -5q86 -34 137.5 -106.5t51.5 -175.5q0 -107 -48.5 -199.5t-129 -154.5t-184 -97t-212.5 -35q-138 0 -265.5 53.5t-203.5 149.5zM457 1591l47 238h180l-47 -238h-180zM823 1591l47 238h183l-47 -238h-183z" />
<glyph unicode="&#x4df;" horiz-adv-x="931" d="M-43 129l127 160q16 -19 43 -40t88 -46t127 -25q90 0 150.5 46t60.5 128q0 97 -150 97h-135l33 169h100q94 0 151.5 43.5t57.5 122.5q0 49 -36.5 73t-98.5 24q-57 0 -106 -22t-56 -68l-8 -43h-209l19 104q21 107 130 162t257 55q171 0 268.5 -66.5t97.5 -187.5 q0 -106 -61 -177t-139 -95v-4q60 -21 99.5 -72t39.5 -131q0 -85 -40 -155.5t-106 -114t-147 -67.5t-168 -24q-235 0 -389 154zM291 1217l47 237h180l-47 -237h-180zM657 1217l48 237h182l-47 -237h-183z" />
<glyph unicode="&#x4e0;" horiz-adv-x="1056" d="M-43 100l100 191q44 -38 130.5 -67t170.5 -29q90 0 167.5 32.5t126 95t48.5 140.5q0 85 -65 122.5t-217 37.5h-178l34 178l398 360q23 20 47.5 38.5t37.5 26.5l13 9v4q-51 -6 -117 -6h-188q-44 0 -53 -45l-13 -60h-223l37 187q15 73 54.5 106t111.5 33h721l-41 -215 l-400 -360l-77 -58v-4q182 -3 279 -99.5t97 -238.5q0 -145 -84 -260.5t-221 -177t-297 -61.5q-110 0 -217.5 35t-181.5 85z" />
<glyph unicode="&#x4e1;" horiz-adv-x="978" d="M-166 -309l100 190q44 -37 131 -66.5t171 -29.5q90 0 167.5 32.5t126 95t48.5 140.5q0 85 -65.5 122.5t-217.5 37.5h-178l35 178l397 361q23 20 47.5 38.5t37.5 26.5l13 8v4q-51 -6 -117 -6h-188q-44 0 -53 -45l-13 -59h-223l37 186q15 73 54.5 106t111.5 33h721 l-41 -215l-399 -360q-13 -11 -32.5 -25.5t-32.5 -23.5l-13 -8v-4q182 -3 279.5 -99.5t97.5 -238.5q0 -145 -84.5 -261t-221.5 -177.5t-297 -61.5q-110 0 -217 35t-182 86z" />
<glyph unicode="&#x4e2;" horiz-adv-x="1579" d="M76 0l229 1182q9 45 -35 45h-88l43 227h264q72 0 98.5 -33.5t12.5 -105.5l-133 -678q-6 -38 -20 -93.5t-25 -91.5l-10 -36h4q87 139 157 223l693 815h284l-231 -1182q-6 -45 37 -45h88l-45 -227h-262q-72 0 -99 33t-12 106l131 680q7 37 22 93.5t27 93.5l11 38h-5 q-85 -141 -155 -225l-697 -819h-284zM715 1608l33 172h538l-35 -172h-536z" />
<glyph unicode="&#x4e3;" horiz-adv-x="1300" d="M49 0l148 752q6 36 6 41q0 30 -37 30h-82l43 221h231q115 0 115 -90q0 -23 -6 -47l-82 -418l-29 -120h4q22 37 105 129l493 546h259l-146 -745q-8 -36 -8 -47q0 -33 37 -33h80l-43 -219h-230q-59 0 -86.5 22t-27.5 68q0 15 4 47l80 416q5 33 28 121h-4q-34 -53 -104 -127 l-490 -547h-258zM506 1233l33 172h538l-35 -172h-536z" />
<glyph unicode="&#x4e4;" horiz-adv-x="1579" d="M76 0l229 1182q9 45 -35 45h-88l43 227h264q72 0 98.5 -33.5t12.5 -105.5l-133 -678q-6 -38 -20 -93.5t-25 -91.5l-10 -36h4q87 139 157 223l693 815h284l-231 -1182q-6 -45 37 -45h88l-45 -227h-262q-72 0 -99 33t-12 106l131 680q7 37 22 93.5t27 93.5l11 38h-5 q-85 -141 -155 -225l-697 -819h-284zM709 1591l47 238h180l-47 -238h-180zM1075 1591l47 238h183l-48 -238h-182z" />
<glyph unicode="&#x4e5;" horiz-adv-x="1300" d="M49 0l148 752q6 36 6 41q0 30 -37 30h-82l43 221h231q115 0 115 -90q0 -23 -6 -47l-82 -418l-29 -120h4q22 37 105 129l493 546h259l-146 -745q-8 -36 -8 -47q0 -33 37 -33h80l-43 -219h-230q-59 0 -86.5 22t-27.5 68q0 15 4 47l80 416q5 33 28 121h-4q-34 -53 -104 -127 l-490 -547h-258zM494 1217l47 237h180l-47 -237h-180zM860 1217l47 237h183l-48 -237h-182z" />
<glyph unicode="&#x4e6;" d="M76 614q0 115 33 226t92 206t142 175.5t180 137t210 88.5t228 32q286 0 465.5 -176.5t179.5 -452.5q0 -138 -47 -271t-131.5 -241t-194.5 -190t-243.5 -127.5t-270.5 -45.5q-188 0 -335 82t-227.5 227.5t-80.5 329.5zM354 629q0 -179 108 -291.5t279 -112.5 q108 0 214.5 49t188 130.5t132.5 195t51 234.5q0 177 -108.5 286t-278.5 109q-109 0 -215.5 -47.5t-188 -127.5t-132 -192t-50.5 -233zM727 1591l47 238h180l-47 -238h-180zM1094 1591l47 238h182l-47 -238h-182z" />
<glyph unicode="&#x4e7;" horiz-adv-x="1271" d="M37 438q0 132 55.5 250.5t147 201t212.5 131t250 48.5q220 0 360 -128t140 -333q0 -134 -56 -253t-148 -201.5t-213 -130.5t-248 -48q-220 0 -360 127.5t-140 335.5zM301 451q0 -116 70.5 -185t185.5 -69q93 0 180 49.5t144 142t57 203.5q0 115 -70.5 185.5t-183.5 70.5 q-94 0 -182 -50.5t-144.5 -143.5t-56.5 -203zM477 1217l47 237h181l-48 -237h-180zM844 1217l47 237h182l-47 -237h-182z" />
<glyph unicode="&#x4e8;" d="M76 614q0 115 33 226t92 206t142 175.5t180 137t210 88.5t228 32q286 0 465.5 -176.5t179.5 -452.5q0 -138 -47 -271t-131.5 -241t-194.5 -190t-243.5 -127.5t-270.5 -45.5q-188 0 -335 82t-227.5 227.5t-80.5 329.5zM354 629q0 -179 108 -291.5t279 -112.5 q170 0 325.5 114.5t221.5 289.5h-934zM391 834h936q0 177 -108.5 286t-278.5 109q-173 0 -328 -111.5t-221 -283.5z" />
<glyph unicode="&#x4e9;" horiz-adv-x="1267" d="M35 438q0 132 55.5 250.5t147 201t212.5 131t250 48.5q220 0 360 -128t140 -333q0 -134 -56 -253t-148 -201.5t-213 -130.5t-248 -48q-220 0 -360 127.5t-140 335.5zM279 451q0 -124 76.5 -199.5t199.5 -75.5q117 0 224.5 76t152.5 199h-653zM307 604h649 q-5 119 -80.5 191.5t-193.5 72.5q-115 0 -220.5 -73.5t-154.5 -190.5z" />
<glyph unicode="&#x4ea;" d="M76 614q0 115 33 226t92 206t142 175.5t180 137t210 88.5t228 32q286 0 465.5 -176.5t179.5 -452.5q0 -138 -47 -271t-131.5 -241t-194.5 -190t-243.5 -127.5t-270.5 -45.5q-188 0 -335 82t-227.5 227.5t-80.5 329.5zM354 629q0 -179 108 -291.5t279 -112.5 q170 0 325.5 114.5t221.5 289.5h-934zM391 834h936q0 177 -108.5 286t-278.5 109q-173 0 -328 -111.5t-221 -283.5zM733 1591l47 238h181l-48 -238h-180zM1100 1591l47 238h182l-47 -238h-182z" />
<glyph unicode="&#x4eb;" horiz-adv-x="1271" d="M37 438q0 132 55.5 250.5t147 201t212.5 131t250 48.5q220 0 360 -128t140 -333q0 -134 -56 -253t-148 -201.5t-213 -130.5t-248 -48q-220 0 -360 127.5t-140 335.5zM281 451q0 -124 76.5 -199.5t199.5 -75.5q117 0 224.5 76t152.5 199h-653zM309 604h649 q-5 119 -80.5 191.5t-193.5 72.5q-115 0 -220.5 -73.5t-154.5 -190.5zM475 1190l47 237h180l-47 -237h-180zM842 1190l47 237h182l-47 -237h-182z" />
<glyph unicode="&#x4ec;" horiz-adv-x="1437" d="M-23 201l148 180q66 -75 177.5 -121.5t229.5 -46.5q189 0 345.5 114t212.5 287h-695l41 215h699q11 178 -90.5 294t-292.5 116q-70 0 -142.5 -15.5t-133.5 -52t-70 -86.5l-15 -79h-244l29 147q20 98 107.5 173.5t211 114t261.5 38.5q152 0 276 -50.5t205 -138 t124.5 -204.5t43.5 -252q0 -175 -69.5 -334t-186.5 -274t-278.5 -183t-338.5 -68q-161 0 -309 57.5t-246 168.5zM569 1591l47 238h181l-47 -238h-181zM936 1591l47 238h182l-47 -238h-182z" />
<glyph unicode="&#x4ed;" horiz-adv-x="1097" d="M-43 131l109 172q51 -57 132.5 -90t168.5 -33q126 0 230 71.5t151 182.5h-445l35 172h444q0 124 -75 191t-187 67q-70 0 -131.5 -24.5t-69.5 -65.5l-8 -45h-217l19 90q21 116 142.5 183t283.5 67q151 0 263 -64.5t168 -170.5t56 -238q0 -122 -50.5 -236t-136 -198.5 t-206 -135.5t-254.5 -51q-118 0 -236.5 39.5t-185.5 116.5zM356 1217l47 237h181l-47 -237h-181zM723 1217l47 237h182l-47 -237h-182z" />
<glyph unicode="&#x4ee;" horiz-adv-x="1288" d="M29 86l141 190q63 -63 147 -63q57 0 95.5 30t76.5 95l-258 844q-8 25 -19.5 35t-35.5 10h-47l45 227h137q71 0 99.5 -25t48.5 -94l155 -555l41 -180h4q40 86 91 180l303 555q39 70 77.5 94.5t114.5 24.5h176l-45 -227h-39q-26 0 -41 -9.5t-30 -35.5l-537 -928 q-35 -60 -71 -105.5t-83.5 -87t-108.5 -64t-130 -22.5q-84 0 -172 32t-135 79zM555 1608l33 172h538l-34 -172h-537z" />
<glyph unicode="&#x4ef;" horiz-adv-x="1134" d="M-166 -324l107 185l3 -3q3 -4 7 -8l10 -10t14 -11.5t17 -12t20.5 -11.5t24 -9t27.5 -6.5t30 -2.5q108 0 191 135l53 84l-193 780q-6 23 -15.5 30t-33.5 7h-30l43 221h176q46 0 70.5 -24.5t33.5 -73.5l103 -522q4 -24 6.5 -58.5t3.5 -57.5v-23h4q32 86 61 139l279 522 q29 53 67 75.5t93 22.5h186l-43 -221h-31q-46 0 -65 -37l-564 -952q-80 -134 -183.5 -199t-217.5 -65q-43 0 -84.5 11t-71 26.5t-52.5 31t-34 26.5zM420 1233l33 170h538l-33 -170h-538z" />
<glyph unicode="&#x4f0;" horiz-adv-x="1288" d="M29 86l141 190q63 -63 147 -63q57 0 95.5 30t76.5 95l-258 844q-8 25 -19.5 35t-35.5 10h-47l45 227h137q71 0 99.5 -25t48.5 -94l155 -555l41 -180h4q40 86 91 180l303 555q39 70 77.5 94.5t114.5 24.5h176l-45 -227h-39q-26 0 -41 -9.5t-30 -35.5l-537 -928 q-35 -60 -71 -105.5t-83.5 -87t-108.5 -64t-130 -22.5q-84 0 -172 32t-135 79zM549 1591l47 238h180l-47 -238h-180zM915 1591l48 238h182l-47 -238h-183z" />
<glyph unicode="&#x4f1;" horiz-adv-x="1134" d="M-166 -324l107 185l3 -3q3 -4 7 -8l10 -10t14 -11.5t17 -12t20.5 -11.5t24 -9t27.5 -6.5t30 -2.5q108 0 191 135l53 84l-193 780q-6 23 -15.5 30t-33.5 7h-30l43 221h176q46 0 70.5 -24.5t33.5 -73.5l103 -522q4 -24 6.5 -58.5t3.5 -57.5v-23h4q32 86 61 139l279 522 q29 53 67 75.5t93 22.5h186l-43 -221h-31q-46 0 -65 -37l-564 -952q-80 -134 -183.5 -199t-217.5 -65q-43 0 -84.5 11t-71 26.5t-52.5 31t-34 26.5zM403 1217l48 237h180l-47 -237h-181zM770 1217l47 237h182l-47 -237h-182z" />
<glyph unicode="&#x4f2;" horiz-adv-x="1288" d="M29 86l141 190q63 -63 147 -63q57 0 95.5 30t76.5 95l-258 844q-8 25 -19.5 35t-35.5 10h-47l45 227h137q71 0 99.5 -25t48.5 -94l155 -555l41 -180h4q40 86 91 180l303 555q39 70 77.5 94.5t114.5 24.5h176l-45 -227h-39q-26 0 -41 -9.5t-30 -35.5l-537 -928 q-35 -60 -71 -105.5t-83.5 -87t-108.5 -64t-130 -22.5q-84 0 -172 32t-135 79zM528 1550l164 279h211l-166 -279h-209zM883 1550l170 279h247l-227 -279h-190z" />
<glyph unicode="&#x4f3;" horiz-adv-x="1134" d="M-166 -324l107 185l3 -3q3 -4 7 -8l10 -10t14 -11.5t17 -12t20.5 -11.5t24 -9t27.5 -6.5t30 -2.5q108 0 191 135l53 84l-193 780q-6 23 -15.5 30t-33.5 7h-30l43 221h176q46 0 70.5 -24.5t33.5 -73.5l103 -522q4 -24 6.5 -58.5t3.5 -57.5v-23h4q32 86 61 139l279 522 q29 53 67 75.5t93 22.5h186l-43 -221h-31q-46 0 -65 -37l-564 -952q-80 -134 -183.5 -199t-217.5 -65q-43 0 -84.5 11t-71 26.5t-52.5 31t-34 26.5zM387 1176l164 278h211l-166 -278h-209zM741 1176l170 278h248l-227 -278h-191z" />
<glyph unicode="&#x4f4;" horiz-adv-x="1372" d="M135 1227l45 227h262q117 0 117 -92q0 -11 -4 -47l-55 -279q-8 -58 -8 -80q0 -89 53 -132.5t166 -43.5q141 0 290 97l113 577h268l-284 -1454h-269l109 557l18 68h-4q-168 -84 -356 -84q-193 0 -290 82t-97 235q0 56 12 121l35 174q4 32 4 39q0 35 -37 35h-88zM582 1591 l47 238h180l-47 -238h-180zM948 1591l47 238h183l-48 -238h-182z" />
<glyph unicode="&#x4f5;" horiz-adv-x="1142" d="M66 823l43 221h235q111 0 111 -92q0 -13 -4 -49l-33 -166q-6 -30 -6 -59q0 -55 32.5 -85t112.5 -30q107 0 209 66l82 415h260l-205 -1044h-260l72 358l14 58h-2q-140 -64 -289 -64q-137 0 -218 65t-81 173q0 28 6 63l21 103q1 7 2.5 15.5t2.5 14t1 7.5q0 17 -9 23.5 t-30 6.5h-67zM410 1217l47 237h180l-47 -237h-180zM776 1217l47 237h183l-48 -237h-182z" />
<glyph unicode="&#x4f6;" horiz-adv-x="1093" d="M74 0l239 1227h-133l45 227h852q69 0 97 -26t28 -76q0 -18 -8 -68l-37 -190h-235l10 53q6 30 6 47q0 33 -43 33h-313l-197 -1000h82q60 0 86.5 -20t26.5 -64q0 -17 -7 -49l-73 -381h-236l39 201q10 48 10 55q0 28 -28 31h-211z" />
<glyph unicode="&#x4f7;" horiz-adv-x="937" d="M51 0l160 823h-127l43 221h715q60 0 88 -21.5t28 -68.5q0 -20 -6 -47l-34 -188h-213l8 47q4 28 4 29q0 28 -39 28h-207l-121 -610h58q56 0 81 -21.5t25 -66.5q0 -13 -4 -49l-64 -322h-237l31 158q10 52 10 57q0 28 -25 31h-174z" />
<glyph unicode="&#x4f8;" horiz-adv-x="1835" d="M96 92q0 23 6 47l195 1002q10 42 10 55q0 14 -10.5 22.5t-28.5 8.5h-88l45 227h262q117 0 117 -92q0 -23 -6 -47l-72 -371h230q185 0 301.5 -97t116.5 -292q0 -163 -81 -290.5t-218.5 -196t-307.5 -68.5h-354q-117 0 -117 92zM393 260q0 -33 39 -33h184q114 0 197.5 86.5 t83.5 223.5q0 87 -48 133.5t-136 46.5h-230l-80 -410q-10 -45 -10 -47zM823 1591l47 238h181l-47 -238h-181zM1190 1591l47 238h182l-47 -238h-182zM1276 92q0 20 6 47l256 1315h268l-227 -1159q-6 -27 -6 -37q0 -14 10.5 -22.5t28.5 -8.5h88l-45 -227h-262q-117 0 -117 92z " />
<glyph unicode="&#x4f9;" horiz-adv-x="1581" d="M68 74q0 23 4 37l121 632q10 42 10 50q0 30 -39 30h-82l43 221h250q58 0 87.5 -24t29.5 -66q0 -8 -7 -43l-45 -227h178q173 0 261 -77t88 -204q0 -96 -37 -174t-99.5 -127t-142 -75.5t-168.5 -26.5h-360q-92 0 -92 74zM348 205q0 -12 8.5 -19.5t22.5 -7.5h121 q89 0 145.5 58t56.5 149q0 56 -35.5 88.5t-103.5 32.5h-155l-50 -254q-10 -45 -10 -47zM625 1217l47 237h180l-47 -237h-180zM991 1217l47 237h183l-47 -237h-183zM1061 139l176 905h260l-151 -780q-9 -45 34 -45h82l-43 -219h-248q-72 0 -98 32.5t-12 106.5z" />
<glyph unicode="&#x2000;" horiz-adv-x="924" />
<glyph unicode="&#x2001;" horiz-adv-x="1849" />
<glyph unicode="&#x2002;" horiz-adv-x="924" />
<glyph unicode="&#x2003;" horiz-adv-x="1849" />
<glyph unicode="&#x2004;" horiz-adv-x="616" />
<glyph unicode="&#x2005;" horiz-adv-x="462" />
<glyph unicode="&#x2006;" horiz-adv-x="308" />
<glyph unicode="&#x2007;" horiz-adv-x="308" />
<glyph unicode="&#x2008;" horiz-adv-x="231" />
<glyph unicode="&#x2009;" horiz-adv-x="369" />
<glyph unicode="&#x200a;" horiz-adv-x="102" />
<glyph unicode="&#x2010;" horiz-adv-x="849" d="M90 471l43 227h617l-45 -227h-615z" />
<glyph unicode="&#x2011;" horiz-adv-x="849" d="M90 471l43 227h617l-45 -227h-615z" />
<glyph unicode="&#x2012;" horiz-adv-x="849" d="M90 471l43 227h617l-45 -227h-615z" />
<glyph unicode="&#x2013;" horiz-adv-x="1376" d="M94 483l39 203h1135l-39 -203h-1135z" />
<glyph unicode="&#x2014;" horiz-adv-x="1779" d="M94 483l37 203h1544l-39 -203h-1542z" />
<glyph unicode="&#x2018;" horiz-adv-x="497" d="M172 1032l240 447h176l-182 -447h-234z" />
<glyph unicode="&#x2019;" horiz-adv-x="481" d="M180 1032l185 449h231l-238 -449h-178z" />
<glyph unicode="&#x201a;" horiz-adv-x="520" d="M-78 -182l182 446h234l-240 -446h-176z" />
<glyph unicode="&#x201c;" horiz-adv-x="823" d="M172 1032l240 447h176l-182 -447h-234zM500 1032l237 447h176l-182 -447h-231z" />
<glyph unicode="&#x201d;" horiz-adv-x="808" d="M180 1032l185 449h231l-238 -449h-178zM508 1032l182 449h234l-240 -449h-176z" />
<glyph unicode="&#x201e;" horiz-adv-x="847" d="M-78 -182l182 446h234l-240 -446h-176zM250 -182l182 446h232l-238 -446h-176z" />
<glyph unicode="&#x2026;" horiz-adv-x="1656" d="M6 0l49 260h250l-49 -260h-250zM588 0l49 260h252l-49 -260h-252zM1171 0l50 260h252l-50 -260h-252z" />
<glyph unicode="&#x202f;" horiz-adv-x="369" />
<glyph unicode="&#x2039;" horiz-adv-x="741" d="M70 580l393 419h258l-412 -432l264 -409h-237z" />
<glyph unicode="&#x203a;" horiz-adv-x="743" d="M10 158l412 432l-262 409h237l265 -421l-392 -420h-260z" />
<glyph unicode="&#x205f;" horiz-adv-x="462" />
<glyph unicode="&#x20ac;" horiz-adv-x="1200" d="M37 502l31 149h112q3 62 25 162h-109l31 150h127q105 231 312 373.5t456 142.5q64 0 127.5 -9.5t94.5 -19.5l32 -10l-100 -213q-80 20 -162 20q-145 0 -268 -75.5t-197 -208.5h522l-61 -150h-531q-23 -85 -26 -162h495l-63 -149h-412q23 -134 114 -212.5t242 -78.5 q44 0 93 7.5t76 14.5l26 7l2 -232q-92 -33 -221 -33q-249 0 -418.5 144t-198.5 383h-151z" />
<glyph unicode="&#x2122;" horiz-adv-x="2217" d="M260 1206v156q0 53 20.5 72.5t77.5 19.5h607q56 0 76 -19.5t20 -72.5v-156h-162v60q0 16 -16 16h-123v-735h-195v735h-121q-14 0 -14 -16v-60h-170zM1067 547v170h45q18 0 18 18l58 719h182l189 -428q6 -16 12.5 -37.5t10.5 -34.5l3 -14h4q13 51 27 86l188 428h183 l57 -719q0 -18 18 -18h47v-170h-153q-58 0 -79 17.5t-24 74.5l-28 375l2 63h-4l-158 -364h-156l-159 364h-4l2 -63l-27 -375q-3 -57 -24 -74.5t-78 -17.5h-152z" />
<glyph unicode="&#x25fc;" horiz-adv-x="1044" d="M0 0v1044h1044v-1044h-1044z" />
</font>
</defs>
</svg>
