<?xml version="1.0" standalone="no"?>
<!DOCTYPE svg PUBLIC "-//W3C//DTD SVG 1.1//EN" "http://www.w3.org/Graphics/SVG/1.1/DTD/svg11.dtd" >
<svg xmlns="http://www.w3.org/2000/svg" xmlns:xlink="http://www.w3.org/1999/xlink" version="1.1">
<metadata></metadata>
<defs>
<font id="museo_cyrl300_italic" horiz-adv-x="1089" >
<font-face units-per-em="2048" ascent="1536" descent="-512" />
<missing-glyph horiz-adv-x="557" />
<glyph horiz-adv-x="0" />
<glyph horiz-adv-x="682" />
<glyph unicode=" "  horiz-adv-x="557" />
<glyph unicode="&#x09;" horiz-adv-x="557" />
<glyph unicode="&#xa0;" horiz-adv-x="557" />
<glyph unicode="!" horiz-adv-x="524" d="M66 0l32 158h158l-31 -158h-159zM152 377l202 1063h144l-215 -1063h-131z" />
<glyph unicode="&#x22;" horiz-adv-x="636" d="M229 1116l66 344h121l-66 -344h-121zM477 1116l68 344h121l-68 -344h-121z" />
<glyph unicode="#" horiz-adv-x="1458" d="M43 399l43 115h291l149 401h-290l43 115h288l152 410h125l-152 -410h355l151 410h125l-152 -410h289l-43 -115h-287l-149 -401h287l-43 -115h-287l-147 -399h-125l147 399h-354l-148 -399h-125l148 399h-291zM502 514h354l150 401h-357z" />
<glyph unicode="$" horiz-adv-x="1163" d="M49 178l94 101q5 -7 14.5 -18.5t42 -40.5t69.5 -51.5t96 -41t122 -18.5q149 0 249 83t100 211q0 65 -32.5 116t-84 84t-114 63t-125 63t-114 73t-84 104t-32.5 147q0 168 126.5 282.5t319.5 126.5l39 191h117l-39 -195q79 -9 144 -32t111 -68t46 -103q0 -29 -6 -53 l-16 -88h-136l13 53q6 24 6 43q0 57 -68.5 88t-167.5 31q-161 0 -251.5 -78.5t-90.5 -191.5q0 -60 32.5 -106t84 -76.5t114 -59t125 -62t114 -75.5t84 -109.5t32.5 -154.5q0 -181 -127 -305t-330 -136l-37 -186h-116l37 193q-69 8 -132 31t-103 50.5t-70 53.5t-43 43z" />
<glyph unicode="%" horiz-adv-x="1464" d="M-2 0l1362 1440h158l-1364 -1440h-156zM201 1147q0 121 103 219t231 98q114 0 182.5 -70t68.5 -180q0 -124 -101.5 -221.5t-229.5 -97.5q-115 0 -184.5 69t-69.5 183zM324 1145q0 -58 38.5 -96.5t100.5 -38.5q79 0 140 61t61 143q0 59 -38.5 97.5t-99.5 38.5 q-77 0 -139.5 -62t-62.5 -143zM721 227q0 121 103 219.5t231 98.5q114 0 183 -70t69 -180q0 -125 -102 -222.5t-230 -97.5q-115 0 -184.5 69t-69.5 183zM844 225q0 -59 38.5 -97t100.5 -38q80 0 141.5 60.5t61.5 142.5q0 59 -38.5 98t-100.5 39q-78 0 -140.5 -62t-62.5 -143 z" />
<glyph unicode="&#x26;" horiz-adv-x="1298" d="M51 340q0 148 97 272.5t251 163.5v4q-6 2 -16 7t-36 24.5t-45.5 45.5t-35.5 72.5t-16 102.5q0 125 65 224.5t175 153.5t243 54q44 0 90.5 -6t70.5 -12l24 -6l-60 -119q-62 16 -125 16q-88 0 -163.5 -35.5t-124 -107t-48.5 -164.5q0 -201 267 -201h303l39 205h141 l-41 -205h197l-25 -122h-197l-41 -213q-51 -264 -193.5 -391.5t-361.5 -127.5q-202 0 -318 101t-116 264zM201 356q0 -116 75.5 -184t212.5 -68q159 0 265.5 96t146.5 298l41 209h-305q-115 0 -212.5 -39.5t-160.5 -121t-63 -190.5z" />
<glyph unicode="'" horiz-adv-x="389" d="M229 1116l66 344h123l-68 -344h-121z" />
<glyph unicode="(" horiz-adv-x="518" d="M74 348q0 637 418 1147h135q-424 -535 -424 -1149q0 -284 94 -541h-123q-100 259 -100 543z" />
<glyph unicode=")" horiz-adv-x="520" d="M-88 -195q424 539 424 1149q0 279 -96 541h125q100 -259 100 -545q0 -635 -418 -1145h-135z" />
<glyph unicode="*" horiz-adv-x="974" d="M188 1108l64 125l274 -109l49 316h138l-74 -316l319 107l19 -129l-324 -90v-4l142 -242l-115 -78l-127 260h-4l-225 -258l-101 80l242 250v4z" />
<glyph unicode="+" horiz-adv-x="1163" d="M31 522l22 119h471l105 522h125l-103 -522h471l-22 -119h-471l-103 -522h-125l103 522h-473z" />
<glyph unicode="," horiz-adv-x="489" d="M-80 -199l191 367h149l-223 -367h-117z" />
<glyph unicode="-" horiz-adv-x="835" d="M111 518l22 127h582l-25 -127h-579z" />
<glyph unicode="." horiz-adv-x="417" d="M18 0l31 164h156l-31 -164h-156z" />
<glyph unicode="/" horiz-adv-x="839" d="M-43 -86l829 1606h142l-832 -1606h-139z" />
<glyph unicode="0" horiz-adv-x="1228" d="M109 440q0 83 10 173.5t33.5 191t58 193.5t87.5 178.5t118 149t153 101t189 37.5q405 0 405 -467q0 -83 -10 -173t-33.5 -190.5t-57.5 -193.5t-87.5 -178.5t-118 -148.5t-153.5 -100.5t-191 -37.5q-403 0 -403 465zM254 440q0 -334 262 -334q77 0 145 33t117.5 88 t90.5 129.5t68 156t45 168.5t26 165.5t8 148.5q0 162 -61 250t-201 88q-102 0 -187.5 -59t-142 -153t-96 -214t-57 -238t-17.5 -229z" />
<glyph unicode="1" horiz-adv-x="886" d="M-25 0l23 127h321l207 1057l19 80h-4q-22 -29 -92 -86l-183 -152l-71 90l389 324h135l-256 -1313h315l-24 -127h-779z" />
<glyph unicode="2" horiz-adv-x="1140" d="M-10 115q0 104 52.5 192t136 151.5t184.5 121t202 112.5t184.5 112.5t136 134t52.5 165.5q0 105 -66 165t-184 60q-108 0 -189 -46.5t-96 -117.5l-12 -59h-135l18 96q13 67 58 119.5t108 82.5t130.5 45t136.5 15q177 0 280 -94.5t103 -253.5q0 -84 -32 -159t-86.5 -132.5 t-125 -110t-148.5 -96t-156 -85t-148.5 -83t-125 -83.5t-86.5 -93t-32 -106q0 -24 9 -32.5t34 -8.5h593q45 0 54 45l20 96h133l-26 -143q-12 -66 -48 -95.5t-102 -29.5h-723q-59 0 -81.5 27t-22.5 88z" />
<glyph unicode="3" horiz-adv-x="1114" d="M-4 172l92 96q5 -7 14.5 -17.5t43 -38.5t70 -49.5t93.5 -39t117 -17.5q105 0 198.5 48.5t151.5 134.5t58 188q0 123 -85.5 187.5t-218.5 64.5l-96 -6l-22 86l467 455q12 12 28 25t25 19l10 7v4q-43 -6 -70 -6h-423q-45 0 -54 -45l-18 -97h-133l26 144q14 66 49 95.5 t101 29.5h733l-20 -101l-521 -501q46 -2 93 -12.5t98 -36t90 -63t64.5 -98t25.5 -136.5q0 -101 -43.5 -196t-117 -165.5t-177.5 -113t-219 -42.5q-79 0 -152 20.5t-121.5 49.5t-85.5 57.5t-54 49.5z" />
<glyph unicode="4" horiz-adv-x="1179" d="M4 397l19 95l878 948h158l-178 -918h227l-25 -125h-227l-78 -397h-141l78 397h-711zM209 522h530l123 631q4 20 10.5 45.5t11.5 41.5l5 15h-4q-37 -51 -68 -84l-608 -645v-4z" />
<glyph unicode="5" horiz-adv-x="1097" d="M4 164l92 90q4 -6 12.5 -16t38.5 -35.5t63.5 -45t87.5 -35.5t112 -16q170 0 301 118t131 282q0 128 -85.5 203t-224.5 75q-70 0 -139.5 -20t-104.5 -40l-34 -19l-88 34l176 578q21 67 53.5 95t96.5 28h471q66 0 89 -30.5t9 -96.5l-27 -142h-131l19 97q9 45 -37 45h-365 q-23 0 -35 -10.5t-18 -34.5l-100 -326l-29 -86h4q10 6 29 15t78 23.5t120 14.5q185 0 303.5 -111.5t118.5 -287.5q0 -145 -81 -269t-215.5 -195t-288.5 -71q-79 0 -149.5 19.5t-115 47.5t-77 55.5t-46.5 46.5z" />
<glyph unicode="6" horiz-adv-x="1161" d="M92 492q0 89 23 193t66 213.5t112 210.5t153.5 180.5t198 127t238.5 47.5q76 0 144 -15t98 -29l30 -15l-68 -119q-9 5 -26.5 13t-70.5 21t-107 13q-110 0 -210 -50.5t-174.5 -134.5t-128.5 -184.5t-85 -209.5h4q65 77 168.5 122.5t210.5 45.5q179 0 285 -103.5 t106 -273.5q0 -104 -38 -205.5t-105.5 -183t-169.5 -131.5t-220 -50q-203 0 -318.5 141.5t-115.5 375.5zM238 465q0 -89 32.5 -169.5t100.5 -135t159 -54.5q106 0 193.5 58t137.5 157.5t50 217.5q0 120 -71.5 189t-200.5 69q-64 0 -134 -24.5t-129.5 -66.5t-98.5 -106 t-39 -135z" />
<glyph unicode="7" horiz-adv-x="1046" d="M80 0l856 1241q16 22 30.5 40t21.5 25l7 7v4q-28 -4 -73 -4h-547q-47 0 -56 -45l-18 -97h-133l27 144q14 66 48.5 95.5t100.5 29.5h844l-19 -99l-927 -1341h-162z" />
<glyph unicode="8" horiz-adv-x="1173" d="M53 350q0 255 324 458l4.5 3t3.5 2q-137 95 -137 244q0 76 34.5 148.5t96 130.5t156 93t204.5 35q187 0 291.5 -85t104.5 -232q0 -64 -25 -132t-58 -117.5t-76 -97.5t-67 -69.5t-43 -36.5q164 -104 164 -264q0 -124 -74 -229.5t-198.5 -165.5t-270.5 -60 q-190 0 -312 100.5t-122 274.5zM203 360q0 -118 82.5 -187t206.5 -69q96 0 184.5 38.5t147.5 114.5t59 171q0 40 -18 75t-44.5 60t-70.5 51.5t-80.5 44t-91.5 43t-89 43.5q-29 -17 -53 -32.5t-71 -54.5t-79 -78.5t-57.5 -99t-25.5 -120.5zM393 1059q0 -33 10.5 -62.5t33 -54 t46 -44t62 -40t67 -34.5t74.5 -35.5t72 -34.5q22 16 53 45.5t75 81t73.5 120t29.5 136.5q0 92 -69 145t-185 53q-147 0 -244.5 -81t-97.5 -195z" />
<glyph unicode="9" horiz-adv-x="1159" d="M57 35l64 119q9 -5 26 -13t70 -21.5t107 -13.5q110 0 210 50.5t174 135t128 185t84 209.5h-5q-66 -76 -169 -121t-211 -45q-178 0 -283 102.5t-105 272.5q0 104 38 205.5t105 182.5t169 131t221 50q203 0 318.5 -141.5t115.5 -376.5q0 -75 -16.5 -162.5t-50 -181.5 t-81 -183.5t-114.5 -170t-145 -141.5t-177.5 -96.5t-207.5 -35.5q-75 0 -141 15t-95 30zM293 901q0 -118 72 -188t198 -70q64 0 134.5 24.5t131.5 67t100.5 106t39.5 134.5q0 89 -32 169t-100 134.5t-159 54.5q-161 0 -273 -126t-112 -306z" />
<glyph unicode=":" horiz-adv-x="407" d="M8 0l31 164h158l-31 -164h-158zM176 866l31 164h160l-33 -164h-158z" />
<glyph unicode=";" horiz-adv-x="532" d="M-39 -199l170 367h150l-203 -367h-117zM268 866l31 164h158l-31 -164h-158z" />
<glyph unicode="&#x3c;" horiz-adv-x="1163" d="M74 530v103l923 414v-138l-751 -325v-4l751 -326v-137z" />
<glyph unicode="=" horiz-adv-x="1163" d="M96 344v119h955v-119h-955zM96 700v119h955v-119h-955z" />
<glyph unicode="&#x3e;" horiz-adv-x="1163" d="M150 117v137l753 326v4l-753 325v138l925 -414v-103z" />
<glyph unicode="?" horiz-adv-x="931" d="M193 0l32 162h162l-33 -162h-161zM227 1358q6 4 17.5 11.5t48 26t74 33t92.5 26t108 11.5q161 0 260 -85.5t99 -225.5q0 -74 -24.5 -138.5t-64 -111.5t-88.5 -89t-100 -81.5t-95 -78t-77.5 -88t-44.5 -103.5l-18 -88h-140l19 92q14 69 48.5 129.5t78 104.5t93 84.5 t95.5 78.5t84 77.5t61 90t23 107.5q0 85 -60.5 138.5t-164.5 53.5q-64 0 -130 -21.5t-100 -43.5l-34 -21z" />
<glyph unicode="@" horiz-adv-x="1560" d="M72 369q0 173 74 335.5t196.5 281.5t288.5 191t342 72q208 0 313 -91.5t105 -235.5q0 -42 -9 -80l-120 -627h143l-21 -115h-530q-163 0 -261.5 95t-98.5 237q0 118 64.5 222.5t180.5 168.5t256 64h258q4 25 4 43q0 83 -78 140.5t-223 57.5q-146 0 -283.5 -64t-237 -168 t-160 -243t-60.5 -284q0 -223 135.5 -362.5t362.5 -139.5l-23 -121q-270 0 -444 174t-174 449zM637 440q0 -99 64 -162t167 -63h254l109 563h-250q-135 0 -239.5 -103.5t-104.5 -234.5z" />
<glyph unicode="A" horiz-adv-x="1343" d="M-86 0l25 127h34q28 0 43 8.5t29 36.5l719 1268h151l228 -1274q4 -24 14.5 -31.5t36.5 -7.5h37l-25 -127h-88q-62 0 -84.5 22.5t-34.5 96.5l-59 340h-571l-193 -340q-40 -72 -72.5 -95.5t-95.5 -23.5h-94zM430 582h494l-90 516l-19 186h-4q-55 -118 -92 -186z" />
<glyph unicode="B" horiz-adv-x="1224" d="M113 86q0 22 10 74l225 1153h-133l25 127h600q156 0 247 -81t91 -220q0 -127 -73.5 -230t-184.5 -149v-4q82 -31 133 -107t51 -188q0 -157 -96 -275.5t-234 -160.5q-76 -25 -172 -25h-379q-110 0 -110 86zM268 156q0 -29 37 -29h309q75 0 117 16q101 32 163 120.5 t62 199.5q0 113 -65 171t-180 58h-340l-95 -487q-8 -36 -8 -49zM393 815h344q120 0 206.5 88.5t86.5 212.5q0 93 -54.5 145t-154.5 52h-329z" />
<glyph unicode="C" horiz-adv-x="1409" d="M90 596q0 131 41.5 259t119 237t180.5 193t234.5 131.5t272.5 47.5q83 0 167 -17t158 -49t120.5 -87t46.5 -123q0 -25 -11 -76l-14 -72h-135l16 80q3 13 3 26q0 28 -15 54q-21 36 -60 59.5t-90 40t-98.5 23t-89.5 6.5q-136 0 -264.5 -58.5t-223.5 -156t-152.5 -232 t-57.5 -280.5q0 -218 126.5 -353.5t350.5 -135.5q137 0 268 47t225 133l70 -111q-99 -95 -256.5 -151t-321.5 -56q-183 0 -323 82.5t-213.5 223t-73.5 315.5z" />
<glyph unicode="D" horiz-adv-x="1466" d="M113 86q0 22 10 74l225 1153h-133l25 127h565q288 0 451 -149t163 -427q0 -170 -62.5 -326.5t-173 -275.5t-275 -190.5t-355.5 -71.5h-330q-110 0 -110 86zM268 156q0 -29 37 -29h244q163 0 301 61t228.5 163t141 233t50.5 272q0 226 -128.5 341.5t-361.5 115.5h-288 l-216 -1108q-8 -36 -8 -49z" />
<glyph unicode="E" horiz-adv-x="1144" d="M113 86q0 22 10 74l225 1153h-133l25 127h819q106 0 106 -84q0 -32 -10 -80l-20 -105h-134l13 62q6 35 6 49q0 31 -39 31h-489l-103 -525h541l-25 -126h-540l-89 -457q-8 -36 -8 -49q0 -29 37 -29h506q46 0 55 45l19 96h133l-29 -147q-12 -66 -45.5 -93.5t-95.5 -27.5 h-625q-110 0 -110 86z" />
<glyph unicode="F" horiz-adv-x="1026" d="M90 0l258 1313h-133l25 127h761q107 0 107 -84q0 -32 -10 -80l-21 -105h-133l10 62q2 9 4 20t3.5 18t1.5 11q0 31 -39 31h-432l-107 -541h524l-26 -127h-523l-127 -645h-143z" />
<glyph unicode="G" horiz-adv-x="1472" d="M88 584q0 171 70 333t186.5 282t278 192.5t335.5 72.5q87 0 167 -18t132.5 -44t92.5 -52t58 -44l19 -18l-86 -106q-5 6 -15.5 16t-47.5 35t-78 44.5t-108 35.5t-138 16q-141 0 -273 -60t-229 -160t-155.5 -236t-58.5 -281q0 -219 126 -350t334 -131q82 0 164 22t140 53.5 t104.5 63.5t69.5 54l24 22l29 145q8 36 8 47q0 31 -39 31h-90l22 123h144q108 0 108 -84q0 -22 -12 -80l-98 -508h-133l22 111l15 59h-5q-73 -75 -204.5 -135t-292.5 -60q-263 0 -424.5 169t-161.5 440z" />
<glyph unicode="H" horiz-adv-x="1531" d="M92 0l238 1227q2 9 4.5 21.5t4 21t1.5 12.5q0 31 -41 31h-84l25 127h147q107 0 107 -84q0 -27 -11 -80l-96 -492h827l105 541q13 62 47 88.5t96 26.5h158l-25 -127h-92q-43 0 -51 -45l-248 -1268h-143l129 657h-828l-126 -657h-144z" />
<glyph unicode="I" horiz-adv-x="587" d="M-29 0l25 127h135l231 1186h-137l27 127h410l-25 -127h-135l-232 -1186h136l-25 -127h-410z" />
<glyph unicode="J" horiz-adv-x="1007" d="M-14 291q0 31 12 117l8 53h144l-9 -49q-10 -58 -10 -93q0 -108 60 -157t153 -49q51 0 99 15.5t93.5 48.5t79 92.5t48.5 138.5l161 827q9 45 9 47q0 31 -41 31h-353l25 127h416q106 0 106 -84q0 -30 -10 -78l-172 -889q-22 -111 -71 -194t-114.5 -129.5t-134.5 -68.5 t-143 -22q-97 0 -176 33.5t-129.5 107t-50.5 175.5z" />
<glyph unicode="K" horiz-adv-x="1202" d="M92 0l238 1227q2 9 4.5 21.5t4 21t1.5 12.5q0 31 -41 31h-84l25 127h147q107 0 107 -84q0 -27 -11 -80l-90 -461h172q82 0 125 51l459 574h174l-492 -604q-21 -26 -42.5 -46.5t-32.5 -27.5l-11 -8v-4q28 -21 46 -80l151 -494q17 -49 78 -49h65l-24 -127h-105 q-62 0 -94.5 27t-50.5 84l-162 524q-8 31 -37 42t-80 11h-163l-133 -688h-144z" />
<glyph unicode="L" horiz-adv-x="1071" d="M113 86q0 22 10 74l207 1067q2 9 4.5 21.5t4 21t1.5 12.5q0 31 -41 31h-84l25 127h147q107 0 107 -84q0 -27 -11 -80l-207 -1071q-8 -36 -8 -49q0 -29 37 -29h477q47 0 56 45l18 96h133l-26 -147q-12 -65 -47 -93t-97 -28h-596q-110 0 -110 86z" />
<glyph unicode="M" horiz-adv-x="1732" d="M-74 0l25 127h76q23 0 35 10t18 35l348 1268h141l217 -838l37 -172h4q54 94 103 172l545 838h151l-141 -1235q-4 -36 -4 -49q0 -29 35 -29h75l-24 -127h-125q-61 0 -88 22.5t-27 73.5q0 7 6 49l99 854q4 35 12 85t14 83l6 33h-4q-65 -129 -114 -201l-482 -731h-129 l-198 731q-8 32 -17.5 83.5t-14.5 86.5l-5 35h-4q-25 -129 -45 -205l-240 -882q-19 -62 -50 -89.5t-89 -27.5h-146z" />
<glyph unicode="N" horiz-adv-x="1538" d="M-41 0l27 127h86q45 0 53 45l248 1268h127l532 -1030q16 -32 37.5 -79t34.5 -77l14 -31h4q13 111 27 187l176 915q12 62 46 88.5t95 26.5h160l-24 -127h-93q-43 0 -51 -45l-246 -1268h-127l-536 1030q-16 31 -36.5 77t-32.5 77l-13 30h-4q-13 -108 -29 -184l-176 -913 q-12 -60 -46 -88.5t-95 -28.5h-158z" />
<glyph unicode="O" horiz-adv-x="1622" d="M88 598q0 172 74 332.5t195 277t282 186.5t328 70q272 0 443 -170.5t171 -437.5q0 -174 -74.5 -337.5t-195.5 -282t-282 -190t-327 -71.5q-272 0 -443 175t-171 448zM238 602q0 -216 133 -352.5t346 -136.5q131 0 261 59.5t230 158t162 236t62 283.5q0 211 -133 345 t-345 134q-134 0 -264.5 -58.5t-229.5 -155.5t-160.5 -232.5t-61.5 -280.5z" />
<glyph unicode="P" horiz-adv-x="1179" d="M90 0l258 1313h-133l25 127h591q174 0 281 -96t107 -267q0 -156 -85.5 -279.5t-211.5 -181.5q-108 -51 -230 -51h-346l-113 -565h-143zM371 692h313q161 0 273 105t112 270q0 123 -68 184.5t-194 61.5h-315z" />
<glyph unicode="Q" horiz-adv-x="1622" d="M88 598q0 171 74 332t194.5 277.5t280 186.5t324.5 70q275 0 447.5 -170.5t172.5 -437.5q0 -179 -76 -343.5t-207 -287.5l136 -172l-99 -88l-139 178q-231 -168 -487 -168q-181 0 -323 80t-220 222t-78 321zM238 602q0 -216 133 -352.5t346 -136.5q211 0 395 135 l-147 186l98 88l147 -190q103 103 162.5 237t59.5 281q0 211 -133 345t-345 134q-134 0 -264.5 -58.5t-229.5 -155.5t-160.5 -232.5t-61.5 -280.5z" />
<glyph unicode="R" horiz-adv-x="1247" d="M90 0l258 1313h-133l25 127h600q161 0 256.5 -88.5t95.5 -247.5q0 -90 -31 -171t-82 -139t-116.5 -96.5t-135.5 -50.5v-4q21 -18 33 -57l127 -410q13 -49 70 -49h59l-24 -127h-84q-67 0 -98.5 23.5t-51.5 87.5l-127 409q-18 55 -42.5 70.5t-84.5 15.5h-250l-121 -606 h-143zM379 733h321q141 0 242.5 102t101.5 252q0 112 -59 169t-172 57h-321z" />
<glyph unicode="S" horiz-adv-x="1048" d="M-10 178l94 101q5 -7 14.5 -18.5t42 -40.5t69.5 -51.5t96 -41t122 -18.5q149 0 248.5 83t99.5 211q0 65 -32.5 115.5t-84 84t-114 63.5t-125 63t-114 73.5t-84 104.5t-32.5 146q0 118 65 212.5t178 146.5t251 52q66 0 129.5 -12.5t118.5 -37t89 -66t34 -93.5q0 -5 -6 -53 l-19 -88h-133l10 53q6 24 6 43q0 57 -68 88t-165 31q-161 0 -251.5 -78.5t-90.5 -191.5q0 -59 32.5 -105t84 -77t114 -59t125 -62t114 -75.5t84 -109.5t32.5 -155q0 -190 -138.5 -315.5t-357.5 -125.5q-84 0 -160.5 21t-124.5 50.5t-84.5 59.5t-52.5 51z" />
<glyph unicode="T" horiz-adv-x="1255" d="M135 1171l31 162q12 60 40 83.5t89 23.5h975q104 0 104 -84q0 -22 -12 -80l-19 -105h-133l13 62q8 40 8 49q0 31 -41 31h-350l-258 -1313h-144l258 1313h-356q-25 0 -38 -10t-17 -35l-19 -97h-131z" />
<glyph unicode="U" horiz-adv-x="1447" d="M160 385q0 55 12 117l141 725q2 9 4.5 21.5t4.5 21t2 12.5q0 31 -41 31h-84l24 127h148q108 0 108 -84q0 -22 -12 -80l-152 -778q-10 -41 -10 -95q0 -138 85 -214t237 -76q179 0 306.5 105t162.5 286l159 821q10 62 44.5 88.5t97.5 26.5h157l-24 -127h-92q-44 0 -52 -45 l-153 -789q-43 -229 -207.5 -366.5t-404.5 -137.5q-213 0 -337 111t-124 299z" />
<glyph unicode="V" horiz-adv-x="1337" d="M158 1313l24 127h88q55 0 79 -25.5t36 -93.5l166 -971q4 -27 8.5 -73t6.5 -79l3 -32h4q50 106 93 184l542 971q41 73 74.5 96t99.5 23h86l-24 -127h-29q-27 0 -43.5 -9t-30.5 -36l-720 -1268h-152l-227 1268q-7 45 -54 45h-30z" />
<glyph unicode="W" horiz-adv-x="1929" d="M164 1313l24 127h80q67 0 97 -25.5t34 -93.5l56 -993l2 -154h4q30 80 67 154l535 1106h141l74 -1106l2 -154h4q29 82 62 154l442 993q31 70 71.5 94.5t94.5 24.5h100l-26 -127h-35q-53 0 -74 -45l-578 -1268h-170l-71 1001q-3 41 -4 94v47.5v38.5v33h-4 q-50 -118 -95 -210l-491 -1004h-170l-84 1264q-3 49 -51 49h-37z" />
<glyph unicode="X" horiz-adv-x="1169" d="M-82 0l608 758l-215 502q-23 53 -86 53h-51l25 127h80q68 0 100.5 -23.5t62.5 -91.5l127 -303l64 -160h4q62 86 121 160l241 303q52 69 94 92t113 23h92l-24 -127h-41q-37 0 -62 -10t-51 -43l-422 -517l326 -743h-156l-213 487l-61 152h-4q-49 -72 -115 -152l-389 -487 h-168z" />
<glyph unicode="Y" horiz-adv-x="1218" d="M156 1313l26 127h64q63 0 94 -23.5t59 -91.5l170 -407q14 -32 28.5 -72.5t22.5 -65.5l7 -24h4q60 90 117 162l323 407q54 69 94 92t107 23h82l-27 -127h-41q-30 0 -51.5 -11t-44.5 -40l-508 -635l-123 -627h-143l123 627l-265 633q-19 53 -69 53h-49z" />
<glyph unicode="Z" horiz-adv-x="1204" d="M-53 0l20 100l967 1082q29 32 62.5 64.5t51.5 49.5l19 17v4q-34 -4 -106 -4h-560q-46 0 -55 -45l-18 -97h-135l28 144q12 66 48 95.5t102 29.5h909l-20 -101l-971 -1081q-29 -33 -62.5 -65.5t-52.5 -48.5l-18 -17v-4q34 4 106 4h608q47 0 56 45l16 96h137l-28 -143 q-12 -66 -48 -95.5t-102 -29.5h-954z" />
<glyph unicode="[" horiz-adv-x="534" d="M41 -70l278 1440q14 66 49 95.5t101 29.5h152l-23 -115h-102q-45 0 -54 -45l-266 -1370q-9 -45 37 -45h102l-22 -115h-152q-66 0 -89.5 29.5t-10.5 95.5z" />
<glyph unicode="\" horiz-adv-x="798" d="M256 1520h125l205 -1606h-125z" />
<glyph unicode="]" horiz-adv-x="536" d="M-66 -195l23 115h100q45 0 54 45l266 1370q9 45 -37 45h-102l22 115h152q67 0 90.5 -29.5t11.5 -95.5l-281 -1440q-12 -66 -47.5 -95.5t-101.5 -29.5h-150z" />
<glyph unicode="^" horiz-adv-x="1241" d="M31 512l407 928h94l408 -928h-135l-320 758l-319 -758h-135z" />
<glyph unicode="_" horiz-adv-x="1114" d="M-90 -119l20 119h1057l-22 -119h-1055z" />
<glyph unicode="`" horiz-adv-x="737" d="M231 1784h150l98 -244h-114z" />
<glyph unicode="a" horiz-adv-x="1052" d="M-2 246q0 89 42.5 158t111 111.5t162 70.5t186.5 38.5t194 10.5h64l6 29q10 44 10 96q0 178 -211 178q-31 0 -64.5 -3.5t-71 -12.5t-63.5 -28t-30 -46l-10 -66h-136l21 99q9 48 48 83.5t96 54.5t114 27.5t115 8.5q167 0 249 -76.5t82 -208.5q0 -50 -14 -125l-86 -446 q-1 -4 -4.5 -22.5t-3.5 -24.5q0 -31 39 -31h86l-25 -121h-131q-110 0 -110 84q0 41 24 125h-4q2 0 -13.5 -24t-48 -58.5t-76 -69t-111 -58.5t-140.5 -24q-125 0 -211 69t-86 202zM141 264q0 -82 51.5 -128t137.5 -46q75 0 146 38t121.5 97t85 125t46.5 127l8 47h-57 q-53 0 -101.5 -3t-114.5 -11.5t-119.5 -26.5t-101.5 -45.5t-75 -72t-27 -101.5z" />
<glyph unicode="b" horiz-adv-x="1167" d="M33 0l239 1243q7 28 7 45q0 31 -37 31h-86l24 121h139q113 0 113 -86q0 -14 -8 -60l-70 -352q-4 -22 -10.5 -45.5t-11.5 -36.5l-4 -12h4q56 92 157 149.5t213 57.5q181 0 281 -110.5t100 -303.5q0 -143 -48 -269t-126 -212t-179 -135.5t-206 -49.5q-118 0 -205 55.5 t-120 157.5h-4q-1 -43 -11 -92l-18 -96h-133zM256 391q0 -129 64 -210t192 -81q76 0 151.5 37t137.5 103t100.5 168.5t38.5 222.5q0 138 -69.5 217.5t-190.5 79.5q-122 0 -221 -79.5t-151 -201.5t-52 -256z" />
<glyph unicode="c" horiz-adv-x="1056" d="M49 424q0 130 52 248t137 201.5t197.5 132.5t230.5 49q58 0 120 -12t122 -37q60 -26 93 -72q24 -34 24 -75q0 -15 -3 -32l-16 -84h-129l10 52q1 8 1 15q0 25 -16 46q-21 27 -58.5 42.5t-78.5 23.5t-80 8q-116 0 -222 -64t-173 -179t-67 -251q0 -154 85 -244t242 -90 q61 0 119 13.5t97 32t69.5 37.5t44.5 33l14 13l45 -114q-6 -6 -16.5 -15.5t-48.5 -34t-81 -43t-112 -34t-143 -15.5q-213 0 -336 122t-123 327z" />
<glyph unicode="d" horiz-adv-x="1200" d="M51 389q0 143 47 269t124.5 212t179 135.5t210.5 49.5q113 0 200 -54t118 -155h4q2 43 10 86l60 311q6 27 6 45q0 31 -37 31h-84l24 121h140q110 0 110 -84q0 -16 -8 -62l-215 -1097q-6 -24 -6 -45q0 -31 37 -31h86l-25 -121h-131q-106 0 -106 82q0 45 22 113h-4 q-59 -94 -158.5 -157t-222.5 -63q-182 0 -281.5 110.5t-99.5 303.5zM193 399q0 -140 69.5 -219.5t190.5 -79.5q124 0 223.5 83t150 204t50.5 248q0 128 -64.5 210.5t-191.5 82.5q-76 0 -151.5 -37.5t-137.5 -103.5t-100.5 -168t-38.5 -220z" />
<glyph unicode="e" horiz-adv-x="1087" d="M49 410q0 125 45.5 242.5t124.5 206.5t192.5 142.5t241.5 53.5q183 0 277 -101.5t94 -271.5q0 -36 -8 -79t-16 -68l-7 -25h-788q-10 -43 -10 -94q0 -138 86 -227t243 -89q52 0 106 13t93.5 31t71.5 36.5t49 31.5l16 13l43 -114q-7 -6 -19.5 -15t-53.5 -32.5t-83.5 -41.5 t-106 -32.5t-124.5 -14.5q-212 0 -339.5 119.5t-127.5 315.5zM229 618h643q9 37 9 76q0 119 -65 181.5t-169 62.5q-134 0 -249 -84.5t-169 -235.5z" />
<glyph unicode="f" horiz-adv-x="618" d="M66 0l176 913h-129l22 117h129l8 39q15 81 43.5 145.5t66 104.5t77 67.5t83.5 40.5t76.5 18t65.5 5q22 0 42 -1.5t29 -2.5l9 -2l-25 -119q-4 4 -53 4q-29 0 -56.5 -5t-63 -21.5t-64 -44t-54 -77t-38.5 -114.5l-7 -37h265l-23 -117h-264l-178 -913h-137z" />
<glyph unicode="g" horiz-adv-x="1181" d="M-10 -346l67 113q13 -8 36.5 -19.5t95 -31t139.5 -19.5q80 0 147.5 19t126.5 60t100 114t58 173q7 40 16 73.5t14 47.5l5 13h-4q-126 -191 -345 -191q-182 0 -286.5 111.5t-104.5 298.5q0 88 22 177.5t68 172.5t109 147.5t152 103t190 38.5q127 0 217 -50t113 -139h4 q-2 14 2 47q11 60 44.5 88.5t96.5 28.5h146l-23 -123h-86q-46 0 -55 -43l-164 -850q-23 -115 -79 -203t-133 -139.5t-163.5 -76.5t-179.5 -25q-190 0 -346 84zM199 424q0 -137 71 -215t199 -78q78 0 145.5 34.5t113.5 90.5t79 128t48 146.5t15 147.5q0 252 -264 252 q-94 0 -172.5 -44.5t-129 -117t-78 -162t-27.5 -182.5z" />
<glyph unicode="h" horiz-adv-x="1208" d="M31 0l241 1241q9 36 9 47q0 31 -39 31h-86l24 121h139q113 0 113 -86q0 -14 -8 -60l-82 -411l-20 -88h4q25 40 63 80.5t93.5 83t132.5 69.5t159 27q148 0 219.5 -72.5t71.5 -204.5q0 -48 -14 -127l-90 -465q-1 -3 -2.5 -11t-3 -14t-1.5 -9q0 -31 39 -31h86l-22 -121h-144 q-108 0 -108 88q0 24 6 51l94 482q15 77 15 120q0 183 -185 183q-84 0 -165 -39t-142 -101t-104 -139.5t-58 -155.5l-94 -489h-141z" />
<glyph unicode="i" horiz-adv-x="497" d="M84 88q0 30 6 57l133 689q6 30 6 45q0 30 -36 30h-87l25 121h139q109 0 109 -86q0 -17 -8 -63l-135 -695q-5 -25 -5 -34q0 -31 37 -31h86l-22 -121h-144q-104 0 -104 88zM301 1264l37 176h133l-35 -176h-135z" />
<glyph unicode="j" horiz-adv-x="462" d="M-295 -416l25 123q16 -4 43 -4q31 0 59.5 4.5t65 21.5t65.5 44.5t55 78.5t39 119l170 863q6 30 6 45q0 30 -36 30h-86l22 121h141q109 0 109 -84q0 -13 -8 -63l-178 -922q-14 -72 -39 -130.5t-54 -97.5t-65.5 -68.5t-69.5 -45.5t-70.5 -25.5t-64.5 -12.5t-55 -3 q-19 0 -37.5 1.5t-27.5 2.5zM305 1264l35 176h135l-35 -176h-135z" />
<glyph unicode="k" horiz-adv-x="995" d="M31 0l241 1243q7 28 7 45q0 31 -37 31h-86l24 121h139q113 0 113 -86q0 -14 -8 -60l-129 -657h104q70 0 117 47l334 346h178l-373 -379q-25 -26 -48 -44.5t-33 -23.5l-11 -5l-2 -5q24 -12 49 -73l123 -334q11 -26 29 -35.5t59 -9.5h56l-25 -121h-92q-72 0 -99.5 19.5 t-52.5 82.5l-135 367q-16 47 -98 47h-103l-100 -516h-141z" />
<glyph unicode="l" horiz-adv-x="468" d="M53 88q0 24 6 51l215 1104q7 35 7 45q0 31 -37 31h-86l24 121h140q108 0 108 -86q0 -14 -8 -60l-215 -1108q-4 -20 -4 -34q0 -31 37 -31h86l-23 -121h-143q-107 0 -107 88z" />
<glyph unicode="m" horiz-adv-x="1902" d="M63 0l160 829q6 24 6 48q0 32 -39 32h-81l22 121h139q107 0 107 -88q0 -26 -27 -147h4q23 39 59.5 79.5t90 83.5t127 70t151.5 27q257 0 267 -260h4q19 31 46 64t68.5 69t88.5 63.5t107.5 45.5t123.5 18q137 0 203.5 -71t66.5 -200q0 -47 -14 -129l-92 -469 q-4 -20 -4 -34q0 -31 36 -31h86l-22 -121h-143q-107 0 -107 88q0 15 4 51l94 482q15 67 15 124q0 179 -162 179q-103 0 -200.5 -67t-160.5 -167t-83 -205l-95 -485h-139l121 621q14 63 14 124q0 179 -162 179q-81 0 -158.5 -39.5t-135 -103t-98 -141.5t-56.5 -157l-94 -483 h-138z" />
<glyph unicode="n" horiz-adv-x="1239" d="M63 0l160 829q6 24 6 48q0 32 -39 32h-81l22 121h139q107 0 107 -86q0 -35 -29 -153h4q25 41 62.5 82t93.5 84.5t133.5 70.5t161.5 27q149 0 221 -72.5t72 -204.5q0 -43 -15 -127l-90 -465q-6 -30 -6 -34q0 -31 39 -31h86l-23 -121h-143q-108 0 -108 88q0 24 6 51l94 482 q14 72 14 120q0 183 -184 183q-84 0 -165 -39t-142 -101t-104 -139.5t-58 -155.5l-96 -489h-138z" />
<glyph unicode="o" horiz-adv-x="1234" d="M47 426q0 129 54 246.5t143 200.5t207.5 132.5t242.5 49.5q203 0 331 -124.5t128 -320.5q0 -130 -54.5 -249t-144 -202.5t-207 -133.5t-239.5 -50q-204 0 -332.5 126.5t-128.5 324.5zM190 430q0 -145 92 -236.5t238 -91.5q121 0 233.5 65.5t184.5 182.5t72 254 q0 143 -92 234.5t-238 91.5q-123 0 -236 -66t-183.5 -182.5t-70.5 -251.5z" />
<glyph unicode="p" horiz-adv-x="1200" d="M-16 -410l241 1239q6 30 6 48q0 16 -7.5 24t-28.5 8h-86l22 121h141q105 0 105 -76q0 -33 -25 -114h4q58 93 154.5 154t228.5 61q179 0 278 -112t99 -312q0 -138 -47.5 -261.5t-125.5 -209t-179.5 -135.5t-208.5 -50q-111 0 -198 54t-121 153h-5q-4 -45 -14 -98l-96 -494 h-137zM289 403q0 -133 65 -218t187 -85q77 0 154 37.5t139 103t100.5 164.5t38.5 213q0 150 -68.5 230t-191.5 80q-91 0 -172 -47t-135 -122.5t-85.5 -169t-31.5 -186.5z" />
<glyph unicode="q" horiz-adv-x="1196" d="M51 387q0 144 47 270.5t125.5 212.5t181 135.5t211.5 49.5q116 0 199 -52.5t117 -148.5h4q6 39 10 57t14.5 46t24.5 40.5t39.5 22.5t60.5 10h148l-23 -121h-88q-44 0 -53 -45l-248 -1274h-139l96 496q4 24 11.5 48.5t12.5 37.5l5 12h-4q-53 -88 -149.5 -148.5 t-221.5 -60.5q-182 0 -281.5 110t-99.5 302zM193 397q0 -138 70 -217.5t192 -79.5q92 0 173.5 48.5t135 125.5t84.5 172.5t31 190.5q0 128 -64.5 209.5t-191.5 81.5q-76 0 -152 -37t-138 -103t-101 -168.5t-39 -222.5z" />
<glyph unicode="r" horiz-adv-x="720" d="M63 0l168 864q1 6 1 12q0 33 -37 33h-86l24 121h141q58 0 82.5 -20.5t24.5 -63.5q0 -20 -14.5 -86.5t-26.5 -103.5h4q59 121 159.5 202.5t221.5 81.5q30 0 57 -6l-28 -137q-24 4 -49 4q-79 0 -152.5 -46t-127 -120t-91.5 -162.5t-55 -179.5l-76 -393h-140z" />
<glyph unicode="s" horiz-adv-x="890" d="M-25 147l80 97q4 -6 12 -16t36 -35.5t61 -45t87 -35.5t114 -16q106 0 175.5 48.5t69.5 129.5q0 30 -11.5 55.5t-27 42.5t-46 35t-52 27.5t-61.5 26.5q-50 20 -83 35t-75.5 41.5t-67.5 55t-43 71t-18 92.5q0 92 53 161t138.5 103.5t189.5 34.5q57 0 115.5 -12.5 t110.5 -36.5q50 -24 78 -66q20 -30 20 -65q0 -14 -3 -29l-14 -66h-127l6 45q1 6 1 12q0 37 -44 66q-51 33 -145 33q-108 0 -172 -46t-64 -122q0 -23 7 -44t16 -36t28 -31t33 -25.5t41.5 -23t42.5 -20t47 -19.5q35 -14 57.5 -23.5t54.5 -26t52 -31t43 -36.5t36 -45t21.5 -54 t8.5 -66q0 -135 -108 -223.5t-286 -88.5q-77 0 -145.5 17.5t-110.5 43t-73.5 51t-44.5 43.5z" />
<glyph unicode="t" horiz-adv-x="620" d="M98 913l23 117h137l55 285h138l-56 -285h258l-22 -117h-258l-103 -520q-10 -62 -10 -96q0 -180 189 -180l49 4l-25 -125q-24 -4 -61 -4q-35 0 -70.5 6t-77 25t-73 48t-53 80.5t-21.5 118.5q0 50 12 109l104 534h-135z" />
<glyph unicode="u" horiz-adv-x="1228" d="M94 909l23 121h145q107 0 107 -90q0 -19 -7 -47l-94 -483q-12 -62 -12 -121q0 -183 180 -183q110 0 211 66t165.5 165t84.5 204l96 489h140l-162 -829q-4 -32 -4 -47q0 -33 37 -33h83l-24 -121h-139q-107 0 -107 86q0 36 29 154h-4q-23 -39 -60.5 -81t-92.5 -85.5 t-131.5 -71t-158.5 -27.5q-147 0 -217.5 72t-70.5 203q0 62 12 129l90 465q6 30 6 35q0 30 -37 30h-88z" />
<glyph unicode="v" horiz-adv-x="1060" d="M86 909l23 121h67q54 0 81.5 -26.5t39.5 -88.5l123 -641l12 -120h4q29 71 58 120l372 644q40 71 71.5 91.5t102.5 20.5h72l-22 -121h-27q-27 0 -43 -10t-31 -37l-504 -862h-151l-166 854q-6 29 -18.5 42t-36.5 13h-27z" />
<glyph unicode="w" horiz-adv-x="1728" d="M86 909l25 121h90q51 0 78 -27t36 -90l84 -649l11 -110h4q24 59 51 110l401 762h138l106 -762l10 -110h4q25 57 54 110l338 651q37 72 69 93.5t105 21.5h86l-23 -121h-29q-54 0 -79 -47l-463 -862h-154l-110 733l-11 113h-4q-26 -62 -53 -113l-393 -733h-154l-127 862 q-4 26 -16 36.5t-37 10.5h-37z" />
<glyph unicode="x" horiz-adv-x="989" d="M-72 0l471 545l-166 323q-21 41 -88 41h-43l23 121h88q59 0 87 -23t62 -92l111 -223l25 -59h4q22 34 45 59l186 223q62 74 96 94.5t107 20.5h94l-22 -121h-45q-69 0 -103 -41l-297 -340l264 -528h-151l-187 379l-24 57h-4q-20 -28 -45 -57l-324 -379h-164z" />
<glyph unicode="y" horiz-adv-x="1091" d="M-166 -332l66 103l4 -5q4 -4 8.5 -9t12.5 -12.5t17 -14t21.5 -13.5t25 -12.5t28.5 -8.5t32 -3q116 0 219 170l92 145l-196 854q-6 27 -19.5 37t-42.5 10h-20l24 121h91q48 0 68.5 -25t33.5 -87l139 -644l15 -110h4q26 59 55 110l381 644q39 69 75 90.5t107 21.5h70 l-25 -121h-20q-29 0 -47 -10t-35 -37l-653 -1079q-61 -102 -143.5 -157.5t-178.5 -55.5q-37 0 -72 10t-58.5 24.5t-42 29t-27.5 24.5z" />
<glyph unicode="z" horiz-adv-x="1026" d="M-39 0l19 96l712 717q22 23 48.5 48t42.5 39l16 13v5q-44 -5 -101 -5h-385q-46 0 -55 -45l-16 -86h-125l24 123q12 66 48 95.5t102 29.5h715l-19 -96l-713 -717q-23 -23 -50.5 -48t-43.5 -39l-16 -13v-4q40 4 108 4h426q47 0 56 47l14 84h125l-25 -123q-12 -66 -47 -95.5 t-100 -29.5h-760z" />
<glyph unicode="{" horiz-adv-x="614" d="M49 598l25 127q7 1 19.5 3.5t45.5 17.5t60 38t55 69.5t39 107.5l35 174q19 98 57.5 169.5t79 107.5t94 56.5t91.5 24t83 2.5l-22 -115q-21 2 -44 -1t-56.5 -17.5t-62 -40.5t-54.5 -77t-39 -120l-41 -206q-11 -60 -37.5 -108t-56 -74t-57.5 -43.5t-46 -22.5l-18 -6v-5 q5 -2 13 -6.5t28 -22t35.5 -39t28.5 -58.5t13 -80q0 -25 -6 -60l-43 -217q-10 -58 -10 -92q0 -46 13 -79t31 -49.5t43.5 -25.5t44 -11t38.5 -1l-25 -115q-12 -2 -30 -2q-23 0 -49 4.5t-63 20.5t-65 42.5t-48.5 76.5t-20.5 116q0 40 14 115l35 189q6 35 6 61q0 44 -13.5 77.5 t-33 50.5t-39.5 28t-34 14z" />
<glyph unicode="|" horiz-adv-x="585" d="M238 -322v1936h127v-1936h-127z" />
<glyph unicode="}" horiz-adv-x="612" d="M-100 -197l20 115q22 -2 45 1t57 17.5t62 40.5t54.5 77t39.5 120l43 229q12 62 38.5 111.5t56 76t57 44.5t45.5 23l18 6v4q-5 2 -13 6.5t-28 21.5t-35.5 38t-28 57t-12.5 77q0 20 7 60l36 196q11 48 11 90q0 45 -13 78.5t-31.5 50t-44 25.5t-43.5 11t-38 1l24 115 q28 3 60.5 0t72 -18.5t71 -42.5t52.5 -78t21 -119q0 -34 -15 -115l-30 -164q-6 -38 -6 -63q0 -44 14 -77.5t33.5 -50.5t39.5 -28t34 -13l14 -3l-27 -127q-7 -1 -19 -3.5t-45 -17.5t-60 -38t-55 -69.5t-40 -107.5l-39 -196q-19 -98 -57 -169.5t-79.5 -108.5t-93.5 -57.5 t-91.5 -24.5t-81.5 -1z" />
<glyph unicode="~" horiz-adv-x="1146" d="M104 428q0 162 69 239.5t192 77.5q62 0 111 -22t80.5 -53.5t61 -62.5t68 -53t86.5 -22q43 0 74 20.5t45.5 54.5t20.5 65.5t6 64.5h120q0 -161 -69.5 -239t-190.5 -78q-62 0 -111 22t-80.5 53t-61 62.5t-68 53.5t-86.5 22q-43 0 -74 -20.5t-45.5 -54.5t-20.5 -65.5 t-6 -64.5h-121z" />
<glyph unicode="&#xa2;" horiz-adv-x="1163" d="M125 586q0 97 25 195.5t74 187t115 158.5t155.5 114t189.5 51l33 172h114l-34 -176q77 -11 138 -46.5t93.5 -77t53.5 -81.5t28 -67l6 -27l-127 -49l-2.5 12.5t-10 30.5t-20 43.5t-33 46t-48 43.5t-67 30.5t-87.5 12.5q-133 0 -237 -80t-158 -209t-54 -282 q0 -141 69.5 -224t209.5 -83q62 0 121 22.5t98.5 54.5t70 64.5t44.5 55.5l14 22l123 -51q-3 -6 -9 -16.5t-27.5 -40.5t-45.5 -57.5t-63.5 -62t-82 -60t-100.5 -44.5t-119 -23l-32 -172h-117l35 179q-156 24 -246 137.5t-90 296.5z" />
<glyph unicode="&#xa3;" horiz-adv-x="1163" d="M-18 0l24 127h127l107 541h-97l23 112h92l64 318q30 156 163.5 261t309.5 105q57 0 111 -12.5t89 -31t62.5 -36.5t40.5 -30l12 -13l-96 -92q-3 3 -9.5 9t-28 20.5t-45.5 25.5t-61.5 20t-76.5 9q-130 0 -219.5 -74t-110.5 -182l-60 -297h394l-23 -112h-391l-107 -541h539 q44 0 53 45l21 96h133l-27 -143q-13 -66 -49 -95.5t-102 -29.5h-862z" />
<glyph unicode="&#xa5;" horiz-adv-x="1245" d="M174 1313l25 127h63q64 0 96 -23.5t60 -91.5l170 -407q13 -32 27 -72.5t22 -65.5l8 -24h4q60 90 117 162l321 407q56 69 95.5 92t105.5 23h82l-24 -127h-41q-56 0 -97 -51l-348 -437h205l-21 -104h-268l-78 -94l-16 -86h326l-19 -105h-327l-87 -436h-143l86 436h-332 l19 105h334l16 86l-39 94h-283l21 104h217l-178 435q-22 53 -72 53h-47z" />
<glyph unicode="&#xa8;" horiz-adv-x="1009" d="M303 1608l35 176h121l-37 -176h-119zM608 1608l37 176h121l-35 -176h-123z" />
<glyph unicode="&#xa9;" horiz-adv-x="1671" d="M129 721q0 152 57.5 290t154.5 237t231 157.5t282 58.5q150 0 286 -58.5t234 -157.5t155.5 -236.5t57.5 -290.5t-57.5 -291.5t-155.5 -238t-234 -158t-286 -58.5q-148 0 -282 58.5t-231 158t-154.5 238t-57.5 291.5zM250 721q0 -176 79.5 -322t218.5 -229.5t306 -83.5 q170 0 310.5 83.5t221 229.5t80.5 322q0 175 -80 320t-221 229t-311 84q-167 0 -306 -84t-218.5 -229.5t-79.5 -319.5zM451 717q0 82 28.5 157.5t81 134.5t134 94.5t179.5 35.5q62 0 119.5 -19.5t95 -47.5t65.5 -56.5t41 -47.5l13 -20l-94 -63q-3 6 -10 15.5t-29.5 33.5 t-48 43t-66 34t-83.5 15q-142 0 -223 -90.5t-81 -216.5q0 -127 80.5 -217t223.5 -90q44 0 84.5 14.5t67 35t46.5 41.5t29 35l10 15l94 -64q-5 -8 -13.5 -20.5t-40 -45.5t-67.5 -58t-93.5 -45.5t-119.5 -20.5q-99 0 -180.5 35t-133.5 93.5t-80.5 133.5t-28.5 156z" />
<glyph unicode="&#xab;" horiz-adv-x="1056" d="M90 582l393 417h160l-410 -428l261 -413h-142zM451 582l419 417h162l-438 -428l260 -413h-141z" />
<glyph unicode="&#xad;" horiz-adv-x="835" d="M111 518l22 127h582l-25 -127h-579z" />
<glyph unicode="&#xae;" horiz-adv-x="1671" d="M129 721q0 152 57.5 290t154.5 237t231 157.5t282 58.5q150 0 286 -58.5t234 -157.5t155.5 -236.5t57.5 -290.5t-57.5 -291.5t-155.5 -238t-234 -158t-286 -58.5q-148 0 -282 58.5t-231 158t-154.5 238t-57.5 291.5zM250 721q0 -176 79.5 -322t218.5 -229.5t306 -83.5 q170 0 310.5 83.5t221 229.5t80.5 322q0 175 -80 320t-221 229t-311 84q-167 0 -306 -84t-218.5 -229.5t-79.5 -319.5zM610 322v798h285q108 0 174 -65t66 -172q0 -84 -44.5 -140t-105.5 -71v-4q9 -10 27 -45l155 -301h-129l-159 323h-152v-323h-117zM727 735h147 q66 0 104 40t38 108q0 67 -37 104t-102 37h-150v-289z" />
<glyph unicode="&#xb4;" horiz-adv-x="759" d="M209 1540l188 244h160l-223 -244h-125z" />
<glyph unicode="&#xb8;" horiz-adv-x="845" d="M184 -410l19 99q37 -13 82 -13q118 0 118 82q0 28 -26.5 44t-75.5 16l-31 -4l97 227l79 -14l-2 -17l-49 -123q49 -8 84 -41.5t35 -85.5q0 -61 -37 -104t-85.5 -59.5t-102.5 -16.5q-29 0 -55.5 2.5t-37.5 5.5z" />
<glyph unicode="&#xbb;" horiz-adv-x="1062" d="M20 158l426 424l-258 417h150l258 -421l-420 -420h-156zM399 158l416 424l-258 417h150l258 -421l-412 -420h-154z" />
<glyph unicode="&#x2c6;" horiz-adv-x="962" d="M211 1540l217 244h141l125 -244h-125l-80 164h-4l-141 -164h-133z" />
<glyph unicode="&#x2da;" horiz-adv-x="770" d="M227 1642q0 71 54.5 119.5t121.5 48.5q61 0 101.5 -35t40.5 -94q0 -69 -54 -116t-124 -47q-60 0 -100 34t-40 90zM317 1647q0 -25 14.5 -39.5t39.5 -14.5q38 0 62 25t24 63q0 25 -15.5 39.5t-42.5 14.5q-32 0 -57 -25.5t-25 -62.5z" />
<glyph unicode="&#x2dc;" horiz-adv-x="1007" d="M158 1546q44 238 227 238q41 0 72 -15t50 -36.5t35.5 -43t37.5 -36.5t47 -15q24 0 44 14t32.5 37.5t20 45t11.5 43.5h107q-22 -122 -80.5 -180t-143.5 -58q-42 0 -74 15t-51 36.5t-35 43t-36.5 36.5t-46.5 15q-45 0 -72 -43t-39 -97h-106z" />
<glyph unicode="&#x400;" horiz-adv-x="1144" d="M113 86q0 22 10 74l225 1153h-133l25 127h819q106 0 106 -84q0 -32 -10 -80l-20 -105h-134l13 62q6 35 6 49q0 31 -39 31h-489l-103 -525h541l-25 -126h-540l-89 -457q-8 -36 -8 -49q0 -29 37 -29h506q46 0 55 45l19 96h133l-29 -147q-12 -66 -45.5 -93.5t-95.5 -27.5 h-625q-110 0 -110 86zM633 1784h149l99 -244h-115z" />
<glyph unicode="&#x401;" horiz-adv-x="1144" d="M113 86q0 22 10 74l225 1153h-133l25 127h819q106 0 106 -84q0 -32 -10 -80l-20 -105h-134l13 62q6 35 6 49q0 31 -39 31h-489l-103 -525h541l-25 -126h-540l-89 -457q-8 -36 -8 -49q0 -29 37 -29h506q46 0 55 45l19 96h133l-29 -147q-12 -66 -45.5 -93.5t-95.5 -27.5 h-625q-110 0 -110 86zM596 1608l35 176h121l-37 -176h-119zM901 1608l37 176h121l-35 -176h-123z" />
<glyph unicode="&#x402;" horiz-adv-x="1482" d="M131 1171l31 152q12 66 42.5 91.5t96.5 25.5h954l-24 -123h-481l-93 -471l-14 -64h4q63 31 166.5 59.5t210.5 28.5q193 0 292 -97.5t99 -260.5q0 -140 -67.5 -262t-194.5 -198.5t-285 -76.5q-22 0 -60 3l-38 2l23 122l14 -1q14 -1 33.5 -2t33.5 -1q161 0 279.5 117.5 t118.5 284.5q0 239 -275 239q-90 0 -185 -24.5t-144 -48.5l-50 -25l-124 -641h-144l256 1317h-274q-45 0 -53 -45l-21 -101h-127z" />
<glyph unicode="&#x403;" horiz-adv-x="1017" d="M90 0l258 1313h-133l25 127h788q105 0 105 -84l-11 -80l-20 -105h-131l10 62q8 40 8 49q0 31 -41 31h-456l-259 -1313h-143zM672 1540l188 244h160l-223 -244h-125z" />
<glyph unicode="&#x404;" horiz-adv-x="1417" d="M88 590q0 131 43.5 260.5t123.5 239t186 194t240 132.5t275 48q76 0 158.5 -17t157 -49t122.5 -85.5t48 -118.5q0 -11 -4 -35l-23 -115h-135l10 56q6 35 6 47q0 57 -58 100.5t-138.5 63.5t-163.5 20q-232 0 -421.5 -160t-252.5 -393h815l-24 -121h-811 q-17 -155 33 -279.5t164.5 -198t277.5 -73.5q132 0 264.5 52.5t237.5 142.5l65 -108q-111 -97 -270.5 -157.5t-317.5 -60.5q-183 0 -322.5 81.5t-212.5 220.5t-73 313z" />
<glyph unicode="&#x405;" horiz-adv-x="1048" d="M-10 178l94 101q5 -7 14.5 -18.5t42 -40.5t69.5 -51.5t96 -41t122 -18.5q149 0 248.5 83t99.5 211q0 65 -32.5 115.5t-84 84t-114 63.5t-125 63t-114 73.5t-84 104.5t-32.5 146q0 118 65 212.5t178 146.5t251 52q66 0 129.5 -12.5t118.5 -37t89 -66t34 -93.5q0 -5 -6 -53 l-19 -88h-133l10 53q6 24 6 43q0 57 -68 88t-165 31q-161 0 -251.5 -78.5t-90.5 -191.5q0 -59 32.5 -105t84 -77t114 -59t125 -62t114 -75.5t84 -109.5t32.5 -155q0 -190 -138.5 -315.5t-357.5 -125.5q-84 0 -160.5 21t-124.5 50.5t-84.5 59.5t-52.5 51z" />
<glyph unicode="&#x406;" horiz-adv-x="581" d="M-31 0l25 127h135l231 1186h-137l27 127h409l-24 -127h-135l-232 -1186h135l-24 -127h-410z" />
<glyph unicode="&#x407;" horiz-adv-x="579" d="M-31 0l25 127h133l229 1186h-135l25 127h409l-24 -127h-135l-230 -1186h135l-24 -127h-408zM270 1608l33 176h123l-35 -176h-121zM578 1608l34 176h119l-33 -176h-120z" />
<glyph unicode="&#x408;" horiz-adv-x="1007" d="M-14 291q0 31 12 117l8 53h144l-9 -49q-10 -58 -10 -93q0 -108 60 -157t153 -49q51 0 99 15.5t93.5 48.5t79 92.5t48.5 138.5l161 827q9 45 9 47q0 31 -41 31h-353l25 127h416q106 0 106 -84q0 -30 -10 -78l-172 -889q-22 -111 -71 -194t-114.5 -129.5t-134.5 -68.5 t-143 -22q-97 0 -176 33.5t-129.5 107t-50.5 175.5z" />
<glyph unicode="&#x409;" horiz-adv-x="1869" d="M-96 -14l26 133q101 17 182 92t145 211.5t113 308t95 408.5l35 174h-135l22 127h741q107 0 107 -82q0 -15 -4 -43l-96 -490h262q112 0 201.5 -37.5t145.5 -116.5t56 -190q0 -147 -71.5 -258t-189 -167t-261.5 -56h-322q-55 0 -79.5 19.5t-24.5 62.5q0 27 4 43l215 1104 q8 54 8 55q0 29 -37 29h-401l-35 -174q-29 -151 -57 -269t-64.5 -238.5t-76 -210.5t-91.5 -172t-112 -135t-136 -87t-165 -41zM1006 156q0 -31 38 -31h240q160 0 264.5 95t104.5 259q0 103 -69.5 162t-190.5 59h-281l-98 -493q-8 -46 -8 -51z" />
<glyph unicode="&#x40a;" horiz-adv-x="2019" d="M92 0l238 1225q10 48 10 57q0 31 -37 31h-88l25 127h151q105 0 105 -80q0 -17 -4 -45l-99 -492h744l123 617h143l-123 -617h281q172 0 280.5 -88.5t108.5 -259.5q0 -139 -74 -249t-194.5 -168t-262.5 -58h-317q-57 0 -80 20t-23 70q0 12 5 35l110 573h-743l-135 -698 h-144zM1153 158q0 -33 37 -33h248q152 0 259 101.5t107 246.5q0 108 -67.5 166.5t-190.5 58.5h-289l-94 -487q-10 -50 -10 -53z" />
<glyph unicode="&#x40b;" horiz-adv-x="1536" d="M131 1171l31 152q12 66 42.5 91.5t96.5 25.5h954l-24 -123h-481l-95 -481l-16 -68h4q67 38 173.5 70t215.5 32q176 0 264 -77t88 -213q0 -52 -12 -117l-49 -250q-2 -15 -5 -29t-4 -19.5t-1 -8.5q0 -29 39 -29h88l-25 -127h-151q-55 0 -80 19.5t-25 62.5q0 27 4 43l62 309 q12 56 12 103q0 202 -229 202q-111 0 -220 -36t-174 -78l-122 -625h-144l258 1317h-274q-48 0 -56 -45l-18 -101h-127z" />
<glyph unicode="&#x40c;" horiz-adv-x="1202" d="M92 0l238 1227q2 9 4.5 21.5t4 21t1.5 12.5q0 31 -41 31h-84l25 127h147q107 0 107 -84q0 -27 -11 -80l-90 -461h172q82 0 125 51l459 574h174l-492 -604q-21 -26 -42.5 -46.5t-32.5 -27.5l-11 -8v-4q28 -21 46 -80l151 -494q17 -49 78 -49h65l-24 -127h-105 q-62 0 -94.5 27t-50.5 84l-162 524q-8 31 -37 42t-80 11h-163l-133 -688h-144zM729 1540l189 244h159l-223 -244h-125z" />
<glyph unicode="&#x40d;" horiz-adv-x="1546" d="M92 0l246 1268q9 45 -35 45h-88l25 127h151q66 0 89.5 -29.5t11.5 -95.5l-177 -905q-6 -34 -18.5 -82t-21.5 -80l-9 -31h4q93 127 154 197l926 1026h149l-248 -1268q-6 -45 37 -45h88l-26 -127h-150q-66 0 -89.5 29.5t-10.5 95.5l176 905q6 34 18.5 82.5t21.5 80.5l9 32 h-4q-87 -123 -150 -195l-929 -1030h-150zM778 1784h150l98 -244h-115z" />
<glyph unicode="&#x40e;" horiz-adv-x="1220" d="M53 70l82 104q74 -70 152 -70q36 0 65.5 13t57.5 42t48.5 58.5t51.5 79.5l-281 971q-11 45 -59 45h-39l25 127h61q67 0 94.5 -24t46.5 -95l197 -692q11 -41 22 -86.5t16 -70.5l5 -26h4q37 77 96 183l389 692q41 75 76.5 97t112.5 22h76l-25 -127h-24q-32 0 -50 -8.5 t-32 -34.5l-607 -1059q-64 -112 -141.5 -174t-181.5 -62q-129 0 -238 95zM530 1706q0 27 13 78h121q-11 -34 -11 -60q0 -53 35.5 -82.5t91.5 -29.5q68 0 121 42t64 130h118q-11 -77 -42 -133.5t-75 -86.5t-91.5 -43.5t-100.5 -13.5q-101 0 -172.5 55.5t-71.5 143.5z" />
<glyph unicode="&#x40f;" horiz-adv-x="1486" d="M113 82q0 27 6 51l213 1094l4.5 22.5l4 20t1.5 10.5q0 33 -39 33h-88l25 127h151q55 0 80 -20t25 -62q0 -15 -4 -43l-213 -1100q-11 -53 -11 -57q0 -31 39 -31h692q45 0 54 45l221 1143q14 66 48.5 95.5t100.5 29.5h152l-25 -127h-88q-44 0 -53 -45l-223 -1143 q-12 -66 -47.5 -95.5t-100.5 -29.5h-344l-55 -287h-133l55 287h-344q-54 0 -79 19.5t-25 62.5z" />
<glyph unicode="&#x410;" horiz-adv-x="1339" d="M-92 0l24 127h35q28 0 43 8.5t29 36.5l719 1268h151l228 -1274q4 -24 14.5 -31.5t36.5 -7.5h37l-25 -127h-88q-62 0 -84.5 22.5t-34.5 96.5l-59 340h-572l-192 -340q-40 -72 -72.5 -95.5t-95.5 -23.5h-94zM424 582h494l-91 516q-4 30 -8.5 76.5t-6.5 77.5l-3 32h-4 q-55 -118 -92 -186z" />
<glyph unicode="&#x411;" horiz-adv-x="1185" d="M113 90q0 15 16 105l219 1118h-133l25 127h813q102 0 102 -82q0 -19 -4 -43l-27 -144h-135l17 80q4 24 4 29q0 33 -37 33h-481l-95 -477h295q115 0 204 -36t144.5 -116.5t55.5 -196.5q0 -108 -45.5 -201t-120.5 -154.5t-172.5 -96.5t-202.5 -35h-338q-56 0 -80 21t-24 69 zM266 156q0 -31 37 -31h266q156 0 266.5 100.5t110.5 255.5q0 114 -69.5 172t-192.5 58h-311l-92 -484q-15 -69 -15 -71z" />
<glyph unicode="&#x412;" horiz-adv-x="1224" d="M113 86q0 22 10 74l225 1153h-133l25 127h600q156 0 247 -81t91 -220q0 -127 -73.5 -230t-184.5 -149v-4q82 -31 133 -107t51 -188q0 -157 -96 -275.5t-234 -160.5q-76 -25 -172 -25h-379q-110 0 -110 86zM268 156q0 -29 37 -29h309q75 0 117 16q101 32 163 120.5 t62 199.5q0 113 -65 171t-180 58h-340l-95 -487q-8 -36 -8 -49zM393 815h344q120 0 206.5 88.5t86.5 212.5q0 93 -54.5 145t-154.5 52h-329z" />
<glyph unicode="&#x413;" horiz-adv-x="1017" d="M90 0l258 1313h-133l25 127h788q105 0 105 -84l-11 -80l-20 -105h-131l10 62q8 40 8 49q0 31 -41 31h-456l-259 -1313h-143z" />
<glyph unicode="&#x414;" horiz-adv-x="1460" d="M-137 -287l57 291q12 66 45 94.5t98 28.5h39q95 104 170 233t126 271.5t82.5 262t60.5 265.5l28 154h-127l25 127h797q104 0 104 -82q0 -34 -10 -82l-223 -1149h55q100 0 100 -78q0 -26 -12 -84l-49 -252h-135l41 203q8 40 8 53q0 31 -37 31h-1014q-38 0 -47 -45 l-47 -242h-135zM268 127h723l213 1100q2 9 4.5 21.5t4 21t1.5 12.5q0 31 -40 31h-465l-31 -158q-29 -146 -61.5 -272t-81 -266t-116.5 -266t-151 -224z" />
<glyph unicode="&#x415;" horiz-adv-x="1144" d="M113 86q0 22 10 74l225 1153h-133l25 127h819q106 0 106 -84q0 -32 -10 -80l-20 -105h-134l13 62q6 35 6 49q0 31 -39 31h-489l-103 -525h541l-25 -126h-540l-89 -457q-8 -36 -8 -49q0 -29 37 -29h506q46 0 55 45l19 96h133l-29 -147q-12 -66 -45.5 -93.5t-95.5 -27.5 h-625q-110 0 -110 86z" />
<glyph unicode="&#x416;" horiz-adv-x="1736" d="M-96 0l538 672q22 27 46.5 48t38.5 28l14 8v4q-31 14 -58 80l-159 426q-10 29 -31.5 38t-63.5 9h-36l24 127h64q60 0 88.5 -9t43.5 -29.5t33 -70.5l172 -457q14 -37 42.5 -49t78.5 -12h101l123 627h139l-121 -627h84q51 0 84.5 12t62.5 49l344 457q52 69 93 89t129 20h69 l-24 -127h-35q-43 0 -66 -9t-47 -38l-325 -430q-22 -29 -45.5 -50t-36.5 -28l-13 -6v-4q4 -2 11.5 -7.5t24.5 -26.5t28 -48l278 -666h-155l-254 627q-18 39 -45 52t-72 13h-115l-135 -692h-139l135 692h-106q-45 0 -76.5 -13t-61.5 -52l-497 -627h-172z" />
<glyph unicode="&#x417;" horiz-adv-x="1056" d="M-31 158l94 102q48 -66 130 -110t192 -44q168 0 287 97.5t119 245.5q0 113 -73.5 170t-193.5 57h-188l24 123h152q87 0 167.5 38t133.5 111t53 162q0 99 -62.5 161t-189.5 62q-105 0 -186.5 -43.5t-93.5 -107.5l-12 -66h-136l19 101q12 67 60.5 118t115.5 77.5t132 39 t126 12.5q167 0 272 -89t105 -242q0 -139 -79 -238t-204 -143l-2 -4q96 -33 151.5 -105.5t55.5 -187.5q0 -137 -76 -248.5t-199 -171.5t-266 -60q-125 0 -241 46t-187 137z" />
<glyph unicode="&#x418;" horiz-adv-x="1546" d="M92 0l246 1268q9 45 -35 45h-88l25 127h151q66 0 89.5 -29.5t11.5 -95.5l-177 -905q-6 -34 -18.5 -82t-21.5 -80l-9 -31h4q93 127 154 197l926 1026h149l-248 -1268q-6 -45 37 -45h88l-26 -127h-150q-66 0 -89.5 29.5t-10.5 95.5l176 905q6 34 18.5 82.5t21.5 80.5l9 32 h-4q-87 -123 -150 -195l-929 -1030h-150z" />
<glyph unicode="&#x419;" horiz-adv-x="1546" d="M92 0l246 1268q9 45 -35 45h-88l25 127h151q66 0 89.5 -29.5t11.5 -95.5l-177 -905q-6 -34 -18.5 -82t-21.5 -80l-9 -31h4q93 127 154 197l926 1026h149l-248 -1268q-6 -45 37 -45h88l-26 -127h-150q-66 0 -89.5 29.5t-10.5 95.5l176 905q6 34 18.5 82.5t21.5 80.5l9 32 h-4q-87 -123 -150 -195l-929 -1030h-150zM715 1706q0 31 12 78h121q-10 -31 -10 -60q0 -53 35.5 -82.5t91.5 -29.5q68 0 120.5 42t63.5 130h119q-11 -77 -42 -133.5t-75.5 -86.5t-92 -43.5t-100.5 -13.5q-101 0 -172 55.5t-71 143.5z" />
<glyph unicode="&#x41a;" horiz-adv-x="1202" d="M92 0l238 1227q2 9 4.5 21.5t4 21t1.5 12.5q0 31 -41 31h-84l25 127h147q107 0 107 -84q0 -27 -11 -80l-90 -461h172q82 0 125 51l459 574h174l-492 -604q-21 -26 -42.5 -46.5t-32.5 -27.5l-11 -8v-4q28 -21 46 -80l151 -494q17 -49 78 -49h65l-24 -127h-105 q-62 0 -94.5 27t-50.5 84l-162 524q-8 31 -37 42t-80 11h-163l-133 -688h-144z" />
<glyph unicode="&#x41b;" horiz-adv-x="1361" d="M-100 -16l26 133q99 14 181.5 91t148 216t116.5 317t97 416l31 156h-135l24 127h801q104 0 104 -82q0 -33 -10 -84l-207 -1061q-10 -38 -10 -57q0 -29 39 -29h88l-27 -127h-149q-56 0 -81.5 19.5t-25.5 62.5q0 12 13 84l209 1061q8 39 8 55q0 31 -39 31h-463l-31 -156 q-34 -180 -69.5 -323t-81.5 -277.5t-100.5 -232.5t-122 -174.5t-151.5 -117.5t-183 -48z" />
<glyph unicode="&#x41c;" horiz-adv-x="1732" d="M-74 0l25 127h76q23 0 35 10t18 35l348 1268h141l217 -838l37 -172h4q54 94 103 172l545 838h151l-141 -1235q-4 -36 -4 -49q0 -29 35 -29h75l-24 -127h-125q-61 0 -88 22.5t-27 73.5q0 7 6 49l99 854q4 35 12 85t14 83l6 33h-4q-65 -129 -114 -201l-482 -731h-129 l-198 731q-8 32 -17.5 83.5t-14.5 86.5l-5 35h-4q-25 -129 -45 -205l-240 -882q-19 -62 -50 -89.5t-89 -27.5h-146z" />
<glyph unicode="&#x41d;" horiz-adv-x="1531" d="M92 0l238 1227q2 9 4.5 21.5t4 21t1.5 12.5q0 31 -41 31h-84l25 127h147q107 0 107 -84q0 -27 -11 -80l-96 -492h827l105 541q13 62 47 88.5t96 26.5h158l-25 -127h-92q-43 0 -51 -45l-248 -1268h-143l129 657h-828l-126 -657h-144z" />
<glyph unicode="&#x41e;" horiz-adv-x="1622" d="M88 598q0 172 74 332.5t195 277t282 186.5t328 70q272 0 443 -170.5t171 -437.5q0 -174 -74.5 -337.5t-195.5 -282t-282 -190t-327 -71.5q-272 0 -443 175t-171 448zM238 602q0 -216 133 -352.5t346 -136.5q131 0 261 59.5t230 158t162 236t62 283.5q0 211 -133 345 t-345 134q-134 0 -264.5 -58.5t-229.5 -155.5t-160.5 -232.5t-61.5 -280.5z" />
<glyph unicode="&#x41f;" horiz-adv-x="1509" d="M90 0l256 1313h-131l25 127h1099q53 0 78 -19.5t25 -62.5q0 -12 -10 -74l-211 -1087q-1 -6 -4 -20.5t-3 -18.5q0 -31 37 -31h88l-24 -127h-150q-55 0 -80.5 19.5t-25.5 62.5q0 23 10 68l209 1089q8 36 8 45q0 17 -8.5 23t-28.5 6h-760l-256 -1313h-143z" />
<glyph unicode="&#x420;" horiz-adv-x="1179" d="M90 0l258 1313h-133l25 127h591q174 0 281 -96t107 -267q0 -156 -85.5 -279.5t-211.5 -181.5q-108 -51 -230 -51h-346l-113 -565h-143zM371 692h313q161 0 273 105t112 270q0 123 -68 184.5t-194 61.5h-315z" />
<glyph unicode="&#x421;" horiz-adv-x="1411" d="M90 596q0 131 41.5 259t119 237t180.5 193t234.5 131.5t272.5 47.5q83 0 167 -17t158 -49t120.5 -87t46.5 -123q0 -25 -11 -76l-14 -72h-135l16 80q9 44 -12 80.5t-60 59.5t-90 39.5t-98.5 23t-89.5 6.5q-136 0 -264.5 -58.5t-223.5 -156t-152.5 -232t-57.5 -280.5 q0 -218 126.5 -353.5t350.5 -135.5q137 0 268 47t225 133l70 -111q-99 -95 -256.5 -151t-321.5 -56q-183 0 -323 82.5t-213.5 223t-73.5 315.5z" />
<glyph unicode="&#x422;" horiz-adv-x="1255" d="M135 1171l31 162q12 60 40 83.5t89 23.5h975q104 0 104 -84q0 -22 -12 -80l-19 -105h-133l13 62q8 40 8 49q0 31 -41 31h-350l-258 -1313h-144l258 1313h-356q-25 0 -38 -10t-17 -35l-19 -97h-131z" />
<glyph unicode="&#x423;" horiz-adv-x="1220" d="M53 70l82 104q74 -70 152 -70q36 0 65.5 13t57.5 42t48.5 58.5t51.5 79.5l-281 971q-11 45 -59 45h-39l25 127h61q67 0 94.5 -24t46.5 -95l197 -692q11 -41 22 -86.5t16 -70.5l5 -26h4q37 77 96 183l389 692q41 75 76.5 97t112.5 22h76l-25 -127h-24q-32 0 -50 -8.5 t-32 -34.5l-607 -1059q-64 -112 -141.5 -174t-181.5 -62q-129 0 -238 95z" />
<glyph unicode="&#x424;" horiz-adv-x="1646" d="M92 651q0 212 108.5 375.5t291.5 250t409 87.5l33 172h143l-35 -172q261 0 417.5 -132t156.5 -358q0 -127 -41.5 -239.5t-116 -198t-174.5 -148t-221.5 -94.5t-253.5 -32l-37 -187h-143l37 187q-262 0 -418 131t-156 358zM238 651q0 -175 119.5 -269.5t332.5 -94.5 l184 952q-103 -2 -197.5 -27.5t-174.5 -75.5t-139 -119t-92 -163t-33 -203zM834 287q128 2 243 43t202.5 114t139 184.5t51.5 245.5q0 175 -120 270t-334 95z" />
<glyph unicode="&#x425;" horiz-adv-x="1169" d="M-82 0l608 758l-215 502q-23 53 -86 53h-51l25 127h80q68 0 100.5 -23.5t62.5 -91.5l127 -303l64 -160h4q62 86 121 160l241 303q52 69 94 92t113 23h92l-24 -127h-41q-37 0 -62 -10t-51 -43l-422 -517l326 -743h-156l-213 487l-61 152h-4q-49 -72 -115 -152l-389 -487 h-168z" />
<glyph unicode="&#x426;" horiz-adv-x="1503" d="M113 80q0 25 10 70l211 1093q1 5 4.5 20.5t3.5 18.5q0 31 -39 31h-88l25 127h151q55 0 80 -20t25 -62q0 -28 -9 -68l-213 -1093q-6 -24 -6 -41q0 -29 39 -29h737l256 1313h144l-256 -1313h41q54 0 79 -19.5t25 -60.5q0 -17 -10 -67l-51 -267h-133l43 217q6 36 6 41 q0 29 -37 29h-934q-54 0 -79 19.5t-25 60.5z" />
<glyph unicode="&#x427;" horiz-adv-x="1273" d="M156 1313l24 127h152q54 0 79 -19.5t25 -62.5q0 -11 -4 -43l-61 -311q-11 -64 -11 -97q0 -105 63.5 -157t199.5 -52q95 0 193.5 37.5t174.5 83.5l121 621h143l-280 -1440h-144l119 604q14 68 17 68h-4q-75 -40 -178 -72.5t-201 -32.5q-373 0 -373 297q0 54 12 119l53 262 q5 35 5 37q0 31 -37 31h-88z" />
<glyph unicode="&#x428;" horiz-adv-x="2041" d="M113 82q0 26 8 65l215 1104q0 5 2 16t2 15q0 31 -37 31h-88l25 127h151q54 0 79.5 -19.5t25.5 -62.5q0 -8 -9 -60l-213 -1103q-6 -36 -6 -37q0 -31 37 -31h551l256 1313h143l-256 -1313h553q45 0 54 45l221 1143q13 66 49 95.5t102 29.5h152l-25 -127h-88q-46 0 -55 -45 l-221 -1143q-13 -66 -49 -95.5t-101 -29.5h-1374q-55 0 -79.5 19.5t-24.5 62.5z" />
<glyph unicode="&#x429;" horiz-adv-x="2066" d="M113 82q0 26 8 65l215 1104q0 5 2 16t2 15q0 31 -37 31h-88l25 127h151q54 0 79.5 -19.5t25.5 -62.5q0 -8 -9 -60l-213 -1103q-6 -36 -6 -37q0 -31 39 -31h549l256 1313h143l-256 -1313h598l254 1313h144l-254 -1313h55q105 0 105 -80q0 -11 -13 -76l-49 -258h-133 l39 201q10 30 10 55q0 31 -37 31h-1501q-54 0 -79 19.5t-25 62.5z" />
<glyph unicode="&#x42a;" horiz-adv-x="1439" d="M129 1171l31 152q12 66 42.5 91.5t96.5 25.5h637l-25 -127h-133l-88 -457h299q174 0 280.5 -93.5t106.5 -262.5q0 -96 -30 -178t-82 -140.5t-121.5 -100t-149 -61.5t-164.5 -20h-325q-55 0 -80 19.5t-25 62.5q0 27 4 43l232 1188h-301q-47 0 -55 -45l-17 -97h-133z M555 156q0 -29 37 -29h252q162 0 272.5 99.5t110.5 271.5q0 113 -68 172t-192 59h-301l-105 -530q-6 -30 -6 -43z" />
<glyph unicode="&#x42b;" horiz-adv-x="1675" d="M113 82q0 15 4 43l213 1102q10 48 10 59q0 27 -37 27h-88l25 127h151q54 0 79.5 -19.5t25.5 -62.5q0 -18 -7 -43l-88 -455h301q172 0 275.5 -92t103.5 -262q0 -150 -73.5 -267t-194.5 -178t-266 -61h-332q-54 0 -78 19.5t-24 62.5zM266 158q0 -31 39 -31h258 q158 0 263.5 100.5t105.5 274.5q0 113 -64.5 172t-185.5 59h-303l-103 -522q-10 -50 -10 -53zM1223 82q0 19 6 43l256 1315h143l-244 -1247q-6 -24 -6 -35q0 -31 37 -31h88l-24 -127h-152q-54 0 -79 19.5t-25 62.5z" />
<glyph unicode="&#x42c;" horiz-adv-x="1150" d="M113 82q0 15 4 43l213 1102q10 48 10 59q0 27 -37 27h-88l25 127h151q54 0 79.5 -19.5t25.5 -62.5q0 -18 -7 -43l-88 -455h301q172 0 275.5 -92t103.5 -262q0 -150 -73.5 -267t-194.5 -178t-266 -61h-332q-54 0 -78 19.5t-24 62.5zM266 158q0 -31 39 -31h258 q158 0 263.5 100.5t105.5 274.5q0 113 -64.5 172t-185.5 59h-303l-103 -522q-10 -50 -10 -53z" />
<glyph unicode="&#x42d;" horiz-adv-x="1419" d="M-6 195l86 96q63 -79 183 -130.5t253 -51.5q231 0 425 157t257 391h-813l25 123h815q12 112 -12.5 211.5t-81.5 175.5t-152.5 120t-218.5 44q-65 0 -137 -14t-138 -38.5t-113 -65.5t-57 -89l-14 -80h-137l24 115q15 73 75.5 133.5t145 96.5t177.5 55.5t182 19.5 q185 0 324 -81t210.5 -218.5t71.5 -310.5q0 -141 -45 -275t-126.5 -242t-188.5 -190t-237 -127t-265 -45q-154 0 -293.5 56.5t-224.5 163.5z" />
<glyph unicode="&#x42e;" horiz-adv-x="2123" d="M92 0l240 1237q8 36 8 47q0 29 -37 29h-88l25 127h151q54 0 79.5 -19.5t25.5 -62.5q0 -15 -4 -43l-105 -531h266q43 189 168.5 345t302 245.5t365.5 89.5q264 0 429 -170.5t165 -437.5q0 -174 -73 -337.5t-191.5 -282t-276 -190t-319.5 -71.5q-144 0 -261.5 54.5 t-191.5 148t-110 217.5t-27 262h-271l-126 -657h-144zM780 602q0 -216 127 -352.5t330 -136.5q129 0 255.5 59.5t223.5 158t157 236t60 283.5q0 211 -127.5 345t-330.5 134q-129 0 -255.5 -58.5t-223.5 -155.5t-156.5 -232.5t-59.5 -280.5z" />
<glyph unicode="&#x42f;" horiz-adv-x="1249" d="M-76 0l25 127h26q43 0 68.5 9t48.5 38l293 373q16 20 34 37t28 24l10 6v4q-22 5 -49 17t-63 39.5t-64 63t-48 93.5t-20 127q0 105 43 196.5t115 153.5t167 97t197 35h602l-24 -127h-133l-258 -1313h-144l115 584h-213q-60 0 -89 -16t-75 -74l-301 -383 q-53 -70 -92.5 -90.5t-126.5 -20.5h-72zM362 963q0 -123 72 -187.5t187 -64.5h297l118 602h-297q-158 0 -267.5 -97.5t-109.5 -252.5z" />
<glyph unicode="&#x430;" horiz-adv-x="1052" d="M-2 246q0 89 42.5 158t111 111.5t162 70.5t186.5 38.5t194 10.5h64l6 29q10 44 10 96q0 178 -211 178q-31 0 -64.5 -3.5t-71 -12.5t-63.5 -28t-30 -46l-10 -66h-136l21 99q9 48 48 83.5t96 54.5t114 27.5t115 8.5q167 0 249 -76.5t82 -208.5q0 -50 -14 -125l-86 -446 q-1 -4 -4.5 -22.5t-3.5 -24.5q0 -31 39 -31h86l-25 -121h-131q-110 0 -110 84q0 41 24 125h-4q2 0 -13.5 -24t-48 -58.5t-76 -69t-111 -58.5t-140.5 -24q-125 0 -211 69t-86 202zM141 264q0 -82 51.5 -128t137.5 -46q75 0 146 38t121.5 97t85 125t46.5 127l8 47h-57 q-53 0 -101.5 -3t-114.5 -11.5t-119.5 -26.5t-101.5 -45.5t-75 -72t-27 -101.5z" />
<glyph unicode="&#x431;" horiz-adv-x="1142" d="M80 424q0 198 74 416q53 147 146 245.5t263 167.5l273 113q78 32 105 52.5t36 60.5l12 57h137l-16 -76q-16 -86 -65 -128t-158 -85l-287 -119q-82 -33 -143 -77t-100 -97t-62 -106t-39 -119h2q157 205 397 205q181 0 282 -106t101 -291q0 -123 -45.5 -229t-122.5 -178.5 t-180 -113.5t-217 -41q-196 0 -294.5 122t-98.5 327zM217 393q0 -147 75 -221t195 -74q76 0 148.5 30t130.5 83.5t93.5 135t35.5 175.5q0 140 -73 213.5t-191 73.5q-112 0 -212 -63.5t-155 -163.5q-47 -85 -47 -189z" />
<glyph unicode="&#x432;" horiz-adv-x="1021" d="M80 76q0 23 4 39l154 794h-132l23 121h489q146 0 228 -57t82 -162q0 -102 -57.5 -173.5t-149.5 -98.5v-4q76 -20 120 -76t44 -131q0 -146 -118.5 -237t-301.5 -91h-289q-51 0 -73.5 18t-22.5 58zM227 137q0 -28 33 -28h195q136 0 212 60t76 163q0 72 -56 109.5t-161 37.5 h-231l-62 -301q-6 -27 -6 -41zM313 584h219q115 0 182.5 57.5t67.5 157.5q0 123 -190 123h-213z" />
<glyph unicode="&#x433;" horiz-adv-x="870" d="M63 0l177 909h-131l22 121h662q55 0 80.5 -18t25.5 -60q0 -9 -4 -41l-27 -129h-118l12 64q1 8 2 16.5t1.5 12.5t0.5 6q0 28 -37 28h-350l-178 -909h-138z" />
<glyph unicode="&#x434;" horiz-adv-x="1161" d="M-143 -246l47 246q12 62 46 90.5t97 28.5h14q65 63 120.5 151.5t87.5 159.5t62.5 170t39.5 137.5t24 108.5l11 63h-130l25 121h631q67 0 89.5 -29t10.5 -96l-151 -786h39q64 0 87 -28.5t11 -90.5l-47 -246h-131l39 201q6 45 -35 45h-766q-44 0 -53 -45l-37 -201h-131z M219 119h522l144 745q9 45 -37 45h-307l-13 -63q-98 -495 -309 -727z" />
<glyph unicode="&#x435;" horiz-adv-x="1085" d="M49 410q0 125 45.5 242.5t124.5 206.5t192.5 142.5t241.5 53.5q183 0 277 -101.5t94 -271.5q0 -36 -8 -79t-16 -68l-7 -25h-788q-10 -43 -10 -94q0 -138 86 -227t243 -89q52 0 106 13t93.5 31t71.5 36.5t49 31.5l16 13l43 -114q-7 -6 -19.5 -15t-53.5 -32.5t-83.5 -41.5 t-106 -32.5t-124.5 -14.5q-212 0 -339.5 119.5t-127.5 315.5zM229 618h643q9 37 9 76q0 119 -65 181.5t-169 62.5q-134 0 -249 -84.5t-169 -235.5z" />
<glyph unicode="&#x436;" horiz-adv-x="1458" d="M-80 0l342 430q31 38 64.5 61.5t51.5 28.5l17 4l2 4q-4 2 -11 6.5t-22.5 25t-23.5 48.5l-78 256q-9 27 -30 36t-64 9h-45l22 121h76q78 0 108.5 -18.5t51.5 -83.5l80 -273q22 -69 123 -69h82l84 444h137l-86 -444h76q42 0 74.5 13t62.5 56l186 273q46 64 88 83t123 19h76 l-23 -121h-43q-42 0 -63 -9t-41 -36l-178 -256q-19 -28 -44 -48t-40 -26l-15 -6l-2 -4q2 0 6 -1t15 -7t21 -15.5t23 -28t23 -42.5l179 -430h-148l-151 373q-21 55 -58.5 72.5t-93.5 17.5h-78l-90 -463h-137l92 463h-76q-57 0 -97.5 -17.5t-84.5 -72.5l-295 -373h-168z" />
<glyph unicode="&#x437;" horiz-adv-x="870" d="M-39 125l78 92q18 -23 45.5 -47t88 -49t128.5 -25q52 0 102 14.5t93 42.5t69.5 75.5t26.5 107.5q0 69 -56 106t-161 37h-127l20 107h107q122 0 199 56.5t77 160.5q0 66 -51.5 100.5t-134.5 34.5q-46 0 -89.5 -10.5t-79.5 -36t-42 -62.5l-8 -47h-125l16 86 q18 90 116 138.5t222 48.5q146 0 233 -61.5t87 -174.5q0 -109 -62 -180.5t-153 -99.5v-4q69 -20 111 -71t42 -130q0 -86 -38.5 -156.5t-101 -113.5t-137 -66t-151.5 -23q-218 0 -344 150z" />
<glyph unicode="&#x438;" horiz-adv-x="1236" d="M61 0l162 831q8 36 8 48q0 30 -34 30h-86l22 121h139q105 0 105 -80q0 -13 -4 -41l-107 -547l-39 -155h4q3 6 53.5 63.5t88.5 96.5l633 663h135l-162 -827q-8 -40 -8 -51q0 -31 35 -31h84l-23 -121h-139q-53 0 -78 19.5t-25 62.5q0 13 4 41l105 547q4 20 11 47.5t12.5 48 t10.5 38.5t5 19h-4q-7 -9 -56 -65t-84 -92l-632 -666h-136z" />
<glyph unicode="&#x439;" horiz-adv-x="1236" d="M61 0l162 831q8 36 8 48q0 30 -34 30h-86l22 121h139q105 0 105 -80q0 -13 -4 -41l-107 -547l-39 -155h4q3 6 53.5 63.5t88.5 96.5l633 663h135l-162 -827q-8 -40 -8 -51q0 -31 35 -31h84l-23 -121h-139q-53 0 -78 19.5t-25 62.5q0 13 4 41l105 547q4 20 11 47.5t12.5 48 t10.5 38.5t5 19h-4q-7 -9 -56 -65t-84 -92l-632 -666h-136zM504 1364q0 31 12 78h121q-10 -31 -10 -60q0 -53 35.5 -82.5t91.5 -29.5q68 0 120.5 42t63.5 130h119q-11 -77 -42 -133.5t-75 -86.5t-91.5 -43.5t-100.5 -13.5q-101 0 -172.5 55.5t-71.5 143.5z" />
<glyph unicode="&#x43a;" horiz-adv-x="1032" d="M63 0l164 840q6 36 6 39q0 30 -36 30h-86l22 121h143q107 0 107 -84q0 -13 -4 -45l-57 -293h104q73 0 119 51l342 371h172l-377 -407q-26 -29 -49 -48.5t-33 -24.5l-10 -5l-2 -4q26 -11 51 -72l127 -303q11 -26 29 -35.5t59 -9.5h55l-22 -121h-94q-77 0 -104 18t-54 84 l-135 340q-16 43 -103 43h-100l-94 -485h-140z" />
<glyph unicode="&#x43b;" horiz-adv-x="1069" d="M-92 -8l22 127q80 6 160 96q88 101 152.5 278t93.5 336l14 80h-131l23 121h606q104 0 104 -82q0 -15 -4 -43l-141 -731q-4 -8 -4 -20q0 -33 39 -33h86l-25 -121h-145q-55 0 -80 19.5t-25 62.5q0 19 6 43l142 731q0 4 1 12t1 9q0 32 -37 32h-281l-14 -82q-14 -71 -35 -149 t-57 -185t-90.5 -207.5t-118.5 -168.5q-118 -125 -262 -125z" />
<glyph unicode="&#x43c;" horiz-adv-x="1458" d="M-80 0l23 121h59q38 0 47 41l242 868h139l186 -645l33 -133h4q43 67 86 133l435 645h155l-92 -831q-6 -40 -6 -49q0 -29 35 -29h57l-25 -121h-112q-52 0 -72 19t-20 59q0 21 4 53l59 524l31 185h-4q-35 -70 -94 -156l-390 -565h-135l-174 565q-11 35 -19 75t-10 63l-2 22 h-4q-21 -134 -37 -189l-149 -542q-16 -59 -45.5 -86t-91.5 -27h-113z" />
<glyph unicode="&#x43d;" horiz-adv-x="1239" d="M63 0l160 827q8 36 8 52q0 30 -36 30h-86l22 121h145q107 0 107 -82q0 -22 -6 -43l-62 -317h603l83 442h142l-162 -827q-8 -40 -8 -53q0 -29 37 -29h86l-23 -121h-145q-56 0 -81.5 19.5t-25.5 62.5q0 24 6 51l66 334h-600l-92 -467h-138z" />
<glyph unicode="&#x43e;" horiz-adv-x="1234" d="M47 426q0 129 54 246.5t143 200.5t207.5 132.5t242.5 49.5q203 0 331 -124.5t128 -320.5q0 -130 -54.5 -249t-144 -202.5t-207 -133.5t-239.5 -50q-204 0 -332.5 126.5t-128.5 324.5zM190 430q0 -145 92 -236.5t238 -91.5q121 0 233.5 65.5t184.5 182.5t72 254 q0 143 -92 234.5t-238 91.5q-123 0 -236 -66t-183.5 -182.5t-70.5 -251.5z" />
<glyph unicode="&#x43f;" horiz-adv-x="1210" d="M63 0l177 909h-131l22 121h858q55 0 80 -20t25 -62q0 -15 -4 -43l-138 -712q-8 -40 -8 -41q0 -31 39 -31h86l-25 -121h-145q-54 0 -79 19.5t-25 62.5q0 24 6 51l139 709q4 32 4 35q0 30 -37 30h-528l-178 -907h-138z" />
<glyph unicode="&#x440;" horiz-adv-x="1200" d="M-16 -410l241 1239q6 30 6 48q0 16 -7.5 24t-28.5 8h-86l22 121h141q105 0 105 -76q0 -33 -25 -114h4q58 93 154.5 154t228.5 61q179 0 278 -112t99 -312q0 -138 -47.5 -261.5t-125.5 -209t-179.5 -135.5t-208.5 -50q-111 0 -198 54t-121 153h-5q-4 -45 -14 -98l-96 -494 h-137zM289 403q0 -133 65 -218t187 -85q77 0 154 37.5t139 103t100.5 164.5t38.5 213q0 150 -68.5 230t-191.5 80q-91 0 -172 -47t-135 -122.5t-85.5 -169t-31.5 -186.5z" />
<glyph unicode="&#x441;" horiz-adv-x="1056" d="M49 424q0 130 52 248t137 201.5t197.5 132.5t230.5 49q58 0 120 -12t122 -37t93 -71.5t21 -107.5l-16 -84h-129l10 52q6 34 -15 61t-58.5 42.5t-78.5 23.5t-80 8q-116 0 -222 -64t-173 -179t-67 -251q0 -154 85 -244t242 -90q61 0 119 13.5t97 32t69.5 37.5t44.5 33 l14 13l45 -114q-6 -6 -16.5 -15.5t-48.5 -34t-81 -43t-112 -34t-143 -15.5q-213 0 -336 122t-123 327z" />
<glyph unicode="&#x442;" horiz-adv-x="1044" d="M68 782l24 127q10 66 46 93.5t104 27.5h729q56 0 81 -18.5t25 -59.5q0 -19 -6 -43l-22 -127h-119l10 58q6 30 6 39q0 28 -39 28h-256l-176 -907h-139l176 907h-254q-49 0 -55 -45l-17 -80h-118z" />
<glyph unicode="&#x443;" d="M-164 -332l66 103l4 -5q4 -4 8.5 -9t12.5 -12.5t17 -14t21.5 -13.5t25 -12.5t28.5 -8.5t32 -3q116 0 219 170l92 145l-196 854q-6 27 -19.5 37t-42.5 10h-20l25 121h90q48 0 68.5 -25t33.5 -87l139 -644l15 -110h4q26 59 55 110l381 644q39 69 75 90.5t107 21.5h70 l-25 -121h-20q-29 0 -47 -10t-35 -37l-653 -1079q-61 -102 -143.5 -157.5t-178.5 -55.5q-37 0 -72 10t-58.5 24.5t-42 29t-27.5 24.5z" />
<glyph unicode="&#x444;" horiz-adv-x="1454" d="M51 426q0 172 88 309.5t245 215.5t355 79l43 217q6 24 6 41q0 31 -36 31h-86l22 121h146q106 0 106 -82q0 -15 -4 -43l-55 -285q221 -1 354 -116t133 -304q0 -130 -51 -242.5t-140.5 -193t-218 -127t-278.5 -47.5l-80 -410h-139l80 410q-228 1 -359 116.5t-131 309.5z M195 432q0 -142 96.5 -225.5t273.5 -83.5l152 784q-138 -3 -255 -58t-192 -164t-75 -253zM702 123q102 2 195.5 36t167 94t117 152t43.5 201q0 140 -96.5 220.5t-272.5 80.5z" />
<glyph unicode="&#x445;" horiz-adv-x="989" d="M-72 0l471 545l-166 323q-21 41 -88 41h-43l23 121h88q59 0 87 -23t62 -92l111 -223l25 -59h4q22 34 45 59l186 223q62 74 96 94.5t107 20.5h94l-22 -121h-45q-69 0 -103 -41l-297 -340l264 -528h-151l-187 379l-24 57h-4q-20 -28 -45 -57l-324 -379h-164z" />
<glyph unicode="&#x446;" horiz-adv-x="1202" d="M80 80q0 25 4 43l135 700q10 48 10 54q0 32 -39 32h-86l25 121h145q54 0 79.5 -19.5t25.5 -62.5q0 -15 -4 -43l-135 -698q-11 -37 -11 -53q0 -33 37 -33h514l176 909h140l-176 -911h38q54 0 78.5 -19.5t24.5 -60.5q0 -11 -4 -39l-47 -246h-133l34 176q1 6 4 21t3 18 q0 31 -35 31h-699q-55 0 -79.5 19t-24.5 61z" />
<glyph unicode="&#x447;" horiz-adv-x="1056" d="M84 909l22 121h144q54 0 78 -20.5t24 -61.5q0 -15 -4 -43l-37 -188q-8 -33 -8 -70q0 -145 186 -145q82 0 155.5 25.5t123.5 58.5l86 444h141l-200 -1030h-140l74 383q3 14 8 32.5t8.5 29t2.5 10.5h-5q-64 -34 -144.5 -56t-147.5 -22q-147 0 -219 61t-72 170q0 43 8 82 l29 152q6 24 6 37q0 30 -37 30h-82z" />
<glyph unicode="&#x448;" horiz-adv-x="1646" d="M80 80q0 27 4 43l137 706q8 46 8 50q0 30 -36 30h-87l23 121h145q105 0 105 -82q0 -15 -4 -43l-137 -704l-4 -22t-3.5 -17.5t-1.5 -9.5q0 -31 35 -31h395l179 909h137l-176 -909h395q44 0 53 45l144 739q14 66 48.5 95.5t100.5 29.5h146l-25 -121h-86q-44 0 -53 -45 l-144 -741q-14 -65 -48 -94t-99 -29h-1049q-54 0 -78 19t-24 61z" />
<glyph unicode="&#x449;" horiz-adv-x="1667" d="M80 80q0 27 4 43l137 706q8 46 8 50q0 30 -36 30h-87l23 121h145q105 0 105 -82q0 -15 -4 -43l-137 -704q-9 -41 -9 -49q0 -31 35 -31h395l179 909h137l-176 -909h438l178 909h139l-178 -911h54q104 0 104 -78q0 -18 -6 -39l-47 -248h-133l32 170q1 7 3.5 18.5t4 18 t1.5 8.5q0 31 -37 31h-1170q-54 0 -78 19t-24 61z" />
<glyph unicode="&#x44a;" horiz-adv-x="1155" d="M66 784l24 127q12 65 46.5 92t101.5 27h241q55 0 80 -20t25 -62q0 -17 -4 -41l-54 -272h224q148 0 228.5 -68.5t80.5 -183.5q0 -169 -113.5 -276t-294.5 -107h-272q-51 0 -73.5 18t-22.5 58q0 23 4 39l141 725q6 34 6 41q0 32 -37 32h-147q-44 0 -53 -45l-15 -84h-116z M432 139q0 -30 33 -30h182q123 0 195.5 73.5t72.5 190.5q0 70 -46 111.5t-140 41.5h-221l-70 -348q-6 -34 -6 -39z" />
<glyph unicode="&#x44b;" horiz-adv-x="1394" d="M80 76q0 23 4 39l139 721q6 35 6 43q0 30 -36 30h-87l23 121h145q107 0 107 -82q0 -17 -4 -41l-55 -272h217q148 0 228.5 -68.5t80.5 -183.5q0 -169 -113.5 -276t-294.5 -107h-264q-51 0 -73.5 18t-22.5 58zM227 139q0 -30 33 -30h178q122 0 194.5 73.5t72.5 190.5 q0 70 -45.5 111.5t-139.5 41.5h-217l-67 -348q-9 -34 -9 -39zM979 125l176 905h141l-168 -864q-9 -45 35 -45h86l-22 -121h-146q-66 0 -90 29.5t-12 95.5z" />
<glyph unicode="&#x44c;" horiz-adv-x="952" d="M80 76q0 23 4 39l139 721q6 35 6 43q0 30 -36 30h-87l23 121h145q107 0 107 -82q0 -17 -4 -41l-55 -272h223q148 0 228.5 -68.5t80.5 -183.5q0 -169 -113.5 -276t-294.5 -107h-270q-51 0 -73.5 18t-22.5 58zM227 139q0 -30 33 -30h182q123 0 196 73.5t73 190.5 q0 70 -46.5 111.5t-140.5 41.5h-221l-67 -348q-9 -34 -9 -39z" />
<glyph unicode="&#x44d;" horiz-adv-x="1073" d="M-27 133l68 103q50 -64 134 -102t179 -38q164 0 295 103t178 260h-526l21 108h528q17 158 -76.5 262.5t-251.5 104.5q-88 0 -177.5 -36t-100.5 -93l-8 -55h-127l16 81q17 97 134 160.5t273 63.5q204 0 331.5 -126t127.5 -327q0 -119 -49 -232.5t-132 -200.5t-203 -140.5 t-253 -53.5q-111 0 -215.5 40t-165.5 118z" />
<glyph unicode="&#x44e;" horiz-adv-x="1646" d="M61 0l164 838q6 30 6 41q0 30 -36 30h-86l22 121h145q55 0 80 -20t25 -62q0 -15 -4 -43l-66 -330h205q35 136 125.5 246t216.5 172t262 62q195 0 319 -125.5t124 -323.5q0 -129 -53 -246.5t-139.5 -201.5t-201 -133.5t-233.5 -49.5q-195 0 -316.5 126t-121.5 327v31h-207 l-90 -459h-140zM641 432q0 -148 85.5 -239t223.5 -91q117 0 225 66t176 182.5t68 251.5q0 145 -87 236.5t-224 91.5q-89 0 -174 -39.5t-149.5 -105.5t-104 -159t-39.5 -194z" />
<glyph unicode="&#x44f;" horiz-adv-x="1038" d="M-70 0l25 123h29q40 0 62.5 8t47.5 35l174 203q24 30 66 55l2 4q-86 15 -137.5 83t-51.5 163q0 162 113.5 259t280.5 97h534l-22 -121h-131l-179 -909h-139l78 395h-143q-51 0 -73 -12.5t-67 -63.5l-184 -217q-56 -64 -98.5 -83t-122.5 -19h-64zM291 674q0 -78 54 -124 t149 -46h211l79 420h-227q-118 0 -192 -70.5t-74 -179.5z" />
<glyph unicode="&#x450;" d="M49 410q0 125 45.5 242.5t124.5 206.5t192.5 142.5t241.5 53.5q183 0 277 -101.5t94 -271.5q0 -36 -8 -79t-16 -68l-7 -25h-788q-10 -43 -10 -94q0 -138 86 -227t243 -89q52 0 106 13t93.5 31t71.5 36.5t49 31.5l16 13l43 -114q-7 -6 -19.5 -15t-53.5 -32.5t-83.5 -41.5 t-106 -32.5t-124.5 -14.5q-212 0 -339.5 119.5t-127.5 315.5zM229 618h643q9 37 9 76q0 119 -65 181.5t-169 62.5q-134 0 -249 -84.5t-169 -235.5zM532 1442h150l98 -244h-114z" />
<glyph unicode="&#x451;" d="M49 410q0 125 45.5 242.5t124.5 206.5t192.5 142.5t241.5 53.5q183 0 277 -101.5t94 -271.5q0 -36 -8 -79t-16 -68l-7 -25h-788q-10 -43 -10 -94q0 -138 86 -227t243 -89q52 0 106 13t93.5 31t71.5 36.5t49 31.5l16 13l43 -114q-7 -6 -19.5 -15t-53.5 -32.5t-83.5 -41.5 t-106 -32.5t-124.5 -14.5q-212 0 -339.5 119.5t-127.5 315.5zM229 618h643q9 37 9 76q0 119 -65 181.5t-169 62.5q-134 0 -249 -84.5t-169 -235.5zM485 1266l35 176h121l-37 -176h-119zM791 1266l36 176h121l-35 -176h-122z" />
<glyph unicode="&#x452;" horiz-adv-x="1175" d="M33 0l223 1157h-131l22 111h132l32 172h140l-33 -172h456l-20 -111h-459l-71 -383q-4 -22 -11 -45t-11 -35l-5 -12h4q21 41 62 85t98 85t134 67.5t157 26.5q142 0 218.5 -67.5t76.5 -198.5q0 -54 -17 -137l-112 -584q-19 -99 -59.5 -173t-85.5 -114t-101 -64.5t-97 -31 t-83 -6.5q-17 0 -34 1.5t-26 2.5l-8 2l25 123q20 -4 51 -4q28 0 55 4.5t63.5 21.5t65.5 45t56 80.5t40 122.5l103 537q16 78 16 137q0 86 -46.5 129t-129.5 43q-84 0 -165 -36.5t-144 -97.5t-109 -143t-63 -171l-70 -367h-139z" />
<glyph unicode="&#x453;" horiz-adv-x="870" d="M63 0l177 909h-131l22 121h662q55 0 80.5 -18t25.5 -60q0 -9 -4 -41l-27 -129h-118l12 64q1 8 2 16.5t1.5 12.5t0.5 6q0 28 -37 28h-350l-178 -909h-138zM500 1198l188 244h160l-223 -244h-125z" />
<glyph unicode="&#x454;" horiz-adv-x="1069" d="M49 422q0 121 49.5 236t134 203t206.5 141t257 53q47 0 102 -12t108.5 -34.5t88.5 -61.5t35 -87q0 -16 -2 -24l-16 -86h-125l4 32q6 30 6 37q0 37 -37.5 64.5t-86.5 40t-97 12.5q-159 0 -287.5 -101.5t-179.5 -256.5h534l-20 -109h-537q-18 -162 75.5 -267.5 t264.5 -105.5q95 0 190 39t167 105l53 -109q-75 -69 -192 -112.5t-232 -43.5q-207 0 -335 123t-128 324z" />
<glyph unicode="&#x455;" horiz-adv-x="890" d="M-25 147l80 97q4 -6 12 -16t36 -35.5t61 -45t87 -35.5t114 -16q106 0 175.5 48.5t69.5 129.5q0 30 -11.5 55.5t-27 42.5t-46 35t-52 27.5t-61.5 26.5q-50 20 -83 35t-75.5 41.5t-67.5 55t-43 71t-18 92.5q0 92 53 161t138.5 103.5t189.5 34.5q57 0 115.5 -12.5t110 -36.5 t79 -66t16.5 -94l-14 -66h-127l6 45q8 45 -43 78t-145 33q-108 0 -172 -46t-64 -122q0 -23 7 -44t16 -36t28 -31t33 -25.5t41.5 -23t42.5 -20t47 -19.5q35 -14 57.5 -23.5t54.5 -26t52 -31t43 -36.5t36 -45t21.5 -54t8.5 -66q0 -135 -108 -223.5t-286 -88.5 q-77 0 -145.5 17.5t-110.5 43t-73.5 51t-44.5 43.5z" />
<glyph unicode="&#x456;" horiz-adv-x="497" d="M84 88q0 30 6 57l133 689q6 30 6 45q0 30 -36 30h-87l25 121h139q109 0 109 -86q0 -17 -8 -63l-135 -695q-5 -25 -5 -34q0 -31 37 -31h86l-22 -121h-144q-104 0 -104 88zM301 1264l37 176h133l-35 -176h-135z" />
<glyph unicode="&#x457;" horiz-adv-x="497" d="M84 88q0 30 6 57l133 689q6 30 6 45q0 30 -36 30h-87l25 121h139q109 0 109 -86q0 -17 -8 -63l-135 -695q-5 -25 -5 -34q0 -31 37 -31h86l-22 -121h-144q-104 0 -104 88zM166 1264l37 176h121l-35 -176h-123zM424 1264l35 176h121l-35 -176h-121z" />
<glyph unicode="&#x458;" horiz-adv-x="462" d="M-295 -416l25 123q16 -4 43 -4q31 0 59.5 4.5t65 21.5t65.5 44.5t55 78.5t39 119l170 863q6 30 6 45q0 30 -36 30h-86l22 121h141q109 0 109 -84q0 -13 -8 -63l-178 -922q-14 -72 -39 -130.5t-54 -97.5t-65.5 -68.5t-69.5 -45.5t-70.5 -25.5t-64.5 -12.5t-55 -3 q-19 0 -37.5 1.5t-27.5 2.5zM305 1264l35 176h135l-35 -176h-135z" />
<glyph unicode="&#x459;" horiz-adv-x="1464" d="M-96 -8l22 125q88 3 172 100q86 106 147.5 281t92.5 333l14 78h-131l23 121h544q105 0 105 -80q0 -19 -4 -39l-53 -276h217q149 0 232 -69.5t83 -194.5q0 -159 -116.5 -265t-309.5 -106h-254q-51 0 -74.5 18.5t-23.5 59.5q0 9 4 37l141 719q8 39 8 45q0 32 -38 32h-218 l-14 -75q-14 -74 -34.5 -154.5t-54.5 -186t-86.5 -205t-113.5 -167.5q-118 -131 -280 -131zM739 139q0 -28 37 -28h170q125 0 204 70t79 177q0 166 -203 166h-211l-67 -338q-9 -44 -9 -47z" />
<glyph unicode="&#x45a;" horiz-adv-x="1624" d="M63 0l160 821q10 52 10 58q0 30 -36 30h-86l22 121h146q55 0 79.5 -20t24.5 -62q0 -15 -4 -43l-55 -280h538l80 405h139l-77 -403h204q148 0 235 -71t87 -189q0 -160 -120 -263.5t-306 -103.5h-248q-51 0 -73.5 18t-22.5 58q0 23 4 39l78 393h-541l-98 -508h-140z M909 139q0 -28 33 -28h166q123 0 202 69.5t79 181.5q0 72 -51.5 112t-149.5 40h-207l-61 -321q-11 -53 -11 -54z" />
<glyph unicode="&#x45b;" horiz-adv-x="1210" d="M33 0l223 1157h-131l22 111h132l32 172h140l-33 -172h456l-20 -111h-459l-71 -381q-4 -20 -11.5 -43.5t-12 -36t-3.5 -12.5h4q23 42 63.5 85.5t97 84t132.5 66.5t156 26q144 0 220.5 -66.5t76.5 -197.5q0 -54 -17 -137l-67 -346q-1 -7 -3.5 -18.5t-4 -17.5t-1.5 -9 q0 -33 39 -33h86l-24 -121h-146q-54 0 -79 19.5t-25 62.5q0 19 6 43l74 385q14 79 14 133q0 86 -46.5 129t-129.5 43q-171 0 -308.5 -132.5t-172.5 -315.5l-70 -367h-139z" />
<glyph unicode="&#x45c;" horiz-adv-x="1032" d="M63 0l164 840q6 36 6 39q0 30 -36 30h-86l22 121h143q107 0 107 -84q0 -13 -4 -45l-57 -293h104q73 0 119 51l342 371h172l-377 -407q-26 -29 -49 -48.5t-33 -24.5l-10 -5l-2 -4q26 -11 51 -72l127 -303q11 -26 29 -35.5t59 -9.5h55l-22 -121h-94q-77 0 -104 18t-54 84 l-135 340q-16 43 -103 43h-100l-94 -485h-140zM573 1198l189 244h160l-224 -244h-125z" />
<glyph unicode="&#x45d;" horiz-adv-x="1236" d="M61 0l162 831q8 36 8 48q0 30 -34 30h-86l22 121h139q105 0 105 -80q0 -13 -4 -41l-107 -547l-39 -155h4q3 6 53.5 63.5t88.5 96.5l633 663h135l-162 -827q-8 -40 -8 -51q0 -31 35 -31h84l-23 -121h-139q-53 0 -78 19.5t-25 62.5q0 13 4 41l105 547q4 20 11 47.5t12.5 48 t10.5 38.5t5 19h-4q-7 -9 -56 -65t-84 -92l-632 -666h-136zM590 1442h149l99 -244h-115z" />
<glyph unicode="&#x45e;" d="M-164 -332l66 103l4 -5q4 -4 8.5 -9t12.5 -12.5t17 -14t21.5 -13.5t25 -12.5t28.5 -8.5t32 -3q116 0 219 170l92 145l-196 854q-6 27 -19.5 37t-42.5 10h-20l25 121h90q48 0 68.5 -25t33.5 -87l139 -644l15 -110h4q26 59 55 110l381 644q39 69 75 90.5t107 21.5h70 l-25 -121h-20q-29 0 -47 -10t-35 -37l-653 -1079q-61 -102 -143.5 -157.5t-178.5 -55.5q-37 0 -72 10t-58.5 24.5t-42 29t-27.5 24.5zM422 1364q0 31 12 78h121q-10 -31 -10 -60q0 -53 35.5 -82.5t91.5 -29.5q68 0 120.5 42t63.5 130h119q-11 -77 -42 -133.5t-75 -86.5 t-91.5 -43.5t-100.5 -13.5q-101 0 -172.5 55.5t-71.5 143.5z" />
<glyph unicode="&#x45f;" horiz-adv-x="1167" d="M80 80q0 25 4 43l135 698q10 45 10 56q0 32 -39 32h-86l25 121h145q54 0 79.5 -19.5t25.5 -62.5q0 -15 -4 -43l-135 -696q-11 -49 -11 -55q0 -33 37 -33h451q42 0 51 45l143 739q12 66 48 95.5t104 29.5h143l-24 -121h-84q-45 0 -54 -45l-143 -741q-14 -65 -48 -94 t-99 -29h-222l-47 -246h-131l49 246h-219q-55 0 -79.5 19t-24.5 61z" />
<glyph unicode="&#x462;" horiz-adv-x="1347" d="M113 1094l22 125h377l43 221h143l-43 -221h408l-25 -125h-407l-51 -260h309q173 0 283 -84t110 -244q0 -112 -45.5 -209t-119.5 -161t-167.5 -100t-191.5 -36h-359q-55 0 -79.5 19.5t-24.5 62.5q0 27 4 43l188 969h-374zM451 156q0 -31 36 -31h275q98 0 182 43t137.5 130 t53.5 202q0 103 -70.5 156t-190.5 53h-319l-98 -516q-6 -24 -6 -37z" />
<glyph unicode="&#x463;" horiz-adv-x="1034" d="M80 944l22 111h246l76 385h139l-76 -385h344l-22 -111h-344l-57 -303h217q148 0 232.5 -70.5t84.5 -193.5q0 -155 -119 -266t-299 -111h-266q-51 0 -73.5 17.5t-22.5 56.5q0 27 4 41l160 829h-246zM309 137q0 -12 10 -20t27 -8h176q120 0 199.5 76.5t79.5 187.5 q0 75 -51 117t-146 42h-219l-66 -337q-10 -44 -10 -58z" />
<glyph unicode="&#x472;" horiz-adv-x="1622" d="M88 598q0 172 74 332.5t195 277t282 186.5t328 70q272 0 443 -170.5t171 -437.5q0 -174 -74.5 -337.5t-195.5 -282t-282 -190t-327 -71.5q-272 0 -443 175t-171 448zM238 602q0 -216 133 -352.5t346 -136.5q148 0 290.5 72.5t249 200t148.5 282.5h-1163q-4 -46 -4 -66z M264 788h1163q5 50 5 62q0 211 -133 345t-345 134q-150 0 -293 -70.5t-248.5 -194.5t-148.5 -276z" />
<glyph unicode="&#x473;" horiz-adv-x="1234" d="M47 426q0 129 54 246.5t143 200.5t207.5 132.5t242.5 49.5q203 0 331 -124.5t128 -320.5q0 -130 -54.5 -249t-144 -202.5t-207 -133.5t-239.5 -50q-204 0 -332.5 126.5t-128.5 324.5zM184 430q0 -148 93.5 -242t242.5 -94q154 0 291 106.5t184 268.5h-809q-2 -14 -2 -39z M205 571h809q2 10 2 33q0 145 -93.5 238.5t-242.5 93.5q-156 0 -291 -103.5t-184 -261.5z" />
<glyph unicode="&#x474;" horiz-adv-x="1392" d="M195 1440h149l184 -1090l19 -184h4q53 112 92 184l487 910q27 51 52 83.5t48.5 52.5t56.5 29.5t64 12t83 2.5h100l-25 -129h-45q-92 0 -127 -19.5t-77 -97.5l-658 -1194h-153z" />
<glyph unicode="&#x475;" horiz-adv-x="1095" d="M113 1030h141l143 -756l13 -120h4q30 69 59 120l309 572q57 104 122.5 144t174.5 40h80l-26 -127h-48q-70 0 -107 -23t-79 -96l-436 -784h-148z" />
<glyph unicode="&#x48a;" horiz-adv-x="1587" d="M92 0l246 1268q9 45 -35 45h-88l25 127h151q66 0 89.5 -29.5t11.5 -95.5l-177 -905q-6 -34 -18.5 -82t-21.5 -80l-9 -31h4q93 127 154 197l926 1026h149l-248 -1268q-6 -45 37 -45h160l-18 -92l-197 -322h-121l145 287h-57q-66 0 -89.5 29.5t-10.5 95.5l176 905 q6 34 18.5 82.5t21.5 80.5l9 32h-4q-87 -123 -150 -195l-929 -1030h-150zM731 1706q0 31 12 78h121q-10 -31 -10 -60q0 -53 35.5 -82.5t91.5 -29.5q68 0 120.5 42t63.5 130h119q-11 -77 -42 -133.5t-75 -86.5t-91.5 -43.5t-100.5 -13.5q-101 0 -172.5 55.5t-71.5 143.5z" />
<glyph unicode="&#x48b;" horiz-adv-x="1261" d="M61 0l162 831q8 36 8 48q0 30 -34 30h-86l22 121h139q105 0 105 -80q0 -13 -4 -41l-107 -547l-39 -155h4q3 6 53.5 63.5t88.5 96.5l633 663h135l-162 -827q-8 -40 -8 -51q0 -31 35 -31h124l-18 -88l-166 -279h-117l123 246h-24q-53 0 -78 19.5t-25 62.5q0 13 4 41 l105 547q4 20 11 47.5t12.5 48t10.5 38.5t5 19h-4q-7 -9 -56 -65t-84 -92l-632 -666h-136zM506 1364q0 31 12 78h121q-10 -31 -10 -60q0 -53 35.5 -82.5t91.5 -29.5q68 0 120.5 42t63.5 130h119q-11 -77 -42 -133.5t-75 -86.5t-91.5 -43.5t-100.5 -13.5q-101 0 -172.5 55.5 t-71.5 143.5z" />
<glyph unicode="&#x48c;" horiz-adv-x="1310" d="M129 1184l23 119h325l45 233h144l-45 -233h358l-23 -119h-358l-63 -324h303q180 0 294.5 -92t114.5 -264q0 -149 -76 -266t-196 -177.5t-258 -60.5h-367q-55 0 -79.5 19.5t-24.5 62.5q0 11 4 43l205 1059h-326zM399 156q0 -31 37 -31h281q161 0 271 105t110 278 q0 109 -72.5 168t-200.5 59h-313l-109 -561q-4 -16 -4 -18z" />
<glyph unicode="&#x48d;" horiz-adv-x="1034" d="M80 944l22 111h246l76 385h139l-76 -385h344l-22 -111h-344l-57 -303h217q148 0 232.5 -70.5t84.5 -193.5q0 -155 -119 -266t-299 -111h-266q-51 0 -73.5 17.5t-22.5 56.5q0 27 4 41l160 829h-246zM309 137q0 -12 10 -20t27 -8h176q120 0 199.5 76.5t79.5 187.5 q0 75 -51 117t-146 42h-219l-66 -337q-10 -44 -10 -58z" />
<glyph unicode="&#x48e;" horiz-adv-x="1239" d="M90 0l258 1313h-133l25 127h602q174 0 278.5 -97.5t104.5 -261.5q0 -125 -52 -228t-143 -173l125 -170l-92 -68l-129 176q-112 -53 -238 -53h-350l-113 -565h-143zM369 684h325q95 0 168 33l-131 180l92 70l138 -189q124 108 124 297q0 112 -71 175t-197 63h-325z" />
<glyph unicode="&#x48f;" horiz-adv-x="1234" d="M-16 -410l241 1239q6 30 6 48q0 16 -7.5 24t-28.5 8h-86l22 121h141q105 0 105 -76q0 -33 -25 -114h4q58 94 154 154.5t231 60.5q178 0 276.5 -112.5t98.5 -313.5q0 -152 -56 -282.5t-153 -221.5l111 -135l-86 -74l-113 139q-129 -80 -264 -80q-111 0 -198 54t-121 153 h-5q-4 -45 -14 -98l-96 -494h-137zM289 403q0 -135 65.5 -221t190.5 -86q98 0 194 58l-129 161l84 72l133 -164q71 73 112.5 173.5t41.5 219.5q0 152 -69.5 232t-192.5 80t-224 -80.5t-153.5 -200t-52.5 -244.5z" />
<glyph unicode="&#x490;" horiz-adv-x="1003" d="M92 0l256 1313h-133l25 127h712q45 0 54 45l22 110h133l-31 -157q-12 -66 -47.5 -95.5t-101.5 -29.5h-489l-256 -1313h-144z" />
<glyph unicode="&#x491;" horiz-adv-x="811" d="M63 0l177 909h-129l22 121h567q47 0 56 45l16 96h123l-29 -143q-12 -66 -46 -92.5t-101 -26.5h-340l-178 -909h-138z" />
<glyph unicode="&#x492;" horiz-adv-x="1028" d="M92 645l23 119h133l108 549h-133l25 127h782q54 0 79.5 -19.5t25.5 -62.5q0 -18 -7 -43l-26 -144h-133l10 58q2 10 4 23l3 19.5t1 10.5q0 31 -37 31h-450l-109 -549h326l-23 -119h-325l-125 -645h-144l125 645h-133z" />
<glyph unicode="&#x493;" horiz-adv-x="876" d="M20 440l21 107h127l72 362h-131l22 121h662q55 0 80.5 -18t25.5 -60q0 -9 -4 -41l-27 -129h-118l12 64q1 8 2 16.5t1.5 12.5t0.5 6q0 28 -37 28h-350l-72 -362h273l-21 -107h-272l-86 -440h-138l84 440h-127z" />
<glyph unicode="&#x494;" horiz-adv-x="1198" d="M92 0l256 1317h-133l25 123h798q105 0 105 -80q0 -16 -6 -43l-27 -135h-125l14 69q0 1 3.5 14t3.5 19q0 33 -39 33h-478l-104 -533q153 70 317 70q188 0 285.5 -99.5t97.5 -316.5q0 -89 -17 -180t-50 -181.5t-86.5 -168.5t-122 -138t-162.5 -94t-201 -32l25 125 q95 1 175 45t132.5 113.5t89.5 157.5t53.5 176t16.5 171q0 140 -60.5 216.5t-213.5 76.5q-144 0 -304 -76l-127 -649h-141z" />
<glyph unicode="&#x495;" horiz-adv-x="995" d="M63 0l177 909h-129l22 121h672q54 0 78 -17t24 -57q0 -10 -4 -38l-26 -136h-119l10 52q6 34 6 47q0 28 -35 28h-360l-80 -403q121 59 242 59q86 0 148.5 -25.5t98 -71.5t52 -102t16.5 -124q0 -205 -108 -382t-299 -282l-60 107q143 83 235.5 230.5t92.5 317.5 q0 209 -207 209q-119 0 -236 -65l-73 -377h-138z" />
<glyph unicode="&#x496;" horiz-adv-x="1802" d="M-96 0l538 672q22 27 46.5 48t38.5 28l14 8v4q-31 14 -58 80l-159 426q-10 29 -31.5 38t-63.5 9h-36l24 127h64q60 0 88.5 -9t43.5 -29.5t33 -70.5l172 -457q14 -37 42.5 -49t78.5 -12h101l123 627h139l-121 -627h84q51 0 84.5 12t62.5 49l344 457q52 69 93 89t129 20h69 l-24 -127h-35q-43 0 -66 -9t-47 -38l-325 -430q-22 -29 -45.5 -50t-36.5 -28l-13 -6v-4q4 -2 11.5 -7.5t24.5 -26.5t28 -48l225 -539h66q54 0 78 -19t24 -61q0 -15 -4 -43l-57 -291h-131l39 201q10 48 10 53q0 30 -31 33h-96l-254 627q-18 39 -45 52t-72 13h-115l-135 -692 h-139l135 692h-106q-45 0 -76.5 -13t-61.5 -52l-497 -627h-172z" />
<glyph unicode="&#x497;" horiz-adv-x="1507" d="M-80 0l342 430q31 38 64.5 61.5t51.5 28.5l17 4l2 4q-4 2 -11 6.5t-22.5 25t-23.5 48.5l-78 256q-9 27 -30 36t-64 9h-45l22 121h76q78 0 108.5 -18.5t51.5 -83.5l80 -273q22 -69 123 -69h82l84 444h137l-86 -444h76q42 0 74.5 13t62.5 56l186 273q46 64 88 83t123 19h76 l-23 -121h-43q-42 0 -63 -9t-41 -36l-178 -256q-19 -28 -44 -48t-40 -26l-15 -6l-2 -4q2 0 6 -1t15 -7t21 -15.5t23 -28t23 -42.5l129 -311h35q54 0 78.5 -19.5t24.5 -60.5q0 -12 -7 -47l-45 -238h-133l31 160q10 52 10 55q0 14 -8.5 22.5t-23.5 8.5h-60l-151 373 q-21 55 -58.5 72.5t-93.5 17.5h-78l-90 -463h-137l92 463h-76q-57 0 -97.5 -17.5t-84.5 -72.5l-295 -373h-168z" />
<glyph unicode="&#x498;" horiz-adv-x="1060" d="M-31 158l94 102q48 -66 130 -110t192 -44q168 0 287 97.5t119 245.5q0 113 -73.5 170t-193.5 57h-188l24 123h152q87 0 167.5 38t133.5 111t53 162q0 99 -62.5 161t-189.5 62q-105 0 -186.5 -43.5t-93.5 -107.5l-12 -66h-136l19 101q12 67 60.5 118t115.5 77.5t132 39 t126 12.5q167 0 272 -89t105 -242q0 -139 -79 -238t-204 -143l-2 -4q96 -33 151.5 -105.5t55.5 -187.5q0 -128 -67 -234.5t-177 -169t-241 -74.5l-52 -264h-131l52 267q-106 13 -199.5 57.5t-153.5 120.5z" />
<glyph unicode="&#x499;" horiz-adv-x="876" d="M-37 125l78 92q18 -23 45.5 -47t88 -49t128.5 -25q52 0 102 14.5t93 42.5t69.5 75.5t26.5 107.5q0 69 -56 106t-161 37h-127l20 107h107q122 0 199 56.5t77 160.5q0 66 -51.5 100.5t-134.5 34.5q-46 0 -89.5 -10.5t-79.5 -36t-42 -62.5l-8 -47h-125l16 86 q18 90 116 138.5t222 48.5q146 0 233 -61.5t87 -174.5q0 -109 -62 -180.5t-153 -99.5v-4q69 -20 111 -71t42 -130q0 -63 -20.5 -117.5t-55.5 -94.5t-82 -70.5t-99 -48t-107 -23.5l-41 -226h-131l43 226q-171 19 -279 145z" />
<glyph unicode="&#x49a;" horiz-adv-x="1224" d="M92 0l238 1227q2 9 4.5 21.5t4 21t1.5 12.5q0 31 -41 31h-84l25 127h147q107 0 107 -84q0 -27 -11 -80l-90 -461h172q82 0 125 51l459 574h174l-492 -604q-21 -26 -42.5 -46.5t-32.5 -27.5l-11 -8v-4q28 -21 46 -80l165 -543h58q55 0 79.5 -19t24.5 -61q0 -15 -4 -43 l-57 -291h-131l39 201q10 48 10 53q0 33 -37 33h-94l-195 635q-8 31 -37 42t-80 11h-163l-133 -688h-144z" />
<glyph unicode="&#x49b;" horiz-adv-x="1028" d="M63 0l164 840q6 36 6 39q0 30 -36 30h-86l22 121h143q107 0 107 -84q0 -13 -4 -45l-57 -293h104q73 0 119 51l342 371h172l-377 -407q-26 -29 -49 -48.5t-33 -24.5l-10 -5l-2 -4q26 -11 51 -72l145 -350h23q54 0 78 -19t24 -61q0 -17 -6 -47l-47 -238h-131l31 160 q10 52 10 55q0 14 -9 22.5t-24 8.5h-55l-178 442q-16 43 -103 43h-100l-94 -485h-140z" />
<glyph unicode="&#x49c;" horiz-adv-x="1343" d="M92 0l238 1227q2 9 4.5 21.5t4 21t1.5 12.5q0 31 -41 31h-84l25 127h147q107 0 107 -84q0 -27 -11 -80l-90 -461h166l49 256h117l-51 -256h33q79 0 122 51l461 574h172l-489 -604q-22 -26 -44 -46.5t-33 -27.5l-11 -8v-4q27 -21 45 -80l151 -494q17 -49 78 -49h66 l-25 -127h-104q-62 0 -95 27t-51 84l-159 524q-10 32 -38.5 42.5t-80.5 10.5h-23l-49 -256h-115l50 256h-166l-133 -688h-144z" />
<glyph unicode="&#x49d;" horiz-adv-x="1132" d="M63 0l160 821q10 48 10 58q0 30 -36 30h-88l24 121h146q55 0 80.5 -18.5t25.5 -59.5q0 -15 -4 -43l-59 -297h124l39 199h111l-39 -199q68 0 115 50l321 368h172l-358 -403q-9 -11 -18.5 -20t-17 -16t-15 -12.5t-13 -9.5t-10.5 -7t-8.5 -4.5t-5.5 -2.5t-3 -1l-1 -1v-4 q31 -15 51 -76l98 -307q9 -26 26 -35.5t58 -9.5h58l-25 -121h-94q-77 0 -104.5 18t-47.5 84l-108 342q-8 27 -31.5 36t-63.5 9l-45 -239h-110l45 239h-125l-94 -489h-140z" />
<glyph unicode="&#x49e;" horiz-adv-x="1226" d="M111 0l213 1083h-195l23 117h194l47 240h144l-48 -240h211l-22 -117h-211l-53 -268h178q80 0 123 51l459 574h174l-490 -604q-22 -26 -44 -46.5t-33 -27.5l-11 -8v-4q27 -21 45 -80l152 -494q9 -26 27 -37.5t50 -11.5h66l-25 -127h-104q-62 0 -94.5 27t-50.5 84l-162 524 q-8 31 -36 42t-81 11h-170l-133 -688h-143z" />
<glyph unicode="&#x49f;" horiz-adv-x="1015" d="M49 0l209 1083h-135l22 109h134l49 248h139l-49 -248h262l-21 -109h-262l-86 -446h105q69 0 116 47l336 346h176l-372 -379q-25 -26 -48 -44.5t-34 -23.5l-10 -5l-2 -5q26 -12 49 -73l125 -334q9 -26 27 -35.5t59 -9.5h55l-25 -121h-90q-73 0 -100 19.5t-51 82.5 l-135 367q-18 47 -99 47h-104l-101 -516h-139z" />
<glyph unicode="&#x4a0;" horiz-adv-x="1497" d="M135 1171l29 154q13 64 45 89.5t98 25.5h637l-24 -127h-134l-98 -498h172q80 0 123 51l461 574h172l-490 -604q-21 -26 -43 -46.5t-33 -27.5l-12 -8v-4q27 -21 45 -80l154 -494q14 -49 76 -49h65l-24 -127h-105q-62 0 -94.5 27t-50.5 84l-160 524q-10 32 -38.5 42.5 t-80.5 10.5h-161l-136 -688h-143l256 1313h-299q-47 0 -55 -45l-19 -97h-133z" />
<glyph unicode="&#x4a1;" horiz-adv-x="1234" d="M66 784l26 134q12 64 45 88t101 24h243q56 0 81.5 -18.5t25.5 -59.5q0 -13 -4 -41l-60 -303h105q72 0 116 51l345 371h172l-377 -407q-26 -29 -49 -48.5t-33 -24.5l-10 -5v-4q24 -11 49 -72l127 -303q11 -26 29 -35.5t59 -9.5h55l-25 -121h-92q-77 0 -103.5 18t-53.5 84 l-136 340q-16 43 -102 43h-100l-94 -485h-140l164 844q1 5 2.5 15.5t2.5 17t1 8.5q0 28 -33 28h-153q-41 0 -51 -43l-17 -86h-116z" />
<glyph unicode="&#x4a2;" horiz-adv-x="1574" d="M92 0l238 1227q2 9 4.5 21.5t4 21t1.5 12.5q0 31 -41 31h-84l25 127h147q107 0 107 -84q0 -27 -11 -80l-96 -492h827l105 541q13 62 47 88.5t96 26.5h158l-25 -127h-92q-43 0 -51 -45l-223 -1141h65q105 0 105 -80q0 -15 -4 -43l-58 -291h-131l39 201q10 48 10 53 q0 33 -38 33h-156l129 657h-828l-126 -657h-144z" />
<glyph unicode="&#x4a3;" horiz-adv-x="1251" d="M63 0l160 825q8 40 8 52q0 32 -36 32h-86l22 121h145q107 0 107 -82q0 -19 -6 -43l-62 -315h603l83 440h140l-176 -911h43q52 0 76 -19t24 -59q0 -13 -4 -41l-49 -246h-131l30 160l11 57q0 26 -23 29h-139l90 469h-600l-92 -469h-138z" />
<glyph unicode="&#x4a4;" horiz-adv-x="1904" d="M92 0l238 1227q10 52 10 55q0 31 -37 31h-88l25 127h151q54 0 79.5 -19.5t25.5 -62.5q0 -15 -4 -43l-105 -531h752l102 529h-133l27 127h786q53 0 75.5 -16.5t22.5 -55.5q0 -29 -4 -47l-28 -150h-134l13 70q6 37 6 43q0 29 -37 29h-451l-256 -1313h-143l129 657h-752 l-126 -657h-144z" />
<glyph unicode="&#x4a5;" horiz-adv-x="1513" d="M63 0l162 829q8 46 8 50q0 30 -36 30h-86l22 121h146q55 0 79.5 -20t24.5 -62q0 -15 -4 -43l-64 -332h535l65 340h-129l23 117h627q56 0 81 -16t25 -56q0 -12 -4 -40l-25 -132h-120l12 58q6 27 6 41q0 28 -35 28h-321l-178 -913h-138l86 453h-534l-88 -453h-140z" />
<glyph unicode="&#x4a6;" horiz-adv-x="2009" d="M92 0l254 1313h-133l25 127h979q106 0 106 -82q0 -19 -6 -43l-98 -508q142 72 313 72q381 0 381 -424q0 -90 -16.5 -182.5t-49.5 -185t-86.5 -172.5t-122 -142t-162.5 -96.5t-202 -32.5l24 125q95 1 175 46t132.5 115.5t89.5 161t53.5 180t16.5 174.5q0 70 -12 122 t-41.5 94.5t-85 65t-135.5 22.5q-134 0 -299 -76l-131 -674h-141l239 1243q6 25 6 41q0 29 -37 29h-639l-253 -1313h-144z" />
<glyph unicode="&#x4a7;" horiz-adv-x="1613" d="M59 0l177 909h-113l22 121h979l-22 -121h-113l-69 -354q128 61 258 61q162 0 240.5 -97t78.5 -255q0 -202 -112.5 -392.5t-307.5 -293.5l-53 107q147 86 239.5 245.5t92.5 325.5q0 233 -223 233q-121 0 -240 -69l-82 -420h-139l178 909h-475l-176 -909h-140z" />
<glyph unicode="&#x4a8;" horiz-adv-x="1822" d="M94 594q0 146 42 276.5t109 224t155.5 170t175.5 122.5t176 73l49 -127q-76 -22 -151 -62t-150 -105.5t-131.5 -146t-91.5 -190.5t-35 -233q0 -101 32 -188.5t92.5 -154.5t154.5 -105.5t210 -38.5q121 0 246 41q-125 85 -192.5 221.5t-67.5 308.5q0 158 56 301t147 242.5 t209 158t239 58.5q190 0 304 -123.5t114 -335.5q0 -170 -71 -332t-185.5 -287t-263.5 -215q86 -24 198 -24h150l-23 -123h-137q-192 0 -336 66q-206 -91 -391 -91q-142 0 -261 46.5t-200.5 128t-126.5 196t-45 248.5zM862 680q0 -154 66 -278t192 -193q145 73 260.5 186.5 t187.5 266.5t72 315q0 158 -79.5 244t-198.5 86q-84 0 -171 -43t-161 -120t-121 -199t-47 -265z" />
<glyph unicode="&#x4a9;" horiz-adv-x="1566" d="M57 483q0 106 38 202t102.5 167.5t144.5 122.5t168 78l45 -121q-66 -20 -127 -57t-114.5 -91t-86 -132.5t-32.5 -168.5q0 -168 110 -277.5t287 -109.5q119 0 250 43q-234 161 -234 451q0 191 137.5 328t337.5 137q88 0 159.5 -31t117 -83t70 -120t24.5 -143 q0 -162 -91 -301t-243 -236q82 -24 185 -24h110l-22 -117h-105q-172 0 -311 61q-199 -86 -393 -86q-235 0 -381 143.5t-146 364.5zM745 592q0 -137 62 -238t170 -159q152 77 246 201.5t94 279.5q0 48 -13.5 92t-42 83t-78.5 62t-116 23q-81 0 -154 -41t-120.5 -121.5 t-47.5 -181.5z" />
<glyph unicode="&#x4aa;" horiz-adv-x="1413" d="M92 596q0 131 41.5 259t119 237t180.5 193t234.5 131.5t272.5 47.5q83 0 167 -17t158 -49t120.5 -87t46.5 -123q0 -25 -11 -76l-14 -72h-135l16 80q9 44 -12 80.5t-60 59.5t-90 39.5t-98.5 23t-89.5 6.5q-136 0 -264.5 -58.5t-223.5 -156t-152.5 -232t-57.5 -280.5 q0 -218 126.5 -353.5t350.5 -135.5q137 0 268 47t225 133l70 -111q-93 -89 -238.5 -144t-300.5 -61l-49 -264h-133l51 269q-238 29 -378 199t-140 415z" />
<glyph unicode="&#x4ab;" horiz-adv-x="1060" d="M51 424q0 130 52 248t137 201.5t197.5 132.5t230.5 49q58 0 120 -12t122 -37t93 -71.5t21 -107.5l-16 -84h-129l10 52q6 34 -15 61t-58.5 42.5t-78.5 23.5t-80 8q-116 0 -222 -64t-173 -179t-67 -251q0 -154 85 -244t242 -90q61 0 119 13.5t97 32t69.5 37.5t44.5 33 l14 13l45 -114q-5 -5 -15 -14.5t-45.5 -33t-76 -41.5t-105.5 -34.5t-134 -18.5l-41 -221h-132l44 230q-167 28 -261 144.5t-94 295.5z" />
<glyph unicode="&#x4ac;" horiz-adv-x="1261" d="M135 1171l31 162q12 60 40 83.5t89 23.5h975q104 0 104 -84q0 -22 -12 -80l-19 -105h-133l13 62q8 40 8 49q0 31 -41 31h-350l-234 -1186h66q54 0 78 -19t24 -61q0 -15 -4 -43l-57 -291h-131l39 201q10 48 10 53q0 33 -37 33h-156l258 1313h-356q-25 0 -38 -10t-17 -35 l-19 -97h-131z" />
<glyph unicode="&#x4ad;" horiz-adv-x="1048" d="M68 782l24 127q10 66 46 93.5t104 27.5h729q56 0 81 -18.5t25 -59.5q0 -19 -6 -43l-22 -127h-119l10 58q6 30 6 39q0 28 -39 28h-256l-153 -788h45q52 0 75 -19t23 -59q0 -13 -4 -41l-47 -246h-131l30 160l11 57q0 26 -27 29h-137l176 907h-254q-49 0 -55 -45l-17 -80 h-118z" />
<glyph unicode="&#x4ae;" horiz-adv-x="1214" d="M158 1313l26 127h64q63 0 94 -23.5t59 -91.5l170 -407q14 -32 28.5 -72.5t22.5 -65.5l7 -24h4q60 90 117 162l323 407q54 69 94 92t107 23h82l-27 -127h-41q-30 0 -51.5 -11t-44.5 -40l-508 -635l-123 -627h-143l123 627l-265 633q-19 53 -69 53h-49z" />
<glyph unicode="&#x4af;" horiz-adv-x="1054" d="M84 909l25 121h51q68 0 94 -22t41 -90l127 -572q5 -24 10 -54.5t8 -49.5l2 -19h4q39 70 68 123l352 572q42 68 77.5 90t107.5 22h63l-22 -121h-21q-27 0 -45 -10t-35 -37l-499 -799l-93 -473h-137l94 473l-192 799q-4 27 -18.5 37t-43.5 10h-18z" />
<glyph unicode="&#x4b0;" horiz-adv-x="1214" d="M158 1313l26 127h64q63 0 94 -23.5t59 -91.5l170 -407q14 -32 28.5 -72.5t22.5 -65.5l7 -24h4q60 90 117 162l323 407q54 69 94 92t107 23h82l-27 -127h-41q-30 0 -51.5 -11t-44.5 -40l-508 -635v-2h264l-22 -113h-264l-101 -512h-143l100 512h-254l21 113h256v2 l-265 633q-19 53 -69 53h-49z" />
<glyph unicode="&#x4b1;" horiz-adv-x="1054" d="M84 909l25 121h51q68 0 94 -22t41 -90l127 -572q5 -24 10 -54.5t8 -49.5l2 -19h4q39 70 68 123l352 572q42 68 77.5 90t107.5 22h63l-22 -121h-21q-27 0 -45 -10t-35 -37l-471 -751h215l-20 -111h-236l-80 -410h-137l82 410h-238l21 111h217l-180 751q-4 27 -18.5 37 t-43.5 10h-18z" />
<glyph unicode="&#x4b2;" horiz-adv-x="1230" d="M-82 0l608 758l-215 502q-23 53 -86 53h-51l25 127h80q68 0 100.5 -23.5t62.5 -91.5l127 -303l64 -160h4q62 86 121 160l241 303q52 69 94 92t113 23h92l-24 -127h-41q-37 0 -62 -10t-51 -43l-422 -517l271 -616h65q55 0 80 -19t25 -61q0 -15 -4 -43l-58 -291h-131 l39 201q10 48 10 53q0 30 -32 33h-95l-213 487l-61 152h-4q-49 -72 -115 -152l-389 -487h-168z" />
<glyph unicode="&#x4b3;" horiz-adv-x="1030" d="M-72 0l471 545l-166 323q-21 41 -88 41h-43l23 121h88q59 0 87 -23t62 -92l111 -223l25 -59h4q22 34 45 59l186 223q62 74 96 94.5t107 20.5h94l-22 -121h-45q-69 0 -103 -41l-297 -340l205 -409h35q102 0 102 -80q0 -17 -6 -47l-47 -238h-131l31 160q10 52 10 55 q0 14 -9 22.5t-24 8.5h-53l-187 379l-24 57h-4q-20 -28 -45 -57l-324 -379h-164z" />
<glyph unicode="&#x4b4;" horiz-adv-x="1828" d="M129 1171l31 152q12 66 42 91.5t95 25.5h895q53 0 75.5 -16.5t22.5 -55.5q0 -13 -4 -45l-29 -152h-129l13 64q8 39 8 47q0 31 -39 31h-317l-215 -1110q-9 -41 -9 -43q0 -33 39 -33h752l256 1313h143l-256 -1313h53q55 0 80 -19t25 -61q0 -15 -4 -43l-58 -291h-131l39 207 q11 46 11 47q0 33 -37 33h-961q-55 0 -80.5 19.5t-25.5 62.5q0 27 4 43l231 1188h-317q-45 0 -53 -45l-17 -97h-133z" />
<glyph unicode="&#x4b5;" horiz-adv-x="1466" d="M70 786l24 129q12 64 46 89.5t102 25.5h628q57 0 82 -16.5t25 -57.5q0 -13 -4 -41l-23 -129h-108l12 60q6 27 6 35q0 30 -37 30h-219l-137 -702q-10 -48 -10 -53q0 -35 37 -35h548l179 909h139l-178 -911h28q54 0 78.5 -19.5t24.5 -60.5q0 -11 -4 -39l-47 -246h-134 l33 168q8 46 8 47q0 31 -36 31h-721q-55 0 -80 19t-25 61q0 19 8 59l150 772h-223q-43 0 -49 -43l-15 -82h-108z" />
<glyph unicode="&#x4b6;" horiz-adv-x="1329" d="M156 1313l24 127h152q54 0 79 -19.5t25 -62.5q0 -11 -4 -43l-61 -311q-11 -64 -11 -97q0 -105 63.5 -157t199.5 -52q95 0 193.5 37.5t174.5 83.5l121 621h143l-256 -1313h64q55 0 79.5 -19t24.5 -61q0 -15 -4 -43l-57 -291h-131l39 201q10 48 10 53q0 33 -39 33h-154 l119 604q14 68 17 68h-4q-75 -40 -178 -72.5t-201 -32.5q-373 0 -373 297q0 54 12 119l53 262q5 35 5 37q0 31 -37 31h-88z" />
<glyph unicode="&#x4b7;" horiz-adv-x="1103" d="M84 909l22 121h144q54 0 78 -20.5t24 -61.5q0 -15 -4 -43l-37 -188q-8 -33 -8 -70q0 -145 186 -145q82 0 155.5 25.5t123.5 58.5l86 444h141l-178 -911h43q53 0 77 -19t24 -59q0 -6 -5 -41l-47 -246h-133l31 160q10 52 10 57q0 26 -24 29h-138l74 383q3 14 8 32.5t8.5 29 t2.5 10.5h-5q-64 -34 -144.5 -56t-147.5 -22q-147 0 -219 61t-72 170q0 43 8 82l29 152q6 24 6 37q0 30 -37 30h-82z" />
<glyph unicode="&#x4b8;" horiz-adv-x="1288" d="M154 1313l24 127h152q54 0 79 -19.5t25 -62.5q0 -11 -4 -43l-61 -311q-9 -52 -9 -97q0 -96 51.5 -147t163.5 -60l58 293h115l-58 -291q85 11 170.5 45.5t145.5 71.5l120 621h144l-281 -1440h-143l119 604q14 68 16 68h-4q-147 -80 -311 -101l-43 -225h-117l43 221 q-338 15 -338 297q0 54 12 119l51 262q5 35 5 37q0 31 -37 31h-88z" />
<glyph unicode="&#x4b9;" horiz-adv-x="1083" d="M84 909l22 121h144q54 0 78 -20.5t24 -61.5q0 -15 -4 -43l-37 -188q-8 -33 -8 -70q0 -135 168 -145l49 256h111l-49 -250q124 19 215 78l86 444h137l-199 -1030h-139l74 383q3 14 8 32.5t8 29t2 10.5h-4q-99 -52 -211 -70l-33 -172h-110l30 164q-145 3 -215.5 63.5 t-70.5 167.5q0 43 8 82l29 152q6 24 6 37q0 30 -37 30h-82z" />
<glyph unicode="&#x4ba;" horiz-adv-x="1286" d="M92 0l238 1227q2 10 4.5 23.5t4 21.5t1.5 10q0 31 -37 31h-88l25 127h151q54 0 79.5 -19.5t25.5 -62.5q0 -15 -4 -43l-78 -404l-17 -67h4q69 36 177.5 66t220.5 30q172 0 256 -79.5t84 -219.5q0 -58 -11 -109l-61 -325q-8 -46 -8 -49q0 -31 37 -31h88l-25 -127h-151 q-55 0 -80 19.5t-25 62.5q0 27 4 43l74 379q12 56 12 102q0 203 -231 203q-109 0 -216.5 -35t-174.5 -78l-135 -696h-144z" />
<glyph unicode="&#x4bb;" horiz-adv-x="1208" d="M31 0l241 1241q9 36 9 47q0 31 -39 31h-86l24 121h139q113 0 113 -86q0 -14 -8 -60l-82 -411l-20 -88h4q25 40 63 80.5t93.5 83t132.5 69.5t159 27q148 0 219.5 -72.5t71.5 -204.5q0 -48 -14 -127l-90 -465q-1 -3 -2.5 -11t-3 -14t-1.5 -9q0 -31 39 -31h86l-22 -121h-144 q-108 0 -108 88q0 24 6 51l94 482q15 77 15 120q0 183 -185 183q-84 0 -165 -39t-142 -101t-104 -139.5t-58 -155.5l-94 -489h-141z" />
<glyph unicode="&#x4bc;" horiz-adv-x="1687" d="M129 979q0 66 22 138.5t66 174.5h141q-92 -192 -92 -303q0 -69 34 -104.5t114 -36.5q40 127 111 237.5t167.5 195.5t222.5 134t265 49q226 0 353.5 -127.5t127.5 -359.5q0 -102 -35 -248h-1089q-12 -64 -14 -127t8.5 -125t31.5 -116t58 -100.5t86 -80t117 -52.5t149 -19 q127 0 256.5 45.5t222.5 130.5l68 -115q-86 -79 -233.5 -137t-317.5 -58q-272 0 -429 154.5t-165 415.5q-3 86 12 184q-123 0 -190.5 65t-67.5 185zM565 848h940q15 81 15 129q0 74 -20.5 137.5t-61.5 113.5t-110 78.5t-159 28.5q-208 0 -373.5 -138.5t-230.5 -348.5z" />
<glyph unicode="&#x4bd;" horiz-adv-x="1304" d="M72 711q0 112 65 229h127q-74 -118 -74 -217q0 -51 26 -73.5t85 -22.5q63 186 214.5 307t350.5 121q184 0 278.5 -101.5t94.5 -271.5q0 -76 -29 -172h-790q-22 -111 6.5 -203t109.5 -148.5t203 -56.5q180 0 336 123l45 -114q-69 -54 -174.5 -95t-214.5 -41 q-204 0 -334.5 118.5t-130.5 318.5q0 57 8 98q-202 3 -202 201zM446 621h644q8 27 8 75q0 120 -65 182t-171 62q-133 0 -247.5 -83.5t-168.5 -235.5z" />
<glyph unicode="&#x4be;" horiz-adv-x="1687" d="M129 979q0 66 22 138.5t66 174.5h141q-92 -192 -92 -303q0 -69 34 -104.5t114 -36.5q40 127 111 237.5t167.5 195.5t222.5 134t265 49q226 0 353.5 -127.5t127.5 -359.5q0 -102 -35 -248h-1089q-12 -64 -14 -127t8.5 -125t31.5 -116t58 -100.5t86 -80t117 -52.5t149 -19 q127 0 256.5 45.5t222.5 130.5l68 -115q-85 -78 -231.5 -136t-317.5 -59l-49 -262h-131l51 273q-215 34 -338 182t-129 377q-3 86 12 184q-123 0 -190.5 65t-67.5 185zM565 848h940q15 81 15 129q0 74 -20.5 137.5t-61.5 113.5t-110 78.5t-159 28.5q-208 0 -373.5 -138.5 t-230.5 -348.5z" />
<glyph unicode="&#x4bf;" horiz-adv-x="1304" d="M72 711q0 112 65 229h127q-74 -118 -74 -217q0 -51 26 -73.5t85 -22.5q63 186 214.5 307t350.5 121q184 0 278.5 -101.5t94.5 -271.5q0 -76 -29 -172h-790q-22 -111 6.5 -203t109.5 -148.5t203 -56.5q180 0 336 123l45 -114q-69 -54 -174.5 -95t-214.5 -41l-41 -221h-131 l45 236q-154 33 -246 144t-92 278q0 57 8 98q-202 3 -202 201zM446 621h644q8 27 8 75q0 120 -65 182t-171 62q-133 0 -247.5 -83.5t-168.5 -235.5z" />
<glyph unicode="&#x4c0;" horiz-adv-x="587" d="M-29 0l25 127h135l231 1186h-137l27 127h410l-25 -127h-135l-232 -1186h136l-25 -127h-410z" />
<glyph unicode="&#x4c1;" horiz-adv-x="1736" d="M-96 0l538 672q22 27 46.5 48t38.5 28l14 8v4q-31 14 -58 80l-159 426q-10 29 -31.5 38t-63.5 9h-36l24 127h64q60 0 88.5 -9t43.5 -29.5t33 -70.5l172 -457q14 -37 42.5 -49t78.5 -12h101l123 627h139l-121 -627h84q51 0 84.5 12t62.5 49l344 457q52 69 93 89t129 20h69 l-24 -127h-35q-43 0 -66 -9t-47 -38l-325 -430q-22 -29 -45.5 -50t-36.5 -28l-13 -6v-4q4 -2 11.5 -7.5t24.5 -26.5t28 -48l278 -666h-155l-254 627q-18 39 -45 52t-72 13h-115l-135 -692h-139l135 692h-106q-45 0 -76.5 -13t-61.5 -52l-497 -627h-172zM817 1706q0 31 12 78 h121q-10 -31 -10 -60q0 -53 35.5 -82.5t91.5 -29.5q68 0 120.5 42t63.5 130h119q-11 -77 -42 -133.5t-75 -86.5t-91.5 -43.5t-100.5 -13.5q-101 0 -172.5 55.5t-71.5 143.5z" />
<glyph unicode="&#x4c2;" horiz-adv-x="1458" d="M-80 0l342 430q31 38 64.5 61.5t51.5 28.5l17 4l2 4q-4 2 -11 6.5t-22.5 25t-23.5 48.5l-78 256q-9 27 -30 36t-64 9h-45l22 121h76q78 0 108.5 -18.5t51.5 -83.5l80 -273q22 -69 123 -69h82l84 444h137l-86 -444h76q42 0 74.5 13t62.5 56l186 273q46 64 88 83t123 19h76 l-23 -121h-43q-42 0 -63 -9t-41 -36l-178 -256q-19 -28 -44 -48t-40 -26l-15 -6l-2 -4q2 0 6 -1t15 -7t21 -15.5t23 -28t23 -42.5l179 -430h-148l-151 373q-21 55 -58.5 72.5t-93.5 17.5h-78l-90 -463h-137l92 463h-76q-57 0 -97.5 -17.5t-84.5 -72.5l-295 -373h-168z M612 1364q0 27 13 78h120q-10 -31 -10 -60q0 -53 35.5 -82.5t91.5 -29.5q68 0 121 42t64 130h118q-11 -77 -42 -133.5t-75 -86.5t-91.5 -43.5t-100.5 -13.5q-101 0 -172.5 55.5t-71.5 143.5z" />
<glyph unicode="&#x4c3;" horiz-adv-x="1243" d="M92 0l246 1264q0 2 1 7.5t1 8.5q0 33 -39 33h-88l25 127h151q107 0 107 -82q0 -15 -4 -43l-99 -500h166q88 0 129 51l461 574h176l-459 -563q-63 -78 -98 -93v-2q93 -27 160.5 -79t101.5 -117t49 -128t15 -130q0 -96 -26 -194t-78.5 -187t-124.5 -157.5t-171 -108 t-211 -37.5l25 127q82 1 154 35.5t123.5 91.5t89 130.5t55.5 154t18 159.5q0 171 -113.5 258.5t-302.5 87.5h-163l-133 -688h-144z" />
<glyph unicode="&#x4c4;" horiz-adv-x="1028" d="M63 0l160 825q8 39 8 52q0 32 -36 32h-86l22 121h145q107 0 107 -82q0 -17 -4 -41l-64 -317h70q41 0 73 12t68 51l338 377h176l-360 -397q-23 -25 -44 -43.5t-30 -24.5l-10 -6v-4q72 -17 125 -54t83 -86t44 -101t14 -109q0 -97 -26 -186t-66.5 -156t-95 -124.5 t-106 -95.5t-105.5 -65l-66 113q61 28 117 74t104.5 108.5t77.5 146.5t29 177q0 133 -86.5 201.5t-239.5 68.5h-106l-92 -467h-138z" />
<glyph unicode="&#x4c5;" horiz-adv-x="1400" d="M-100 -16l26 133q99 14 181.5 91t148 216t116.5 317t97 416l31 156h-135l24 127h801q104 0 104 -82q0 -33 -10 -84l-207 -1061q-10 -38 -10 -57q0 -29 39 -29h158l-19 -92l-196 -322h-123l147 287h-55q-56 0 -81.5 19.5t-25.5 62.5q0 12 13 84l209 1061q8 39 8 55 q0 31 -39 31h-463l-31 -156q-34 -180 -69.5 -323t-81.5 -277.5t-100.5 -232.5t-122 -174.5t-151.5 -117.5t-183 -48z" />
<glyph unicode="&#x4c6;" horiz-adv-x="1095" d="M-92 -8l22 127q80 6 160 96q88 101 152.5 278t93.5 336l14 80h-131l23 121h606q104 0 104 -82q0 -15 -4 -43l-141 -731q-4 -8 -4 -20q0 -33 39 -33h141l-16 -88l-166 -279h-117l121 246h-47q-55 0 -80 19.5t-25 62.5q0 19 6 43l142 731q0 4 1 12t1 9q0 32 -37 32h-281 l-14 -82q-14 -71 -35 -149t-57 -185t-90.5 -207.5t-118.5 -168.5q-118 -125 -262 -125z" />
<glyph unicode="&#x4c7;" horiz-adv-x="1540" d="M92 0l240 1229q10 48 10 53q0 31 -39 31h-88l25 127h151q55 0 80 -20t25 -62q0 -15 -4 -43l-105 -531h834l104 531q14 66 49 95.5t101 29.5h151l-24 -127h-89q-44 0 -53 -45l-233 -1202q-21 -104 -59.5 -183t-84.5 -125t-102.5 -73.5t-108 -35.5t-106.5 -5l27 125 q233 0 290 294l113 594h-834l-126 -657h-144z" />
<glyph unicode="&#x4c8;" horiz-adv-x="1236" d="M63 0l158 819q10 51 10 58q0 32 -36 32h-86l22 121h145q107 0 107 -82q0 -22 -6 -43l-62 -315h603l61 315q12 66 47.5 95.5t103.5 29.5h144l-23 -121h-86q-44 0 -53 -45l-154 -782q-16 -88 -45.5 -160.5t-63.5 -122t-82.5 -93t-90.5 -70.5t-101 -58l-65 111 q56 26 100.5 57t87 77t73 111.5t46.5 147.5l76 385h-602l-90 -467h-138z" />
<glyph unicode="&#x4c9;" horiz-adv-x="1576" d="M92 0l238 1227q2 9 4.5 21.5t4 21t1.5 12.5q0 31 -41 31h-84l25 127h147q107 0 107 -84q0 -27 -11 -80l-96 -492h827l105 541q13 62 47 88.5t96 26.5h158l-25 -127h-92q-43 0 -51 -45l-223 -1141h209l-19 -92l-198 -322h-121l149 287h-188l129 657h-828l-126 -657h-144z " />
<glyph unicode="&#x4ca;" horiz-adv-x="1251" d="M63 0l160 827q8 36 8 52q0 30 -36 30h-86l22 121h145q107 0 107 -82q0 -22 -6 -43l-62 -317h603l83 442h142l-162 -827q-8 -40 -8 -53q0 -29 37 -29h108l-16 -88l-166 -279h-117l121 246h-12q-56 0 -81.5 19.5t-25.5 62.5q0 24 6 51l66 334h-600l-92 -467h-138z" />
<glyph unicode="&#x4cb;" horiz-adv-x="1273" d="M156 1313l24 127h152q54 0 79 -19.5t25 -62.5q0 -11 -4 -43l-61 -311q-11 -64 -11 -97q0 -105 63.5 -157t199.5 -52q95 0 193.5 37.5t174.5 83.5l121 621h143l-280 -1440h-213q-44 0 -53 -45l-47 -242h-132l58 291q12 66 46.5 94.5t100.5 28.5h121l94 477q14 68 17 68h-4 q-75 -40 -178 -72.5t-201 -32.5q-373 0 -373 297q0 54 12 119l53 262q5 35 5 37q0 31 -37 31h-88z" />
<glyph unicode="&#x4cc;" horiz-adv-x="1056" d="M84 909l22 121h142q55 0 79.5 -20.5t24.5 -61.5q0 -15 -4 -43l-35 -180q-8 -33 -8 -70q0 -147 187 -147q143 0 278 86l84 436h139l-198 -1030h-140q-34 0 -43 -45l-39 -201h-131l45 236q12 63 45.5 92t96.5 29h47l55 280q2 15 6.5 33t8.5 28l4 11h-5q-66 -34 -146 -56 t-148 -22q-147 0 -219 61t-72 170q0 34 10 82l27 144q6 24 6 37q0 30 -37 30h-82z" />
<glyph unicode="&#x4cd;" horiz-adv-x="1773" d="M-74 0l25 127h76q23 0 35 10t18 35l348 1268h141l217 -838l37 -172h4q54 94 103 172l545 838h151l-141 -1235q-4 -36 -4 -49q0 -29 35 -29h165l-18 -92l-197 -322h-123l148 287h-49q-61 0 -88 22.5t-27 73.5q0 7 6 49l99 854q4 35 12 85t14 83l6 33h-4 q-65 -129 -114 -201l-482 -731h-129l-198 731q-8 32 -17.5 83.5t-14.5 86.5l-5 35h-4q-25 -129 -45 -205l-240 -882q-19 -62 -50 -89.5t-89 -27.5h-146z" />
<glyph unicode="&#x4ce;" horiz-adv-x="1492" d="M-80 0l23 121h59q38 0 47 41l242 868h139l186 -645l33 -133h4q43 67 86 133l435 645h155l-92 -831q-6 -40 -6 -49q0 -29 35 -29h129l-17 -88l-168 -279h-114l121 246h-31q-52 0 -72 19t-20 59q0 21 4 53l59 524l31 185h-4q-35 -70 -94 -156l-390 -565h-135l-174 565 q-11 35 -19 75t-10 63l-2 22h-4q-21 -134 -37 -189l-149 -542q-16 -59 -45.5 -86t-91.5 -27h-113z" />
<glyph unicode="&#x4cf;" horiz-adv-x="587" d="M-29 0l23 121h135l236 1198h-138l25 121h410l-23 -121h-135l-236 -1198h135l-22 -121h-410z" />
<glyph unicode="&#x4d0;" horiz-adv-x="1339" d="M-92 0l24 127h35q28 0 43 8.5t29 36.5l719 1268h151l228 -1274q4 -24 14.5 -31.5t36.5 -7.5h37l-25 -127h-88q-62 0 -84.5 22.5t-34.5 96.5l-59 340h-572l-192 -340q-40 -72 -72.5 -95.5t-95.5 -23.5h-94zM424 582h494l-91 516q-4 30 -8.5 76.5t-6.5 77.5l-3 32h-4 q-55 -118 -92 -186zM610 1706q0 27 13 78h120q-10 -31 -10 -60q0 -53 35.5 -82.5t91.5 -29.5q68 0 120.5 42t63.5 130h119q-11 -77 -42 -133.5t-75 -86.5t-91.5 -43.5t-100.5 -13.5q-101 0 -172.5 55.5t-71.5 143.5z" />
<glyph unicode="&#x4d1;" horiz-adv-x="1060" d="M0 246q0 89 42.5 158t111 111.5t162 70.5t186.5 38.5t194 10.5h64l6 29q10 44 10 96q0 178 -211 178q-31 0 -64.5 -3.5t-71 -12.5t-63.5 -28t-30 -46l-10 -66h-136l21 99q9 48 48 83.5t96 54.5t114 27.5t115 8.5q167 0 249 -76.5t82 -208.5q0 -50 -14 -125l-86 -446 q-1 -4 -4.5 -22.5t-3.5 -24.5q0 -31 39 -31h86l-25 -121h-131q-110 0 -110 84q0 41 24 125h-4q2 0 -13.5 -24t-48 -58.5t-76 -69t-111 -58.5t-140.5 -24q-125 0 -211 69t-86 202zM143 264q0 -82 51.5 -128t137.5 -46q75 0 146 38t121.5 97t85 125t46.5 127l8 47h-57 q-53 0 -101.5 -3t-114.5 -11.5t-119.5 -26.5t-101.5 -45.5t-75 -72t-27 -101.5zM406 1364q0 31 12 78h121q-11 -34 -11 -60q0 -53 35.5 -82.5t91.5 -29.5q68 0 121 42t64 130h118q-11 -77 -42 -133.5t-75 -86.5t-91.5 -43.5t-100.5 -13.5q-101 0 -172 55.5t-71 143.5z" />
<glyph unicode="&#x4d2;" horiz-adv-x="1339" d="M-92 0l24 127h35q28 0 43 8.5t29 36.5l719 1268h151l228 -1274q4 -24 14.5 -31.5t36.5 -7.5h37l-25 -127h-88q-62 0 -84.5 22.5t-34.5 96.5l-59 340h-572l-192 -340q-40 -72 -72.5 -95.5t-95.5 -23.5h-94zM424 582h494l-91 516q-4 30 -8.5 76.5t-6.5 77.5l-3 32h-4 q-55 -118 -92 -186zM651 1608l35 176h121l-37 -176h-119zM956 1608l37 176h121l-35 -176h-123z" />
<glyph unicode="&#x4d3;" horiz-adv-x="1060" d="M0 246q0 89 42.5 158t111 111.5t162 70.5t186.5 38.5t194 10.5h64l6 29q10 44 10 96q0 178 -211 178q-31 0 -64.5 -3.5t-71 -12.5t-63.5 -28t-30 -46l-10 -66h-136l21 99q9 48 48 83.5t96 54.5t114 27.5t115 8.5q167 0 249 -76.5t82 -208.5q0 -50 -14 -125l-86 -446 q-1 -4 -4.5 -22.5t-3.5 -24.5q0 -31 39 -31h86l-25 -121h-131q-110 0 -110 84q0 41 24 125h-4q2 0 -13.5 -24t-48 -58.5t-76 -69t-111 -58.5t-140.5 -24q-125 0 -211 69t-86 202zM143 264q0 -82 51.5 -128t137.5 -46q75 0 146 38t121.5 97t85 125t46.5 127l8 47h-57 q-53 0 -101.5 -3t-114.5 -11.5t-119.5 -26.5t-101.5 -45.5t-75 -72t-27 -101.5zM422 1266l35 176h121l-37 -176h-119zM727 1266l37 176h121l-35 -176h-123z" />
<glyph unicode="&#x4d4;" horiz-adv-x="1701" d="M-86 0l25 127h26q28 0 41.5 8t30.5 37l731 1268h848q106 0 106 -84q0 -32 -10 -80l-20 -105h-133l12 62q6 35 6 49q0 31 -39 31h-473l-102 -525h524l-25 -126h-524l-88 -457q-8 -36 -8 -49q0 -29 37 -29h489q46 0 55 45l19 96h133l-27 -147q-13 -66 -47 -93.5t-96 -27.5 h-608q-111 0 -111 86q0 22 10 74l99 502h-324l-309 -543q-43 -75 -73.5 -97t-102.5 -22h-72zM543 788h276l103 525h-80z" />
<glyph unicode="&#x4d5;" horiz-adv-x="1738" d="M-2 240q0 69 23 126.5t60 96.5t91 69t110 48t122 29t122 14.5t115 3.5h113q16 75 16 121q0 190 -207 190q-31 0 -64 -3.5t-71 -12.5t-64 -28t-30 -46l-12 -66h-134l19 99q10 49 50.5 85t98.5 54.5t114 26.5t112 8q134 0 208.5 -53.5t92.5 -145.5h4q78 98 185 148.5 t226 50.5q185 0 281 -101t96 -274q0 -33 -7 -74t-14 -66l-7 -24h-777q-10 -43 -10 -92q0 -150 82 -238t234 -88q53 0 106.5 13t93 31t71 36.5t47.5 31.5l17 13l45 -112q-7 -6 -19.5 -15t-53 -32.5t-83.5 -41.5t-105.5 -32.5t-123.5 -14.5q-163 0 -273 75.5t-146 205.5h-4 q-9 -21 -27.5 -49.5t-58 -71t-86.5 -76.5t-118 -59t-149 -25q-133 0 -222 70.5t-89 194.5zM143 252q0 -69 50 -114.5t145 -45.5q94 0 178.5 60.5t136.5 146.5t74 178l8 39h-121q-49 0 -94 -3.5t-102 -12t-103 -27.5t-86.5 -46.5t-63 -72.5t-22.5 -102zM899 627h629 q4 36 4 69q0 120 -66.5 181t-169.5 61q-130 0 -236.5 -81t-160.5 -230z" />
<glyph unicode="&#x4d6;" horiz-adv-x="1144" d="M113 86q0 22 10 74l225 1153h-133l25 127h819q106 0 106 -84q0 -32 -10 -80l-20 -105h-134l13 62q6 35 6 49q0 31 -39 31h-489l-103 -525h541l-25 -126h-540l-89 -457q-8 -36 -8 -49q0 -29 37 -29h506q46 0 55 45l19 96h133l-29 -147q-12 -66 -45.5 -93.5t-95.5 -27.5 h-625q-110 0 -110 86zM553 1706q0 31 12 78h121q-10 -31 -10 -60q0 -53 35.5 -82.5t91.5 -29.5q68 0 120.5 42t63.5 130h119q-11 -77 -42 -133.5t-75 -86.5t-91.5 -43.5t-100.5 -13.5q-101 0 -172.5 55.5t-71.5 143.5z" />
<glyph unicode="&#x4d7;" d="M49 410q0 125 45.5 242.5t124.5 206.5t192.5 142.5t241.5 53.5q183 0 277 -101.5t94 -271.5q0 -36 -8 -79t-16 -68l-7 -25h-788q-10 -43 -10 -94q0 -138 86 -227t243 -89q52 0 106 13t93.5 31t71.5 36.5t49 31.5l16 13l43 -114q-7 -6 -19.5 -15t-53.5 -32.5t-83.5 -41.5 t-106 -32.5t-124.5 -14.5q-212 0 -339.5 119.5t-127.5 315.5zM229 618h643q9 37 9 76q0 119 -65 181.5t-169 62.5q-134 0 -249 -84.5t-169 -235.5zM453 1364q0 31 12 78h121q-11 -34 -11 -60q0 -53 35.5 -82.5t91.5 -29.5q68 0 121 42t64 130h119q-11 -77 -42 -133.5 t-75.5 -86.5t-92 -43.5t-100.5 -13.5q-101 0 -172 55.5t-71 143.5z" />
<glyph unicode="&#x4d8;" horiz-adv-x="1409" d="M72 477q0 122 43 301h1089q13 73 13 121q0 197 -113.5 314.5t-319.5 117.5q-72 0 -147 -16t-129 -37.5t-102.5 -46.5t-70.5 -40t-30 -22l-67 111q11 9 31 23t76.5 44.5t117.5 54.5t151 43t179 19q270 0 420.5 -156.5t150.5 -428.5q0 -125 -32 -252t-97.5 -244 t-156.5 -208t-219 -145.5t-275 -54.5q-148 0 -261.5 53.5t-182 168.5t-68.5 280zM215 475q0 -179 92.5 -274t272.5 -95q232 0 390 149.5t212 401.5h-946q-21 -102 -21 -182z" />
<glyph unicode="&#x4d9;" horiz-adv-x="1091" d="M33 346q0 82 39 205h786q6 16 6 67q0 138 -88 226t-246 88q-91 0 -181.5 -35.5t-151.5 -85.5l-47 113q62 48 171 89.5t222 41.5q208 0 336.5 -121t128.5 -326q0 -121 -45 -235.5t-123 -202.5t-190.5 -141.5t-239.5 -53.5q-184 0 -280.5 102t-96.5 269zM172 340 q0 -123 65 -185.5t173 -62.5q88 0 172.5 38.5t155 119.5t102.5 190h-654q-14 -41 -14 -100z" />
<glyph unicode="&#x4da;" horiz-adv-x="1409" d="M72 477q0 122 43 301h1089q13 73 13 121q0 197 -113.5 314.5t-319.5 117.5q-72 0 -147 -16t-129 -37.5t-102.5 -46.5t-70.5 -40t-30 -22l-67 111q11 9 31 23t76.5 44.5t117.5 54.5t151 43t179 19q270 0 420.5 -156.5t150.5 -428.5q0 -125 -32 -252t-97.5 -244 t-156.5 -208t-219 -145.5t-275 -54.5q-148 0 -261.5 53.5t-182 168.5t-68.5 280zM215 475q0 -179 92.5 -274t272.5 -95q232 0 390 149.5t212 401.5h-946q-21 -102 -21 -182zM672 1608l35 176h120l-36 -176h-119zM977 1608l37 176h121l-35 -176h-123z" />
<glyph unicode="&#x4db;" horiz-adv-x="1093" d="M33 346q0 82 39 205h786q6 16 6 67q0 138 -88 226t-246 88q-91 0 -181.5 -35.5t-151.5 -85.5l-47 113q62 48 171 89.5t222 41.5q208 0 336.5 -121t128.5 -326q0 -121 -45 -235.5t-123 -202.5t-190.5 -141.5t-239.5 -53.5q-184 0 -280.5 102t-96.5 269zM172 340 q0 -123 65 -185.5t173 -62.5q88 0 172.5 38.5t155 119.5t102.5 190h-654q-14 -41 -14 -100zM434 1266l35 176h121l-37 -176h-119zM739 1266l37 176h121l-35 -176h-123z" />
<glyph unicode="&#x4dc;" horiz-adv-x="1736" d="M-96 0l538 672q22 27 46.5 48t38.5 28l14 8v4q-31 14 -58 80l-159 426q-10 29 -31.5 38t-63.5 9h-36l24 127h64q60 0 88.5 -9t43.5 -29.5t33 -70.5l172 -457q14 -37 42.5 -49t78.5 -12h101l123 627h139l-121 -627h84q51 0 84.5 12t62.5 49l344 457q52 69 93 89t129 20h69 l-24 -127h-35q-43 0 -66 -9t-47 -38l-325 -430q-22 -29 -45.5 -50t-36.5 -28l-13 -6v-4q4 -2 11.5 -7.5t24.5 -26.5t28 -48l278 -666h-155l-254 627q-18 39 -45 52t-72 13h-115l-135 -692h-139l135 692h-106q-45 0 -76.5 -13t-61.5 -52l-497 -627h-172zM854 1608l35 176h121 l-37 -176h-119zM1159 1608l37 176h121l-35 -176h-123z" />
<glyph unicode="&#x4dd;" horiz-adv-x="1458" d="M-80 0l342 430q31 38 64.5 61.5t51.5 28.5l17 4l2 4q-4 2 -11 6.5t-22.5 25t-23.5 48.5l-78 256q-9 27 -30 36t-64 9h-45l22 121h76q78 0 108.5 -18.5t51.5 -83.5l80 -273q22 -69 123 -69h82l84 444h137l-86 -444h76q42 0 74.5 13t62.5 56l186 273q46 64 88 83t123 19h76 l-23 -121h-43q-42 0 -63 -9t-41 -36l-178 -256q-19 -28 -44 -48t-40 -26l-15 -6l-2 -4q2 0 6 -1t15 -7t21 -15.5t23 -28t23 -42.5l179 -430h-148l-151 373q-21 55 -58.5 72.5t-93.5 17.5h-78l-90 -463h-137l92 463h-76q-57 0 -97.5 -17.5t-84.5 -72.5l-295 -373h-168z M647 1266l35 176h121l-37 -176h-119zM952 1266l37 176h121l-35 -176h-123z" />
<glyph unicode="&#x4de;" horiz-adv-x="1056" d="M-31 158l94 102q48 -66 130 -110t192 -44q168 0 287 97.5t119 245.5q0 113 -73.5 170t-193.5 57h-188l24 123h152q87 0 167.5 38t133.5 111t53 162q0 99 -62.5 161t-189.5 62q-105 0 -186.5 -43.5t-93.5 -107.5l-12 -66h-136l19 101q12 67 60.5 118t115.5 77.5t132 39 t126 12.5q167 0 272 -89t105 -242q0 -139 -79 -238t-204 -143l-2 -4q96 -33 151.5 -105.5t55.5 -187.5q0 -137 -76 -248.5t-199 -171.5t-266 -60q-125 0 -241 46t-187 137zM492 1608l34 176h121l-37 -176h-118zM797 1608l37 176h120l-34 -176h-123z" />
<glyph unicode="&#x4df;" horiz-adv-x="874" d="M-37 125l78 92q18 -23 45.5 -47t88 -49t128.5 -25q52 0 102 14.5t93 42.5t69.5 75.5t26.5 107.5q0 69 -56 106t-161 37h-127l20 107h107q122 0 199 56.5t77 160.5q0 66 -51.5 100.5t-134.5 34.5q-46 0 -89.5 -10.5t-79.5 -36t-42 -62.5l-8 -47h-125l16 86 q18 90 116 138.5t222 48.5q146 0 233 -61.5t87 -174.5q0 -109 -62 -180.5t-153 -99.5v-4q69 -20 111 -71t42 -130q0 -86 -38.5 -156.5t-101 -113.5t-137 -66t-151.5 -23q-218 0 -344 150zM344 1266l35 176h121l-37 -176h-119zM649 1266l37 176h121l-35 -176h-123z" />
<glyph unicode="&#x4e0;" horiz-adv-x="1017" d="M-39 104l66 111q42 -43 128.5 -77t178.5 -34q174 0 302 101t128 256q0 112 -81 165.5t-267 53.5h-164l18 104l488 449q28 25 53.5 46t36.5 29l12 9v4q-51 -4 -121 -4h-346q-44 0 -53 -45l-16 -80h-127l22 125q13 65 49 94t103 29h690l-21 -109l-516 -475q-12 -11 -30 -25 t-30 -22l-11 -8v-4q102 3 181.5 -13t130 -45.5t83 -73t46 -92t13.5 -106.5q0 -137 -76.5 -249t-207.5 -175t-287 -63q-115 0 -218.5 41t-156.5 83z" />
<glyph unicode="&#x4e1;" horiz-adv-x="935" d="M-162 -305l66 110q42 -43 128 -76.5t179 -33.5q113 0 211 44t158.5 126.5t60.5 185.5q0 112 -81 165.5t-267 53.5h-164l18 105l488 448q28 25 53.5 46t37.5 29l11 9v4q-51 -4 -121 -4h-346q-44 0 -53 -45l-16 -80h-127l22 125q13 65 49 94t103 29h690l-20 -108l-517 -476 q-12 -11 -29.5 -25t-29.5 -22l-12 -8v-4q102 3 181.5 -13t130 -45.5t83 -73t46 -92t13.5 -106.5q0 -137 -76.5 -249t-207.5 -175t-287 -63q-115 0 -218.5 41t-156.5 84z" />
<glyph unicode="&#x4e2;" horiz-adv-x="1546" d="M92 0l246 1268q9 45 -35 45h-88l25 127h151q66 0 89.5 -29.5t11.5 -95.5l-177 -905q-6 -34 -18.5 -82t-21.5 -80l-9 -31h4q93 127 154 197l926 1026h149l-248 -1268q-6 -45 37 -45h88l-26 -127h-150q-66 0 -89.5 29.5t-10.5 95.5l176 905q6 34 18.5 82.5t21.5 80.5l9 32 h-4q-87 -123 -150 -195l-929 -1030h-150zM721 1610l20 110h504l-20 -110h-504z" />
<glyph unicode="&#x4e3;" horiz-adv-x="1236" d="M61 0l162 831q8 36 8 48q0 30 -34 30h-86l22 121h139q105 0 105 -80q0 -13 -4 -41l-107 -547l-39 -155h4q3 6 53.5 63.5t88.5 96.5l633 663h135l-162 -827q-8 -40 -8 -51q0 -31 35 -31h84l-23 -121h-139q-53 0 -78 19.5t-25 62.5q0 13 4 41l105 547q4 20 11 47.5t12.5 48 t10.5 38.5t5 19h-4q-7 -9 -56 -65t-84 -92l-632 -666h-136zM498 1266l20 110h504l-21 -110h-503z" />
<glyph unicode="&#x4e4;" horiz-adv-x="1546" d="M92 0l246 1268q9 45 -35 45h-88l25 127h151q66 0 89.5 -29.5t11.5 -95.5l-177 -905q-6 -34 -18.5 -82t-21.5 -80l-9 -31h4q93 127 154 197l926 1026h149l-248 -1268q-6 -45 37 -45h88l-26 -127h-150q-66 0 -89.5 29.5t-10.5 95.5l176 905q6 34 18.5 82.5t21.5 80.5l9 32 h-4q-87 -123 -150 -195l-929 -1030h-150zM754 1608l34 176h121l-37 -176h-118zM1059 1608l37 176h121l-35 -176h-123z" />
<glyph unicode="&#x4e5;" horiz-adv-x="1236" d="M61 0l162 831q8 36 8 48q0 30 -34 30h-86l22 121h139q105 0 105 -80q0 -13 -4 -41l-107 -547l-39 -155h4q3 6 53.5 63.5t88.5 96.5l633 663h135l-162 -827q-8 -40 -8 -51q0 -31 35 -31h84l-23 -121h-139q-53 0 -78 19.5t-25 62.5q0 13 4 41l105 547q4 20 11 47.5t12.5 48 t10.5 38.5t5 19h-4q-7 -9 -56 -65t-84 -92l-632 -666h-136zM537 1266l34 176h121l-37 -176h-118zM842 1266l37 176h120l-34 -176h-123z" />
<glyph unicode="&#x4e6;" horiz-adv-x="1622" d="M88 598q0 172 74 332.5t195 277t282 186.5t328 70q272 0 443 -170.5t171 -437.5q0 -174 -74.5 -337.5t-195.5 -282t-282 -190t-327 -71.5q-272 0 -443 175t-171 448zM238 602q0 -216 133 -352.5t346 -136.5q131 0 261 59.5t230 158t162 236t62 283.5q0 211 -133 345 t-345 134q-134 0 -264.5 -58.5t-229.5 -155.5t-160.5 -232.5t-61.5 -280.5zM788 1608l35 176h121l-37 -176h-119zM1094 1608l36 176h121l-34 -176h-123z" />
<glyph unicode="&#x4e7;" horiz-adv-x="1239" d="M49 426q0 129 54 246.5t143 200.5t207.5 132.5t242.5 49.5q203 0 331 -124.5t128 -320.5q0 -130 -54.5 -249t-144 -202.5t-207 -133.5t-239.5 -50q-204 0 -332.5 126.5t-128.5 324.5zM193 430q0 -145 91.5 -236.5t237.5 -91.5q121 0 233.5 65.5t184.5 182.5t72 254 q0 143 -92 234.5t-238 91.5q-123 0 -235.5 -66t-183 -182.5t-70.5 -251.5zM535 1266l34 176h121l-37 -176h-118zM840 1266l37 176h120l-34 -176h-123z" />
<glyph unicode="&#x4e8;" horiz-adv-x="1622" d="M88 598q0 172 74 332.5t195 277t282 186.5t328 70q272 0 443 -170.5t171 -437.5q0 -174 -74.5 -337.5t-195.5 -282t-282 -190t-327 -71.5q-272 0 -443 175t-171 448zM238 602q0 -216 133 -352.5t346 -136.5q148 0 290.5 72.5t249 200t148.5 282.5h-1163q-4 -46 -4 -66z M264 788h1163q5 50 5 62q0 211 -133 345t-345 134q-150 0 -293 -70.5t-248.5 -194.5t-148.5 -276z" />
<glyph unicode="&#x4e9;" horiz-adv-x="1234" d="M47 426q0 129 54 246.5t143 200.5t207.5 132.5t242.5 49.5q203 0 331 -124.5t128 -320.5q0 -130 -54.5 -249t-144 -202.5t-207 -133.5t-239.5 -50q-204 0 -332.5 126.5t-128.5 324.5zM184 430q0 -148 93.5 -242t242.5 -94q154 0 291 106.5t184 268.5h-809q-2 -14 -2 -39z M205 571h809q2 10 2 33q0 145 -93.5 238.5t-242.5 93.5q-156 0 -291 -103.5t-184 -261.5z" />
<glyph unicode="&#x4ea;" horiz-adv-x="1622" d="M88 598q0 172 74 332.5t195 277t282 186.5t328 70q272 0 443 -170.5t171 -437.5q0 -174 -74.5 -337.5t-195.5 -282t-282 -190t-327 -71.5q-272 0 -443 175t-171 448zM238 602q0 -216 133 -352.5t346 -136.5q148 0 290.5 72.5t249 200t148.5 282.5h-1163q-4 -46 -4 -66z M264 788h1163q5 50 5 62q0 211 -133 345t-345 134q-150 0 -293 -70.5t-248.5 -194.5t-148.5 -276zM793 1608l34 176h121l-37 -176h-118zM1098 1608l37 176h120l-34 -176h-123z" />
<glyph unicode="&#x4eb;" horiz-adv-x="1239" d="M49 426q0 129 54 246.5t143 200.5t207.5 132.5t242.5 49.5q203 0 331 -124.5t128 -320.5q0 -130 -54.5 -249t-144 -202.5t-207 -133.5t-239.5 -50q-204 0 -332.5 126.5t-128.5 324.5zM186 430q0 -148 93.5 -242t242.5 -94q154 0 291 106.5t184 268.5h-809q-2 -14 -2 -39z M207 571h809q2 10 2 33q0 145 -93.5 238.5t-242.5 93.5q-156 0 -291 -103.5t-184 -261.5zM532 1206l35 176h121l-37 -176h-119zM838 1206l36 176h121l-34 -176h-123z" />
<glyph unicode="&#x4ec;" horiz-adv-x="1417" d="M-6 195l86 96q63 -79 183 -130.5t253 -51.5q231 0 425 157t257 391h-813l25 123h815q12 112 -12.5 211.5t-81.5 175.5t-152.5 120t-218.5 44q-65 0 -137 -14t-138 -38.5t-113 -65.5t-57 -89l-14 -80h-137l24 115q15 73 75.5 133.5t145 96.5t177.5 55.5t182 19.5 q185 0 324 -81t210.5 -218.5t71.5 -310.5q0 -141 -45 -275t-126.5 -242t-188.5 -190t-237 -127t-265 -45q-154 0 -293.5 56.5t-224.5 163.5zM635 1608l35 176h121l-37 -176h-119zM940 1608l37 176h121l-35 -176h-123z" />
<glyph unicode="&#x4ed;" horiz-adv-x="1075" d="M-27 133l68 103q50 -64 134 -102t179 -38q164 0 295 103t178 260h-526l21 108h528q17 158 -76.5 262.5t-251.5 104.5q-88 0 -177.5 -36t-100.5 -93l-8 -55h-127l16 81q17 97 134 160.5t273 63.5q204 0 331.5 -126t127.5 -327q0 -119 -49 -232.5t-132 -200.5t-203 -140.5 t-253 -53.5q-111 0 -215.5 40t-165.5 118zM418 1266l35 176h120l-36 -176h-119zM723 1266l37 176h121l-35 -176h-123z" />
<glyph unicode="&#x4ee;" horiz-adv-x="1220" d="M53 70l82 104q74 -70 152 -70q36 0 65.5 13t57.5 42t48.5 58.5t51.5 79.5l-281 971q-11 45 -59 45h-39l25 127h61q67 0 94.5 -24t46.5 -95l197 -692q11 -41 22 -86.5t16 -70.5l5 -26h4q37 77 96 183l389 692q41 75 76.5 97t112.5 22h76l-25 -127h-24q-32 0 -50 -8.5 t-32 -34.5l-607 -1059q-64 -112 -141.5 -174t-181.5 -62q-129 0 -238 95zM541 1610l20 110h504l-21 -110h-503z" />
<glyph unicode="&#x4ef;" d="M-164 -332l66 103l4 -5q4 -4 8.5 -9t12.5 -12.5t17 -14t21.5 -13.5t25 -12.5t28.5 -8.5t32 -3q116 0 219 170l92 145l-196 854q-6 27 -19.5 37t-42.5 10h-20l25 121h90q48 0 68.5 -25t33.5 -87l139 -644l15 -110h4q26 59 55 110l381 644q39 69 75 90.5t107 21.5h70 l-25 -121h-20q-29 0 -47 -10t-35 -37l-653 -1079q-61 -102 -143.5 -157.5t-178.5 -55.5q-37 0 -72 10t-58.5 24.5t-42 29t-27.5 24.5zM422 1266l18 108h506l-20 -108h-504z" />
<glyph unicode="&#x4f0;" horiz-adv-x="1220" d="M53 70l82 104q74 -70 152 -70q36 0 65.5 13t57.5 42t48.5 58.5t51.5 79.5l-281 971q-11 45 -59 45h-39l25 127h61q67 0 94.5 -24t46.5 -95l197 -692q11 -41 22 -86.5t16 -70.5l5 -26h4q37 77 96 183l389 692q41 75 76.5 97t112.5 22h76l-25 -127h-24q-32 0 -50 -8.5 t-32 -34.5l-607 -1059q-64 -112 -141.5 -174t-181.5 -62q-129 0 -238 95zM569 1608l35 176h121l-37 -176h-119zM874 1608l37 176h121l-35 -176h-123z" />
<glyph unicode="&#x4f1;" d="M-164 -332l66 103l4 -5q4 -4 8.5 -9t12.5 -12.5t17 -14t21.5 -13.5t25 -12.5t28.5 -8.5t32 -3q116 0 219 170l92 145l-196 854q-6 27 -19.5 37t-42.5 10h-20l25 121h90q48 0 68.5 -25t33.5 -87l139 -644l15 -110h4q26 59 55 110l381 644q39 69 75 90.5t107 21.5h70 l-25 -121h-20q-29 0 -47 -10t-35 -37l-653 -1079q-61 -102 -143.5 -157.5t-178.5 -55.5q-37 0 -72 10t-58.5 24.5t-42 29t-27.5 24.5zM451 1266l34 176h121l-37 -176h-118zM756 1266l37 176h120l-34 -176h-123z" />
<glyph unicode="&#x4f2;" horiz-adv-x="1220" d="M53 70l82 104q74 -70 152 -70q36 0 65.5 13t57.5 42t48.5 58.5t51.5 79.5l-281 971q-11 45 -59 45h-39l25 127h61q67 0 94.5 -24t46.5 -95l197 -692q11 -41 22 -86.5t16 -70.5l5 -26h4q37 77 96 183l389 692q41 75 76.5 97t112.5 22h76l-25 -127h-24q-32 0 -50 -8.5 t-32 -34.5l-607 -1059q-64 -112 -141.5 -174t-181.5 -62q-129 0 -238 95zM553 1540l170 244h133l-170 -244h-133zM825 1540l179 244h155l-209 -244h-125z" />
<glyph unicode="&#x4f3;" d="M-164 -332l66 103l4 -5q4 -4 8.5 -9t12.5 -12.5t17 -14t21.5 -13.5t25 -12.5t28.5 -8.5t32 -3q116 0 219 170l92 145l-196 854q-6 27 -19.5 37t-42.5 10h-20l25 121h90q48 0 68.5 -25t33.5 -87l139 -644l15 -110h4q26 59 55 110l381 644q39 69 75 90.5t107 21.5h70 l-25 -121h-20q-29 0 -47 -10t-35 -37l-653 -1079q-61 -102 -143.5 -157.5t-178.5 -55.5q-37 0 -72 10t-58.5 24.5t-42 29t-27.5 24.5zM440 1198l170 244h133l-170 -244h-133zM713 1198l178 244h156l-209 -244h-125z" />
<glyph unicode="&#x4f4;" horiz-adv-x="1273" d="M156 1313l24 127h152q54 0 79 -19.5t25 -62.5q0 -11 -4 -43l-61 -311q-11 -64 -11 -97q0 -105 63.5 -157t199.5 -52q95 0 193.5 37.5t174.5 83.5l121 621h143l-280 -1440h-144l119 604q14 68 17 68h-4q-75 -40 -178 -72.5t-201 -32.5q-373 0 -373 297q0 54 12 119l53 262 q5 35 5 37q0 31 -37 31h-88zM557 1608l35 176h121l-37 -176h-119zM862 1608l37 176h121l-35 -176h-123z" />
<glyph unicode="&#x4f5;" horiz-adv-x="1056" d="M84 909l22 121h144q54 0 78 -20.5t24 -61.5q0 -15 -4 -43l-37 -188q-8 -33 -8 -70q0 -145 186 -145q82 0 155.5 25.5t123.5 58.5l86 444h141l-200 -1030h-140l74 383q3 14 8 32.5t8.5 29t2.5 10.5h-5q-64 -34 -144.5 -56t-147.5 -22q-147 0 -219 61t-72 170q0 43 8 82 l29 152q6 24 6 37q0 30 -37 30h-82zM434 1266l35 176h121l-37 -176h-119zM739 1266l37 176h121l-35 -176h-123z" />
<glyph unicode="&#x4f6;" horiz-adv-x="1021" d="M90 0l258 1313h-133l25 127h788q105 0 105 -84l-11 -80l-20 -105h-131l10 62q8 40 8 49q0 31 -41 31h-456l-234 -1186h68q54 0 79 -19.5t25 -60.5q0 -22 -6 -43l-55 -291h-133l38 201q2 11 5 24.5t4.5 19.5t1.5 9q0 33 -37 33h-158z" />
<glyph unicode="&#x4f7;" horiz-adv-x="874" d="M63 0l177 909h-131l22 121h662q55 0 80.5 -18t25.5 -60q0 -9 -4 -41l-27 -129h-118l12 64q1 8 2 16.5t1.5 12.5t0.5 6q0 28 -37 28h-350l-156 -790h47q52 0 75.5 -19t23.5 -59q0 -13 -4 -41l-48 -246h-133l31 160q10 52 10 57q0 29 -24 29h-138z" />
<glyph unicode="&#x4f8;" horiz-adv-x="1675" d="M113 82q0 15 4 43l213 1102q10 48 10 59q0 27 -37 27h-88l25 127h151q54 0 79.5 -19.5t25.5 -62.5q0 -18 -7 -43l-88 -455h301q172 0 275.5 -92t103.5 -262q0 -150 -73.5 -267t-194.5 -178t-266 -61h-332q-54 0 -78 19.5t-24 62.5zM266 158q0 -31 39 -31h258 q158 0 263.5 100.5t105.5 274.5q0 113 -64.5 172t-185.5 59h-303l-103 -522q-10 -50 -10 -53zM784 1608l35 176h121l-37 -176h-119zM1090 1608l36 176h121l-35 -176h-122zM1223 82q0 19 6 43l256 1315h143l-244 -1247q-6 -24 -6 -35q0 -31 37 -31h88l-24 -127h-152 q-54 0 -79 19.5t-25 62.5z" />
<glyph unicode="&#x4f9;" horiz-adv-x="1394" d="M80 76q0 23 4 39l139 721q6 35 6 43q0 30 -36 30h-87l23 121h145q107 0 107 -82q0 -17 -4 -41l-55 -272h217q148 0 228.5 -68.5t80.5 -183.5q0 -169 -113.5 -276t-294.5 -107h-264q-51 0 -73.5 18t-22.5 58zM227 139q0 -30 33 -30h178q122 0 194.5 73.5t72.5 190.5 q0 70 -45.5 111.5t-139.5 41.5h-217l-67 -348q-9 -34 -9 -39zM594 1266l35 176h121l-37 -176h-119zM899 1266l37 176h121l-35 -176h-123zM979 125l176 905h141l-168 -864q-9 -45 35 -45h86l-22 -121h-146q-66 0 -90 29.5t-12 95.5z" />
<glyph unicode="&#x2000;" horiz-adv-x="905" />
<glyph unicode="&#x2001;" horiz-adv-x="1810" />
<glyph unicode="&#x2002;" horiz-adv-x="905" />
<glyph unicode="&#x2003;" horiz-adv-x="1810" />
<glyph unicode="&#x2004;" horiz-adv-x="603" />
<glyph unicode="&#x2005;" horiz-adv-x="452" />
<glyph unicode="&#x2006;" horiz-adv-x="301" />
<glyph unicode="&#x2007;" horiz-adv-x="301" />
<glyph unicode="&#x2008;" horiz-adv-x="226" />
<glyph unicode="&#x2009;" horiz-adv-x="362" />
<glyph unicode="&#x200a;" horiz-adv-x="100" />
<glyph unicode="&#x2010;" horiz-adv-x="835" d="M111 518l22 127h582l-25 -127h-579z" />
<glyph unicode="&#x2011;" horiz-adv-x="835" d="M111 518l22 127h582l-25 -127h-579z" />
<glyph unicode="&#x2012;" horiz-adv-x="835" d="M111 518l22 127h582l-25 -127h-579z" />
<glyph unicode="&#x2013;" horiz-adv-x="1282" d="M111 522l22 119h1024l-22 -119h-1024z" />
<glyph unicode="&#x2014;" horiz-adv-x="1689" d="M111 522l22 119h1434l-23 -119h-1433z" />
<glyph unicode="&#x2018;" horiz-adv-x="428" d="M207 1106l182 352h109l-146 -352h-145z" />
<glyph unicode="&#x2019;" horiz-adv-x="417" d="M213 1108l147 352h146l-182 -352h-111z" />
<glyph unicode="&#x201a;" horiz-adv-x="475" d="M-47 -184l147 352h146l-183 -352h-110z" />
<glyph unicode="&#x201c;" horiz-adv-x="669" d="M207 1106l182 352h109l-146 -352h-145zM449 1106l182 352h108l-145 -352h-145z" />
<glyph unicode="&#x201d;" horiz-adv-x="659" d="M213 1108l147 352h146l-182 -352h-111zM455 1108l147 352h146l-183 -352h-110z" />
<glyph unicode="&#x201e;" horiz-adv-x="716" d="M-47 -184l147 352h146l-183 -352h-110zM197 -184l145 352h145l-182 -352h-108z" />
<glyph unicode="&#x2026;" horiz-adv-x="1380" d="M18 0l31 164h156l-31 -164h-156zM498 0l30 164h160l-31 -164h-159zM979 0l31 164h159l-30 -164h-160z" />
<glyph unicode="&#x202f;" horiz-adv-x="362" />
<glyph unicode="&#x2039;" horiz-adv-x="679" d="M90 582l393 417h160l-410 -428l261 -413h-142z" />
<glyph unicode="&#x203a;" horiz-adv-x="679" d="M27 158l409 428l-260 413h141l263 -424l-392 -417h-161z" />
<glyph unicode="&#x205f;" horiz-adv-x="452" />
<glyph unicode="&#x20ac;" horiz-adv-x="1163" d="M47 535l19 102h114q6 96 31 190h-111l21 103h123q102 237 315 385.5t461 148.5q54 0 106.5 -7t78.5 -14l26 -7l-57 -123q-72 20 -158 20q-193 0 -360 -110t-255 -293h625l-41 -103h-627q-25 -86 -32 -190h583l-39 -102h-540q6 -122 56.5 -217t152 -153.5t241.5 -58.5 q46 0 94 7t72 15l25 7l6 -131q-88 -29 -205 -29q-257 0 -420 155t-172 405h-133z" />
<glyph unicode="&#x2122;" horiz-adv-x="2156" d="M262 1251v95q0 54 20.5 74t75.5 20h564q56 0 76 -20t20 -74v-95h-105v62q0 20 -20 20h-195v-790h-116v790h-193q-20 0 -20 -20v-62h-107zM1032 543v104h49q22 0 25 21l59 772h105l237 -514l29 -84h4q11 45 27 84l237 514h107l59 -772q3 -21 23 -21h51v-104h-88 q-55 0 -74 19t-24 75l-41 514l2 59h-4l-230 -499h-96l-229 499h-5l2 -59l-40 -514q-3 -56 -23.5 -75t-75.5 -19h-86z" />
<glyph unicode="&#x25fc;" horiz-adv-x="1034" d="M0 0v1034h1034v-1034h-1034z" />
</font>
</defs>
</svg>
