<svg height="512pt" viewBox="0 0 512.00038 512" width="512pt" xmlns="http://www.w3.org/2000/svg"><path d="m192.355469 333.671875c-3.898438 3.910156-3.898438 10.238281 0 14.140625 3.910156 3.910156 10.242187 3.910156 14.140625 0 3.910156-3.902344 3.910156-10.230469 0-14.140625-3.898438-3.902344-10.230469-3.902344-14.140625 0zm0 0"/><path d="m482.347656 171.03125 17.925782-17.914062c15.59375-15.597657 15.59375-40.972657 0-56.570313-5.152344-5.148437-11.371094-8.589844-17.949219-10.335937l10.878906-10.871094c15.628906-15.628906 15.640625-40.929688 0-56.566406-15.617187-15.632813-40.929687-15.648438-56.558594-.007813l-10.859375 10.851563c-1.789062-6.722657-5.3125-12.878907-10.363281-17.917969-15.597656-15.597657-40.972656-15.597657-56.566406-.003907l-71.300781 71.261719c-1.746094-6.589843-5.1875-12.820312-10.347657-17.980469-15.59375-15.59375-40.964843-15.59375-56.558593 0l-84.859376 84.855469c-27.683593 27.683594-44.117187 64.167969-46.542968 103.113281-15.3125 15.3125-63.371094 63.371094-80.453125 80.453126-11.722657 11.722656-11.726563 30.695312 0 42.417968 8.496093 8.5 113.03125 113.035156 127.277343 127.28125 11.71875 11.71875 30.695313 11.726563 42.417969 0 10.558594-10.558594 68.222657-68.222656 80.457031-80.457031 38.945313-2.421875 75.429688-18.859375 103.109376-46.539063l138.21875-138.140624c15.632812-15.632813 15.636718-40.933594 0-56.570313-5.046876-5.042969-11.207032-8.574219-17.925782-10.359375zm-459.414062 176.511719 21.210937-21.214844 21.214844 21.214844-28.28125 28.289062-14.144531-14.152343c-3.90625-3.90625-3.910156-10.226563 0-14.136719zm98.992187 113.136719-28.285156-28.289063 28.285156-28.28125 28.28125 28.28125zm-42.425781-42.429688-28.277344-28.28125 28.277344-28.285156 28.28125 28.28125zm84.847656 70.707031c-3.910156 3.90625-10.226562 3.90625-14.136718 0l-14.140626-14.140625 28.277344-28.285156 21.210938 21.210938zm321.785156-265.136719-138.21875 138.136719c-25.046874 25.046875-58.320312 39.570313-93.691406 40.898438-2.523437.09375-4.914062 1.140625-6.699218 2.921875l-47.820313 47.824218c-17.007813-17.011718-123.554687-123.554687-141.414063-141.414062l47.824219-47.824219c1.78125-1.78125 2.828125-4.175781 2.921875-6.695312 1.328125-35.375 15.851563-68.648438 40.894532-93.691407l84.859374-84.855468c7.796876-7.796875 20.480469-7.796875 28.277344 0s7.796875 20.484375 0 28.285156c-6.125 6.125-68.652344 68.652344-78.183594 78.183594-3.691406 3.683594-3.929687 9.589844-.546874 13.558594 24.058593 28.242187 32.125 66.425781 21.582031 102.144531-1.566407 5.296875 1.460937 10.859375 6.757812 12.421875 5.292969 1.5625 10.855469-1.460938 12.421875-6.761719 11.582032-39.230469 4.15625-80.996094-19.785156-113.511719 5.359375-5.355468 167.542969-167.464844 167.679688-167.597656 7.800781-7.800781 20.445312-7.84375 28.292968.003906 7.773438 7.757813 7.8125 20.339844.125 28.128906-.003906.003907-.007812.007813-.007812.011719-10.066406 10.058594-105.980469 105.921875-117.121094 117.058594-3.902344 3.902344-3.902344 10.234375 0 14.140625 3.90625 3.90625 10.238281 3.90625 14.144531 0l116.96875-116.898438c.097657-.097656.195313-.199218.292969-.304687l35.097656-35.078125c7.804688-7.8125 20.457032-7.820312 28.273438.003906 7.816406 7.816406 7.824218 20.464844.003906 28.285156-9.164062 9.15625-124.832031 124.757813-152.359375 152.265626-3.90625 3.902343-3.90625 10.234374-.003906 14.140624 3.902343 3.90625 10.234375 3.910157 14.140625.007813l117.011718-116.921875c7.792969-7.792969 20.480469-7.796875 28.277344 0 7.796875 7.800781 7.796875 20.488281 0 28.285156l-116.992187 116.914063-.003907.003906c-3.90625 3.902344-3.90625 10.234375-.003906 14.140625s10.234375 3.910156 14.140625.007812l74.582031-74.503906c7.796876-7.796875 20.480469-7.796875 28.277344 0 7.816406 7.820313 7.824219 20.464844.003906 28.285156zm0 0"/></svg>