<svg height="496pt" viewBox="0 0 496 496" width="496pt" xmlns="http://www.w3.org/2000/svg"><path d="m488 192h-24.199219c-4.226562-106.585938-92.199219-192-199.800781-192h-32c-107.601562 0-195.574219 85.414062-199.800781 192h-24.199219c-4.425781 0-8 3.574219-8 8v137.777344c0 42.261718 16.464844 82 46.34375 111.878906s69.617188 46.34375 111.878906 46.34375h179.554688c42.261718 0 82-16.464844 111.878906-46.34375s46.34375-69.617188 46.34375-111.878906v-137.777344c0-4.425781-3.574219-8-8-8zm-440 16h400v104c0 13.230469-10.769531 24-24 24h-352c-13.230469 0-24-10.769531-24-24zm32.40625-16c4.203125-80.089844 70.480469-144 151.59375-144h32c81.113281 0 147.390625 63.910156 151.59375 144zm151.59375-176h32c98.777344 0 179.59375 78.238281 183.800781 176h-16.199219c-4.226562-88.902344-77.664062-160-167.601562-160h-32c-89.9375 0-163.375 71.097656-167.59375 160h-16.207031c4.207031-97.761719 85.023437-176 183.800781-176zm-54.632812 464c3.304687-9.3125 12.199218-16 22.632812-16h96c10.433594 0 19.328125 6.6875 22.632812 16zm302.632812-142.222656c0 37.992187-14.800781 73.703125-41.65625 100.566406-26.863281 26.855469-62.574219 41.65625-100.566406 41.65625h-2.585938c-3.71875-18.230469-19.871094-32-39.191406-32h-96c-19.3125 0-35.472656 13.769531-39.191406 32h-2.585938c-37.992187 0-73.703125-14.800781-100.566406-41.65625-26.855469-26.863281-41.65625-62.574219-41.65625-100.566406v-129.777344h16v104c0 22.054688 17.945312 40 40 40h352c22.054688 0 40-17.945312 40-40v-104h16zm0 0"/><path d="m168 320h160c4.425781 0 8-3.574219 8-8v-32c0-4.425781-3.574219-8-8-8h-160c-4.425781 0-8 3.574219-8 8v32c0 4.425781 3.574219 8 8 8zm8-32h144v16h-144zm0 0"/></svg>