<?xml version="1.0" encoding="iso-8859-1"?>
<!-- Generator: Adobe Illustrator 19.0.0, SVG Export Plug-In . SVG Version: 6.00 Build 0)  -->
<svg version="1.1" id="Layer_1" xmlns="http://www.w3.org/2000/svg" xmlns:xlink="http://www.w3.org/1999/xlink" x="0px" y="0px"
	 viewBox="0 0 512.003 512.003" style="enable-background:new 0 0 512.003 512.003;" xml:space="preserve">
<g transform="translate(0 -1)">
	<g>
		<g>
			<path d="M138.339,325.446c0.1,0.022,0.202,0.031,0.302,0.056C137.919,325.318,137.885,325.318,138.339,325.446z"/>
			<path d="M512.003,291.006c0-0.852-0.123-1.661-0.343-2.419c-1.811-8.656-7.509-15.95-15.679-22.2
				c-5.517-4.22-10.958-7.135-14.801-8.752c-1.007-0.424-2.086-0.65-3.178-0.667c-1.412-0.022-4.129-0.102-7.964-0.276
				c-6.428-0.291-13.6-0.747-21.328-1.404c-18.609-1.581-37.198-4.045-54.87-7.528c-1.215-0.239-2.422-0.482-3.62-0.73
				c-1.678-0.347-3.35-0.7-5.01-1.066c-31.3-6.902-56.262-16.711-71.998-29.534c-0.092-0.075-0.187-0.129-0.28-0.2
				c-2.127-1.747-4.05-3.487-5.737-5.235c-0.097-0.102-0.196-0.203-0.292-0.305c-0.472-0.497-0.917-0.994-1.354-1.493
				c-0.13-0.149-0.267-0.295-0.395-0.445c-1.364-1.594-2.739-3.162-4.127-4.704c-18.481-20.532-38.336-35.721-58.249-46.36
				c-12.1-6.465-21.66-9.997-27.405-11.41c-2.899-0.713-5.961,0.141-8.072,2.253L190.236,165.6
				c-0.151,0.147-0.302,0.289-0.453,0.436c-4.979,4.819-10.116,9.404-15.577,13.92c-0.36,0.298-0.677,0.624-0.974,0.962
				c-50.259,41.583-91.486,42.039-124.608,18.011c-4.712-3.418-8.801-7.08-12.233-10.724c-2.005-2.129-3.306-3.721-3.875-4.507
				c-3.513-4.854-10.803-4.672-14.068,0.353C3.144,207.6-1.833,234.91,0.699,263.529c0.878,9.923,2.616,19.313,4.892,27.902
				c0.017,0.063,0.034,0.124,0.05,0.187C2.354,292.804,0,295.942,0,299.638v42.667c0,4.713,3.82,8.533,8.533,8.533H128
				c2.263,0,4.434-0.899,6.034-2.499l5.023-5.023c3.325,0.881,7.602,1.995,10.95,2.821c12.248,3.022,25.955,6.028,40.89,8.834
				c60.297,11.329,121.841,16.17,179.488,10.821c53.209-4.937,99.724-18.419,137.584-41.932c2.507-1.557,4.031-4.298,4.031-7.249
				v-25.402c0-0.026,0.003-0.049,0.003-0.075V291.006z M201.799,178.155c0.139-0.135,0.281-0.264,0.42-0.399l13.504-13.503
				c0.511,0.18,1.059,0.377,1.642,0.592c5.124,1.893,10.868,4.448,17.078,7.75l-10.073,10.073c-3.332,3.333-3.332,8.736,0,12.068
				s8.735,3.332,12.068,0l13.106-13.106c5.206,3.467,10.389,7.291,15.52,11.509l-15.099,15.123c-3.33,3.335-3.326,8.738,0.01,12.068
				c3.335,3.33,8.738,3.326,12.068-0.01l15.759-15.784c3.539,3.432,7.042,7.053,10.496,10.889c1.306,1.45,2.6,2.925,3.884,4.427
				c0.232,0.271,0.482,0.535,0.72,0.804c0.367,0.416,0.734,0.832,1.114,1.243c0.137,0.147,0.278,0.294,0.417,0.441
				c0.594,0.633,1.204,1.26,1.827,1.88c-0.15,0.125-0.297,0.253-0.448,0.375c-0.082,0.067-0.165,0.131-0.247,0.197
				c-12.163,9.721-28.66,12.534-43.546,7.144c-0.203-0.074-0.411-0.115-0.617-0.172c-4.545-1.719-8.891-4.197-12.84-7.471
				l-45.645-37.843C195.859,183.809,198.82,181.045,201.799,178.155z M300.284,242.326c0.043-0.026,0.085-0.052,0.128-0.079
				c0.53-0.332,1.057-0.671,1.578-1.021c0.066-0.044,0.132-0.091,0.198-0.136c0.86-0.581,1.706-1.186,2.541-1.813
				c0.285-0.214,0.568-0.429,0.849-0.648c0.365-0.284,0.729-0.569,1.089-0.862c0.575-0.469,1.143-0.949,1.703-1.44
				c0.261-0.229,0.518-0.465,0.776-0.7c0.176-0.16,0.355-0.315,0.529-0.477c17.183,11.61,40.667,20.379,69.116,26.871l-1.488,1.874
				c-10.238,12.815-21.658,25.574-34.002,37.924c-4.99,4.983-10.232,9.945-16.041,15.215c-36.602,0.394-76.311-2.193-119.126-8.123
				c10.987-18.898,25.888-39.158,43.641-59.146C268.159,253.993,285.772,251.375,300.284,242.326z M469.267,273.741
				c2.334,0.106,4.41,0.183,6.205,0.236c0.99,0.281,1.654,0.619,2.409,1.024c2.65,1.419,5.299,3.081,7.731,4.942
				c3.026,2.315,5.405,4.703,7.035,7.072c-1.052,0.496-2.22,1.03-3.504,1.6c-8.783,3.898-19.532,7.82-32.299,11.496
				c-30.204,8.698-64.892,14.418-104.168,16.439c0.904-0.887,1.803-1.773,2.692-2.66c15.586-15.594,29.741-31.831,42.044-48.078
				c16.236,2.932,33.047,5.055,49.855,6.483C455.227,272.97,462.622,273.441,469.267,273.741z M27.172,203.235
				c3.168,3.04,6.98,6.28,11.431,9.508c38.329,27.805,86.363,27.859,141.042-15.127l48.023,39.815c2.412,2,4.933,3.781,7.535,5.358
				c-18.617,21.482-34.072,43.232-45.184,63.511c-19.409-3.086-39.504-6.833-60.329-11.321c-12.411-2.667-25.317-3.972-38.559-3.972
				l-67.91,0.078c-0.364-1.223-0.751-2.588-1.132-4.026c-2.039-7.694-3.602-16.138-4.389-25.034
				C15.834,240.94,18.564,220.934,27.172,203.235z M494.933,311.803c-34.663,20.475-77.271,32.462-126.125,36.995
				c-55.852,5.183-115.894,0.46-174.76-10.601c-14.609-2.745-28.005-5.683-39.953-8.631c-5.607-1.384-14.072-3.645-15.756-4.121
				c-2.828-0.613-5.784,0.235-7.84,2.291l-6.034,6.034H17.067v-25.61l74.07-0.084c12.092,0,23.782,1.181,34.954,3.589
				c143.403,30.901,254.46,28.174,335.471,4.847c1.69-0.487,3.344-0.978,4.97-1.473c0.054-0.017,0.106-0.034,0.161-0.05
				c1.542-0.47,3.056-0.944,4.541-1.422c0.307-0.099,0.6-0.199,0.905-0.297c1.223-0.398,2.437-0.796,3.622-1.198
				c0.388-0.131,0.76-0.264,1.143-0.396c1.077-0.37,2.149-0.741,3.193-1.114c0.429-0.153,0.842-0.308,1.266-0.462
				c0.976-0.354,1.948-0.709,2.894-1.066c0.439-0.165,0.862-0.331,1.295-0.497c0.905-0.347,1.805-0.693,2.682-1.042
				c0.437-0.173,0.86-0.347,1.29-0.521c0.846-0.342,1.688-0.684,2.508-1.027c0.426-0.178,0.84-0.357,1.259-0.536
				c0.547-0.233,1.109-0.466,1.643-0.699V311.803z"/>
		</g>
	</g>
</g>
<g>
</g>
<g>
</g>
<g>
</g>
<g>
</g>
<g>
</g>
<g>
</g>
<g>
</g>
<g>
</g>
<g>
</g>
<g>
</g>
<g>
</g>
<g>
</g>
<g>
</g>
<g>
</g>
<g>
</g>
</svg>
