<svg height="400pt" viewBox="0 -35 400.04622 400" width="400pt" xmlns="http://www.w3.org/2000/svg"><path d="m394.898438 273.011719c-38.429688-57.488281-116.464844-69.582031-119.78125-70.070313-3.429688-.5-6.710938 1.578125-7.71875 4.894532l-2.546876 8.402343c-1.382812 4.699219-5.671874 7.941407-10.570312 8h-.203125c-16.550781-.320312-33.636719-7.914062-38.089844-16.917969-30.269531-61.179687-92.125-169.355468-166.324219-206.554687-2.152343-1.078125-4.710937-.976563-6.773437.273437-2.1875 1.332032-53.382813 33.597657-40.945313 126.605469.046876 43.328125 8 193.144531 8.089844 194.65625.199219 3.71875 3.269532 6.628907 6.992188 6.628907h26.355468c3.585938 0 6.59375-2.707032 6.964844-6.273438.097656-.914062 9.410156-87.503906 37.355469-134.769531 23.046875 23.171875 42 49.277343 58.851563 72.519531 27.757812 38.289062 49.691406 68.535156 77.078124 68.535156 11.601563 0 25.777344.027344 40.90625.058594 17.3125.039062 35.871094.074219 53.203126.074219 21.492187.207031 42.84375-3.515625 63-10.988281 8.566406-3.320313 15.160156-10.359376 17.914062-19.128907 2.753906-8.765625 1.371094-18.3125-3.765625-25.933593zm-347.78125-257.792969c71.597656 38.667969 132.988281 151.125 156.324218 198.28125 7.777344 15.726562 31.222656 24.328125 50.367188 24.707031 11.210937.082031 21.148437-7.203125 24.449218-17.917969l.71875-2.378906c2.042969.4375 4.625 1.035156 7.527344 1.777344-2.257812 8.191406-8.371094 22.53125-24 26.066406-15.753906 3.5625-49.957031-1.535156-61.976562-24.425781-13.175782-25.070313-81.480469-149.378906-163.761719-195.671875 3.070313-3.835938 6.539063-7.335938 10.351563-10.4375zm-9.960938 299.722656h-13.488281c-1.425781-27.328125-6.777344-131.785156-7.597657-177.316406.527344.226562 1.082032.402344 1.597657.644531.773437.335938 1.539062.695313 2.3125 1.042969 2.933593 1.335938 5.820312 2.726562 8.660156 4.175781.640625.332031 1.289063.644531 1.929687.980469 3.367188 1.78125 6.667969 3.648438 9.898438 5.601562.53125.320313 1.054688.671876 1.601562.996094 2.648438 1.632813 5.253907 3.324219 7.8125 5.066406.9375.636719 1.871094 1.28125 2.800782 1.933594 2.257812 1.585938 4.480468 3.210938 6.664062 4.875.847656.644532 1.695313 1.257813 2.539063 1.917969 2.820312 2.195313 5.585937 4.445313 8.292969 6.75 1.09375.929687 2.175781 1.921875 3.265624 2.875 1.308594 1.152344 2.605469 2.316406 3.890626 3.484375-26.5625 42.546875-37.414063 115.113281-40.179688 136.972656zm348.160156-20.226562c-1.496094 4.742187-5.070312 8.546875-9.707031 10.34375-18.519531 6.828125-38.128906 10.21875-57.863281 10-17.335938 0-35.886719-.035156-53.203125-.074219-15.128907-.042969-29.308594-.042969-40.910157-.042969-20.234374 0-41.320312-29.074218-65.734374-62.742187-26.539063-36.597657-58.136719-80-102.890626-109.457031-1.066406-.703126-2.128906-1.441407-3.199218-2.121094-1.808594-1.148438-3.675782-2.230469-5.527344-3.328125-1.78125-1.054688-3.5625-2.125-5.355469-3.117188-1.570312-.871093-3.171875-1.695312-4.769531-2.53125-2.144531-1.117187-4.300781-2.214843-6.46875-3.246093-1.496094-.714844-3.011719-1.40625-4.535156-2.085938-2.363282-1.066406-4.746094-2.074219-7.144532-3.023438-.894531-.359374-1.746093-.773437-2.652343-1.125-4.761719-40.726562 3.707031-67.863281 13.476562-84.902343 61.535157 34.152343 123.882813 123.160156 159.285157 190.574219 13.054687 24.875 42.769531 32.917968 63.820312 32.917968 4.582031.046875 9.15625-.402344 13.644531-1.34375 22.636719-5.125 31.199219-24.550781 34.351563-35.828125 25.046875 8.113281 61.6875 24.847657 83.316406 57.199219 2.769531 4.085938 3.53125 9.210938 2.066406 13.925781zm0 0"/></svg>